<svg id="b" xmlns="http://www.w3.org/2000/svg" xmlns:xlink="http://www.w3.org/1999/xlink" viewBox="0 0 2699.8 2699.8"><defs><radialGradient id="d" cx="1345.5" cy="1349.9" fx="1345.5" fy="1349.9" r="165.1" gradientUnits="userSpaceOnUse"><stop offset=".3" stop-color="#cebf8c"/><stop offset=".7" stop-color="#ffeaa9"/></radialGradient><radialGradient id="e" cx="-3129.6" cy="-4690.9" fx="-3129.6" fy="-4639.6" r="51.2" gradientTransform="rotate(135 -2130.566 -713.041)" gradientUnits="userSpaceOnUse"><stop offset=".3" stop-color="#a21008"/><stop offset=".7" stop-color="#e20917"/></radialGradient><radialGradient id="f" cx="-3129.8" cy="3019.6" fx="-3129.8" fy="3070.8" r="51.2" gradientTransform="scale(-1 1) rotate(45 -148.019 4369.289)" xlink:href="#e"/><radialGradient id="g" cx="-6047" cy="224.8" fx="-6047" fy="276.1" r="51.2" gradientTransform="rotate(-135 -2130.34 -712.505)" xlink:href="#e"/><radialGradient id="h" cx="-6047.2" cy="-1896.1" fx="-6047.2" fy="-1844.9" r="51.2" gradientTransform="scale(-1 1) rotate(-45 149.313 -5917.447)" xlink:href="#e"/><radialGradient id="i" cx="1345.5" cy="1288.6" fx="1345.5" fy="1339.8" r="51.2" xlink:href="#e"/><radialGradient id="j" cx="1345.3" cy="-2959.9" fx="1345.3" fy="-2908.7" r="51.2" gradientTransform="matrix(1 0 0 -1 0 -1548.7)" xlink:href="#e"/><radialGradient id="k" cx="-67.5" cy="-4250.3" fx="-67.5" fy="-4199" r="51.2" gradientTransform="rotate(90 -2130.55 -713.05)" xlink:href="#e"/><radialGradient id="l" cx="-67.8" cy="2578.9" fx="-67.8" fy="2630.2" r="51.2" gradientTransform="matrix(0 1 1 0 -1294.9 1417.5)" xlink:href="#e"/><style>.m{fill:#20a537}.aa,.ac,.m,.n,.s,.v,.w,.y,.z{stroke-width:0}.n{fill:#e42923}.s{fill:#fcc31e}.ae,.ag{stroke:#1d1d1b;stroke-miterlimit:10}.v{fill:#57925d}.w{fill:#ffeaab}.ae{fill:#fff}.y{fill:#fcc31c}.z{fill:#1d1d1b}.aa{fill:#60b463}.ac{fill:#20aeb7}</style></defs><g id="c"><path d="M1510.6 1349.9c-16.4-25.6-34.1-40.1-52.6-46.6 8.5-17.7 10.7-40.5 4.3-70.1-26.6-7.1-50-6-70.1 4.1-7-21.4-22.8-38.7-46.6-52.5-25.6 16.4-40.1 34.1-46.6 52.6-17.7-8.5-40.5-10.7-70.1-4.3-7.1 26.6-6 50.1 4.2 70.2-18.5 6.5-36.1 21-52.5 46.5 13.7 23.8 31.1 39.6 52.5 46.6-10.1 20.1-11.2 43.5-4.1 70.1 29.7 6.5 52.4 4.3 70.1-4.3 6.5 18.6 21 36.2 46.6 52.6 23.8-13.7 39.6-31.1 46.6-52.5 20.1 10.1 43.5 11.2 70.1 4.1 6.5-29.6 4.3-52.3-4.2-70 21.4-7 38.8-22.8 52.6-46.7Z" style="stroke:#1d1d1b;stroke-miterlimit:10;fill:url(#d);stroke-width:7px"/><path d="M1424.2 1430c-6.4-31.6-20.9-55.5-43-72.2-9.7-7.3-21.8-7.4-28.8-.5-7.3 7.3-6.8 20.2 1.3 29.9 18.1 21.7 42 35.4 70.5 42.7Z" style="fill:url(#e);stroke-width:0"/><path class="z" d="M1424.2 1430c-7.5-27.3-21.8-52.8-45-69.5-14.2-10.5-32.7-2.9-27.7 16 1.9 6.6 7.1 11.6 11.5 16.5 16.7 17.6 38.3 29.3 61.1 37Zm0 0c-25.5-4.5-50-16.5-68.1-35.3-2.2-2.2-4.4-4.7-6.3-7.1-2-2.7-3.6-5.8-4.7-9.1-7.1-24.1 17-37.9 36.5-24.4 24.5 17.7 39.1 46.3 42.7 75.9Z"/><path d="M1265.5 1270.8c31.6 6.4 55.5 20.9 72.2 43 7.3 9.7 7.4 21.8.5 28.8-7.3 7.3-20.2 6.8-29.9-1.3-21.7-18.1-35.4-42-42.7-70.5Z" style="fill:url(#f);stroke-width:0"/><path class="z" d="M1265.5 1270.8c29.6 3.6 58.2 18.2 75.9 42.7 13.4 19.5-.3 43.6-24.4 36.5-3.9-1.3-7.5-3.3-10.6-5.9-1.9-1.6-3.8-3.3-5.6-5.1-18.8-18.1-30.8-42.6-35.3-68.1Zm0 0c7.7 22.8 19.4 44.4 37 61.1 4.9 4.5 9.9 9.6 16.5 11.5 18.9 5.1 26.5-13.5 16-27.7-16.7-23.2-42.3-37.5-69.5-45Z"/><path d="M1265.3 1429.8c31.6-6.4 55.5-20.9 72.2-43 7.3-9.7 7.4-21.8.5-28.8-7.3-7.3-20.2-6.8-29.9 1.3-21.7 18.1-35.4 42-42.7 70.5Z" style="fill:url(#g);stroke-width:0"/><path class="z" d="M1265.3 1429.8c27.3-7.5 52.8-21.8 69.5-45 10.5-14.2 2.9-32.7-16-27.7-6.6 1.9-11.6 7.1-16.5 11.5-17.6 16.7-29.3 38.3-37 61.1Zm0 0c4.5-25.5 16.5-50 35.3-68.1 2.2-2.2 4.7-4.4 7.1-6.3 2.7-2 5.8-3.6 9.1-4.7 24.1-7.1 37.9 17 24.4 36.5-17.7 24.5-46.3 39.1-75.9 42.7Z"/><path d="M1424.4 1271c-6.4 31.6-20.9 55.5-43 72.2s-21.8 7.4-28.8.5c-7.3-7.3-6.8-20.2 1.3-29.9 18.1-21.7 42-35.4 70.5-42.7Z" style="fill:url(#h);stroke-width:0"/><path class="z" d="M1424.4 1271c-3.6 29.6-18.2 58.2-42.7 75.9-19.5 13.4-43.6-.3-36.5-24.4 1.3-3.9 3.3-7.5 5.9-10.6 1.6-1.9 3.3-3.8 5.1-5.6 18.1-18.8 42.6-30.8 68.1-35.3Zm0 0c-22.8 7.7-44.4 19.4-61.1 37-4.5 4.9-9.6 9.9-11.5 16.5-5.1 18.9 13.5 26.5 27.7 16 23.2-16.7 37.5-42.3 45-69.5Z"/><path d="M1346.3 1237.5c-17.8 26.9-24.5 54.1-20.6 81.5 1.7 12 10.2 20.7 20 20.7 10.3 0 19.1-9.5 20.2-22.1 2.5-28.1-4.7-54.7-19.6-80.1Z" style="fill:url(#i);stroke-width:0"/><path class="z" d="M1346.3 1237.5c-14 24.5-22 52.8-17.4 80.9 2.6 17.5 21.1 25.2 30.9 8.2 1.5-2.8 2.4-6 2.8-9.2.2-2.2.4-4.8.5-7.1 1.5-25.4-5.7-50.3-16.9-72.9Zm0 0c14.9 21.2 23.7 47 23.2 73.1 0 2.5-.2 5.1-.3 7.5-.4 4.1-1.5 8.1-3.3 11.7-12 22.1-38.8 14.8-43.1-8.5-4.8-29.8 5.1-60.4 23.5-83.9Z"/><path d="M1346 1462.3c-17.8-26.9-24.5-54.1-20.6-81.5s10.2-20.7 20-20.7c10.3 0 19.1 9.5 20.2 22.1 2.5 28.1-4.7 54.7-19.6 80.1Z" style="fill:url(#j);stroke-width:0"/><path class="z" d="M1346 1462.3c-18.4-23.5-28.3-54.1-23.5-83.9 4.3-23.3 31.1-30.6 43.1-8.5 1.9 3.7 3 7.7 3.3 11.7.2 2.5.3 5.1.3 7.5.5 26.1-8.4 51.9-23.2 73.1Zm0 0c11.2-22.6 18.4-47.5 16.9-72.9 0-2.3-.3-4.8-.5-7.1-.4-3.2-1.3-6.4-2.8-9.2-9.8-17-28.3-9.2-30.9 8.2-4.6 28.2 3.4 56.4 17.4 81Z"/><path d="M1457.8 1350.8c-26.9-17.8-54.1-24.5-81.5-20.6-12 1.7-20.7 10.2-20.7 20 0 10.3 9.5 19.1 22.1 20.2 28.1 2.5 54.7-4.7 80.1-19.6Z" style="fill:url(#k);stroke-width:0"/><path class="z" d="M1457.8 1350.8c-24.5-14-52.8-22-81-17.4-17.5 2.6-25.2 21.1-8.2 30.9 2.8 1.5 6 2.4 9.2 2.8 2.2.2 4.8.5 7.1.5 25.4 1.5 50.3-5.7 72.9-16.9Zm0 0c-21.2 14.9-47 23.7-73.1 23.2-2.5 0-5.1-.2-7.5-.3-4.1-.4-8.1-1.5-11.7-3.3-22.1-12-14.8-38.8 8.5-43.1 29.8-4.8 60.4 5.1 83.9 23.5Z"/><path d="M1233 1350.5c26.9-17.8 54.1-24.5 81.5-20.6 12 1.7 20.7 10.2 20.7 20 0 10.3-9.5 19.1-22.1 20.2-28.1 2.5-54.7-4.7-80.1-19.6Z" style="fill:url(#l);stroke-width:0"/><path class="z" d="M1233 1350.5c23.5-18.4 54.1-28.3 83.9-23.5 23.3 4.3 30.6 31.1 8.5 43.1-3.7 1.9-7.7 3-11.7 3.3-2.5.2-5.1.3-7.5.3-26.1.5-51.9-8.4-73.1-23.2Zm0 0c22.6 11.2 47.5 18.4 72.9 16.9 2.3 0 4.8-.3 7.1-.5 3.2-.4 6.4-1.3 9.2-2.8 17-9.8 9.2-28.3-8.2-30.9-28.2-4.6-56.4 3.4-80.9 17.4Z"/><circle cx="1345.5" cy="1349.9" r="11.8" style="fill:#1d1d1b;stroke:#1d1d1b;stroke-miterlimit:10"/><path class="y" d="M943.1 662.3c-70.4-76.6-170.3-108.8-299.6-97l46.1-34.1c49.5-36.6 118.9-28.1 158.1 19.2S943 662.3 943 662.3Z"/><path class="z" d="M943.1 662.3c-47.4-48.8-111-79.6-178-89.5-45.7-7.4-92.6-5.8-138.6-1 7.9-5.9 25.1-18.7 33.2-24.7l19.1-14.1c5.6-4.1 11.4-8.6 17.4-12.1 36.2-22.1 84.1-22.7 120.7-1.4 14.3 8.1 26.4 19.3 36.5 32.2 30.4 36.6 58.9 74.6 89.7 110.6Zm0 0c-20.6-24.4-42.7-48.5-64.1-71.8-11.8-12.9-23.3-25.8-34.8-38.9-3.8-4.3-7.9-8.4-12.3-12.1-40.8-34.4-100.7-35.2-142.4-2.1-11.8 8.7-31.1 23.1-43 31.8l-3.4-8.9c111.4-10.5 224.8 13.4 300 101.9Z"/><path class="y" d="M940.5 658.9c-63.5-69.1-153.6-98.1-270.1-87.5l41.6-30.8c44.6-33 107.2-25.4 142.6 17.3s85.9 100.9 85.9 100.9Z"/><path class="z" d="M940.5 658.9c-34.3-34.8-77.8-60.1-125-72.7-52.7-14.5-108.2-14.1-162.1-8.2 7.6-5.7 23.6-17.5 31.3-23.3 9.6-6.8 23.1-17.6 33-23.7 32.7-20 76.1-20.5 109.3-1.2 12.9 7.3 23.9 17.5 33 29.1 27.4 33.1 52.8 67.5 80.6 99.9Zm0 0c-27.7-32.9-57.7-63.6-86-95.7-4.5-5.1-9.2-10.4-14.5-14.8-36.6-30.8-90.4-31.5-127.9-1.7-10.6 7.9-28.1 20.8-38.7 28.6l-3.4-8.9c100.5-9.4 203 12.3 270.5 92.4Z"/><path class="y" d="M943.1 662.1C887 601 807.3 575.4 704.3 584.7l36.8-27.2c39.4-29.2 94.8-22.4 126.1 15.3s76 89.2 76 89.2Z"/><path class="z" d="M943.1 662.1c-38.1-38.5-88.7-62.8-142.1-70.5-37.5-6-76.1-4.3-113.8-.3 7.3-5.4 22-16.4 29.3-21.8l15.3-11.2c5.2-3.8 10.5-7.9 16.1-11 28.8-16.7 66.3-16.5 95 .2 11.5 6.5 21.2 15.6 29.3 25.9 24.1 29.3 46.4 60 71 88.6Zm0 0c-24.5-29.1-51.3-56.1-76.4-84.4-4-4.5-8.1-9.2-12.8-13-32.2-27-79.6-27.6-112.5-1.4-9.4 7-24.8 18.4-34.3 25.3l-3.4-8.9c88.9-8.3 179.9 11.1 239.3 82.3Z"/><circle class="n" cx="962.1" cy="433" r="18.9"/><path class="z" d="M948.7 446.3c-9.7-9.4-6.8-26.4 5.6-32.1 16.8-7.8 34.3 9.6 26.5 26.5-5.8 12.4-22.6 15.3-32.1 5.6Zm0 0c11.6 11.5 31.1 2.8 30.5-13.3-.2-9.1-8-16.9-17.1-17.2-16.2-.6-24.8 18.9-13.3 30.5Z"/><circle class="n" cx="999.3" cy="379.4" r="18.9"/><path class="z" d="M985.9 366c9.5-9.7 26.3-6.8 32.1 5.6 7.8 16.8-9.6 34.3-26.5 26.5-12.4-5.8-15.3-22.6-5.6-32.1Zm0 0c-11.5 11.6-2.8 31.1 13.3 30.5 9.1-.2 16.9-8 17.2-17.1.6-16.2-18.9-24.8-30.5-13.3Z"/><circle class="n" cx="927.5" cy="379.4" r="18.9"/><path class="z" d="M946.4 379.4c.2 13.5-13.8 23.5-26.6 18.7-17.4-6.4-17.4-31 0-37.5 12.8-4.7 26.8 5.2 26.6 18.7Zm0 0c0-16.3-20-24-31-12.1-6.3 6.6-6.3 17.6 0 24.3 11 11.9 30.9 4.2 31-12.1ZM886.2 469.4c-3.4 46.3 15.2 91.6 43.4 127.8 9.5 12.4 20 24 31.1 35-11.9-10.2-23.2-21.2-33.6-33-21-23.8-38.2-51.4-47-82.3-4.5-15.5-6.8-31.7-6.9-47.9l13 .4Z"/><path class="m" d="M877.9 475.8c33.1-19.1 66.2-19.1 99.3 0-33.1 12.8-66.2 12.8-99.3 0Z"/><path class="z" d="M877.6 475.8c2.7-1.9 5.4-4.3 8.4-5.8 4.6-2.9 9.9-5.4 15-7.4 16-6.1 33.8-7.2 50.5-3.1 13.8 3 26.7 10.4 38.7 17.4-6.8 2.4-16.6 6-23.5 8-29.4 8.5-62.2 5.8-89.1-9.1Zm.6 0c33.5 12 65.5 12.4 98.8-.5v1.1c-33.1-19.2-65.4-18.9-98.7-.5Z"/><path class="m" d="M879.3 477.2c-20.9-31.9-25.8-62.3 0-89.8 24.2 29.9 24.2 59.8 0 89.8Z"/><path class="z" d="M879.3 477.5c-17-18.9-28.3-46.7-18.2-71.6 4-10.4 11.1-18.9 18.6-26.8l3.9 5c13.9 17.3 22.5 39.1 16.1 61.3-3.5 12.4-11.1 23.6-20.3 32.2Zm0-.6c23.5-30.2 23.7-59.2-.5-89.1h.9c-26.8 28.3-19.5 58.9-.4 89.1Z"/><path class="n" d="M860.1 514.9c-28.5-31.1-39.9-73.9-34.4-128.2-56.3 6-88.7 36.2-93.9 93.9 44.3-12.9 86.6 5.4 128.2 34.4Z"/><path class="z" d="M860.1 514.9c-32.7-33.6-40.8-83.2-36.1-128.4l2 1.9c-55.2 5.8-87.3 36.5-92.3 92.2l-2.3-1.9 8.5-2.1c43.8-8.9 85.9 13 120.2 38.1Zm0 0c-36.9-24.7-82.8-46.6-127.7-32.6l-2.5.7c1-13.2 3.3-26.3 8.1-38.8 14.4-38.8 50.4-56.4 89.7-59.5-5.5 45.4.9 94.9 32.4 130.2Z"/><path class="ac" d="M844.2 498.9c-23.9-26.2-33.6-62.1-28.9-107.9-47.4 5-74.6 30.4-79 79 37.2-10.9 72.8 4.5 107.9 28.9Z"/><path class="z" d="M844.2 498.9c-27.7-28.2-34.6-70-30.7-108l2 1.9c-46.3 5-73.2 30.6-77.4 77.3l-2.3-1.9 7.2-1.7c36.8-7.4 72.4 11 101.2 32.3Zm0 0c-31.1-20.6-69.6-38.9-107.4-27.2l-2.5.8c.8-11.2 2.7-22.5 6.9-33.1 12.3-33 42.7-47.7 76.1-50.3-4.7 38.3.5 80 26.9 109.8Z"/><path class="s" d="M830.7 485.5c-20.1-22-28.2-52.3-24.3-90.7-39.9 4.2-62.8 25.6-66.4 66.4 31.3-9.2 61.3 3.8 90.7 24.3Z"/><path class="z" d="M830.7 485.5c-23.4-23.6-29.4-58.9-26.1-90.9l2 1.9c-38.8 4.2-61.3 25.6-64.8 64.8l-2.3-1.9 6.1-1.5c31.1-6.2 61 9.4 85.2 27.5Zm0 0c-26.2-17.2-58.6-32.5-90.2-22.6l-2.5.8c.7-9.6 2.2-19.3 5.8-28.4 10.4-28 36.3-40.4 64.6-42.5-4 32.3.2 67.4 22.3 92.7Z"/><path class="w" d="M819.4 474.2c-16.9-18.5-23.8-44-20.5-76.3-33.5 3.6-52.8 21.5-55.9 55.9 26.4-7.7 51.5 3.2 76.3 20.5Z"/><path class="z" d="M819.4 474.2c-19.9-19.8-25-49.5-22.2-76.5l2 1.9c-21.8 2.4-41.4 12.1-49.5 33.6-2.6 6.6-4 13.6-4.8 20.6l-2.3-1.9c27.9-8 55 5.6 76.8 22.2Zm0 0c-22.1-14.3-49.3-27.1-75.8-18.7l-2.5.8.2-2.6c1.2-14.8 6-30 16.8-40.7 11.4-11.2 27.4-15.8 42.9-17.1-3.4 27.3-.1 56.8 18.5 78.3Z"/><path class="n" d="M1073.3 485.4c-31.1 28.5-73.9 39.9-128.2 34.4 6 56.3 36.2 88.7 93.9 93.9-12.9-44.3 5.4-86.6 34.4-128.2Z"/><path class="z" d="M1073.3 485.4c-33.6 32.7-83.2 40.8-128.4 36.1l1.9-2c5.8 55.2 36.5 87.3 92.2 92.3l-1.9 2.3-2.1-8.5c-8.9-43.8 13-85.9 38.1-120.2Zm0 0c-24.7 36.9-46.6 82.8-32.6 127.7l.7 2.5c-13.2-1-26.3-3.3-38.8-8.1-38.8-14.4-56.4-50.4-59.5-89.7 45.4 5.5 94.9-.9 130.2-32.4Z"/><path class="ac" d="M1051.6 507.1c-24.4 22.3-57.9 31.3-100.5 26.9 4.7 44.2 28.4 69.6 73.6 73.6-10.1-34.7 4.2-67.9 26.9-100.5Z"/><path class="z" d="M1051.6 507.1c-26.2 25.9-65.3 32.4-100.7 28.7l1.9-2c4.6 43.1 28.5 68.1 72 72l-1.9 2.3-1.6-6.7c-6.9-34.4 10.3-67.5 30.3-94.4Zm0 0c-19.1 29-36.2 64.9-25.2 100l.8 2.5c-10.5-.8-21.1-2.5-31.1-6.4-30.9-11.5-44.6-40-47-71.2 35.7 4.4 74.6-.4 102.5-24.9Z"/><path class="s" d="M1034.6 524.1c-19.1 17.5-45.4 24.5-78.9 21.1 3.7 34.6 22.2 54.6 57.7 57.7-8-27.2 3.3-53.2 21.1-78.9Z"/><path class="z" d="M1034.6 524.1c-20.4 20.5-51.2 25.7-79 22.9l1.9-2c2.5 22.5 12.5 42.9 34.8 51.2 6.8 2.6 14 4.2 21.3 4.9l-1.9 2.3c-8.3-28.8 5.8-56.8 22.8-79.4Zm0 0c-14.8 22.8-28 50.9-19.4 78.4l.8 2.5-2.6-.2c-15.2-1.2-30.9-6.2-42-17.3-11.6-11.7-16.3-28.2-17.6-44.2 28.2 3.5 58.6 0 80.8-19.1Z"/><path class="w" d="M1021.3 537.4c-15 13.7-35.6 19.3-61.8 16.6 2.9 27.2 17.4 42.8 45.3 45.3-6.2-21.4 2.6-41.8 16.6-61.8Z"/><path class="z" d="M1021.3 537.4c-15.9 16.3-40.1 20.5-62 18.3l1.9-2c2 17.5 9.8 33.3 27 39.8 5.3 2.1 10.9 3.3 16.6 3.9l-1.9 2.3c-6.5-22.5 4.7-44.9 18.3-62.3Zm0 0c-12 19.1-22.2 41.2-14.1 63.8-12.9-.7-26.4-4.4-35.8-13.9-9.3-9.4-12.9-22.6-13.9-35.4 22.3 2.9 46.1.4 63.8-14.6Z"/><path class="y" d="M1037.3 490c-32.8-134.8 172.7-120.8 231.4-190.5 33.8 142-167.6 125.2-231.4 190.5Z"/><path class="z" d="M1037.3 490c-29-86.4 53.3-120.1 119.4-144.3 34-13.4 78.9-26.1 103.2-53.6l14.8-17.6c7.4 30.8 15.1 59.4 2.5 90.3-25.1 60.8-109.5 74.3-165.5 91.5-26.1 7.8-53 16-74.4 33.6Zm0 0c51-62.8 213.9-62.7 223.2-150.6 1.4-12-.1-24.7-3-37.2l20 4.7c-10 11.7-22.5 20.5-35.7 27.6-36.9 19.5-78.2 29-117.1 43.1-55.7 19.9-97.9 45.8-87.3 112.3Z"/><path class="y" d="M1776.2 662.3c70.4-76.6 170.3-108.8 299.6-97l-46.1-34.1c-49.5-36.6-118.9-28.1-158.1 19.2s-95.3 111.9-95.3 111.9Z"/><path class="z" d="M1776.2 662.3c75.2-88.6 188.6-112.4 300-101.9l-3.4 8.9c-11.9-8.7-31.2-23-43-31.8-41.8-33.2-101.7-32.4-142.4 2.1-4.4 3.7-8.5 7.8-12.3 12.1-11.5 13.1-23.1 26-34.8 38.9-21.4 23.3-43.5 47.4-64.1 71.8Zm0 0c30.8-36 59.3-74 89.7-110.6 10.1-12.9 22.2-24.1 36.5-32.2 36.6-21.3 84.5-20.7 120.7 1.4 6 3.6 11.8 8.1 17.4 12.1l19.1 14.1c7.9 5.9 25.3 18.8 33.2 24.6-46-4.8-92.8-6.4-138.6 1-67 9.9-130.6 40.7-178 89.5Z"/><path class="y" d="M1778.7 658.9c63.5-69.1 153.6-98.1 270.1-87.5l-41.6-30.8c-44.6-33-107.2-25.4-142.6 17.3s-85.9 100.9-85.9 100.9Z"/><path class="z" d="M1778.7 658.9c67.5-80.1 170.1-101.8 270.5-92.4l-3.4 8.9c-10.8-7.8-28.1-20.8-38.7-28.6-37.4-29.8-91.3-29.1-127.9 1.7-5.3 4.3-10 9.6-14.5 14.8-28.3 32.1-58.3 62.8-86 95.7Zm0 0c27.7-32.4 53.2-66.9 80.6-99.9 9.1-11.6 20.1-21.8 33-29.1 33.1-19.3 76.5-18.8 109.3 1.2 9.8 6.1 23.5 16.9 33 23.7 7.6 5.7 23.7 17.6 31.3 23.3-54-5.9-109.5-6.3-162.1 8.2-47.2 12.7-90.7 37.9-125 72.7Z"/><path class="y" d="M1776.2 662.1c56.1-61.1 135.8-86.7 238.8-77.4l-36.8-27.2c-39.4-29.2-94.8-22.4-126.1 15.3s-76 89.2-76 89.2Z"/><path class="z" d="M1776.2 662.1c59.4-71.2 150.4-90.6 239.3-82.3l-3.4 8.9c-9.5-6.9-24.9-18.4-34.3-25.3-32.9-26.2-80.3-25.6-112.5 1.4-4.7 3.8-8.9 8.4-12.8 13-25.1 28.3-51.8 55.3-76.4 84.4Zm0 0c24.5-28.7 46.8-59.4 71-88.6 8.1-10.4 17.8-19.4 29.3-25.9 28.7-16.8 66.2-16.9 95-.2 5.6 3.1 11 7.2 16.1 11l15.3 11.2c7.2 5.4 22.1 16.4 29.3 21.8-37.7-4-76.3-5.7-113.8.3-53.4 7.7-104 32-142.1 70.5Z"/><circle class="n" cx="1757.2" cy="433" r="18.9"/><path class="z" d="M1770.6 446.3c11.5-11.6 2.9-31.1-13.3-30.5-9.1.2-16.9 8-17.1 17.2-.6 16.2 18.9 24.8 30.5 13.3Zm0 0c-9.4 9.7-26.4 6.8-32.1-5.6-7.8-16.8 9.7-34.3 26.5-26.5 12.4 5.8 15.3 22.6 5.6 32.1Z"/><circle class="n" cx="1720" cy="379.4" r="18.9"/><path class="z" d="M1733.4 366c-11.6-11.5-31.1-2.9-30.5 13.3.2 9.1 8 16.9 17.2 17.1 16.2.6 24.8-18.9 13.3-30.5Zm0 0c9.7 9.4 6.8 26.4-5.6 32.1-16.8 7.8-34.3-9.7-26.5-26.5 5.8-12.4 22.6-15.3 32.1-5.6Z"/><circle class="n" cx="1791.8" cy="379.4" r="18.9"/><path class="z" d="M1772.9 379.4c0 16.3 20 24 31 12.1 6.3-6.6 6.3-17.6 0-24.3-11-11.9-30.9-4.2-31 12.1Zm0 0c-.2-13.5 13.8-23.5 26.6-18.7 17.4 6.4 17.4 31 0 37.5-12.8 4.7-26.8-5.2-26.6-18.7ZM1846.1 469c.5 65.4-39.2 122.5-87.5 163.2 11.1-11 21.6-22.7 31.1-35 28.2-36.2 46.8-81.5 43.4-127.8l13-.4Z"/><path class="m" d="M1841.4 475.8c-33.1-19.1-66.2-19.1-99.3 0 33.1 12.8 66.2 12.8 99.3 0Z"/><path class="z" d="M1841.1 475.8c-3-1.3-6-2.1-9-3.2-6-2.2-12.3-4-18.5-5.1-23.8-4.8-48 .8-68.8 13l-.8-9.7 5.8 2.1c25.7 9 52.4 10.6 79.1 5.3l6.2-1.3c2-.4 4-.6 6.1-1.2Zm.6 0c-31.6 13.2-68 13-99.9.5l-1.2-.4 1.1-.6c32.5-19 67.7-19.1 99.9.5Z"/><path class="m" d="M1840 477.2c20.9-31.9 25.8-62.3 0-89.8-24.2 29.9-24.2 59.8 0 89.8Z"/><path class="z" d="M1839.9 476.9c1.6-3.8 3.3-7.3 4.8-11.1 11.7-27.1 12.9-52.2-8.8-74.7l8.1-.3c-15.5 18.8-23 40.7-14.6 64.3 2.6 7.7 6.3 14.6 10.4 21.7Zm0 .6c-24.7-29.5-24.6-60.7-.5-90.4l.4-.5.5.5c26.7 28.2 19.9 60.9-.4 90.5Z"/><path class="n" d="M1859.2 514.9c28.5-31.1 39.9-73.9 34.4-128.2 56.3 6 88.7 36.2 93.9 93.9-44.3-12.9-86.6 5.4-128.2 34.4Z"/><path class="z" d="M1859.2 514.9c31.4-35.3 37.8-84.8 32.4-130.2 39.3 3.1 75.3 20.7 89.7 59.5 4.8 12.4 7.1 25.6 8.1 38.8l-2.5-.7c-45-13.9-90.8 8-127.7 32.6Zm0 0c34.3-25.1 76.5-47 120.2-38.1l8.5 2.1-2.3 1.9c-4.9-55.7-37.1-86.4-92.3-92.2l2-1.9c4.7 45.1-3.4 94.8-36.1 128.4Z"/><path class="ac" d="M1875.1 498.9c23.9-26.2 33.6-62.1 28.9-107.9 47.4 5 74.6 30.4 79 79-37.2-10.9-72.8 4.5-107.9 28.9Z"/><path class="z" d="M1875.1 498.9c26.4-29.9 31.6-71.5 26.9-109.8 33.3 2.6 63.9 17.3 76.1 50.3 4.1 10.6 6 21.9 6.9 33.1l-2.5-.8c-37.7-11.7-76.3 6.6-107.4 27.2Zm0 0c28.8-21.3 64.4-39.8 101.2-32.3l7.2 1.7-2.3 1.9c-4.2-46.8-31.1-72.4-77.4-77.3l2-1.9c3.9 38-3 79.9-30.7 108Z"/><path class="s" d="M1888.6 485.5c20.1-22 28.2-52.3 24.3-90.7 39.9 4.2 62.8 25.6 66.4 66.4-31.3-9.2-61.3 3.8-90.7 24.3Z"/><path class="z" d="M1888.6 485.5c22.1-25.3 26.3-60.4 22.3-92.7 28.3 2.1 54.2 14.5 64.6 42.5 3.6 9.1 5.1 18.8 5.8 28.4l-2.5-.8c-31.7-9.9-64 5.4-90.2 22.6Zm0 0c24.2-18.1 54.1-33.7 85.2-27.5l6.1 1.5-2.3 1.9c-3.6-39.2-26.1-60.6-64.8-64.8l2-1.9c3.3 32-2.6 67.3-26.1 90.9Z"/><path class="w" d="M1899.8 474.2c16.9-18.5 23.8-44 20.5-76.3 33.5 3.6 52.8 21.5 55.9 55.9-26.4-7.7-51.5 3.2-76.3 20.5Z"/><path class="z" d="M1899.8 474.2c18.6-21.5 21.9-51 18.5-78.3 24.1 1.8 46.1 12.1 54.9 36 3.1 7.8 4.3 16.1 4.9 24.4l-2.5-.8c-26.6-8.3-53.8 4.5-75.8 18.7Zm0 0c21.8-16.6 49-30.2 76.8-22.2l-2.3 1.9c-.7-7.1-2.2-14.1-4.8-20.6-8.1-21.5-27.7-31.2-49.5-33.6l2-1.9c2.7 27-2.3 56.8-22.2 76.5Z"/><path class="n" d="M1645.9 485.4c31.1 28.5 73.9 39.9 128.2 34.4-6 56.3-36.2 88.7-93.9 93.9 12.9-44.3-5.4-86.6-34.4-128.2Z"/><path class="z" d="M1645.9 485.4c35.3 31.4 84.8 37.8 130.2 32.4-3.1 39.3-20.7 75.3-59.5 89.7-12.4 4.8-25.6 7.1-38.8 8.1l.7-2.5c13.9-45-8-90.8-32.6-127.7Zm0 0c25.1 34.3 47 76.5 38.1 120.2l-2.1 8.5-1.9-2.3c55.7-4.9 86.4-37.1 92.2-92.3l1.9 2c-45.1 4.7-94.8-3.4-128.4-36.1Z"/><path class="ac" d="M1667.6 507.1c24.4 22.3 57.9 31.3 100.5 26.9-4.7 44.2-28.4 69.6-73.6 73.6 10.1-34.7-4.2-67.9-26.9-100.5Z"/><path class="z" d="M1667.6 507.1c27.9 24.6 66.8 29.3 102.5 24.9-2.4 31.2-16.1 59.7-47 71.2-10 3.9-20.6 5.6-31.1 6.4l.8-2.5c10.9-35.1-6.1-71-25.2-100Zm0 0c19.9 26.8 37.2 60 30.3 94.4l-1.6 6.7-1.9-2.3c43.5-3.9 67.4-28.9 72-72l1.9 2c-35.4 3.7-74.5-2.8-100.7-28.7Z"/><path class="s" d="M1684.7 524.1c19.1 17.5 45.4 24.5 78.9 21.1-3.7 34.6-22.2 54.6-57.7 57.7 8-27.2-3.3-53.2-21.1-78.9Z"/><path class="z" d="M1684.7 524.1c22.2 19.2 52.7 22.7 80.8 19.1-1.9 24.8-12.5 47.5-37.1 56.6-8.1 3.1-16.6 4.5-25.1 5.1l.8-2.5c8.6-27.5-4.6-55.6-19.4-78.4Zm0 0c17.1 22.5 31.2 50.6 22.8 79.4l-1.9-2.3c7.3-.8 14.6-2.3 21.3-4.9 22.2-8.4 32.3-28.7 34.8-51.2l1.9 2c-27.9 2.8-58.6-2.4-79-22.9Z"/><path class="w" d="M1698 537.4c15 13.7 35.6 19.3 61.8 16.6-2.9 27.2-17.4 42.8-45.3 45.3 6.2-21.4-2.6-41.8-16.6-61.8Z"/><path class="z" d="M1698 537.4c17.7 15 41.6 17.5 63.8 14.6-1 12.7-4.7 26-13.9 35.4-9.4 9.5-22.9 13.2-35.8 13.9 8.1-22.6-2.1-44.7-14.1-63.8Zm0 0c13.6 17.5 24.8 39.8 18.3 62.3l-1.9-2.3c5.7-.6 11.4-1.8 16.6-3.9 17.3-6.5 25.1-22.3 27-39.8l1.9 2c-21.9 2.2-46.1-2-62-18.3Z"/><path class="y" d="M1682 490c32.8-134.8-172.7-120.8-231.4-190.5-33.8 142 167.6 125.2 231.4 190.5Z"/><path class="z" d="M1682 490c12.3-76.1-45.9-98.8-106.5-118.9-26-8.6-53.2-16.5-78.5-27.3-13.3-5.8-26.4-12.3-38.2-21.2-6-4.5-11.8-9.7-17-15.7l20-4.7c-2.9 12.5-4.4 25.2-3 37.2 9.3 88 172.3 87.8 223.2 150.6Zm0 0c-21.4-17.6-48.3-25.8-74.4-33.6-56-17.2-140.4-30.7-165.5-91.5-12.6-30.9-4.9-59.6 2.5-90.3l14.8 17.6c7.5 8.9 17.8 16.3 29 22.5 23.2 12.9 49.1 21.6 74.2 31 66.1 24.2 148.4 57.9 119.4 144.3Z"/><path class="y" d="M943.1 2038.8c-70.4 76.6-170.3 108.8-299.6 97l46.1 34.1c49.5 36.6 118.9 28.1 158.1-19.2s95.3-111.9 95.3-111.9Z"/><path class="z" d="M943.1 2038.8c-75.2 88.6-188.6 112.4-300 101.9l3.4-8.9c11.9 8.7 31.2 23 43 31.8 41.8 33.2 101.6 32.4 142.4-2.1 4.4-3.7 8.5-7.8 12.3-12.1 11.5-13.1 23.1-26 34.8-38.9 21.4-23.3 43.5-47.4 64.1-71.8Zm0 0c-30.8 36-59.3 74-89.7 110.6-10.1 12.9-22.2 24.1-36.5 32.2-36.6 21.3-84.5 20.7-120.7-1.4-6-3.6-11.8-8.1-17.4-12.1l-19.1-14.1c-7.9-5.9-25.3-18.8-33.2-24.7 46 4.8 92.8 6.4 138.6-1 67-9.9 130.6-40.7 178-89.5Z"/><path class="y" d="M940.5 2042.2c-63.5 69.1-153.6 98.1-270.1 87.5l41.6 30.8c44.6 33 107.2 25.4 142.6-17.3s85.9-100.9 85.9-100.9Z"/><path class="z" d="M940.5 2042.2C873 2122.3 770.4 2144 670 2134.6l3.4-8.9c10.8 7.8 28.1 20.8 38.7 28.6 37.4 29.8 91.3 29.1 127.9-1.7 5.3-4.3 10-9.6 14.5-14.8 28.3-32.1 58.3-62.8 86-95.7Zm0 0c-27.7 32.4-53.2 66.9-80.6 99.9-9.1 11.6-20.1 21.8-33 29.1-33.1 19.3-76.5 18.8-109.3-1.2-9.8-6.1-23.5-16.9-33-23.7-7.6-5.7-23.7-17.6-31.3-23.3 54 5.9 109.5 6.3 162.1-8.2 47.2-12.7 90.7-37.9 125-72.7Z"/><path class="y" d="M943.1 2039c-56.1 61.1-135.8 86.7-238.8 77.4l36.8 27.2c39.4 29.2 94.8 22.4 126.1-15.3s76-89.2 76-89.2Z"/><path class="z" d="M943.1 2039c-59.4 71.2-150.4 90.6-239.3 82.3l3.4-8.9c9.5 6.9 24.9 18.4 34.3 25.3 32.9 26.2 80.3 25.6 112.5-1.4 4.7-3.8 8.9-8.4 12.8-13 25.1-28.3 51.8-55.3 76.4-84.4Zm0 0c-24.5 28.7-46.8 59.4-71 88.6-8.1 10.4-17.8 19.4-29.3 25.9-28.7 16.8-66.2 16.9-95 .2-5.6-3.1-11-7.2-16.1-11l-15.3-11.2c-7.2-5.4-22.1-16.4-29.3-21.8 37.7 4 76.3 5.7 113.8-.3 53.4-7.7 104-32 142.1-70.5Z"/><circle class="n" cx="962.1" cy="2268.1" r="18.9"/><path class="z" d="M948.7 2254.8c-11.5 11.6-2.9 31.1 13.3 30.5 9.1-.2 16.9-8 17.1-17.2.6-16.2-18.9-24.8-30.5-13.3Zm0 0c9.4-9.7 26.4-6.8 32.1 5.6 7.8 16.8-9.7 34.3-26.5 26.5-12.4-5.8-15.3-22.6-5.6-32.1Z"/><circle class="n" cx="999.3" cy="2321.7" r="18.9"/><path class="z" d="M985.9 2335c11.6 11.5 31.1 2.9 30.5-13.3-.2-9.1-8-16.9-17.2-17.1-16.2-.6-24.8 18.9-13.3 30.5Zm0 0c-9.7-9.4-6.8-26.4 5.6-32.1 16.8-7.8 34.3 9.7 26.5 26.5-5.8 12.4-22.6 15.3-32.1 5.6Z"/><circle class="n" cx="927.5" cy="2321.7" r="18.9"/><path class="z" d="M946.4 2321.7c0-16.3-20-24-31-12.1-6.3 6.6-6.3 17.6 0 24.3 11 11.9 30.9 4.2 31-12.1Zm0 0c.2 13.5-13.8 23.5-26.6 18.7-17.4-6.4-17.4-31 0-37.5 12.8-4.7 26.8 5.2 26.6 18.7ZM873.2 2232.1c-.5-65.4 39.2-122.5 87.5-163.2-11.1 11-21.6 22.7-31.1 35-28.2 36.2-46.8 81.5-43.4 127.8l-13 .4Z"/><path class="m" d="M877.9 2225.3c33.1 19.1 66.2 19.1 99.3 0-33.1-12.8-66.2-12.8-99.3 0Z"/><path class="z" d="M878.2 2225.3c3 1.3 6 2.1 9 3.2 6 2.2 12.3 4 18.5 5.1 23.8 4.8 48-.8 68.8-13l.8 9.7-5.8-2.1c-25.7-9-52.4-10.6-79.1-5.3l-6.2 1.3c-2 .4-4 .6-6.1 1.2Zm-.6 0c31.6-13.2 68-13 99.9-.5l1.2.4-1.1.6c-32.5 19-67.7 19.1-99.9-.5Z"/><path class="m" d="M879.3 2223.9c-20.9 31.9-25.8 62.3 0 89.8 24.2-29.9 24.2-59.8 0-89.8Z"/><path class="z" d="M879.3 2224.2c-1.6 3.8-3.3 7.3-4.8 11.1-11.7 27.1-12.9 52.2 8.8 74.7l-8.1.3c15.5-18.8 23-40.7 14.6-64.3-2.6-7.7-6.3-14.6-10.4-21.7Zm0-.6c24.7 29.5 24.6 60.7.5 90.4l-.4.5-.5-.5c-26.7-28.2-19.9-60.9.4-90.5Z"/><path class="n" d="M860.1 2186.2c-28.5 31.1-39.9 73.9-34.4 128.2-56.3-6-88.7-36.2-93.9-93.9 44.3 12.9 86.6-5.4 128.2-34.4Z"/><path class="z" d="M860.1 2186.2c-31.4 35.3-37.8 84.8-32.4 130.2-39.3-3.1-75.3-20.7-89.7-59.5-4.8-12.4-7.1-25.6-8.1-38.8l2.5.7c45 13.9 90.8-8 127.7-32.6Zm0 0c-34.3 25.1-76.5 47-120.2 38.1l-8.5-2.1 2.3-1.9c4.9 55.7 37.1 86.4 92.3 92.2l-2 1.9c-4.7-45.1 3.4-94.8 36.1-128.4Z"/><path class="ac" d="M844.2 2202.2c-23.9 26.2-33.6 62.1-28.9 107.9-47.4-5-74.6-30.4-79-79 37.2 10.9 72.8-4.5 107.9-28.9Z"/><path class="z" d="M844.2 2202.2c-26.4 29.9-31.6 71.5-26.9 109.8-33.3-2.6-63.9-17.3-76.1-50.3-4.1-10.6-6-21.9-6.9-33.1l2.5.8c37.7 11.7 76.3-6.6 107.4-27.2Zm0 0c-28.8 21.3-64.4 39.8-101.2 32.3l-7.2-1.7 2.3-1.9c4.2 46.8 31.1 72.4 77.4 77.3l-2 1.9c-3.9-38 3-79.9 30.7-108Z"/><path class="s" d="M830.7 2215.6c-20.1 22-28.2 52.3-24.3 90.7-39.9-4.2-62.8-25.6-66.4-66.4 31.3 9.2 61.3-3.8 90.7-24.3Z"/><path class="z" d="M830.7 2215.6c-22.1 25.3-26.3 60.4-22.3 92.7-28.3-2.1-54.2-14.5-64.6-42.5-3.6-9.1-5.1-18.8-5.8-28.4l2.5.8c31.7 9.9 64-5.4 90.2-22.6Zm0 0c-24.2 18.1-54.1 33.7-85.2 27.5l-6.1-1.5 2.3-1.9c3.6 39.2 26.1 60.6 64.8 64.8l-2 1.9c-3.3-32 2.6-67.3 26.1-90.9Z"/><path class="w" d="M819.4 2226.9c-16.9 18.5-23.8 44-20.5 76.3-33.5-3.6-52.8-21.5-55.9-55.9 26.4 7.7 51.5-3.2 76.3-20.5Z"/><path class="z" d="M819.4 2226.9c-18.6 21.5-21.9 51-18.5 78.3-24.1-1.8-46.1-12.1-54.9-36-3.1-7.8-4.3-16.1-4.9-24.4l2.5.8c26.6 8.3 53.8-4.5 75.8-18.7Zm0 0c-21.8 16.6-49 30.2-76.8 22.2l2.3-1.9c.7 7.1 2.2 14.1 4.8 20.6 8.1 21.5 27.7 31.2 49.5 33.6l-2 1.9c-2.7-27 2.3-56.8 22.2-76.5Z"/><path class="n" d="M1073.3 2215.7c-31.1-28.5-73.9-39.9-128.2-34.4 6-56.3 36.2-88.7 93.9-93.9-12.9 44.3 5.4 86.6 34.4 128.2Z"/><path class="z" d="M1073.3 2215.7c-35.3-31.4-84.8-37.8-130.2-32.4 3.1-39.3 20.7-75.3 59.5-89.7 12.4-4.8 25.6-7.1 38.8-8.1l-.7 2.5c-13.9 45 8 90.8 32.6 127.7Zm0 0c-25.1-34.3-47-76.5-38.1-120.2l2.1-8.5 1.9 2.3c-55.7 4.9-86.4 37.1-92.2 92.3l-1.9-2c45.1-4.7 94.8 3.4 128.4 36.1Z"/><path class="ac" d="M1051.6 2194c-24.4-22.3-57.9-31.3-100.5-26.9 4.7-44.2 28.4-69.6 73.6-73.6-10.1 34.7 4.2 67.9 26.9 100.5Z"/><path class="z" d="M1051.6 2194c-28-24.6-66.8-29.3-102.5-24.9 2.4-31.2 16.1-59.7 47-71.2 10-3.9 20.5-5.6 31.1-6.4l-.8 2.5c-10.9 35.1 6.1 71 25.2 100Zm0 0c-19.9-26.8-37.2-60-30.3-94.4l1.6-6.7 1.9 2.3c-43.5 3.9-67.4 28.9-72 72l-1.9-2c35.4-3.7 74.5 2.8 100.7 28.7Z"/><path class="s" d="M1034.6 2177c-19.1-17.5-45.4-24.5-78.9-21.1 3.7-34.6 22.2-54.6 57.7-57.7-8 27.2 3.3 53.2 21.1 78.9Z"/><path class="z" d="M1034.6 2177c-22.2-19.2-52.7-22.7-80.8-19.1 1.9-24.8 12.5-47.5 37.1-56.6 8.1-3.1 16.6-4.5 25.1-5.1l-.8 2.5c-8.6 27.5 4.6 55.6 19.4 78.4Zm0 0c-17.1-22.5-31.2-50.6-22.8-79.4l1.9 2.3c-7.3.8-14.6 2.3-21.3 4.9-22.2 8.4-32.3 28.7-34.8 51.2l-1.9-2c27.9-2.8 58.6 2.4 79 22.9Z"/><path class="w" d="M1021.3 2163.6c-15-13.7-35.6-19.3-61.8-16.6 2.9-27.2 17.4-42.8 45.3-45.3-6.2 21.4 2.6 41.8 16.6 61.8Z"/><path class="z" d="M1021.3 2163.6c-17.8-15-41.6-17.5-63.8-14.6 1-12.7 4.7-26 13.9-35.4 9.4-9.5 22.9-13.2 35.8-13.9-8.1 22.6 2.1 44.7 14.1 63.8Zm0 0c-13.6-17.5-24.8-39.8-18.3-62.3l1.9 2.3c-5.7.6-11.4 1.8-16.6 3.9-17.3 6.5-25.1 22.3-27 39.8l-1.9-2c21.9-2.2 46.1 2 62 18.3Z"/><path class="y" d="M1037.3 2211.1c-32.8 134.8 172.7 120.8 231.4 190.5 33.8-142-167.6-125.2-231.4-190.5Z"/><path class="z" d="M1037.3 2211.1c-12.3 76.1 45.9 98.8 106.5 118.9 26 8.6 53.2 16.5 78.5 27.3 13.3 5.8 26.4 12.3 38.2 21.2 6 4.5 11.8 9.7 17 15.7l-20 4.7c2.9-12.5 4.4-25.2 3-37.2-9.3-88-172.3-87.8-223.2-150.6Zm0 0c21.4 17.6 48.3 25.8 74.4 33.6 56 17.2 140.4 30.7 165.5 91.5 12.6 30.9 4.9 59.6-2.5 90.3l-14.8-17.6c-7.5-8.9-17.8-16.3-29-22.5-23.2-12.9-49.1-21.6-74.2-31-66.1-24.2-148.4-57.9-119.4-144.3Z"/><path class="y" d="M1776.2 2038.8c70.4 76.6 170.3 108.8 299.6 97l-46.1 34.1c-49.5 36.6-118.9 28.1-158.1-19.2s-95.3-111.9-95.3-111.9Z"/><path class="z" d="M1776.2 2038.8c47.4 48.8 111 79.6 178 89.5 45.7 7.4 92.6 5.8 138.6 1-7.9 5.9-25.1 18.7-33.2 24.7l-19.1 14.1c-5.6 4.1-11.4 8.6-17.4 12.1-36.2 22.1-84.1 22.7-120.7 1.4-14.3-8.1-26.4-19.3-36.5-32.2-30.4-36.6-58.9-74.6-89.7-110.6Zm0 0c20.6 24.4 42.7 48.5 64.1 71.8 11.8 12.9 23.3 25.8 34.8 38.9 3.8 4.3 7.9 8.4 12.3 12.1 40.8 34.4 100.7 35.2 142.4 2.1 11.8-8.7 31.1-23.1 43-31.8l3.4 8.9c-111.4 10.5-224.8-13.4-300-101.9Z"/><path class="y" d="M1778.7 2042.2c63.5 69.1 153.6 98.1 270.1 87.5l-41.6 30.8c-44.6 33-107.2 25.4-142.6-17.3s-85.9-100.9-85.9-100.9Z"/><path class="z" d="M1778.7 2042.2c34.3 34.8 77.8 60.1 125 72.7 52.7 14.5 108.2 14.1 162.1 8.2-7.6 5.7-23.6 17.5-31.3 23.3-9.6 6.8-23.1 17.6-33 23.7-32.7 20-76.1 20.5-109.3 1.2-12.9-7.3-23.9-17.5-33-29.1-27.4-33.1-52.8-67.5-80.6-99.9Zm0 0c27.7 32.9 57.7 63.6 86 95.7 4.5 5.1 9.2 10.4 14.5 14.8 36.6 30.8 90.4 31.5 127.9 1.7 10.6-7.9 28.1-20.8 38.7-28.6l3.4 8.9c-100.5 9.4-203-12.3-270.5-92.4Z"/><path class="y" d="M1776.2 2039c56.1 61.1 135.8 86.7 238.8 77.4l-36.8 27.2c-39.4 29.2-94.8 22.4-126.1-15.3s-76-89.2-76-89.2Z"/><path class="z" d="M1776.2 2039c38.1 38.5 88.7 62.8 142.1 70.5 37.5 6 76.1 4.3 113.8.3-7.3 5.4-22 16.4-29.3 21.8l-15.3 11.2c-5.2 3.8-10.5 7.9-16.1 11-28.8 16.7-66.3 16.5-95-.2-11.5-6.5-21.2-15.6-29.3-25.9-24.1-29.3-46.4-60-71-88.6Zm0 0c24.5 29.1 51.3 56.1 76.4 84.4 4 4.5 8.1 9.2 12.8 13 32.2 27 79.6 27.6 112.5 1.4 9.4-7 24.8-18.4 34.3-25.3l3.4 8.9c-88.9 8.3-179.9-11.1-239.3-82.3Z"/><circle class="n" cx="1757.2" cy="2268.1" r="18.9"/><path class="z" d="M1770.6 2254.8c9.7 9.4 6.8 26.4-5.6 32.1-16.8 7.8-34.3-9.6-26.5-26.5 5.8-12.4 22.6-15.3 32.1-5.6Zm0 0c-11.6-11.5-31.1-2.8-30.5 13.3.2 9.1 8 16.9 17.1 17.2 16.2.6 24.8-18.9 13.3-30.5Z"/><circle class="n" cx="1720" cy="2321.7" r="18.9"/><path class="z" d="M1733.4 2335c-9.5 9.7-26.3 6.8-32.1-5.6-7.8-16.8 9.6-34.3 26.5-26.5 12.4 5.8 15.3 22.6 5.6 32.1Zm0 0c11.5-11.6 2.8-31.1-13.3-30.5-9.1.2-16.9 8-17.2 17.1-.6 16.2 18.9 24.8 30.5 13.3Z"/><circle class="n" cx="1791.8" cy="2321.7" r="18.9"/><path class="z" d="M1772.9 2321.7c-.2-13.5 13.8-23.5 26.6-18.7 17.4 6.4 17.4 31 0 37.5-12.8 4.7-26.8-5.2-26.6-18.7Zm0 0c0 16.3 20 24 31 12.1 6.3-6.6 6.3-17.6 0-24.3-11-11.9-30.9-4.2-31 12.1ZM1833.1 2231.7c3.4-46.3-15.2-91.6-43.4-127.8-9.5-12.4-20-24-31.1-35 11.9 10.2 23.2 21.2 33.6 33 21 23.8 38.2 51.4 47 82.3 4.5 15.5 6.8 31.7 6.9 47.9l-13-.4Z"/><path class="m" d="M1841.4 2225.3c-33.1 19.1-66.2 19.1-99.3 0 33.1-12.8 66.2-12.8 99.3 0Z"/><path class="z" d="M1841.7 2225.2c-2.7 1.9-5.4 4.3-8.4 5.8-4.6 2.9-9.9 5.4-15 7.4-16 6.1-33.8 7.2-50.5 3.1-13.8-3-26.7-10.4-38.7-17.4 6.8-2.4 16.6-6 23.5-8 29.4-8.5 62.2-5.8 89.1 9.1Zm-.6 0c-33.5-12-65.5-12.4-98.8.5v-1.1c33.1 19.2 65.4 18.9 98.7.5Z"/><path class="m" d="M1840 2223.9c20.9 31.9 25.8 62.3 0 89.8-24.2-29.9-24.2-59.8 0-89.8Z"/><path class="z" d="M1840 2223.6c17 18.9 28.3 46.7 18.2 71.6-4 10.4-11.1 18.9-18.6 26.8l-3.9-5c-13.9-17.3-22.5-39.1-16.1-61.3 3.5-12.4 11.1-23.6 20.3-32.2Zm0 .6c-23.5 30.2-23.7 59.2.5 89.1h-.9c26.8-28.3 19.5-58.9.4-89.1Z"/><path class="n" d="M1859.2 2186.2c28.5 31.1 39.9 73.9 34.4 128.2 56.3-6 88.7-36.2 93.9-93.9-44.3 12.9-86.6-5.4-128.2-34.4Z"/><path class="z" d="M1859.2 2186.2c32.7 33.6 40.8 83.2 36.1 128.4l-2-1.9c55.2-5.8 87.3-36.5 92.3-92.2l2.3 1.9-8.5 2.1c-43.8 8.9-85.9-13-120.2-38.1Zm0 0c36.9 24.7 82.8 46.6 127.7 32.6l2.5-.7c-1 13.2-3.3 26.3-8.1 38.8-14.4 38.8-50.4 56.4-89.7 59.5 5.5-45.4-.9-94.9-32.4-130.2Z"/><path class="ac" d="M1875.1 2202.2c23.9 26.2 33.6 62.1 28.9 107.9 47.4-5 74.6-30.4 79-79-37.2 10.9-72.8-4.5-107.9-28.9Z"/><path class="z" d="M1875.1 2202.2c27.7 28.2 34.6 70 30.7 108l-2-1.9c46.3-5 73.2-30.6 77.4-77.3l2.3 1.9-7.2 1.7c-36.8 7.4-72.4-11-101.2-32.3Zm0 0c31.1 20.6 69.6 38.9 107.4 27.2l2.5-.8c-.8 11.2-2.7 22.5-6.9 33.1-12.3 33-42.7 47.7-76.1 50.3 4.7-38.3-.5-80-26.9-109.8Z"/><path class="s" d="M1888.6 2215.6c20.1 22 28.2 52.3 24.3 90.7 39.9-4.2 62.8-25.6 66.4-66.4-31.3 9.2-61.3-3.8-90.7-24.3Z"/><path class="z" d="M1888.6 2215.6c23.4 23.6 29.4 58.9 26.1 90.9l-2-1.9c38.8-4.2 61.3-25.6 64.8-64.8l2.3 1.9-6.1 1.5c-31.1 6.2-61-9.4-85.2-27.5Zm0 0c26.2 17.2 58.6 32.5 90.2 22.6l2.5-.8c-.7 9.6-2.2 19.3-5.8 28.4-10.4 28-36.3 40.4-64.6 42.5 4-32.3-.2-67.4-22.3-92.7Z"/><path class="w" d="M1899.8 2226.9c16.9 18.5 23.8 44 20.5 76.3 33.5-3.6 52.8-21.5 55.9-55.9-26.4 7.7-51.5-3.2-76.3-20.5Z"/><path class="z" d="M1899.8 2226.9c19.9 19.8 25 49.5 22.2 76.5l-2-1.9c21.8-2.4 41.4-12.1 49.5-33.6 2.6-6.6 4-13.6 4.8-20.6l2.3 1.9c-27.9 8.1-55-5.6-76.8-22.2Zm0 0c22.1 14.3 49.3 27.1 75.8 18.7l2.5-.8-.2 2.6c-1.2 14.8-6 30-16.8 40.7-11.4 11.2-27.4 15.8-42.9 17.1 3.4-27.3.1-56.8-18.5-78.3Z"/><path class="n" d="M1645.9 2215.7c31.1-28.5 73.9-39.9 128.2-34.4-6-56.3-36.2-88.7-93.9-93.9 12.9 44.3-5.4 86.6-34.4 128.2Z"/><path class="z" d="M1645.9 2215.7c33.6-32.7 83.2-40.8 128.4-36.1l-1.9 2c-5.8-55.2-36.5-87.3-92.2-92.3l1.9-2.3 2.1 8.5c8.9 43.8-13 85.9-38.1 120.2Zm0 0c24.7-36.9 46.6-82.8 32.6-127.7l-.7-2.5c13.2 1 26.3 3.3 38.8 8.1 38.8 14.4 56.4 50.4 59.5 89.7-45.4-5.5-94.9.9-130.2 32.4Z"/><path class="ac" d="M1667.6 2194c24.4-22.3 57.9-31.3 100.5-26.9-4.7-44.2-28.4-69.6-73.6-73.6 10.1 34.7-4.2 67.9-26.9 100.5Z"/><path class="z" d="M1667.6 2194c26.2-25.9 65.3-32.4 100.7-28.7l-1.9 2c-4.6-43.1-28.5-68.1-72-72l1.9-2.3 1.6 6.7c6.9 34.4-10.3 67.5-30.3 94.4Zm0 0c19.1-29 36.2-64.9 25.2-100l-.8-2.5c10.5.8 21.1 2.5 31.1 6.4 30.9 11.5 44.6 40 47 71.2-35.7-4.4-74.6.4-102.5 24.9Z"/><path class="s" d="M1684.7 2177c19.1-17.5 45.4-24.5 78.9-21.1-3.7-34.6-22.2-54.6-57.7-57.7 8 27.2-3.3 53.2-21.1 78.9Z"/><path class="z" d="M1684.7 2177c20.4-20.5 51.2-25.7 79-22.9l-1.9 2c-2.5-22.5-12.5-42.9-34.8-51.2-6.8-2.6-14-4.2-21.3-4.9l1.9-2.3c8.3 28.8-5.8 56.8-22.8 79.4Zm0 0c14.8-22.8 28-50.9 19.4-78.4l-.8-2.5 2.6.2c15.2 1.2 30.9 6.2 42 17.3 11.6 11.7 16.3 28.2 17.6 44.2-28.2-3.5-58.6 0-80.8 19.1Z"/><path class="w" d="M1698 2163.6c15-13.7 35.6-19.3 61.8-16.6-2.9-27.2-17.4-42.8-45.3-45.3 6.2 21.4-2.6 41.8-16.6 61.8Z"/><path class="z" d="M1698 2163.6c15.9-16.3 40.1-20.5 62-18.3l-1.9 2c-2-17.5-9.8-33.3-27-39.8-5.3-2.1-10.9-3.3-16.6-3.9l1.9-2.3c6.5 22.5-4.7 44.9-18.3 62.3Zm0 0c12-19.1 22.2-41.2 14.1-63.8 12.9.7 26.4 4.4 35.8 13.9 9.3 9.4 12.9 22.6 13.9 35.4-22.3-2.9-46.1-.4-63.8 14.6Z"/><path class="y" d="M1682 2211.1c32.8 134.8-172.7 120.8-231.4 190.5-33.8-142 167.6-125.2 231.4-190.5Z"/><path class="z" d="M1682 2211.1c29 86.4-53.3 120.1-119.4 144.3-34 13.3-78.9 26.1-103.2 53.6l-14.8 17.6c-7.4-30.8-15.1-59.4-2.5-90.3 25.1-60.8 109.5-74.3 165.5-91.5 26.1-7.8 53-16 74.4-33.6Zm0 0c-51 62.8-213.9 62.7-223.2 150.6-1.4 12 .1 24.7 3 37.2l-20-4.7c10-11.7 22.5-20.5 35.7-27.6 36.9-19.5 78.2-29 117.1-43.1 55.7-19.9 97.9-45.8 87.3-112.3Z"/><path class="y" d="M2047.9 934c76.6-70.4 108.8-170.3 97-299.6l34.1 46.1c36.6 49.5 28.1 118.9-19.2 158.1s-111.9 95.3-111.9 95.3Z"/><path class="z" d="M2047.9 934c48.8-47.4 79.6-111 89.5-178 7.4-45.7 5.8-92.6 1-138.6 5.9 7.9 18.7 25.1 24.7 33.2l14.1 19.1c4.1 5.6 8.6 11.4 12.1 17.4 22.1 36.2 22.7 84.1 1.4 120.7-8.1 14.3-19.3 26.4-32.2 36.5-36.6 30.4-74.6 58.9-110.6 89.7Zm0 0c24.4-20.6 48.5-42.7 71.8-64.1 12.9-11.8 25.8-23.3 38.9-34.8 4.3-3.8 8.4-7.9 12.1-12.3 34.4-40.8 35.2-100.7 2.1-142.4-8.7-11.8-23.1-31.1-31.8-43l8.9-3.4c10.5 111.4-13.4 224.8-101.9 300Z"/><path class="y" d="M2051.3 931.4c69.1-63.5 98.1-153.6 87.5-270.1l30.8 41.6c33 44.6 25.4 107.2-17.3 142.6s-100.9 85.9-100.9 85.9Z"/><path class="z" d="M2051.3 931.4c34.8-34.3 60.1-77.8 72.7-125 14.5-52.7 14.1-108.2 8.2-162.1 5.7 7.6 17.5 23.6 23.3 31.3 6.8 9.6 17.6 23.1 23.7 33 20 32.7 20.5 76.1 1.2 109.3-7.3 12.9-17.5 23.9-29.1 33-33.1 27.4-67.5 52.8-99.9 80.6Zm0 0c32.9-27.7 63.6-57.7 95.7-86 5.1-4.5 10.4-9.2 14.8-14.5 30.8-36.6 31.5-90.4 1.7-127.9-7.9-10.6-20.8-28.1-28.6-38.7l8.9-3.4c9.4 100.5-12.3 203-92.4 270.5Z"/><path class="y" d="M2048.1 934c61.1-56.1 86.7-135.8 77.4-238.8l27.2 36.8c29.2 39.4 22.4 94.8-15.3 126.1s-89.2 76-89.2 76Z"/><path class="z" d="M2048.1 934c38.5-38.1 62.8-88.7 70.5-142.1 6-37.5 4.3-76.1.3-113.8 5.4 7.3 16.4 22 21.8 29.3l11.2 15.3c3.8 5.2 7.9 10.5 11 16.1 16.7 28.8 16.5 66.3-.2 95-6.5 11.5-15.6 21.2-25.9 29.3-29.3 24.1-60 46.4-88.6 71Zm0 0c29.1-24.5 56.1-51.3 84.4-76.4 4.5-4 9.2-8.1 13-12.8 27-32.2 27.6-79.6 1.4-112.5-7-9.4-18.4-24.8-25.3-34.3l8.9-3.4c8.3 88.9-11.1 179.9-82.3 239.3Z"/><circle class="n" cx="2277.2" cy="953" r="18.9"/><path class="z" d="M2263.9 939.6c9.4-9.7 26.4-6.8 32.1 5.6 7.8 16.8-9.6 34.3-26.5 26.5-12.4-5.8-15.3-22.6-5.6-32.1Zm0 0c-11.5 11.6-2.8 31.1 13.3 30.5 9.1-.2 16.9-8 17.2-17.1.6-16.2-18.9-24.8-30.5-13.3Z"/><circle class="n" cx="2330.8" cy="990.2" r="18.9"/><path class="z" d="M2344.1 976.8c9.7 9.5 6.8 26.3-5.6 32.1-16.8 7.8-34.3-9.6-26.5-26.5 5.8-12.4 22.6-15.3 32.1-5.6Zm0 0c-11.6-11.5-31.1-2.8-30.5 13.3.2 9.1 8 16.9 17.1 17.2 16.2.6 24.8-18.9 13.3-30.5Z"/><circle class="n" cx="2330.8" cy="918.4" r="18.9"/><path class="z" d="M2330.8 937.3c-13.5.2-23.5-13.8-18.7-26.6 6.4-17.4 31-17.4 37.5 0 4.7 12.8-5.2 26.8-18.7 26.6Zm0 0c16.3 0 24-20 12.1-31-6.6-6.3-17.6-6.3-24.3 0-11.9 11-4.2 30.9 12.1 31ZM2240.8 877.1c-46.3-3.4-91.6 15.2-127.8 43.4-12.4 9.5-24 20-35 31.1 10.2-11.9 21.2-23.2 33-33.6 23.8-21 51.4-38.2 82.3-47 15.5-4.5 31.7-6.8 47.9-6.9l-.4 13Z"/><path class="m" d="M2234.4 868.8c19.1 33.1 19.1 66.2 0 99.3-12.8-33.1-12.8-66.2 0-99.3Z"/><path class="z" d="M2234.3 868.5c1.9 2.7 4.3 5.4 5.8 8.4 2.9 4.6 5.4 9.9 7.4 15 6.1 16 7.2 33.8 3.1 50.5-3 13.8-10.4 26.7-17.4 38.7-2.4-6.8-6-16.6-8-23.5-8.5-29.4-5.8-62.2 9.1-89.1Zm0 .6c-12 33.5-12.4 65.5.5 98.8h-1.1c19.2-33.1 18.9-65.4.5-98.7Z"/><path class="m" d="M2233 870.2c31.9-20.9 62.3-25.8 89.8 0-29.9 24.2-59.8 24.2-89.8 0Z"/><path class="z" d="M2232.7 870.2c18.9-17 46.7-28.3 71.6-18.2 10.4 4 18.9 11.1 26.8 18.6l-5 3.9c-17.3 13.9-39.1 22.5-61.3 16.1-12.4-3.5-23.6-11.1-32.2-20.3Zm.6 0c30.2 23.5 59.2 23.7 89.1-.5v.9c-28.3-26.8-58.9-19.5-89.1-.4Z"/><path class="n" d="M2195.3 851c31.1-28.5 73.9-39.9 128.2-34.4-6-56.3-36.2-88.7-93.9-93.9 12.9 44.3-5.4 86.6-34.4 128.2Z"/><path class="z" d="M2195.3 851c33.6-32.7 83.2-40.8 128.4-36.1l-1.9 2c-5.8-55.2-36.5-87.3-92.2-92.3l1.9-2.3 2.1 8.5c8.9 43.8-13 85.9-38.1 120.2Zm0 0c24.7-36.9 46.6-82.8 32.6-127.7l-.7-2.5c13.2 1 26.3 3.3 38.8 8.1 38.8 14.4 56.4 50.4 59.5 89.7-45.4-5.5-94.9.9-130.2 32.4Z"/><path class="ac" d="M2211.3 835.1c26.2-23.9 62.1-33.6 107.9-28.9-5-47.4-30.4-74.6-79-79 10.9 37.2-4.5 72.8-28.9 107.9Z"/><path class="z" d="M2211.3 835.1c28.2-27.7 70-34.6 108-30.7l-1.9 2c-5-46.3-30.6-73.2-77.3-77.4l1.9-2.3 1.7 7.2c7.4 36.8-11 72.4-32.3 101.2Zm0 0c20.6-31.1 38.9-69.6 27.2-107.4l-.8-2.5c11.2.8 22.5 2.7 33.1 6.9 33 12.3 47.7 42.7 50.3 76.1-38.3-4.7-80 .5-109.8 26.9Z"/><path class="s" d="M2224.7 821.6c22-20.1 52.3-28.2 90.7-24.3-4.2-39.9-25.6-62.8-66.4-66.4 9.2 31.3-3.8 61.3-24.3 90.7Z"/><path class="z" d="M2224.7 821.6c23.6-23.4 58.9-29.4 90.9-26.1l-1.9 2c-4.2-38.8-25.6-61.3-64.8-64.8l1.9-2.3 1.5 6.1c6.2 31.1-9.4 61-27.5 85.2Zm0 0c17.2-26.2 32.5-58.6 22.6-90.2l-.8-2.5c9.6.7 19.3 2.2 28.4 5.8 28 10.4 40.4 36.3 42.5 64.6-32.3-4-67.4.2-92.7 22.3Z"/><path class="w" d="M2236 810.3c18.5-16.9 44-23.8 76.3-20.5-3.6-33.5-21.5-52.8-55.9-55.9 7.7 26.4-3.2 51.5-20.5 76.3Z"/><path class="z" d="M2236 810.3c19.8-19.9 49.5-25 76.5-22.2l-1.9 2c-2.4-21.8-12.1-41.4-33.6-49.5-6.6-2.6-13.6-4-20.6-4.8l1.9-2.3c8.1 27.9-5.6 55-22.2 76.8Zm0 0c14.3-22.1 27.1-49.3 18.7-75.8l-.8-2.5 2.6.2c14.8 1.2 30 6 40.7 16.8 11.2 11.4 15.8 27.4 17.1 42.9-27.3-3.4-56.8-.1-78.3 18.5Z"/><path class="n" d="M2224.8 1064.2c-28.5-31.1-39.9-73.9-34.4-128.2-56.3 6-88.7 36.2-93.9 93.9 44.3-12.9 86.6 5.4 128.2 34.4Z"/><path class="z" d="M2224.8 1064.2c-32.7-33.6-40.8-83.2-36.1-128.4l2 1.9c-55.2 5.8-87.3 36.5-92.3 92.2l-2.3-1.9 8.5-2.1c43.8-8.9 85.9 13 120.2 38.1Zm0 0c-36.9-24.7-82.8-46.6-127.7-32.6l-2.5.7c1-13.2 3.3-26.3 8.1-38.8 14.4-38.8 50.4-56.4 89.7-59.5-5.5 45.4.9 94.9 32.4 130.2Z"/><path class="ac" d="M2203.1 1042.5c-22.3-24.4-31.3-57.9-26.9-100.5-44.2 4.7-69.6 28.4-73.6 73.6 34.7-10.1 67.9 4.2 100.5 26.9Z"/><path class="z" d="M2203.1 1042.5c-25.9-26.2-32.4-65.3-28.7-100.7l2 1.9c-43.1 4.6-68.1 28.5-72 72l-2.3-1.9 6.7-1.6c34.4-6.9 67.5 10.3 94.4 30.3Zm0 0c-29-19.1-64.9-36.2-100-25.2l-2.5.8c.8-10.5 2.5-21.1 6.4-31.1 11.5-30.9 40-44.6 71.2-47-4.4 35.7.4 74.6 24.9 102.5Z"/><path class="s" d="M2186.1 1025.5c-17.5-19.1-24.5-45.4-21.1-78.9-34.6 3.7-54.6 22.2-57.7 57.7 27.2-8 53.2 3.3 78.9 21.1Z"/><path class="z" d="M2186.1 1025.5c-20.5-20.4-25.7-51.2-22.9-79l2 1.9c-22.5 2.5-42.9 12.5-51.2 34.8-2.6 6.8-4.2 14-4.9 21.3l-2.3-1.9c28.8-8.3 56.8 5.8 79.4 22.8Zm0 0c-22.8-14.8-50.9-28-78.4-19.4l-2.5.8.2-2.6c1.2-15.2 6.2-30.9 17.3-42 11.7-11.6 28.2-16.3 44.2-17.6-3.5 28.2 0 58.6 19.1 80.8Z"/><path class="w" d="M2172.7 1012.2c-13.7-15-19.3-35.6-16.6-61.8-27.2 2.9-42.8 17.4-45.3 45.3 21.4-6.2 41.8 2.6 61.8 16.6Z"/><path class="z" d="M2172.7 1012.2c-16.3-15.9-20.5-40.1-18.3-62l2 1.9c-17.5 2-33.3 9.8-39.8 27-2.1 5.3-3.3 10.9-3.9 16.6l-2.3-1.9c22.6-6.5 44.9 4.7 62.3 18.3Zm0 0c-19.1-12-41.2-22.2-63.8-14.1.7-12.9 4.4-26.4 13.9-35.8 9.4-9.3 22.6-12.9 35.4-13.9-2.9 22.2-.4 46.1 14.6 63.8Z"/><path class="y" d="M2220.2 1028.2c134.8-32.8 120.8 172.7 190.5 231.4-142 33.8-125.2-167.6-190.5-231.4Z"/><path class="z" d="M2220.2 1028.2c86.4-29 120.1 53.3 144.3 119.4 13.4 34 26.1 78.9 53.6 103.2l17.6 14.8c-30.8 7.4-59.4 15.1-90.3 2.5-60.8-25.1-74.3-109.5-91.5-165.5-7.8-26.1-16-53-33.6-74.4Zm0 0c62.8 51 62.7 213.9 150.6 223.2 12 1.4 24.7-.1 37.2-3l-4.7 20c-11.7-10-20.5-22.5-27.6-35.7-19.5-36.9-29-78.2-43.1-117.1-19.9-55.7-45.8-97.9-112.3-87.3Z"/><path class="y" d="M2047.9 1767.1c76.6 70.4 108.8 170.3 97 299.6l34.1-46.1c36.6-49.5 28.1-118.9-19.2-158.1s-111.9-95.3-111.9-95.3Z"/><path class="z" d="M2047.9 1767.1c88.6 75.2 112.4 188.6 101.9 300l-8.9-3.4c8.7-11.9 23-31.2 31.8-43 33.2-41.8 32.4-101.6-2.1-142.4-3.7-4.4-7.8-8.5-12.1-12.3-13.1-11.5-26-23.1-38.9-34.8-23.3-21.4-47.4-43.5-71.8-64.1Zm0 0c36 30.8 74 59.3 110.6 89.7 12.9 10.1 24.1 22.2 32.2 36.5 21.3 36.6 20.7 84.5-1.4 120.7-3.6 6-8.1 11.8-12.1 17.4l-14.1 19.1c-5.9 7.9-18.8 25.3-24.6 33.2 4.8-46 6.4-92.8-1-138.6-9.9-67-40.7-130.6-89.5-178Z"/><path class="y" d="M2051.3 1769.6c69.1 63.5 98.1 153.6 87.5 270.1l30.8-41.6c33-44.6 25.4-107.2-17.3-142.6s-100.9-85.9-100.9-85.9Z"/><path class="z" d="M2051.3 1769.6c80.1 67.5 101.8 170.1 92.4 270.5l-8.9-3.4c7.8-10.8 20.8-28.1 28.6-38.7 29.8-37.4 29.1-91.3-1.7-127.9-4.3-5.3-9.6-10-14.8-14.5-32.1-28.3-62.8-58.3-95.7-86Zm0 0c32.4 27.7 66.9 53.2 99.9 80.6 11.6 9.1 21.8 20.1 29.1 33 19.3 33.1 18.8 76.5-1.2 109.3-6.1 9.8-16.9 23.5-23.7 33-5.7 7.6-17.6 23.7-23.3 31.3 5.9-54 6.3-109.5-8.2-162.1-12.7-47.2-37.9-90.7-72.7-125Z"/><path class="y" d="M2048.1 1767.1c61.1 56.1 86.7 135.8 77.4 238.8l27.2-36.8c29.2-39.4 22.4-94.8-15.3-126.1s-89.2-76-89.2-76Z"/><path class="z" d="M2048.1 1767.1c71.2 59.4 90.6 150.4 82.3 239.3l-8.9-3.4c6.9-9.5 18.4-24.9 25.3-34.3 26.2-32.9 25.6-80.3-1.4-112.5-3.8-4.7-8.4-8.9-13-12.8-28.3-25.1-55.3-51.8-84.4-76.4Zm0 0c28.7 24.5 59.4 46.8 88.6 71 10.4 8.1 19.4 17.8 25.9 29.3 16.8 28.7 16.9 66.2.2 95-3.1 5.6-7.2 11-11 16.1l-11.2 15.3c-5.4 7.2-16.4 22.1-21.8 29.3 4-37.7 5.7-76.3-.3-113.8-7.7-53.4-32-104-70.5-142.1Z"/><circle class="n" cx="2277.2" cy="1748.1" r="18.9"/><path class="z" d="M2263.9 1761.5c11.6 11.5 31.1 2.9 30.5-13.3-.2-9.1-8-16.9-17.2-17.1-16.2-.6-24.8 18.9-13.3 30.5Zm0 0c-9.7-9.4-6.8-26.4 5.6-32.1 16.8-7.8 34.3 9.7 26.5 26.5-5.8 12.4-22.6 15.3-32.1 5.6Z"/><circle class="n" cx="2330.8" cy="1710.9" r="18.9"/><path class="z" d="M2344.1 1724.3c11.5-11.6 2.9-31.1-13.3-30.5-9.1.2-16.9 8-17.1 17.2-.6 16.2 18.9 24.8 30.5 13.3Zm0 0c-9.4 9.7-26.4 6.8-32.1-5.6-7.8-16.8 9.7-34.3 26.5-26.5 12.4 5.8 15.3 22.6 5.6 32.1Z"/><circle class="n" cx="2330.8" cy="1782.7" r="18.9"/><path class="z" d="M2330.8 1763.8c-16.3 0-24 20-12.1 31 6.6 6.3 17.6 6.3 24.3 0 11.9-11 4.2-30.9-12.1-31Zm0 0c13.5-.2 23.5 13.8 18.7 26.6-6.4 17.4-31 17.4-37.5 0-4.7-12.8 5.2-26.8 18.7-26.6ZM2241.2 1837c-65.4.5-122.5-39.2-163.2-87.5 11 11.1 22.7 21.6 35 31.1 36.2 28.2 81.5 46.8 127.8 43.4l.4 13Z"/><path class="m" d="M2234.4 1832.3c19.1-33.1 19.1-66.2 0-99.3-12.8 33.1-12.8 66.2 0 99.3Z"/><path class="z" d="M2234.4 1832c1.3-3 2.1-6 3.2-9 2.2-6 4-12.3 5.1-18.5 4.8-23.8-.8-48-13-68.8l9.7-.8-2.1 5.8c-9 25.7-10.6 52.4-5.3 79.1l1.3 6.2c.4 2 .6 4 1.2 6.1Zm0 .6c-13.2-31.6-13-68-.5-99.9l.4-1.2.6 1.1c19 32.5 19.1 67.7-.5 99.9Z"/><path class="m" d="M2233 1830.9c31.9 20.9 62.3 25.8 89.8 0-29.9-24.2-59.8-24.2-89.8 0Z"/><path class="z" d="M2233.3 1830.8c3.8 1.6 7.3 3.3 11.1 4.8 27.1 11.7 52.2 12.9 74.7-8.8l.3 8.1c-18.8-15.5-40.7-23-64.3-14.6-7.7 2.6-14.6 6.3-21.7 10.4Zm-.6 0c29.5-24.7 60.7-24.6 90.4-.5l.5.4-.5.5c-28.2 26.7-60.9 19.9-90.5-.4Z"/><path class="n" d="M2195.3 1850.1c31.1 28.5 73.9 39.9 128.2 34.4-6 56.3-36.2 88.7-93.9 93.9 12.9-44.3-5.4-86.6-34.4-128.2Z"/><path class="z" d="M2195.3 1850.1c35.3 31.4 84.8 37.8 130.2 32.4-3.1 39.3-20.7 75.3-59.5 89.7-12.4 4.8-25.6 7.1-38.8 8.1l.7-2.5c13.9-45-8-90.8-32.6-127.7Zm0 0c25.1 34.3 47 76.5 38.1 120.2l-2.1 8.5-1.9-2.3c55.7-4.9 86.4-37.1 92.2-92.3l1.9 2c-45.1 4.7-94.8-3.4-128.4-36.1Z"/><path class="ac" d="M2211.3 1866c26.2 23.9 62.1 33.6 107.9 28.9-5 47.4-30.4 74.6-79 79 10.9-37.2-4.5-72.8-28.9-107.9Z"/><path class="z" d="M2211.3 1866c29.9 26.4 71.5 31.6 109.8 26.9-2.6 33.3-17.3 63.9-50.3 76.1-10.6 4.1-21.9 6-33.1 6.9l.8-2.5c11.7-37.7-6.6-76.3-27.2-107.4Zm0 0c21.3 28.8 39.8 64.4 32.3 101.2l-1.7 7.2-1.9-2.3c46.8-4.2 72.4-31.1 77.3-77.4l1.9 2c-38 3.9-79.9-3-108-30.7Z"/><path class="s" d="M2224.7 1879.5c22 20.1 52.3 28.2 90.7 24.3-4.2 39.9-25.6 62.8-66.4 66.4 9.2-31.3-3.8-61.3-24.3-90.7Z"/><path class="z" d="M2224.7 1879.5c25.3 22.1 60.4 26.3 92.7 22.3-2.1 28.3-14.5 54.2-42.5 64.6-9.1 3.6-18.8 5.1-28.4 5.8l.8-2.5c9.9-31.7-5.4-64-22.6-90.2Zm0 0c18.1 24.2 33.7 54.1 27.5 85.2l-1.5 6.1-1.9-2.3c39.2-3.6 60.6-26.1 64.8-64.8l1.9 2c-32 3.3-67.3-2.6-90.9-26.1Z"/><path class="w" d="M2236 1890.7c18.5 16.9 44 23.8 76.3 20.5-3.6 33.5-21.5 52.8-55.9 55.9 7.7-26.4-3.2-51.5-20.5-76.3Z"/><path class="z" d="M2236 1890.7c21.5 18.6 51 21.9 78.3 18.5-1.8 24.1-12.1 46.1-36 54.9-7.8 3.1-16.1 4.3-24.4 4.9l.8-2.5c8.3-26.6-4.5-53.8-18.7-75.8Zm0 0c16.6 21.8 30.2 49 22.2 76.8l-1.9-2.3c7.1-.7 14.1-2.2 20.6-4.8 21.5-8.1 31.2-27.7 33.6-49.5l1.9 2c-27 2.7-56.8-2.3-76.5-22.2Z"/><path class="n" d="M2224.8 1636.8c-28.5 31.1-39.9 73.9-34.4 128.2-56.3-6-88.7-36.2-93.9-93.9 44.3 12.9 86.6-5.4 128.2-34.4Z"/><path class="z" d="M2224.8 1636.8c-31.4 35.3-37.8 84.8-32.4 130.2-39.3-3.1-75.3-20.7-89.7-59.5-4.8-12.4-7.1-25.6-8.1-38.8l2.5.7c45 13.9 90.8-8 127.7-32.6Zm0 0c-34.3 25.1-76.5 47-120.2 38.1l-8.5-2.1 2.3-1.9c4.9 55.7 37.1 86.4 92.3 92.2l-2 1.9c-4.7-45.1 3.4-94.8 36.1-128.4Z"/><path class="ac" d="M2203.1 1658.5c-22.3 24.4-31.3 57.9-26.9 100.5-44.2-4.7-69.6-28.4-73.6-73.6 34.7 10.1 67.9-4.2 100.5-26.9Z"/><path class="z" d="M2203.1 1658.5c-24.6 28-29.3 66.8-24.9 102.5-31.2-2.4-59.7-16.1-71.2-47-3.9-10-5.6-20.5-6.4-31.1l2.5.8c35.1 10.9 71-6.1 100-25.2Zm0 0c-26.8 19.9-60 37.2-94.4 30.3l-6.7-1.6 2.3-1.9c3.9 43.5 28.9 67.4 72 72l-2 1.9c-3.7-35.4 2.8-74.5 28.7-100.7Z"/><path class="s" d="M2186.1 1675.6c-17.5 19.1-24.5 45.4-21.1 78.9-34.6-3.7-54.6-22.2-57.7-57.7 27.2 8 53.2-3.3 78.9-21.1Z"/><path class="z" d="M2186.1 1675.6c-19.2 22.2-22.7 52.7-19.1 80.9-24.8-1.9-47.5-12.5-56.6-37.1-3.1-8.1-4.5-16.6-5.1-25.1l2.5.8c27.5 8.6 55.6-4.6 78.4-19.4Zm0 0c-22.5 17.1-50.6 31.2-79.4 22.8l2.3-1.9c.8 7.3 2.3 14.6 4.9 21.3 8.4 22.2 28.7 32.3 51.2 34.8l-2 1.9c-2.8-27.9 2.4-58.6 22.9-79Z"/><path class="w" d="M2172.7 1688.9c-13.7 15-19.3 35.6-16.6 61.8-27.2-2.9-42.8-17.4-45.3-45.3 21.4 6.2 41.8-2.6 61.8-16.6Z"/><path class="z" d="M2172.7 1688.9c-15 17.7-17.5 41.6-14.6 63.8-12.7-1-26-4.7-35.4-13.9-9.5-9.4-13.2-22.9-13.9-35.8 22.6 8.1 44.7-2.1 63.8-14.1Zm0 0c-17.5 13.6-39.8 24.8-62.3 18.3l2.3-1.9c.6 5.7 1.8 11.4 3.9 16.6 6.5 17.3 22.3 25.1 39.8 27l-2 1.9c-2.2-21.9 2-46.1 18.3-62Z"/><path class="y" d="M2220.2 1672.9c134.8 32.8 120.8-172.7 190.5-231.4-142-33.8-125.2 167.6-190.5 231.4Z"/><path class="z" d="M2220.2 1672.9c76.1 12.3 98.8-45.9 118.9-106.5 8.6-26 16.5-53.2 27.3-78.5 5.8-13.3 12.3-26.4 21.2-38.2 4.5-6 9.7-11.8 15.7-17l4.7 20c-12.5-2.9-25.2-4.4-37.2-3-88 9.3-87.8 172.3-150.6 223.2Zm0 0c17.6-21.4 25.8-48.3 33.6-74.4 17.2-56 30.7-140.4 91.5-165.5 30.9-12.6 59.6-4.9 90.3 2.5l-17.6 14.8c-8.9 7.5-16.3 17.8-22.5 29-12.9 23.2-21.6 49.1-31 74.2-24.2 66.1-57.9 148.4-144.3 119.4Z"/><path class="y" d="M643.2 942.8c-76.6-70.4-108.8-170.3-97-299.6l-34.1 46.1c-36.6 49.5-28.1 118.9 19.2 158.1s111.9 95.3 111.9 95.3Z"/><path class="z" d="M643.2 942.8c-88.6-75.2-112.4-188.6-101.9-300l8.9 3.4c-8.7 11.9-23 31.2-31.8 43-33.2 41.8-32.4 101.6 2.1 142.4 3.7 4.4 7.8 8.5 12.1 12.3 13.1 11.5 26 23.1 38.9 34.8 23.3 21.4 47.4 43.5 71.8 64.1Zm0 0c-36-30.8-74-59.3-110.6-89.7-12.9-10.1-24.1-22.2-32.2-36.5-21.3-36.6-20.7-84.5 1.4-120.7 3.6-6 8.1-11.8 12.1-17.4l14.1-19.1c5.9-7.9 18.8-25.3 24.7-33.2-4.8 46-6.4 92.8 1 138.6 9.9 67 40.7 130.6 89.5 178Z"/><path class="y" d="M639.8 940.2c-69.1-63.5-98.1-153.6-87.5-270.1l-30.8 41.6c-33 44.6-25.4 107.2 17.3 142.6s100.9 85.9 100.9 85.9Z"/><path class="z" d="M639.8 940.2c-80.1-67.5-101.8-170.1-92.4-270.5l8.9 3.4c-7.8 10.8-20.8 28.1-28.6 38.7-29.8 37.4-29.1 91.3 1.7 127.9 4.3 5.3 9.6 10 14.8 14.5 32.1 28.3 62.8 58.3 95.7 86Zm0 0c-32.4-27.7-66.9-53.2-99.9-80.6-11.6-9.1-21.8-20.1-29.1-33-19.3-33.1-18.8-76.5 1.2-109.3 6.1-9.8 16.9-23.5 23.7-33 5.7-7.6 17.6-23.7 23.3-31.3-5.9 54-6.3 109.5 8.2 162.1 12.7 47.2 37.9 90.7 72.7 125Z"/><path class="y" d="M643 942.8C581.9 886.7 556.3 807 565.6 704l-27.2 36.8c-29.2 39.4-22.4 94.8 15.3 126.1s89.2 76 89.2 76Z"/><path class="z" d="M643 942.8c-71.2-59.4-90.6-150.4-82.3-239.3l8.9 3.4c-6.9 9.5-18.4 24.9-25.3 34.3-26.2 32.9-25.6 80.3 1.4 112.5 3.8 4.7 8.4 8.9 13 12.8 28.3 25.1 55.3 51.8 84.4 76.4Zm0 0c-28.7-24.5-59.4-46.8-88.6-71-10.4-8.1-19.4-17.8-25.9-29.3-16.8-28.7-16.9-66.2-.2-95 3.1-5.6 7.2-11 11-16.1l11.2-15.3c5.4-7.2 16.4-22.1 21.8-29.3-4 37.7-5.7 76.3.3 113.8 7.7 53.4 32 104 70.5 142.1Z"/><circle class="n" cx="413.8" cy="961.8" r="18.9"/><path class="z" d="M427.2 948.4c-11.6-11.5-31.1-2.9-30.5 13.3.2 9.1 8 16.9 17.2 17.1 16.2.6 24.8-18.9 13.3-30.5Zm0 0c9.7 9.4 6.8 26.4-5.6 32.1-16.8 7.8-34.3-9.7-26.5-26.5 5.8-12.4 22.6-15.3 32.1-5.6Z"/><circle class="n" cx="360.3" cy="998.9" r="18.9"/><path class="z" d="M346.9 985.6c-11.5 11.6-2.9 31.1 13.3 30.5 9.1-.2 16.9-8 17.1-17.2.6-16.2-18.9-24.8-30.5-13.3Zm0 0c9.4-9.7 26.4-6.8 32.1 5.6 7.8 16.8-9.7 34.3-26.5 26.5-12.4-5.8-15.3-22.6-5.6-32.1Z"/><circle class="n" cx="360.3" cy="927.2" r="18.9"/><path class="z" d="M360.3 946.1c16.3 0 24-20 12.1-31-6.6-6.3-17.6-6.3-24.3 0-11.9 11-4.2 30.9 12.1 31Zm0 0c-13.5.2-23.5-13.8-18.7-26.6 6.4-17.4 31-17.4 37.5 0 4.7 12.8-5.2 26.8-18.7 26.6ZM449.9 872.9c65.4-.5 122.5 39.2 163.2 87.5-11-11.1-22.7-21.6-35-31.1-36.2-28.2-81.5-46.8-127.8-43.4l-.4-13Z"/><path class="m" d="M456.7 877.5c-19.1 33.1-19.1 66.2 0 99.3 12.8-33.1 12.8-66.2 0-99.3Z"/><path class="z" d="M456.6 877.8c-1.3 3-2.1 6-3.2 9-2.2 6-4 12.3-5.1 18.5-4.8 23.8.8 48 13 68.8l-9.7.8 2.1-5.8c9-25.7 10.6-52.4 5.3-79.1l-1.3-6.2c-.4-2-.6-4-1.2-6.1Zm0-.6c13.2 31.6 13 68 .5 99.9l-.4 1.2-.6-1.1c-19-32.5-19.1-67.7.5-99.9Z"/><path class="m" d="M458 879c-31.9-20.9-62.3-25.8-89.8 0 29.9 24.2 59.8 24.2 89.8 0Z"/><path class="z" d="M457.7 879c-3.8-1.6-7.3-3.3-11.1-4.8-27.1-11.7-52.2-12.9-74.7 8.8l-.3-8.1c18.8 15.5 40.7 23 64.3 14.6 7.7-2.6 14.6-6.3 21.7-10.4Zm.6 0c-29.5 24.7-60.7 24.6-90.4.5l-.5-.4.5-.5c28.2-26.7 60.9-19.9 90.5.4Z"/><path class="n" d="M495.7 859.8c-31.1-28.5-73.9-39.9-128.2-34.4 6-56.3 36.2-88.7 93.9-93.9-12.9 44.3 5.4 86.6 34.4 128.2Z"/><path class="z" d="M495.7 859.8c-35.3-31.4-84.8-37.8-130.2-32.4 3.1-39.3 20.7-75.3 59.5-89.7 12.4-4.8 25.6-7.1 38.8-8.1l-.7 2.5c-13.9 45 8 90.8 32.6 127.7Zm0 0c-25.1-34.3-47-76.5-38.1-120.2l2.1-8.5 1.9 2.3c-55.7 4.9-86.4 37.1-92.2 92.3l-1.9-2c45.1-4.7 94.8 3.4 128.4 36.1Z"/><path class="ac" d="M479.8 843.8c-26.2-23.9-62.1-33.6-107.9-28.9 5-47.4 30.4-74.6 79-79-10.9 37.2 4.5 72.8 28.9 107.9Z"/><path class="z" d="M479.8 843.8c-29.9-26.4-71.5-31.6-109.8-26.9 2.6-33.3 17.3-63.9 50.3-76.1 10.6-4.1 21.9-6 33.1-6.9l-.8 2.5c-11.7 37.7 6.6 76.3 27.2 107.4Zm0 0c-21.3-28.8-39.8-64.4-32.3-101.2l1.7-7.2 1.9 2.3c-46.8 4.2-72.4 31.1-77.3 77.4l-1.9-2c38-3.9 79.9 3 108 30.7Z"/><path class="s" d="M466.3 830.4c-22-20.1-52.3-28.2-90.7-24.3 4.2-39.9 25.6-62.8 66.4-66.4-9.2 31.3 3.8 61.3 24.3 90.7Z"/><path class="z" d="M466.3 830.4c-25.3-22.1-60.4-26.3-92.7-22.3 2.1-28.3 14.5-54.2 42.5-64.6 9.1-3.6 18.8-5.1 28.4-5.8l-.8 2.5c-9.9 31.7 5.4 64 22.6 90.2Zm0 0c-18.1-24.2-33.7-54.1-27.5-85.2l1.5-6.1 1.9 2.3c-39.2 3.6-60.6 26.1-64.8 64.8l-1.9-2c32-3.3 67.3 2.6 90.9 26.1Z"/><path class="w" d="M455.1 819.1c-18.5-16.9-44-23.8-76.3-20.5 3.6-33.5 21.5-52.8 55.9-55.9-7.7 26.4 3.2 51.5 20.5 76.3Z"/><path class="z" d="M455.1 819.1c-21.5-18.6-51-21.9-78.3-18.5 1.8-24.1 12.1-46.1 36-54.9 7.8-3.1 16.1-4.3 24.4-4.9l-.8 2.5c-8.3 26.6 4.5 53.8 18.7 75.8Zm0 0c-16.6-21.8-30.2-49-22.2-76.8l1.9 2.3c-7.1.7-14.1 2.2-20.6 4.8-21.5 8.1-31.2 27.7-33.6 49.5l-1.9-2c27-2.7 56.8 2.3 76.5 22.2Z"/><path class="n" d="M466.2 1073c28.5-31.1 39.9-73.9 34.4-128.2 56.3 6 88.7 36.2 93.9 93.9-44.3-12.9-86.6 5.4-128.2 34.4Z"/><path class="z" d="M466.2 1073c31.4-35.3 37.8-84.8 32.4-130.2 39.3 3.1 75.3 20.7 89.7 59.5 4.8 12.4 7.1 25.6 8.1 38.8l-2.5-.7c-45-13.9-90.8 8-127.7 32.6Zm0 0c34.3-25.1 76.5-47 120.2-38.1l8.5 2.1-2.3 1.9c-4.9-55.7-37.1-86.4-92.3-92.2l2-1.9c4.7 45.1-3.4 94.8-36.1 128.4Z"/><path class="ac" d="M487.9 1051.3c22.3-24.4 31.3-57.9 26.9-100.5 44.2 4.7 69.6 28.4 73.6 73.6-34.7-10.1-67.9 4.2-100.5 26.9Z"/><path class="z" d="M487.9 1051.3c24.6-28 29.3-66.8 24.9-102.5 31.2 2.4 59.7 16.1 71.2 47 3.9 10 5.6 20.5 6.4 31.1l-2.5-.8c-35.1-10.9-71 6.1-100 25.2Zm0 0c26.8-19.9 60-37.2 94.4-30.3l6.7 1.6-2.3 1.9c-3.9-43.5-28.9-67.4-72-72l2-1.9c3.7 35.4-2.8 74.5-28.7 100.7Z"/><path class="s" d="M504.9 1034.3c17.5-19.1 24.5-45.4 21.1-78.9 34.6 3.7 54.6 22.2 57.7 57.7-27.2-8-53.2 3.3-78.9 21.1Z"/><path class="z" d="M504.9 1034.3c19.2-22.2 22.7-52.7 19.1-80.9 24.8 1.9 47.5 12.5 56.6 37.1 3.1 8.1 4.5 16.6 5.1 25.1l-2.5-.8c-27.5-8.6-55.6 4.6-78.4 19.4Zm0 0c22.5-17.1 50.6-31.2 79.4-22.8l-2.3 1.9c-.8-7.3-2.3-14.6-4.9-21.3-8.4-22.2-28.7-32.3-51.2-34.8l2-1.9c2.8 27.9-2.4 58.6-22.9 79Z"/><path class="w" d="M518.3 1021c13.7-15 19.3-35.6 16.6-61.8 27.2 2.9 42.8 17.4 45.3 45.3-21.4-6.2-41.8 2.6-61.8 16.6Z"/><path class="z" d="M518.3 1021c15-17.7 17.5-41.6 14.6-63.8 12.7 1 26 4.7 35.4 13.9 9.5 9.4 13.2 22.9 13.9 35.8-22.6-8.1-44.7 2.1-63.8 14.1Zm0 0c17.5-13.6 39.8-24.8 62.3-18.3l-2.3 1.9c-.6-5.7-1.8-11.4-3.9-16.6-6.5-17.3-22.3-25.1-39.8-27l2-1.9c2.2 21.9-2 46.1-18.3 62Z"/><path class="y" d="M470.8 1037C336 1004.2 350 1209.7 280.3 1268.4c142 33.8 125.2-167.6 190.5-231.4Z"/><path class="z" d="M470.8 1037c-76.1-12.3-98.8 45.9-118.9 106.5-8.6 26-16.5 53.2-27.3 78.5-5.8 13.3-12.3 26.4-21.2 38.2-4.5 6-9.7 11.8-15.7 17l-4.7-20c12.5 2.9 25.2 4.4 37.2 3 88-9.3 87.8-172.3 150.6-223.2Zm0 0c-17.6 21.4-25.8 48.3-33.6 74.4-17.2 56-30.7 140.4-91.5 165.5-30.9 12.6-59.6 4.9-90.3-2.5l17.6-14.8c8.9-7.5 16.3-17.8 22.5-29 12.9-23.2 21.6-49.1 31-74.2 24.2-66.1 57.9-148.4 144.3-119.4Z"/><path class="y" d="M643.2 1775.9c-76.6 70.4-108.8 170.3-97 299.6l-34.1-46.1c-36.6-49.5-28.1-118.9 19.2-158.1s111.9-95.3 111.9-95.3Z"/><path class="z" d="M643.2 1775.9c-48.8 47.4-79.6 111-89.5 178-7.4 45.7-5.8 92.6-1 138.6-5.9-7.9-18.7-25.1-24.7-33.2l-14.1-19.1c-4.1-5.6-8.6-11.4-12.1-17.4-22.1-36.2-22.7-84.1-1.4-120.7 8.1-14.3 19.3-26.4 32.2-36.5 36.6-30.4 74.6-58.9 110.6-89.7Zm0 0c-24.4 20.6-48.5 42.7-71.8 64.1-12.9 11.8-25.8 23.3-38.9 34.8-4.3 3.8-8.4 7.9-12.1 12.3-34.4 40.8-35.2 100.7-2.1 142.4 8.7 11.8 23.1 31.1 31.8 43l-8.9 3.4c-10.5-111.4 13.4-224.8 101.9-300Z"/><path class="y" d="M639.8 1778.4c-69.1 63.5-98.1 153.6-87.5 270.1l-30.8-41.6c-33-44.6-25.4-107.2 17.3-142.6s100.9-85.9 100.9-85.9Z"/><path class="z" d="M639.8 1778.4c-34.8 34.3-60.1 77.8-72.7 125-14.5 52.7-14.1 108.2-8.2 162.1-5.7-7.6-17.5-23.6-23.3-31.3-6.8-9.6-17.6-23.1-23.7-33-20-32.7-20.5-76.1-1.2-109.3 7.3-12.9 17.5-23.9 29.1-33 33.1-27.4 67.5-52.8 99.9-80.6Zm0 0c-32.9 27.7-63.6 57.7-95.7 86-5.1 4.5-10.4 9.2-14.8 14.5-30.8 36.6-31.5 90.4-1.7 127.9 7.9 10.6 20.8 28.1 28.6 38.7l-8.9 3.4c-9.4-100.5 12.3-203 92.4-270.5Z"/><path class="y" d="M643 1775.9c-61.1 56.1-86.7 135.8-77.4 238.8l-27.2-36.8c-29.2-39.4-22.4-94.8 15.3-126.1s89.2-76 89.2-76Z"/><path class="z" d="M643 1775.9c-38.5 38.1-62.8 88.7-70.5 142.1-6 37.5-4.3 76.1-.3 113.8-5.4-7.3-16.4-22-21.8-29.3l-11.2-15.3c-3.8-5.2-7.9-10.5-11-16.1-16.7-28.8-16.5-66.3.2-95 6.5-11.5 15.6-21.2 25.9-29.3 29.3-24.1 60-46.4 88.6-71Zm0 0c-29.1 24.5-56.1 51.3-84.4 76.4-4.5 4-9.2 8.1-13 12.8-27 32.2-27.6 79.6-1.4 112.5 7 9.4 18.4 24.8 25.3 34.3l-8.9 3.4c-8.3-88.9 11.1-179.9 82.3-239.3Z"/><circle class="n" cx="413.8" cy="1756.9" r="18.9"/><path class="z" d="M427.2 1770.2c-9.4 9.7-26.4 6.8-32.1-5.6-7.8-16.8 9.6-34.3 26.5-26.5 12.4 5.8 15.3 22.6 5.6 32.1Zm0 0c11.5-11.6 2.8-31.1-13.3-30.5-9.1.2-16.9 8-17.2 17.1-.6 16.2 18.9 24.8 30.5 13.3Z"/><circle class="n" cx="360.3" cy="1719.7" r="18.9"/><path class="z" d="M346.9 1733.1c-9.7-9.5-6.8-26.3 5.6-32.1 16.8-7.8 34.3 9.6 26.5 26.5-5.8 12.4-22.6 15.3-32.1 5.6Zm0 0c11.6 11.5 31.1 2.8 30.5-13.3-.2-9.1-8-16.9-17.1-17.2-16.2-.6-24.8 18.9-13.3 30.5Z"/><circle class="n" cx="360.3" cy="1791.4" r="18.9"/><path class="z" d="M360.3 1772.6c13.5-.2 23.5 13.8 18.7 26.6-6.4 17.4-31 17.4-37.5 0-4.7-12.8 5.2-26.8 18.7-26.6Zm0 0c-16.3 0-24 20-12.1 31 6.6 6.3 17.6 6.3 24.3 0 11.9-11 4.2-30.9-12.1-31ZM450.2 1832.8c46.3 3.4 91.6-15.2 127.8-43.4 12.4-9.5 24-20 35-31.1-10.2 11.9-21.2 23.2-33 33.6-23.8 21-51.4 38.2-82.3 47-15.5 4.5-31.7 6.8-47.9 6.9l.4-13Z"/><path class="m" d="M456.7 1841.1c-19.1-33.1-19.1-66.2 0-99.3 12.8 33.1 12.8 66.2 0 99.3Z"/><path class="z" d="M456.7 1841.4c-1.9-2.7-4.3-5.4-5.8-8.4-2.9-4.6-5.4-9.9-7.4-15-6.1-16-7.2-33.8-3.1-50.5 3-13.8 10.4-26.7 17.4-38.7 2.4 6.8 6 16.6 8 23.5 8.5 29.4 5.8 62.2-9.1 89.1Zm0-.6c12-33.5 12.4-65.5-.5-98.8h1.1c-19.2 33.1-18.9 65.4-.5 98.7Z"/><path class="m" d="M458 1839.6c-31.9 20.9-62.3 25.8-89.8 0 29.9-24.2 59.8-24.2 89.8 0Z"/><path class="z" d="M458.3 1839.7c-18.9 17-46.7 28.3-71.6 18.2-10.4-4-18.9-11.1-26.8-18.6l5-3.9c17.3-13.9 39.1-22.5 61.3-16.1 12.4 3.5 23.6 11.1 32.2 20.3Zm-.6 0c-30.2-23.5-59.2-23.7-89.1.5v-.9c28.3 26.8 58.9 19.5 89.1.4Z"/><path class="n" d="M495.7 1858.9c-31.1 28.5-73.9 39.9-128.2 34.4 6 56.3 36.2 88.7 93.9 93.9-12.9-44.3 5.4-86.6 34.4-128.2Z"/><path class="z" d="M495.7 1858.9c-33.6 32.7-83.2 40.8-128.4 36.1l1.9-2c5.8 55.2 36.5 87.3 92.2 92.3l-1.9 2.3-2.1-8.5c-8.9-43.8 13-85.9 38.1-120.2Zm0 0c-24.7 36.9-46.6 82.8-32.6 127.7l.7 2.5c-13.2-1-26.3-3.3-38.8-8.1-38.8-14.4-56.4-50.4-59.5-89.7 45.4 5.5 94.9-.9 130.2-32.4Z"/><path class="ac" d="M479.8 1874.8c-26.2 23.9-62.1 33.6-107.9 28.9 5 47.4 30.4 74.6 79 79-10.9-37.2 4.5-72.8 28.9-107.9Z"/><path class="z" d="M479.8 1874.8c-28.2 27.7-70 34.6-108 30.7l1.9-2c5 46.3 30.6 73.2 77.3 77.4l-1.9 2.3-1.7-7.2c-7.4-36.8 11-72.4 32.3-101.2Zm0 0c-20.6 31.1-38.9 69.6-27.2 107.4l.8 2.5c-11.2-.8-22.5-2.7-33.1-6.9-33-12.3-47.7-42.7-50.3-76.1 38.3 4.7 80-.5 109.8-26.9Z"/><path class="s" d="M466.3 1888.2c-22 20.1-52.3 28.2-90.7 24.3 4.2 39.9 25.6 62.8 66.4 66.4-9.2-31.3 3.8-61.3 24.3-90.7Z"/><path class="z" d="M466.3 1888.2c-23.6 23.4-58.9 29.4-90.9 26.1l1.9-2c4.2 38.8 25.6 61.3 64.8 64.8l-1.9 2.3-1.5-6.1c-6.2-31.1 9.4-61 27.5-85.2Zm0 0c-17.2 26.2-32.5 58.6-22.6 90.2l.8 2.5c-9.6-.7-19.3-2.2-28.4-5.8-28-10.4-40.4-36.3-42.5-64.6 32.3 4 67.4-.2 92.7-22.3Z"/><path class="w" d="M455.1 1899.5c-18.5 16.9-44 23.8-76.3 20.5 3.6 33.5 21.5 52.8 55.9 55.9-7.7-26.4 3.2-51.5 20.5-76.3Z"/><path class="z" d="M455.1 1899.5c-19.8 19.9-49.5 25-76.5 22.2l1.9-2c2.4 21.8 12.1 41.4 33.6 49.5 6.6 2.6 13.6 4 20.6 4.8l-1.9 2.3c-8.1-27.9 5.6-55 22.2-76.8Zm0 0c-14.3 22.1-27.1 49.3-18.7 75.8l.8 2.5-2.6-.2c-14.8-1.2-30-6-40.7-16.8-11.2-11.4-15.8-27.4-17.1-42.9 27.3 3.4 56.8.1 78.3-18.5Z"/><path class="n" d="M466.2 1645.6c28.5 31.1 39.9 73.9 34.4 128.2 56.3-6 88.7-36.2 93.9-93.9-44.3 12.9-86.6-5.4-128.2-34.4Z"/><path class="z" d="M466.2 1645.6c32.7 33.6 40.8 83.2 36.1 128.4l-2-1.9c55.2-5.8 87.3-36.5 92.3-92.2l2.3 1.9-8.5 2.1c-43.8 8.9-85.9-13-120.2-38.1Zm0 0c36.9 24.7 82.8 46.6 127.7 32.6l2.5-.7c-1 13.2-3.3 26.3-8.1 38.8-14.4 38.8-50.4 56.4-89.7 59.5 5.5-45.4-.9-94.9-32.4-130.2Z"/><path class="ac" d="M487.9 1667.3c22.3 24.4 31.3 57.9 26.9 100.5 44.2-4.7 69.6-28.4 73.6-73.6-34.7 10.1-67.9-4.2-100.5-26.9Z"/><path class="z" d="M487.9 1667.3c25.9 26.2 32.4 65.3 28.7 100.7l-2-1.9c43.1-4.6 68.1-28.5 72-72l2.3 1.9-6.7 1.6c-34.4 6.9-67.5-10.3-94.4-30.3Zm0 0c29 19.1 64.9 36.2 100 25.2l2.5-.8c-.8 10.5-2.5 21.1-6.4 31.1-11.5 30.9-40 44.6-71.2 47 4.4-35.7-.4-74.6-24.9-102.5Z"/><path class="s" d="M504.9 1684.3c17.5 19.1 24.5 45.4 21.1 78.9 34.6-3.7 54.6-22.2 57.7-57.7-27.2 8-53.2-3.3-78.9-21.1Z"/><path class="z" d="M504.9 1684.3c20.5 20.4 25.7 51.2 22.9 79l-2-1.9c22.5-2.5 42.9-12.5 51.2-34.8 2.6-6.8 4.2-14 4.9-21.3l2.3 1.9c-28.8 8.3-56.8-5.8-79.4-22.8Zm0 0c22.8 14.8 50.9 28 78.4 19.4l2.5-.8-.2 2.6c-1.2 15.2-6.2 30.9-17.3 42-11.7 11.6-28.2 16.3-44.2 17.6 3.5-28.2 0-58.6-19.1-80.8Z"/><path class="w" d="M518.3 1697.7c13.7 15 19.3 35.6 16.6 61.8 27.2-2.9 42.8-17.4 45.3-45.3-21.4 6.2-41.8-2.6-61.8-16.6Z"/><path class="z" d="M518.3 1697.7c16.3 15.9 20.5 40.1 18.3 62l-2-1.9c17.5-2 33.3-9.8 39.8-27 2.1-5.3 3.3-10.9 3.9-16.6l2.3 1.9c-22.5 6.5-44.9-4.7-62.3-18.3Zm0 0c19.1 12 41.2 22.2 63.8 14.1-.7 12.9-4.4 26.4-13.9 35.8-9.4 9.3-22.6 12.9-35.4 13.9 2.9-22.3.4-46.1-14.6-63.8Z"/><path class="y" d="M470.8 1681.7C336 1714.5 350 1509 280.3 1450.3c142-33.8 125.2 167.6 190.5 231.4Z"/><path class="z" d="M470.8 1681.7c-86.4 29-120.1-53.3-144.3-119.4-13.4-34-26.1-78.9-53.6-103.2l-17.6-14.8c30.8-7.4 59.4-15.1 90.3-2.5 60.8 25.1 74.3 109.5 91.5 165.5 7.8 26.1 16 53 33.6 74.4Zm0 0c-62.8-51-62.7-213.9-150.6-223.2-12-1.4-24.7.1-37.2 3l4.7-20c11.7 10 20.5 22.5 27.6 35.7 19.5 36.9 29 78.2 43.1 117.1 19.9 55.7 45.8 97.9 112.3 87.3Z"/><path class="aa" d="M853.6 0c38.2 113.7 20.3 162.8-7 194.3-36.2 41.7-5.1 106.5 50 104.7s39.9.7 59 4.6c11.4-14.8 25.5-28.2 42.3-40.2 44.3-31.8 30-101.1-23.2-113.1C934.4 141.2 891.2 112 853.6 0Z"/><path class="z" d="M853.6 0c21.9 48.4 41.1 107.5 26 160.7-4.5 15.5-12.5 30.1-22.7 42.6-6.2 7.9-9.9 17.1-10.7 26.9-1.3 18.8 9.1 38 26 46.6 6.3 3.2 13.2 4.8 20.2 5.1h5.3c20.5-.8 41.1.7 61.3 4.7l-17.3 6.5c13-16.9 28.9-31.4 46.2-43.6 3.4-2.5 6.8-5.4 9.4-8.7 1.5-1.6 2.8-3.7 4-5.6l.6-1 .5-1c7.6-13.9 7-31.6-.4-45.5-6.2-11.6-16.8-20.1-29.6-23.7-15.8-4.1-31.1-11.1-44-21.1-43.2-33.6-63.3-91.6-74.8-142.9Zm0 0c22.8 47.5 52.2 110.1 103.3 131.1 7.2 2.9 14.4 4.6 22 6.1 20.3 4 39.1 17 49.8 34.9 11.1 18 14.5 40.5 9.3 61.1-4.6 18.4-15.9 34-31.2 45-17.2 12.5-31.8 27.9-44 44.8l-10.7-2.2c-18.5-3.8-37.8-5-56.9-4.6-6.7 0-13.5-.7-20-2.4-31.7-7.5-56.3-37-59-69-2.3-21 5.1-43 19.1-58.4 2.6-2.9 5.3-5.9 7.7-8.9C880.8 130 864.7 55.1 853.6 0Z"/><path class="v" d="M890.6 111.6c24.2 71.9 12.9 103-4.5 123s-3.2 67.4 31.7 66.3c12.8-.4 25.2.5 37.3 2.9 7.2-9.3 16.1-17.8 26.8-25.5 28-20.1 19-64-14.7-71.6s-52.8-24.3-76.6-95.1Z"/><path class="z" d="M890.6 111.6c14.8 31.5 28.1 71.8 15.9 106.3-2.2 6.5-5.6 12.6-9.4 18.3-1.1 1.6-2.8 3.7-3.9 5.3-3.2 4.2-5 8.8-5.8 13.7-2.2 14.5 7.8 29.8 22.2 32.7 2.5.6 5.2.7 7.8.6 13.4-.6 26.9.3 40.2 2.9l-12.4 4.6c8.9-11.5 19.6-21 31.3-29.1 18.2-14.7 11.3-44.3-11-50.6-5.7-1.6-11.4-3.7-16.7-6.4-6.6-3.5-12.9-7.9-18.2-13.1-22.6-21.9-33.7-55.2-40.1-85.3Zm0 0c13.8 27.6 31.4 64.1 59.5 79 5.1 2.8 10.7 4.7 16.4 5.9l3.7.8c9.7 2 19.3 7 26.1 14.5 20.5 21.7 18 57.5-6.1 75.6-9.3 6.9-18.3 14.9-25.1 24l-4.7 6.2c-12.2-2.8-24.7-4.6-37.4-4.5h-8.6c-29.8-1.1-52.5-28.7-48.5-58 1.3-9.7 5.9-19.1 12.3-26.2.6-.7 1.9-2.1 2.5-2.9 5.6-6.1 9.8-13.4 12.6-21.2 4.2-11.9 5.1-24.8 4.8-37.4-.6-18.7-4-37.4-7.5-55.7Z"/><path class="aa" d="M1846.2 0c-38.2 113.7-20.3 162.8 7 194.3 36.2 41.7 5.1 106.5-50 104.7-20.2-.7-39.9.7-59 4.6-11.4-14.8-25.5-28.2-42.3-40.2-44.3-31.8-30-101.1 23.2-113.1 40.4-9.1 83.5-38.3 121.1-150.3Z"/><path class="z" d="M1846.2 0c-11.2 55.1-27.3 130 10.6 177.4 2.4 3.1 5.1 6 7.7 8.9 14.1 15.4 21.5 37.4 19.1 58.4-2.7 32-27.3 61.5-59 69-6.5 1.7-13.3 2.4-20 2.4-19.1-.4-38.4.8-56.9 4.6l-10.7 2.2c-12.2-16.9-26.8-32.3-44-44.8-15.3-11-26.6-26.6-31.2-45-5.2-20.5-1.8-43 9.3-61.1 10.7-17.9 29.5-30.9 49.8-34.9 7.6-1.5 14.8-3.2 22-6.1 51.2-20.9 80.5-83.5 103.3-131Zm0 0c-11.5 50.7-30.6 106.3-72 140.7-13.6 11.1-29.9 18.8-46.8 23.2-12.8 3.7-23.4 12.1-29.6 23.7-7.4 13.9-8 31.6-.4 45.5 3.4 6.6 8.5 11.9 14.6 16.3 17.4 12.2 33.2 26.7 46.2 43.6l-17.3-6.5c20.2-4.1 40.8-5.5 61.3-4.7 1.5.1 3.7 0 5.3 0 7.1-.2 13.9-1.8 20.2-5.1 16.9-8.6 27.3-27.8 26-46.6-.8-9.8-4.4-18.9-10.7-26.9-10.2-12.5-18.2-27.1-22.7-42.6-15.1-53.2 4.1-112.3 26-160.7Z"/><path class="v" d="M1809.2 111.6c-24.2 71.9-12.9 103 4.5 123 22.9 26.4 3.2 67.4-31.7 66.3-12.8-.4-25.2.5-37.3 2.9-7.2-9.3-16.1-17.8-26.8-25.5-28-20.1-19-64 14.7-71.6 25.5-5.7 52.8-24.3 76.6-95.1Z"/><path class="z" d="M1809.2 111.6c-5.5 29-12.5 64.6-2.7 93.1 2.8 7.8 7 15.1 12.6 21.2.6.7 1.9 2.1 2.5 2.9 6.4 7.1 11 16.5 12.3 26.2 4.1 29.3-18.6 56.9-48.5 58h-8.6c-12.7-.1-25.2 1.7-37.4 4.5l-4.7-6.2c-6.8-9.1-15.8-17-25.1-24-24.1-18.1-26.7-54-6.1-75.6 6.8-7.4 16.4-12.5 26.1-14.5l3.7-.8c5.7-1.2 11.3-3.1 16.4-5.9 28-15 45.7-51.4 59.5-79Zm0 0c-6.4 30.1-17.5 63.4-40.1 85.3-5.3 5.3-11.6 9.6-18.2 13.1-5.3 2.7-11 4.8-16.7 6.4-22.2 6.3-29.2 35.9-11 50.6 11.7 8.2 22.4 17.6 31.3 29.1l-12.4-4.6c13.3-2.6 26.8-3.6 40.2-2.9 2.6 0 5.3 0 7.8-.6 14.4-2.9 24.4-18.2 22.2-32.7-.7-5-2.6-9.6-5.8-13.7-1.1-1.5-2.8-3.6-3.9-5.3-3.8-5.7-7.2-11.8-9.4-18.3-12.1-34.5 1.2-74.8 15.9-106.3Z"/><path class="aa" d="M853.6 2699.8c38.2-113.7 20.3-162.8-7-194.3-36.2-41.7-5.1-106.5 50-104.7 20.2.7 39.9-.7 59-4.6 11.4 14.8 25.5 28.2 42.3 40.2 44.3 31.8 30 101.1-23.2 113.1-40.3 9.1-83.5 38.3-121.1 150.3Z"/><path class="z" d="M853.6 2699.8c11.2-55.1 27.3-130-10.6-177.4-2.4-3.1-5.1-6-7.7-8.9-14.1-15.4-21.5-37.4-19.1-58.4 2.7-32 27.3-61.5 59-69 6.5-1.7 13.3-2.4 20-2.4 19.1.4 38.4-.8 56.9-4.6l10.7-2.2c12.2 16.9 26.8 32.3 44 44.8 15.3 11 26.6 26.6 31.2 45 5.2 20.5 1.8 43-9.3 61.1-10.7 17.9-29.5 30.9-49.8 34.9-7.6 1.5-14.8 3.2-22 6.1-51.1 21-80.4 83.5-103.3 131.1Zm0 0c11.5-50.7 30.6-106.3 72-140.7 13.6-11.1 29.9-18.8 46.8-23.2 12.8-3.7 23.4-12.1 29.6-23.7 7.4-13.9 8-31.6.4-45.5l-.5-1-.6-1c-1.2-1.9-2.5-3.9-4-5.6-2.6-3.3-6-6.2-9.4-8.7-17.4-12.2-33.2-26.7-46.2-43.6l17.3 6.5c-20.2 4.1-40.8 5.5-61.3 4.7-1.5-.1-3.7 0-5.3 0-7.1.2-13.9 1.8-20.2 5.1-16.9 8.6-27.3 27.8-26 46.6.8 9.8 4.4 18.9 10.7 26.9 10.2 12.5 18.2 27.1 22.7 42.6 15.1 53.2-4.1 112.3-26 160.7Z"/><path class="v" d="M890.6 2588.2c24.2-71.9 12.9-103-4.5-123-22.9-26.4-3.2-67.4 31.7-66.3 12.8.4 25.2-.5 37.3-2.9 7.2 9.3 16.1 17.8 26.8 25.5 28 20.1 19 64-14.7 71.6-25.5 5.7-52.8 24.3-76.6 95.1Z"/><path class="z" d="M890.6 2588.2c5.5-29 12.5-64.6 2.7-93.1-2.8-7.8-7-15.1-12.6-21.2-.6-.7-1.9-2.1-2.5-2.9-6.4-7.1-11-16.5-12.3-26.2-4.1-29.3 18.6-56.9 48.5-58h8.6c12.7.1 25.2-1.7 37.4-4.5l4.7 6.2c6.8 9.1 15.8 17 25.1 24 24.1 18.1 26.7 54 6.1 75.6-6.8 7.4-16.4 12.5-26.1 14.5l-3.7.8c-5.7 1.2-11.3 3.1-16.4 5.9-28 15-45.7 51.4-59.5 79Zm0 0c6.4-30.1 17.5-63.4 40.1-85.3 5.3-5.3 11.6-9.6 18.2-13.1 5.3-2.7 11-4.8 16.7-6.4 22.2-6.3 29.2-35.9 11-50.6-11.7-8.2-22.4-17.6-31.3-29.1l12.4 4.6c-13.3 2.6-26.8 3.6-40.2 2.9-2.6 0-5.3 0-7.8.6-14.4 2.9-24.4 18.2-22.2 32.7.7 5 2.6 9.6 5.8 13.7 1.1 1.5 2.8 3.6 3.9 5.3 3.8 5.7 7.2 11.8 9.4 18.3 12.1 34.5-1.2 74.8-15.9 106.3Z"/><path class="aa" d="M1846.2 2699.8c-38.2-113.7-20.3-162.8 7-194.3 36.2-41.7 5.1-106.5-50-104.7-20.2.7-39.9-.7-59-4.6-11.4 14.8-25.5 28.2-42.3 40.2-44.3 31.8-30 101.1 23.2 113.1 40.3 9.1 83.5 38.3 121.1 150.3Z"/><path class="z" d="M1846.2 2699.8c-21.9-48.4-41.1-107.5-26-160.7 4.5-15.5 12.5-30.1 22.7-42.6 6.2-7.9 9.9-17.1 10.7-26.9 1.3-18.8-9.1-38-26-46.6-6.3-3.2-13.2-4.8-20.2-5.1h-5.3c-20.5.8-41.1-.7-61.3-4.7l17.3-6.5c-13 16.9-28.9 31.4-46.2 43.6-3.4 2.5-6.8 5.4-9.4 8.7-1.5 1.6-2.8 3.7-4 5.6l-.6 1-.5 1c-7.6 13.9-7 31.6.4 45.5 6.2 11.6 16.8 20.1 29.6 23.7 15.8 4.1 31.1 11.1 44 21.1 43.2 33.6 63.2 91.5 74.8 142.8Zm0 0c-22.8-47.5-52.2-110.1-103.3-131.1-7.2-2.9-14.4-4.6-22-6.1-20.3-4-39.1-17-49.8-34.9-11.1-18-14.5-40.5-9.3-61.1 4.6-18.4 15.9-34 31.2-45 17.2-12.5 31.8-27.9 44-44.8l10.7 2.2c18.5 3.8 37.8 5 56.9 4.6 6.7 0 13.5.7 20 2.4 31.7 7.5 56.3 37 59 69 2.3 21-5.1 43-19.1 58.4-2.6 2.9-5.3 5.9-7.7 8.9-37.9 47.4-21.7 122.3-10.6 177.4Z"/><path class="v" d="M1809.2 2588.2c-24.2-71.9-12.9-103 4.5-123 22.9-26.4 3.2-67.4-31.7-66.3-12.8.4-25.2-.5-37.3-2.9-7.2 9.3-16.1 17.8-26.8 25.5-28 20.1-19 64 14.7 71.6 25.5 5.7 52.8 24.3 76.6 95.1Z"/><path class="z" d="M1809.2 2588.2c-14.8-31.5-28.1-71.8-15.9-106.3 2.2-6.5 5.6-12.6 9.4-18.3 1.1-1.6 2.8-3.7 3.9-5.3 3.2-4.2 5-8.8 5.8-13.7 2.2-14.5-7.8-29.8-22.2-32.7-2.5-.6-5.2-.7-7.8-.6-13.4.6-26.9-.3-40.2-2.9l12.4-4.6c-8.9 11.5-19.6 21-31.3 29.1-18.2 14.7-11.3 44.3 11 50.6 5.7 1.6 11.4 3.7 16.7 6.4 6.6 3.5 12.9 7.9 18.2 13.1 22.6 21.9 33.7 55.2 40.1 85.3Zm0 0c-13.8-27.6-31.4-64.1-59.5-79-5.1-2.8-10.7-4.7-16.4-5.9l-3.7-.8c-9.7-2-19.3-7-26.1-14.5-20.5-21.7-18-57.5 6.1-75.6 9.3-6.9 18.3-14.9 25.1-24l4.7-6.2c12.2 2.8 24.7 4.6 37.4 4.5h8.6c29.8 1.1 52.5 28.7 48.5 58-1.3 9.7-5.9 19.1-12.3 26.2-.6.7-1.9 2.1-2.5 2.9-5.6 6.1-9.8 13.4-12.6 21.2-4.2 11.9-5.1 24.8-4.8 37.4.6 18.7 4 37.4 7.5 55.7Z"/><path class="aa" d="M2699.8 853.6c-113.7 38.2-162.8 20.3-194.3-7-41.7-36.2-106.5-5.1-104.7 50 .7 20.2-.7 39.9-4.6 59 14.8 11.4 28.2 25.5 40.2 42.3 31.8 44.3 101.1 30 113.1-23.2 9.1-40.3 38.3-83.5 150.3-121.1Z"/><path class="z" d="M2699.8 853.6c-48.4 21.9-107.5 41.1-160.7 26-15.5-4.5-30.1-12.5-42.6-22.7-7.9-6.2-17.1-9.9-26.9-10.7-18.8-1.3-38 9.1-46.6 26-3.2 6.3-4.8 13.2-5.1 20.2v5.3c.8 20.5-.7 41.1-4.7 61.3l-6.5-17.3c16.9 13 31.4 28.9 43.6 46.2 2.5 3.4 5.4 6.8 8.7 9.4 1.6 1.5 3.7 2.8 5.6 4l1 .6 1 .5c13.9 7.6 31.6 7 45.5-.4 11.6-6.2 20.1-16.8 23.7-29.6 4.1-15.8 11.1-31.1 21.1-44 33.6-43.2 91.5-63.2 142.8-74.8Zm0 0c-47.5 22.8-110.1 52.2-131.1 103.3-2.9 7.2-4.6 14.4-6.1 22-4 20.3-17 39.1-34.9 49.8-18 11.1-40.5 14.5-61.1 9.3-18.4-4.6-34-15.9-45-31.2-12.5-17.2-27.9-31.8-44.8-44l2.2-10.7c3.8-18.5 5-37.8 4.6-56.9 0-6.7.7-13.5 2.4-20 7.5-31.7 37-56.3 69-59 21-2.3 43 5.1 58.4 19.1 2.9 2.6 5.9 5.3 8.9 7.7 47.4 37.9 122.3 21.7 177.4 10.6Z"/><path class="v" d="M2588.2 890.6c-71.9 24.2-103 12.9-123-4.5-26.4-22.9-67.4-3.2-66.3 31.7.4 12.8-.5 25.2-2.9 37.3 9.3 7.2 17.8 16.1 25.5 26.8 20.1 28 64 19 71.6-14.7 5.7-25.5 24.3-52.8 95.1-76.6Z"/><path class="z" d="M2588.2 890.6c-31.5 14.8-71.8 28.1-106.3 15.9-6.5-2.2-12.6-5.6-18.3-9.4-1.6-1.1-3.7-2.8-5.3-3.9-4.2-3.2-8.8-5-13.7-5.8-14.5-2.2-29.8 7.8-32.7 22.2-.6 2.5-.7 5.2-.6 7.8.6 13.4-.3 26.9-2.9 40.2l-4.6-12.4c11.5 8.9 21 19.6 29.1 31.3 14.7 18.2 44.3 11.3 50.6-11 1.6-5.7 3.7-11.4 6.4-16.7 3.5-6.6 7.9-12.9 13.1-18.2 21.9-22.6 55.2-33.7 85.3-40.1Zm0 0c-27.6 13.8-64.1 31.4-79 59.5-2.8 5.1-4.7 10.7-5.9 16.4l-.8 3.7c-2 9.7-7 19.3-14.5 26.1-21.7 20.5-57.5 18-75.6-6.1-6.9-9.3-14.9-18.3-24-25.1l-6.2-4.7c2.8-12.2 4.6-24.7 4.5-37.4v-8.6c1.1-29.8 28.7-52.5 58-48.5 9.7 1.3 19.1 5.9 26.2 12.3.7.6 2.1 1.9 2.9 2.5 6.1 5.6 13.4 9.8 21.2 12.6 11.9 4.2 24.8 5.1 37.4 4.8 18.7-.6 37.4-4 55.7-7.5Z"/><path class="aa" d="M2699.8 1846.2c-113.7-38.2-162.8-20.3-194.3 7-41.7 36.2-106.5 5.1-104.7-50 .7-20.2-.7-39.9-4.6-59 14.8-11.4 28.2-25.5 40.2-42.3 31.8-44.3 101.1-30 113.1 23.2 9.1 40.3 38.3 83.5 150.3 121.1Z"/><path class="z" d="M2699.8 1846.2c-55.1-11.2-130-27.3-177.4 10.6-3.1 2.4-6 5.1-8.9 7.7-15.4 14.1-37.4 21.5-58.4 19.1-32-2.7-61.5-27.3-69-59-1.7-6.5-2.4-13.3-2.4-20 .4-19.1-.8-38.4-4.6-56.9l-2.2-10.7c16.9-12.2 32.3-26.8 44.8-44 11-15.3 26.6-26.6 45-31.2 20.5-5.2 43-1.8 61.1 9.3 17.9 10.7 30.9 29.5 34.9 49.8 1.5 7.6 3.2 14.8 6.1 22 21 51.1 83.5 80.4 131.1 103.3Zm0 0c-50.7-11.5-106.3-30.6-140.7-72-11.1-13.6-18.8-29.9-23.2-46.8-3.7-12.8-12.1-23.4-23.7-29.6-13.9-7.4-31.6-8-45.5-.4l-1 .5-1 .6c-1.9 1.2-3.9 2.5-5.6 4-3.3 2.6-6.2 6-8.7 9.4-12.2 17.4-26.7 33.2-43.6 46.2l6.5-17.3c4.1 20.2 5.5 40.8 4.7 61.3-.1 1.5 0 3.7 0 5.3.2 7.1 1.8 13.9 5.1 20.2 8.6 16.9 27.8 27.3 46.6 26 9.8-.8 18.9-4.4 26.9-10.7 12.5-10.2 27.1-18.2 42.6-22.7 53.2-15.1 112.3 4.1 160.7 26Z"/><path class="v" d="M2588.2 1809.2c-71.9-24.2-103-12.9-123 4.5-26.4 22.9-67.4 3.2-66.3-31.7s-.5-25.2-2.9-37.3c9.3-7.2 17.8-16.1 25.5-26.8 20.1-28 64-19 71.6 14.7 5.7 25.5 24.3 52.8 95.1 76.6Z"/><path class="z" d="M2588.2 1809.2c-29-5.5-64.6-12.5-93.1-2.7-7.8 2.8-15.1 7-21.2 12.6-.7.6-2.1 1.9-2.9 2.5-7.1 6.4-16.5 11-26.2 12.3-29.3 4.1-56.9-18.6-58-48.5v-8.6c.1-12.7-1.7-25.2-4.5-37.4l6.2-4.7c9.1-6.8 17-15.8 24-25.1 18.1-24.1 54-26.7 75.6-6.1 7.4 6.8 12.5 16.4 14.5 26.1l.8 3.7c1.2 5.7 3.1 11.3 5.9 16.4 15 28 51.4 45.7 79 59.5Zm0 0c-30.1-6.4-63.4-17.5-85.3-40.1-5.3-5.3-9.6-11.6-13.1-18.2-2.7-5.3-4.8-11-6.4-16.7-6.3-22.2-35.9-29.2-50.6-11-8.2 11.7-17.6 22.4-29.1 31.3l4.6-12.4c2.6 13.3 3.6 26.8 2.9 40.2 0 2.6 0 5.3.6 7.8 2.9 14.4 18.2 24.4 32.7 22.2 5-.7 9.6-2.6 13.7-5.8 1.5-1.1 3.6-2.8 5.3-3.9 5.7-3.8 11.8-7.2 18.3-9.4 34.5-12.1 74.8 1.2 106.3 15.9Z"/><path class="aa" d="M0 853.6c113.7 38.2 162.8 20.3 194.3-7 41.7-36.2 106.5-5.1 104.7 50-.7 20.2.7 39.9 4.6 59-14.8 11.4-28.2 25.5-40.2 42.3-31.8 44.3-101.1 30-113.1-23.2C141.2 934.3 112 891.2 0 853.6Z"/><path class="z" d="M0 853.6c55.1 11.2 130 27.3 177.4-10.6 3.1-2.4 6-5.1 8.9-7.7 15.4-14.1 37.4-21.5 58.4-19.1 32 2.7 61.5 27.3 69 59 1.7 6.5 2.4 13.3 2.4 20-.4 19.1.8 38.4 4.6 56.9l2.2 10.7c-16.9 12.2-32.3 26.8-44.8 44-11 15.3-26.6 26.6-45 31.2-20.5 5.2-43 1.8-61.1-9.3-17.9-10.7-30.9-29.5-34.9-49.8-1.5-7.6-3.2-14.8-6.1-22-21-51.1-83.5-80.4-131.1-103.3Zm0 0c50.7 11.5 106.3 30.6 140.7 72 11.1 13.6 18.8 29.9 23.2 46.8 3.7 12.8 12.1 23.4 23.7 29.6 13.9 7.4 31.6 8 45.5.4l1-.5 1-.6c1.9-1.2 3.9-2.5 5.6-4 3.3-2.6 6.2-6 8.7-9.4 12.2-17.4 26.7-33.2 43.6-46.2l-6.5 17.3c-4.1-20.2-5.5-40.8-4.7-61.3.1-1.5 0-3.7 0-5.3-.2-7.1-1.8-13.9-5.1-20.2-8.6-16.9-27.8-27.3-46.6-26-9.8.8-18.9 4.4-26.9 10.7-12.5 10.2-27.1 18.2-42.6 22.7-53.2 15.1-112.3-4.1-160.7-26Z"/><path class="v" d="M111.6 890.6c71.9 24.2 103 12.9 123-4.5 26.4-22.9 67.4-3.2 66.3 31.7-.4 12.8.5 25.2 2.9 37.3-9.3 7.2-17.8 16.1-25.5 26.8-20.1 28-64 19-71.6-14.7-5.7-25.5-24.3-52.8-95.1-76.6Z"/><path class="z" d="M111.6 890.6c29 5.5 64.6 12.5 93.1 2.7 7.8-2.8 15.1-7 21.2-12.6.7-.6 2.1-1.9 2.9-2.5 7.1-6.4 16.5-11 26.2-12.3 29.3-4.1 56.9 18.6 58 48.5v8.6c-.1 12.7 1.7 25.2 4.5 37.4l-6.2 4.7c-9.1 6.8-17 15.8-24 25.1-18.1 24.1-54 26.7-75.6 6.1-7.4-6.8-12.5-16.4-14.5-26.1l-.8-3.7c-1.2-5.7-3.1-11.3-5.9-16.4-15-28-51.4-45.7-79-59.5Zm0 0c30.1 6.4 63.4 17.5 85.3 40.1 5.3 5.3 9.6 11.6 13.1 18.2 2.7 5.3 4.8 11 6.4 16.7 6.3 22.2 35.9 29.2 50.6 11 8.2-11.7 17.6-22.4 29.1-31.3l-4.6 12.4c-2.6-13.3-3.6-26.8-2.9-40.2 0-2.6 0-5.3-.6-7.8-2.9-14.4-18.2-24.4-32.7-22.2-5 .7-9.6 2.6-13.7 5.8-1.5 1.1-3.6 2.8-5.3 3.9-5.7 3.8-11.8 7.2-18.3 9.4-34.5 12.1-74.8-1.2-106.3-15.9Z"/><path class="aa" d="M0 1846.2c113.7-38.2 162.8-20.3 194.3 7 41.7 36.2 106.5 5.1 104.7-50-.7-20.2.7-39.9 4.6-59-14.8-11.4-28.2-25.5-40.2-42.3-31.8-44.3-101.1-30-113.1 23.2-9.1 40.4-38.3 83.5-150.3 121.1Z"/><path class="z" d="M0 1846.2c48.4-21.9 107.5-41.1 160.7-26 15.5 4.5 30.1 12.5 42.6 22.7 7.9 6.2 17.1 9.9 26.9 10.7 18.8 1.3 38-9.1 46.6-26 3.2-6.3 4.8-13.2 5.1-20.2v-5.3c-.8-20.5.7-41.1 4.7-61.3l6.5 17.3c-16.9-13-31.4-28.9-43.6-46.2-2.5-3.4-5.4-6.8-8.7-9.4-1.6-1.5-3.7-2.8-5.6-4l-1-.6-1-.5c-13.9-7.6-31.6-7-45.5.4-11.6 6.2-20.1 16.8-23.7 29.6-4.1 15.8-11.1 31.1-21.1 44-33.6 43.2-91.5 63.2-142.8 74.8Zm0 0c47.5-22.8 110.1-52.2 131.1-103.3 2.9-7.2 4.6-14.4 6.1-22 4-20.3 17-39.1 34.9-49.8 18-11.1 40.5-14.5 61.1-9.3 18.4 4.6 34 15.9 45 31.2 12.5 17.2 27.9 31.8 44.8 44l-2.2 10.7c-3.8 18.5-5 37.8-4.6 56.9 0 6.7-.7 13.5-2.4 20-7.5 31.7-37 56.3-69 59-21 2.3-43-5.1-58.4-19.1-2.9-2.6-5.9-5.3-8.9-7.7-47.4-37.9-122.3-21.7-177.4-10.6Z"/><path class="v" d="M111.6 1809.2c71.9-24.2 103-12.9 123 4.5 26.4 22.9 67.4 3.2 66.3-31.7-.4-12.8.5-25.2 2.9-37.3-9.3-7.2-17.8-16.1-25.5-26.8-20.1-28-64-19-71.6 14.7-5.7 25.5-24.3 52.8-95.1 76.6Z"/><path class="z" d="M111.6 1809.2c31.5-14.8 71.8-28.1 106.3-15.9 6.5 2.2 12.6 5.6 18.3 9.4 1.6 1.1 3.7 2.8 5.3 3.9 4.2 3.2 8.8 5 13.7 5.8 14.5 2.2 29.8-7.8 32.7-22.2.6-2.5.7-5.2.6-7.8-.6-13.4.3-26.9 2.9-40.2l4.6 12.4c-11.5-8.9-21-19.6-29.1-31.3-14.7-18.2-44.3-11.3-50.6 11-1.6 5.7-3.7 11.4-6.4 16.7-3.5 6.6-7.9 12.9-13.1 18.2-21.9 22.6-55.2 33.7-85.3 40.1Zm0 0c27.6-13.8 64.1-31.4 79-59.5 2.8-5.1 4.7-10.7 5.9-16.4l.8-3.7c2-9.7 7-19.3 14.5-26.1 21.7-20.5 57.5-18 75.6 6.1 6.9 9.3 14.9 18.3 24 25.1l6.2 4.7c-2.8 12.2-4.6 24.7-4.5 37.4v8.6c-1.1 29.8-28.7 52.5-58 48.5-9.7-1.3-19.1-5.9-26.2-12.3-.7-.6-2.1-1.9-2.9-2.5-6.1-5.6-13.4-9.8-21.2-12.6-11.9-4.2-24.8-5.1-37.4-4.8-18.7.6-37.4 4-55.7 7.5Z"/><circle class="ag" cx="613.1" cy="166.7" r="54.1"/><circle class="ae" cx="618.2" cy="143" r="13.7"/><circle class="ag" cx="2075.8" cy="166.7" r="54.1"/><circle class="ae" cx="2080.9" cy="143" r="13.7"/><circle class="ag" cx="613.1" cy="2534.4" r="54.1"/><circle class="ae" cx="618.2" cy="2510.7" r="13.7"/><circle class="ag" cx="2075.8" cy="2534.4" r="54.1"/><circle class="ae" cx="2080.9" cy="2510.7" r="13.7"/><circle class="ag" cx="2528.3" cy="619.2" r="54.1"/><circle class="ae" cx="2552" cy="624.3" r="13.7"/><circle class="ag" cx="2528.3" cy="2081.9" r="54.1"/><circle class="ae" cx="2533.4" cy="2058.2" r="13.7"/><circle class="ag" cx="160.6" cy="619.2" r="54.1"/><circle class="ae" cx="184.2" cy="624.3" r="13.7"/><circle class="ag" cx="160.6" cy="2081.9" r="54.1"/><circle class="ae" cx="165.7" cy="2058.2" r="13.7"/></g></svg>