<?xml version="1.0" encoding="UTF-8"?><svg id="_Слой_1" xmlns="http://www.w3.org/2000/svg" viewBox="0 0 1344.7 788.6"><defs><style>.cls-1,.cls-2,.cls-3,.cls-4{stroke-width:0px;}.cls-2{fill:none;}.cls-3,.cls-5{fill:#fff;}.cls-5{stroke:#1d1d1b;stroke-miterlimit:10;stroke-width:2px;}.cls-4{fill:#1d1d1b;}</style></defs><polygon class="cls-5" points="1005.8 2.4 591.6 416.6 591.6 786.2 1005.8 372 1005.8 2.4"/><rect class="cls-2" x="287.5" y="392.1" width="10.6" height="19.8"/><rect class="cls-2" x="773.1" y="392.1" width="37.4" height="19.8"/><path class="cls-2" d="m728.1,407.3c-2.7,4.7-7,8.4-12.2,10.3l16,18.3c-2.4-3.6-3.8-8-3.8-12.7v-15.9Z"/><rect class="cls-2" x="1091.7" y="392.1" width="9.8" height="19.8"/><path class="cls-4" d="m391.9,358.5c-1.8-.4-3.7-.6-5.7-.6H128.4v54h-19.2v-54h-45v54h-19.2v-54H0v65.4c0,12.6,10.3,22.9,22.9,22.9h127.6c11.7,0,21.4-8.9,22.7-20.3v20.3h160.5v-29.5l58.1-58.1Zm-93.9,53.4h-10.6v-19.8h10.6v19.8Z"/><path class="cls-4" d="m1221.8,357.8v6.4c-4.1-4-9.7-6.4-15.8-6.4h-81.6c-8.4,0-15.7,4.5-19.7,11.2v-11.2h-172.2v54h-37.4v-9.2h-39.7v-22c0-12.6-10.3-22.9-22.9-22.9h-81.6c-1,0-2.1,0-3.1.2v13.9l-68.9,68.9,4.5,5.2h57.4l-5.1-5.8c4,3.6,9.4,5.8,15.2,5.8h81.6c8.8,0,16.4-5,20.2-12.2,3.8,7.3,11.5,12.2,20.2,12.2h81.6c11.8,0,21.5-8.9,22.7-20.3v20.3h127.4v-11.2c4,6.7,11.3,11.2,19.7,11.2h81.6c12.6,0,22.9-10.3,22.9-22.9v-20.5h-45v9.2h-37.4v-19.8h37.4v9h45v-9h31.9v54h45v-54h38.9v-34.2h-122.9Zm-505.9,59.7c5.2-1.9,9.5-5.5,12.2-10.3v15.9c0,4.7,1.4,9,3.8,12.7l-16-18.3Zm94.6-5.7h-37.4v-19.8h37.4v19.8Zm291,0h-9.8v-19.8h9.8v19.8Z"/><path class="cls-1" d="m648.8,418.9v27.2h-45v-38.3c-4,6.6-11.3,11.1-19.6,11.1h-59.4v27.2h-45v-88.3h104.4c8.3,0,15.6,4.5,19.6,11.1v-11.1h104.4c9.8,0,18.1,6.2,21.4,14.8,2.9-7.7,9.9-13.4,18.3-14.6V2.4l-356.1,356.1c11.7,2.6,20.4,13,20.4,25.5s0,2-.2,3.1c7.8,3.7,13.3,11.6,13.3,20.8v15.3c0,12.7-10.3,23-23,23h-68.7v340.1l345.3-345.3-19.3-22h-11Z"/><path class="cls-3" d="m425.4,423.1v-15.3c0-9.2-5.4-17.1-13.3-20.8.1-1,.2-2,.2-3.1,0-12.4-8.8-22.9-20.4-25.5l-58.1,58.1v29.5h68.7c12.7,0,23-10.3,23-23Z"/><path class="cls-3" d="m748,358.1c-8.4,1.1-15.4,6.9-18.3,14.6-3.3-8.6-11.6-14.8-21.4-14.8h-104.4v11.1c-4-6.6-11.3-11.1-19.6-11.1h-104.4v88.3h45v-27.2h59.4c8.3,0,15.6-4.5,19.6-11.1v38.3h45v-27.2h11l19.3,22,68.9-68.9v-13.9Z"/><polygon class="cls-2" points="334.9 393 357.4 393 366.4 383.9 334.9 383.9 334.9 393"/><path class="cls-2" d="m772.4,383.9h38.9c4.1,0,7.4,3.3,7.4,7.4v21.2c0,4.1-3.3,7.4-7.4,7.4h-38.9c-4.1,0-7.4-3.3-7.4-7.4v-21.2c0-4.1,3.3-7.4,7.4-7.4Z"/><polygon class="cls-2" points="334.9 415.5 339.6 410.8 334.9 410.8 334.9 415.5"/><path class="cls-3" d="m136.5,412.6c0,4.1-3.3,7.4-7.4,7.4h-28.1v-54h-28.8v54h-28.1c-4.1,0-7.4-3.3-7.4-7.4v-46.7H8.1v57.3c0,8.2,6.6,14.8,14.8,14.8h127.6c8.2,0,14.8-6.6,14.8-14.8v-57.3h-28.8v46.7Z"/><polygon class="cls-3" points="181.3 438 292.5 438 292.5 420 210.1 420 210.1 410.8 279.4 410.8 279.4 393 210.1 393 210.1 383.9 292.5 383.9 292.5 365.9 181.3 365.9 181.3 438"/><polygon class="cls-3" points="334.9 415.5 334.9 410.8 339.6 410.8 357.4 393 334.9 393 334.9 383.9 366.4 383.9 384.4 365.9 306.2 365.9 306.2 438 333.8 438 333.8 416.6 334.9 415.5"/><path class="cls-1" d="m417.3,423.1v-15.3c0-8.2-6.6-14.8-14.8-14.8h0s-.7,0-.7,0c1.5-2.7,2.4-5.7,2.4-9,0-9.9-8.1-18-18-18h-1.8l-18,18h4.5c2.5,0,4.5,2,4.5,4.5s-2,4.5-4.5,4.5h-13.5l-17.8,17.8h44.4c2.5,0,4.6,2.1,4.6,4.6s-2.1,4.6-4.6,4.6h0s-49,0-49,0v-4.5l-1.2,1.2v21.4h68.7c8.2,0,14.8-6.6,14.8-14.8Z"/><path class="cls-1" d="m584.2,365.9h-96.3v72h28.8v-27.2h67.5c8.2,0,14.8-6.6,14.8-14.8v-15.2c0-8.2-6.7-14.8-14.8-14.8Zm-14,23.3c-.4,2.2-2.4,3.7-4.7,3.7h-48.9v-9h49.1c2.7,0,4.9,2.4,4.4,5.3Z"/><path class="cls-3" d="m723,396.9l-13.8,13.8c7.4-.5,13.3-6.4,13.8-13.8Z"/><polygon class="cls-3" points="687.2 438 723.1 438 703.9 416.1 684.8 435.2 687.2 438"/><path class="cls-4" d="m723.1,395.9v-15.2c0-8.2-6.6-14.9-14.8-14.9h-96.3v72h28.8v-27.2h22.7l21.3,24.4,19.1-19.1-4.6-5.3h9c.3,0,.6,0,1,0l13.8-13.8c0-.3,0-.6,0-1h0Zm-33.3-3h-49.1v-9h48.9c2.2,0,4.3,1.5,4.7,3.7.5,2.8-1.7,5.3-4.4,5.3Z"/><path class="cls-3" d="m832.6,365.9h-81.6c-1.1,0-2.1.1-3.1.3v5.7l-11.7,11.7v39.5c0,8.2,6.6,14.8,14.8,14.8h81.6c8.2,0,14.8-6.6,14.8-14.8v-42.5c0-8.2-6.6-14.8-14.8-14.8Zm-14,46.6c0,4.1-3.3,7.4-7.4,7.4h-38.9c-4.1,0-7.4-3.3-7.4-7.4v-21.2c0-4.1,3.3-7.4,7.4-7.4h38.9c4.1,0,7.4,3.3,7.4,7.4v21.2Z"/><path class="cls-4" d="m748,366.3c-6.7,1.4-11.7,7.4-11.7,14.5v3l11.7-11.7v-5.7Z"/><path class="cls-3" d="m940.7,412.6c0,4.1-3.3,7.4-7.4,7.4h-38.8c-4.1,0-7.4-3.3-7.4-7.4v-1.7h-28.8v12.4c0,8.2,6.6,14.8,14.8,14.8h81.6c8.2,0,14.8-6.6,14.8-14.8v-57.3h-28.8v46.6Z"/><polygon class="cls-3" points="985.5 438 1096.7 438 1096.7 420 1014.3 420 1014.3 410.8 1083.6 410.8 1083.6 393 1014.3 393 1014.3 383.9 1096.7 383.9 1096.7 365.9 985.5 365.9 985.5 438"/><polygon class="cls-1" points="1220.8 392.9 1220.8 392.9 1220.8 393 1220.8 392.9"/><path class="cls-3" d="m1206,365.9h-81.6c-8.2,0-14.8,6.6-14.8,14.8v42.5c0,8.2,6.6,14.8,14.8,14.8h81.6c8.2,0,14.8-6.6,14.8-14.8v-12.4h-28.8v1.7c0,4.1-3.3,7.4-7.4,7.4h-38.8c-4.1,0-7.4-3.3-7.4-7.4v-21.2c0-4.1,3.3-7.4,7.4-7.4h38.8c4.1,0,7.4,3.3,7.4,7.4v1.6h28.8v-12.2c0-8.2-6.6-14.8-14.8-14.8Z"/><polygon class="cls-3" points="1229.9 365.9 1229.9 383.9 1268.9 383.9 1268.9 438 1297.6 438 1297.6 383.9 1336.6 383.9 1336.6 365.9 1229.9 365.9"/></svg>