<svg id="b" xmlns="http://www.w3.org/2000/svg" viewBox="0 0 170.2 92.4"><defs><style>.d,.e{fill:#8e8e8e;stroke-width:0}.e{fill:#e2e2e2}</style></defs><g id="c"><path class="d" d="M169.4 35.3c-1.2.4-.3-19.6-.6-20.1 0-1.6 1.4-1.2 1.4-3 0-.9-.4-1.6-.6-1.8l-1.6-.7h-3.7c5.4-2.6 4.5-9.5-2.1-9.4-2.6.2-2.7.6-3.4 1.5C158 0 155.1.2 153.2.1c-1 0-2.5 0-3.5.5-3.7 1.9.2 8 3 9.2H148s-.6.3-1.1.5c-.5-.2-1.1-.5-1.1-.5h-8.7c-1.1 0-1.9.7-3 2.3-1.3 2-1.3 2.9-1.3 3.2-.2 1.9 2.9 4.7 4.3 4.2v8.8c-2.1-3-5.1-4.8-9-5.7v-7.1c0-.7.3-1 .6-1.3 1.1-.8 1-2.6.2-3.5l-1.6-.7h-8l-1.6.7-.7-.8c-6.5-1.1-16.2.2-17.8 9.3-1.8-5.1-5.9-9.9-9.6-10.7-2.8.6-5.9 3.6-8 7.3v-3.6l-1.8-2.1c-10.7-2.3-19.1 2-18.5 14.4-.1 1.9-1.1 1.5-1.1 3.3-1.5-2-3.6-3.6-6-4.4 4.5-1.9 7.8-6.2 7.7-11.4l-1.8-2.1c-6.5-1.1-16.2.2-17.8 9.3-1.8-5.1-5.9-9.9-9.6-10.7-3.2.7-6.8 4.5-8.8 8.8-1.1-6.1-6.6-11.8-11.3-4 .5-.8 0-2.4-.5-2.7l-1.6-.7H2.2l-1.6.7c-.9.9-.9 2.7.2 3.5.3.3.6.6.6 1.3-.1 1.1.4 8.5-.6 9.1-.8.7-.7 2.8 0 3.4 0 0 .5.5.5 1v5.2c0 .7-.3 1-.6 1.3-1.1.8-1.1 2.6-.2 3.5l1.6.7h8c1.1-.6 1.9-.5 2.2-2 .2 1 .9 1.6 1.6 1.9-.1.2 7.6.1 7.9.1 2.2-.2 3.1-3 1.4-4.3-.2-.1-.2-.2-.2-.6 0-3.5-1.3-6.5-3.6-8.7.5-.1 1-.4 1.5-.8v.2c.2 1.7 1.1 1.1 1.3 3h.2c0 .1-.1.2-.1.2 1.1 5.2 6.1 11.8 10.1 12.5 3.7-1 7.5-5.2 9.4-10.2v3.2c0 1.6-1.4 1.2-1.4 3 0 .9.4 1.6.6 1.8l1.6.7H60l.8-.5c.5.2 1.1.5 1.1.5h8l1.6-.7c.2-.2.6-.9.6-1.8s-.6-1.5-.8-1.7c-.3-.3-.6-.6-.6-1.3v-3.6c3.4-.4 5.8-2 7.5-4.1.3.6.8.7 1 2h.2c0 .1-.1.2-.1.2 1.1 5.2 6.1 11.8 10.1 12.5 3.7-1 7.5-5.2 9.4-10.2v3.2c0 1.6-1.4 1.2-1.4 3 0 .9.4 1.6.6 1.8l1.6.7H117l.9-.6 1.2.6h17.4l.5-.3c0 .6 8.3.2 8.7.3 0 0 .6-.3 1.1-.5.5.2 1.1.5 1.1.5h8l1.6-.7c0-.1.2-.3.4-.5.1.3.3.4.4.5l1.6.7h8l1.6-.7c.2-.2.6-.9.6-1.8s-.6-1.5-.8-1.7ZM70.8 23c0-3.3.3-5 .9-5.9 0 2-.5 5.8-.9 5.9Zm-18 9.9h-1.3v-3.1c.8.8 1.2 1.8 1.3 3.1Zm-21-7.2c.8-1 .5-2.8-.6-3.5-.7-.5-.4-2.5-.2-3.4 1.8 1.3 4.1 7.1 3 11.6-.8-.8-1.7-2.1-2.4-3.8-.1-.5.1-.9.2-.9Zm-15.5-2c-.6-.3-1.2-.6-1.8-.8.6-1 1.3-2 2.1-2.9.1.1.2.3.3.5-.8.9-.9 2.2-.6 3.2Zm-4.3-10c-.3.4-.5.8-.8 1.2.1-.6.4-.8.8-1.2Zm.6 23c-.3-1.5-1.3-1.2-1.4-2.6v-4.8c3.1 2.2 1.7 5.6 1.4 7.4Zm97.3-3.8h-1.3v-3.1c.8.8 1.2 1.8 1.3 3.1Zm19.6 0h-1.3v-3.2c1 1 1.3 2.2 1.3 3.2Zm-11-18.1v8c-.1 1.9-1.1 1.5-1.1 3.3 0 .9.4 1.4.7 1.7 0 0 .5.5.5 1v1.1c-1.5-3.1-4.1-5.7-7.4-6.8 3.6-1.6 6.4-4.6 7.4-8.4ZM88.9 25.7c.8-1 .5-2.8-.6-3.5-.7-.5-.4-2.5-.2-3.4 1.8 1.3 4.1 7.1 3 11.6-.8-.8-1.7-2.1-2.4-3.8-.1-.5.1-.9.2-.9Zm69.3-12.4c.4.8 1 .7 1.1 1.7-.7.3-1.5.9-2.3 1.6 0-2.2-.2-1.7 1.1-3.3Zm-10.8 2c-.1 1.1.4 8.5-.5 9.1 0-4.4 0-8.8.4-10.1.1.2.2.5.3.9Zm-.6 18.8v-6.4l.1.1s.5.5.5 1V34c0 .4-.1.7-.3.9-.2-.2-.3-.5-.3-.9Zm10.5-5.9c.5-1.7 1-2.7 1.9-3.7v5.1c-.6-.6-1.4-1.2-1.9-1.4Zm1.5-24.4c.2.4.3.7.5 1-.4 0-.9 0-1.1-.4.1-.1.4-.3.5-.6Zm-.7 32.2c-.2-.3-.4-.5-.6-.7.6-.3 1.2-.8 1.7-1.4 0 1.2-.6 1.2-1.1 2.1ZM150.9 80.3c-.2-.1-.2-.2-.2-.6 0-3.5-1.2-6.4-3.6-8.7.9-.3 2.1-1.2 2.8-1.9 4.8-5-2.5-20.9-9-12.3-.3-1.6-1.1-1.5-2.2-2.1h-8c-1.1.6-2 .5-2.2 2.1-4.1-5.4-8.5-1.3-10 3.8-.7-2.1-2-4-3.7-5.4 1.2-.4 3.5-5.6 3.1-5.8 0-.3 0-1.1-1.3-2.9-2.2-3.3-4.4-2.8-6.4.4-2-3.2-4.2-3.7-6.4-.4-1.3 1.8-1.3 2.6-1.3 2.9.1 1.5 1.9 6 3.9 6.2-3.7 3.5-6.5 7.4-6.6 14.7 0 .7-.1 1.2-.3 1.6-.4-.4-.9-.6-1.2-1.7-1.9-7.7-2-9.6-3-13.7-.2-.6-.9-1.7-2.5-1.7h-7.4c-1.8-.4-4.7 4.6-4.4 5.5-.2 1.6 2.5 4.3 3.7 4.2-2.2 4.3-4.9 8.7-5.7 13.9h-.3c-.3-.8-.5-1.6-.6-2.2-.1-.6.2-1.1.2-1.1.7-.9.1-2.9-.7-3.4 0 0-.7-.6-.9-1.4-1.4-5.8-2-9.2-2.4-11.2-.6-2.4-.4-4.1-3.1-4.4H64c-1.1 0-1.9.7-3 2.3-1.9 3.1-1.7 3.9 0 6 .9 1 1.7 1.3 2.1 1.3-1.3 2.5-2.9 5.4-4.1 8.4-.5-1.3-1.2-.9-1.8-2.6-1.8-7.5-1.9-9.6-3-13.8-.2-.7-.9-1.7-2.5-1.7h-7.3c-1.8-.4-4.7 4.6-4.4 5.5-.2 1.5 2.4 4.2 3.7 4.2-1.4 2.9-3.4 6.2-4.6 9.7-.8-1.6-2-3-3.3-3.9 4.1.4 5.2-6.9 1.4-7.2.6-2.5 4.2-4.9 2.1-7-1.2-2.1-15.2-1.1-18.5-1.3l-1.6.7c-.9.9-.9 2.7.2 3.5.3.3.6.6.6 1.3v7c0 .9-.5 1.5-.5 1.6-.8.9-.8 2.6 0 3.4 0 0 .5.5.5 1v5.7c0 .7-.3 1-.6 1.3-.3.2-.8.8-.8 1.7s.4 1.6.6 1.8l1.6.7h17.4l1.2-.7 1 .7h6.4c1-.3 1.8-.5 2.3-1.7.4 1.3 1.2 1.3 2.2 1.7h7.4s.5-.2.9-.3l.4.3h6.4c1-.5 1.8-.5 2.2-1.7.4 1.3 1.2 1.3 2.2 1.7h7.4c.9 1.2 1.8 2.5 1.8 3.6 0 1.5 1.4 2.5 2.7 2.5 2.2 0 3.6-3.6 3.7-6.1H92c0 2.6 2.7 7.7 5.1 7.8 1.4 0 2.7-1.3 2.7-2.6 0-.7-.2-1.1-.2-1.9 0-4.1 4.9-5.8 2-9.4l-.4.4-1-1c-.2-.7-.5-1.9-.5-2v-.3c.6.5 1.2.4 1.6 1.2 1.7 3.6 5.8 8.7 9 9.1 2.9-.6 6.2-4 8.3-7.8v1.5c0 .4 0 .5-.2.6-1.4.9-1.1 3.3.4 4.1.4.4 7.5.2 8.1.2.8 0 1.4-.4 1.9-1.1 0 .4 1.6.9 1.8 1.1h8c.3-.2 1.8-.7 1.8-1.1.5.7 1.1 1 1.9 1.1.6 0 7.8.2 8.1-.2 1.5-.7 1.8-3.2.4-4.1Zm-26.1-14.8s0-.1.1-.2c.5.8 1.1 1.7 1.6 2.8-.4.2-.8.3-1.1.5.2-1 .2-2.2-.6-3.1Zm18.9 3.1c-.4-.2-.7-.4-1.1-.5.6-1 1.1-2 1.6-2.8 0 0 0 .1.1.2-.8.9-.9 2.1-.6 3.1Zm-33.1-4.8c-.7 0-1.3.1-1.9.3.1-.5.3-1.1.5-1.6.5.4 1 .8 1.5 1.3Zm1.4 11c0 .2 0 .5-.1.7-.4-.4-.9-.9-1.3-1.6.3 0 .5 0 .8-.2 0 .3.3.7.6 1Zm-1.9-22.4c.1.3.3.6.4.9-.4 0-.5 0-1 .1.2-.3.4-.7.6-1ZM89.9 77.9h-1.5c-.2-.7-.2-1.4-.1-2.1.3 1.2.9 1.2 1.6 2.1Zm-1.5-3.8c0-.5.2-1 .3-1.5 0 .8-.2 1.4-.3 1.5Zm-56.5-6c-.7-.3-1.5-.5-2.3-.7v-3.7c.5 1.8 1.3 3.3 2.3 4.3Zm-1 9.8h-1.3v-3.1c.8.8 1.2 1.8 1.3 3.1Zm18.6 2.6c-.3.3-.5.6-.6 1l-.4-1c-.3-.4-.8-2.3.5-2.4.1.5.5 2 .4 2.4Zm19.5 0c-.4.4-.6.8-.6 1.3l-1.9-1.9c.8 0 1.3.4 1.4.6-.2-.3-.8-2-.8-4 .4.9 1.1.6 1.5 1.8.2 1 .5 1.6.4 2.2Zm50.9-9.1c-1-1.5-4.2-.8-5.6-1v-.2c2-.2 3.3-1.2 4-2.7.2.5.6 1 1 1.5.7.7 1.9 1.6 2.8 1.9-.6.6-1.2 1.3-1.7 2 0-.6-.2-1.1-.6-1.5Zm9 9.2c-.4-1.5-.5-4.7.9-5.9V79c0 1-.5 1.1-.9 1.6Zm11.5 0c-.5-.6-.9-.6-.9-1.6v-4.3c1.4 1.2 1.3 4.4.9 5.9Z"/><path class="e" d="M20.9 34.7c0 1.8 1.1 2.2 1.1 2.4 0 .3-.2.4-.2.4h-7.1s-.2 0-.2-.4c.2-.6.6-2 .6-4 0-4.3-3-6-5.2-6.6-.3.3-1 1.2-1 2.4v5.2c0 2.1 1.4 2.8 1.4 3 0 .3-.1.4-.1.4h-8s-.1-.2-.1-.4 1.4-.9 1.4-3v-5.2c0-1.5-1-2.5-1.1-2.5v-.5c.1-.1 1.1-1.3 1.1-3v-7.5c0-2.1-1.4-2.8-1.4-3 0-.3.1-.4.1-.4h8s.1.2.1.4-1.4.9-1.4 3v7.5c1.6-3.1 6.2-11.4 8.3-11.4s4.4 3.7 4.4 8-.5 2.8-.9 3.2c-.7.7-1.8 1.4-2.1 1.4s-.9-1.6-.3-2.2.4.6 1.4.7c0-.4 0-.9-.3-1.5-.7-1.3-1.7-3.1-3.2-4-2 1.9-4 5.2-5.1 7.1 4.6 1 9.8 3.9 9.8 10.5ZM7.1 25.8c0-.6-.9-1-.9-1s-.9.4-.9 1v.7c0 .6.9 1 .9 1s.9-.4.9-1v-.7ZM32.4 10.4c.8 0 8.4 5.5 8.4 14S32.7 39 32.4 39c-.7 0-6.6-4.2-8.1-10.8s0-.1 0-.1c-.3-1.4-.7-2.3-1.2-2.6 0 0-.2-.4 0-.5.9-.8 1.2-2.9 1.2-2.9 1.4-7.8 7.8-11.5 8.2-11.5Zm-4.9 14.3c0-.6-.9-1-.9-1s-.9.4-.9 1v.7c0 .6.9 1 .9 1s.9-.4.9-1v-.7Zm7.5 9.1c.7-1.6 1.3-3.4 1.3-5.5 0-8.9-4.9-12-6.4-12.8-.7 1.6-1.3 3.4-1.3 5.5v.3c.2 1.9 1.2 2.6 1.4 2.7 0 0 .1.4 0 .5 0 0-.9 1.2-.5 2.7 1.5 4.2 4.3 6 5.5 6.6ZM50.3 24.3c4.7.9 10 3.9 10 11.3s-.3 1.9-.3 1.9H42.6s-.1-.2-.1-.4 1.4-.9 1.4-3v-5.7c0-1.5-1-2.5-1.1-2.5s0-.4 0-.5c.1-.1 1.1-1.3 1.1-3v-.3c0-9.3 7.7-10.4 10.7-10.4s4.9.3 4.9.3c0 7.3-6.4 9.8-10.2 10.7 0 1.5.6 1.7 1 1.8Zm-2.8.9c0-.6-.9-1-.9-1s-.9.4-.9 1v.7c0 .6.9 1 .9 1s.9-.4.9-1v-.7Zm1.8-5.2c2.2-.9 4.8-2.6 4.8-6.1 0 0-4.8 0-4.8 5.8v.3Zm5.4 15c0-.6.1-1.2.1-2 0-4-2.6-5.7-4.7-6.5-.4 0-.8.3-.8 1.7v5.4c0 1.4 1 1.4 1.1 1.4h4.2ZM68.6 30.3V34c0 2.1 1.4 2.8 1.4 3 0 .3-.1.4-.1.4h-8s-.1-.2-.1-.4 1.4-.9 1.4-3v-3.7c0-1.5-1-2.5-1.1-2.5s0-.4 0-.5c.1-.1 1.1-1.3 1.1-3v-1c0-7.9 3.8-11.8 10.9-11.8s5.2.5 5.2.5c0 3.4.3 10.2-2.9 13.4-2.1 2.1-4.5 2.9-6.6 3.1-.3 0-1.1.4-1.1 1.9Zm-1.8-3.1c0-.6-.9-1-.9-1s-.9.4-.9 1v.7c0 .6.9 1 .9 1s.9-.4.9-1v-.7Zm1.8-3c0 1.7.5 1.8.7 1.7 1.1-.2 2.1-.7 2.9-1.5 1.6-1.6 1.5-8.4 1.4-10.6-4.4.5-5.1 3.3-5.1 9.3v1ZM89.4 10.4c.8 0 8.4 5.5 8.4 14S89.7 39 89.4 39c-.7 0-6.6-4.2-8.1-10.8s0-.1 0-.1c-.3-1.4-.7-2.3-1.2-2.6 0 0-.2-.4 0-.5.9-.8 1.2-2.9 1.2-2.9 1.4-7.8 7.8-11.5 8.2-11.5Zm-4.9 14.3c0-.6-.9-1-.9-1s-.9.4-.9 1v.7c0 .6.9 1 .9 1s.9-.4.9-1v-.7Zm7.5 9.1c.7-1.6 1.3-3.4 1.3-5.5 0-8.9-4.9-12-6.4-12.8-.7 1.6-1.3 3.4-1.3 5.5v.3c.2 1.9 1.2 2.6 1.4 2.7 0 0 .1.4 0 .5 0 0-.9 1.2-.5 2.7 1.5 4.2 4.3 6 5.5 6.6ZM107.3 24.3c4.7.9 10 3.9 10 11.3s-.3 1.9-.3 1.9H99.6s-.1-.2-.1-.4 1.4-.9 1.4-3v-5.7c0-1.5-1-2.5-1.1-2.5s0-.4 0-.5c.1-.1 1.1-1.3 1.1-3v-.3c0-9.3 7.7-10.4 10.7-10.4s4.9.3 4.9.3c0 7.3-6.4 9.8-10.2 10.7 0 1.5.6 1.7 1 1.8Zm-2.8.9c0-.6-.9-1-.9-1s-.9.4-.9 1v.7c0 .6.9 1 .9 1s.9-.4.9-1v-.7Zm1.8-5.2c2.2-.9 4.8-2.6 4.8-6.1 0 0-4.8 0-4.8 5.8v.3Zm5.4 15c0-.6.1-1.2.1-2 0-4-2.6-5.7-4.7-6.5-.4 0-.8.3-.8 1.7v5.4c0 1.4 1 1.4 1.1 1.4h4.2ZM127 24.3c4.7 1 10 3.9 10 11.2s-.3 1.9-.3 1.9h-17.4s-.1-.2-.1-.4 1.4-.9 1.4-3v-5.2c0-1.5-1-2.5-1.1-2.5v-.5c.1-.1 1.1-1.3 1.1-3v-7.5c0-2.1-1.4-2.8-1.4-3 0-.3.1-.4.1-.4h8s.1.2.1.4-1.4.9-1.4 3v7.5c0 1.4 1.1 1.5 1.1 1.5Zm-2.9 1.4c0-.6-.9-1-.9-1s-.9.4-.9 1v.7c0 .6.9 1 .9 1s.9-.4.9-1v-.7Zm7.3 7.3c0-3.8-2.4-5.6-4.4-6.4-.3-.1-1.1.5-1.1 2v5c0 1.4 1 1.4 1.1 1.4h4.2c0-.6.1-1.2.1-2Zm13.1 1c0 2.1 1.4 2.8 1.4 3 0 .3-.1.4-.1.4h-8s-.1-.2-.1-.4 1.4-.9 1.4-3V15.2c0-1.3-.7-1.3-1.1-1.3s-1.1.3-1.3 1h1.3c.2.2-.9 2.2-1.2 2.2S135 15.8 135 15s1.8-3.4 2.3-3.4h8.7s.1.2.1.4-1.4.9-1.4 3v18.8ZM166.7 34c0 2.1 1.4 2.8 1.4 3 0 .3-.1.4-.1.4h-8s-.1-.2-.1-.4 1.4-.9 1.4-3V21.3c-.2 0-.4-.2-.7-.2-1.7 0-5.7 3.5-5.8 9.3 0 1.3 1 1.3 1.2 1.3 0-.7.1-1.4.3-1.6.2-.2 1.8 1.2 1.8 1.5s-1.3 1.8-2.1 1.8-.7-.2-1.2-.5v1c0 2.1 1.4 2.8 1.4 3 0 .3-.1.4-.1.4h-8s-.1-.2-.1-.4 1.4-.9 1.4-3v-5.2c0-1.5-1-2.5-1.1-2.5v-.5c.1-.1 1.1-1.3 1.1-3v-7.5c0-2.1-1.4-2.8-1.4-3 0-.3.1-.4.1-.4h8s.1.2.1.4-1.4.9-1.4 3v7.5c1.6-3.2 4.8-6.1 6.2-6.1h.3v-1.4c0-2.1-1.4-2.8-1.4-3 0-.3.1-.4.1-.4h8s.1.2.1.4-1.4.9-1.4 3V34ZM150.3 2.6c0-.8 6.5-.6 6.5 0s-.8.5-.8 1.5c0 2.8 3.4 3.6 5 2 1.4-1.4-.7-3-.3-3.5.6-.6 5.1-.5 5.1 2s-3.1 4.2-7.3 4.2-8.1-3.2-8.1-6.2Zm2.7 23.1c0-.6-.9-1-.9-1s-.9.4-.9 1v.7c0 .6.9 1 .9 1s.9-.4.9-1v-.7ZM28.5 69.3c4.7.9 10 3.9 10 11.3s-.3 1.9-.3 1.9H20.8s-.1-.2-.1-.4 1.4-.9 1.4-3v-5.7c0-1.5-1-2.5-1.1-2.5s0-.4 0-.5c.1-.1 1.1-1.3 1.1-3v-7c0-2.1-1.4-2.8-1.4-3 0-.3.1-.4.1-.4h11c3.1 0 5.5.2 6 .7.4.4-2.9 3.1-2.9 6.9v.8c.1.4.3.8.5 1 .4-.1 1-.4 1.6-1.1s.8 1.7-.2 2.6-2.4-.2-2.4-.3c-1-.7-3-2.8-3-6.6s0-1.2.1-1.6h-3s-1-.1-1 1.6v6.4c0 1.7.6 2 1 2.1Zm-2.8.9c0-.6-.9-1-.9-1s-.9.4-.9 1v.7c0 .6.9 1 .9 1s.9-.4.9-1v-.7Zm7.3 7.9c0-4-2.6-5.7-4.7-6.5-.4-.1-.8.2-.8 1.7v5.4c0 1.4 1 1.4 1.1 1.4h4.2c0-.6.1-1.2.1-2ZM57.2 78.8c.5 2.1 1.6 3.2 1.6 3.3 0 .2-.3.4-.3.4h-7.4s-.2-.2-.2-.4 1-.6.5-2.8c-.3-1.3-.5-2.2-.7-3-.4-.1-.8-.2-1.3-.2-4.3 0-3.8 4.7-2.5 6 0 .2-.3.4-.3.4h-6.4s-.3-1.1-.3-1.8c0-7.2 5.8-14.5 7.3-19.2-.2-1-.6-1.7-1-2.2 0 0-.6-.3-1-.3s-1.1.3-1.3 1h1.3c.2.2-.9 2.2-1.2 2.2s-1.8-1.3-1.8-2.1 1.8-3.4 2.3-3.4h7.3c.9 0 .3.4 3.5 13.9.4 1.6 1.6 2.6 1.8 2.7 0 0 .2.4.1.5s-.8 1.3-.5 2.7l.2.9c.1.5.2.9.3 1.4Zm-7.3-6.2c-.4-1.6-.9-3.8-1.7-7.3-1.4 2.7-3 6.8-3.1 11.1.6-1.8 2.1-3.5 4.8-3.8Zm4.4 1.6c0-.6-.9-1-.9-1s-.9.4-.9 1v.7c0 .6.9 1 .9 1s.9-.4.9-1v-.7ZM78.3 82.1c0 .2-.3.4-.3.4h-7.4s-.2-.2-.2-.4 1-.6.5-2.8c0-.2-.3-1.4-.3-1.4-.3-1.4-1.6-2.2-1.7-2.2s-.2-.4-.1-.5c0-.1.8-1.6.4-3.2-.4-1.5-.8-3.5-1.5-6.4-1.3 2.8-2.8 6.9-2.8 11.2s1.1 5.4 1.6 5.4c0 .2-.2.4-.2.4h-6.4s-.3-1.1-.3-1.8c0-7.2 5.8-14.5 7.3-19.2-.3-1-.7-1.8-1-2.3-.2-.1-.5-.2-.8-.2s-1.1.3-1.3 1h1.3c.2.2-.9 2.2-1.2 2.2s-1.8-1.3-1.8-2.1 1.8-3.4 2.3-3.4h7.2c.9 0 .3.4 3.5 13.9.4 1.6 1.6 2.6 1.8 2.7 0 0 .2.4.1.5 0 0-.8 1.3-.5 2.7.2.7.4 1.5.6 2.2.5 2.1 1.6 3.2 1.6 3.3Zm-4.8-7.9c0-.6-.9-1-.9-1s-.9.4-.9 1v.7c0 .6.9 1 .9 1s.9-.4.9-1v-.7Z"/><path class="e" d="M100 80c.4.4.3 1.3.2 1.4-.9.9-2.7 3.8-2.7 6.4s.2 1.7.2 1.9-.3.5-.6.5-3-3-3-5.8.4-1.9-.1-1.9h-9.2c-.8 0-.6.8-.6 2 0 2-1.4 4.1-1.6 4.1s-.6-.2-.6-.4c0-2.8-3.7-6.6-3.7-7.2s0-.7.3-.7c2.3 0 2.4-.5 2.4-.5.4-6.9 5.9-13.9 7.2-18.4-.3-1-.6-1.7-1-2.2 0 0-.6-.3-1-.3s-1.1.3-1.3 1h1.3c.2.2-.9 2.2-1.2 2.2s-1.8-1.3-1.8-2.1 1.8-3.4 2.3-3.4h7.4c.9 0 .2.4 3.4 13.8.4 1.6 1.6 2.6 1.8 2.7 0 0 .2.4.1.5s-.8 1.3-.4 2.7c0 0 .4 1.8.6 2.3.3 1.1 1.4 1.2 1.4 1.2h.5Zm-13.2 0h5.7c0-.6-.5-2.3-.5-2.3-.3-1.4-1.6-2.2-1.7-2.2s-.2-.4-.1-.5c0-.1.8-1.6.4-3.2-.4-1.5-.8-3.6-1.5-6.5-1.4 2.8-3.1 7-3.1 11.3s.4 2.5.8 3.4Zm8.1-5.8c0-.6-.9-1-.9-1s-.9.4-.9 1v.7c0 .6.9 1 .9 1s.9-.4.9-1v-.7ZM117.8 72.6c.3 0 .5.3.4.5-1.7 7.3-7.7 10.8-8 10.8-.6 0-4.4-2.6-6.7-7l-.5-.9c-.6-1.3-2-1.8-2.1-1.8 0 0-.3-.4-.2-.5 0-.2 1-1.3 1-3.4V70c0-9.9 8.1-14.6 8.4-14.6 2.5 0 6.7 4.6 6.7 8.6s-1.7 4.3-2.5 4.3-.6-.9-.2-1.3c.1-.1.4.2.8.4.2-.3 0-.9-.3-1.6-1.3-2-3.5-5.3-6.6-5.9-.9 1.7-1.7 3.8-1.7 6.2s0 2 .2 2.9c.7-1.6 2.1-3 4.2-3s2.5 1.5 2.5 1.7c0 .6-2.5 4.2-2.8 4.2s-.7-.1-.7-.3.5-2.3-.8-2.3-2.3 1.4-1.2 4.1l.6 1.1c0 .1.2.3.3.4 1.5 2.3 3.2 3.4 4.1 3.8.7-1.3 1.3-2.7 1.3-4.2s-.7-1.2-.7-1.3c0-.4.3-.6.3-.6h4.1Zm-12.3.3s-.2-.6-.2-.7c-.1-.6-1.1-.8-1.1-.8s-.8.6-.7 1.2c0 0 .2.6.2.7.1.6 1.1.8 1.1.8s.8-.6.6-1.2Zm1.1-19.5c-.6 0-2.2-3.6-2.2-4.1s1.7-3 2.2-3 2.2 2.6 2.2 3.1-1.7 4.1-2.3 4.1Zm6.7 0c-.6 0-2.2-3.6-2.2-4.1s1.7-3 2.2-3 2.2 2.6 2.2 3.1-1.7 4.1-2.3 4.1ZM149.7 82.1c0 .3-.2.4-.2.4h-7.1s-.2 0-.2-.4c.2-.6.6-2 .6-4 0-3.9-2.4-5.7-4.5-6.6-.3.3-1 1.2-1 2.4v5.2c0 2.1 1.4 2.8 1.4 3 0 .3-.1.4-.1.4h-8s-.1-.2-.1-.4 1.4-.9 1.4-3v-5.2c0-1.2-.7-2.1-1-2.4-2 .9-4.5 2.7-4.5 6.6s.4 3.4.6 4c0 .3-.2.4-.2.4h-7.1s-.2-.1-.2-.4 1.1-.6 1.1-2.4c0-6.2 4.5-9.2 8.9-10.4-1-2.1-2.7-5.3-4.4-7.2-1.4.9-2.4 2.6-3 3.9-.3.6-.4 1.2-.3 1.5 1-.1 1.2-.9 1.4-.7.6.6 0 2.2-.3 2.2s-1.4-.7-2.1-1.4c-.4-.4-.9-1.5-.9-3.2 0-4.3 2.6-8 4.4-8s6.2 8.1 7.6 11.4v-7.5c0-2.1-1.4-2.8-1.4-3 0-.3.1-.4.1-.4h8s.1.2.1.4-1.4.9-1.4 3v7.5c1.4-3.3 5.1-11.4 7.6-11.4s4.4 3.7 4.4 8-.5 2.8-.9 3.2c-.7.7-1.8 1.4-2.1 1.4s-.9-1.6-.3-2.2.4.6 1.4.7c0-.4 0-.9-.3-1.5-.7-1.3-1.6-3-3-3.9-1.7 1.9-3.4 5.1-4.4 7.2 4.4 1.2 8.9 4.2 8.9 10.4s1.1 2.2 1.1 2.4Zm-14.2-11.3c0-.6-.9-1-.9-1s-.9.4-.9 1v.7c0 .6.9 1 .9 1s.9-.4.9-1v-.7Z"/></g></svg>