<svg xmlns="http://www.w3.org/2000/svg"><symbol id="arrow-bottom" viewBox="0 0 53.5 28.7" xmlns="http://www.w3.org/2000/svg"><defs><style>.bd--icon-1,.cd--icon-2,.fd--icon-5,.gd--icon-6,.hd--icon-basket{fill:#595959;stroke-width:0}.jd--icon-inst{fill:#ededed;stroke-width:0}.kd--icon-prof{fill:#595959;stroke-width:0}.md--icon-whatsApp{fill:#ededed;stroke-width:0}</style></defs><path d="M26.7 26.7 51.5 2M26.7 26.7 2 2" style="fill:none;stroke:#595959;stroke-linecap:round;stroke-miterlimit:10;stroke-width:4px" id="ac--arrow-bottom"/></symbol><symbol id="icon-1" viewBox="0 0 124.9 123.8" xmlns="http://www.w3.org/2000/svg"><g id="bc--icon-1"><path class="bd--icon-1" d="M124.9 14c-1.7-8.1-9-14-17.3-14S92.9 5.2 90.7 12.5L2 12.3c-1.1 0-2 .9-2 2s.9 2 2 2h14.7v17.2H2c-1.1 0-2 .9-2 2s.9 2 2 2h14.7v17.2H2c-1.1 0-2 .9-2 2s.9 2 2 2h14.7v17.2H2c-1.1 0-2 .9-2 2s.9 2 2 2h14.7V98H2c-1.1 0-2 .9-2 2s.9 2 2 2h14.7v17.6H2c-1.1 0-2 .9-2 2s.9 2 2 2h105.6c8.3 0 15.6-5.8 17.3-13.9V13.8Zm-30.7.6c1.4-6.2 7-10.6 13.4-10.6s11.9 4.5 13.4 10.6V97c-3.3-3.8-8.1-6.1-13.4-6.1S97.5 93.2 94.2 97V14.6Zm-73.5 34c16.3-.3 26.1-5.3 34.1-9.3 11.5-5.9 18-9.1 35.4 8.2v43.7c-17.5 17.3-24 14.1-35.5 8.2-7.9-4-17.8-9-34-9.3V48.7Zm69.5-30.9v6.1c-3.5-3.2-6.6-5.6-9.5-7.4h9.5v1.3Zm0 11.7v12.5c-17.6-16.2-25.9-12-37.2-6.2-7.6 3.8-16.9 8.6-32.3 8.9v-14c16.3-.3 26.1-5.3 34.1-9.3 11.5-5.9 18-9.1 35.4 8.2ZM20.7 94c15.3.4 24.6 5.1 32.2 8.9 5.4 2.7 10.1 5.1 15.5 5.1s12.6-2.9 21.8-11.4v10.2c-17.5 17.3-24 14.1-35.5 8.2-7.9-4-17.8-9-34-9.3V94Zm34.6-77.5c-.7.4-1.5.8-2.3 1.1-7.6 3.8-16.9 8.6-32.3 8.9V16.4h34.6Zm-34.6 93.3c15.3.4 24.6 5.1 32.2 8.9.8.4 1.5.8 2.3 1.1H20.7v-10.1Zm60 10.1c3-1.9 6.4-4.5 10.2-8 1.1 3.2 3.1 5.9 5.6 8H80.8Zm40.3-10.6c-1.4 6.2-7 10.6-13.4 10.6s-11.9-4.5-13.4-10.6c0 0-.2-1-.2-2s.1-1.5.1-1.5c1.4-6.3 7-10.8 13.4-10.8s12 4.5 13.4 10.8c0 0 .2.8.2 1.6s-.2 1.9-.2 1.9Z"/><path class="bd--icon-1" d="M107.6 99.7c-4.5 0-8.1 3.6-8.1 8.1s3.6 8.1 8.1 8.1 8.1-3.6 8.1-8.1-3.6-8.1-8.1-8.1Zm0 12.3c-2.3 0-4.1-1.9-4.1-4.1s1.9-4.1 4.1-4.1 4.1 1.9 4.1 4.1-1.9 4.1-4.1 4.1ZM83 68.2c0-9.6-7.8-17.5-17.5-17.5S48 58.5 48 68.2s7.8 17.5 17.5 17.5S83 77.9 83 68.2Zm-31 0c0-7.4 6.1-13.5 13.5-13.5S79 60.8 79 68.2s-6.1 13.5-13.5 13.5S52 75.6 52 68.2Z"/></g></symbol><symbol id="icon-2" viewBox="0 0 120.2 128.1" xmlns="http://www.w3.org/2000/svg"><g id="cc--icon-2"><path class="cd--icon-2" d="M108.7 42.4v9.9l-2.6 2.5V28.3c0-.2 0-.3-.2-.5v-.1c0-.2-.2-.3-.3-.4L78.8.6c-.1-.1-.3-.2-.4-.3h-.1c-.2 0-.3-.1-.5-.2H11.4C5.1 0 0 5.1 0 11.4v105.3c0 6.3 5.1 11.4 11.4 11.4h83.3c6.3 0 11.4-5.1 11.4-11.4V69.4l2.6-2.5v54.4h11.5V42.4h-11.5Zm-2.6 13.5 2.6-2.5.9-.9 1.5 1.6-1.5 1.5-1 1-2.6 2.5-4 3.9-23.2 22.4-2.2 2.1-22.2 21.4-1.3 1.3-4.3 4.2-1.6-1.6 4.3-4.2 3-2.9 14.8-14.3 2.1-2 3.6-3.5 2.2-2.1L97.7 64l1.3-1.3 3.1-3 4-3.9Zm-56.7 58.9 27.9-26.9 2.2-2.1 22.7-21.9 4-3.9 2.6-2.5 1-1 2.1-2 2.1 2.1-4.2 4.1-1 1-2.6 2.5-4 3.9-20.4 19.7-2.2 2.1-28 27-2.1-2.1Zm3.3 4.7-5.5 1.4-2-1.9 1.5-5.3 6 5.8ZM79.4 6.8l19.9 19.9H86.8c-4.1 0-7.4-3.3-7.4-7.4V6.8Zm22.7 109.9c0 4.1-3.3 7.4-7.4 7.4H11.4c-4.1 0-7.4-3.3-7.4-7.4V11.4C4 7.3 7.3 4 11.4 4h64v15.3c0 6.3 5.1 11.4 11.4 11.4h15.3v28l-3.2 3.1c-.3-.5-.8-.8-1.4-.8l-13.7.5c-.8 0-1.5.7-1.4 1.6 0 .8.7 1.4 1.5 1.4l12.7-.4-20 19.3c-.6-.3-1.3-.2-1.7.3-.4.4-.5 1.1-.3 1.6l-3.2 3.1-2.9-16.7 12.6-12.2c.5-.5.7-1.3.5-2.1-.2-.7-.9-1.3-1.6-1.4l-17.3-2.5-7.8-15.7c-.3-.7-1-1.1-1.8-1.1s-1.5.4-1.8 1.1l-7.8 15.7L26.2 56c-.8.1-1.4.6-1.6 1.4-.2.7 0 1.5.5 2.1l12.6 12.2-3 17.3c-.1.8.2 1.5.8 2 .6.4 1.4.5 2.1.2L53.1 83l15.5 8.1-14 13.5v-9.7c0-.8-.7-1.5-1.5-1.5s-1.5.7-1.5 1.5v12.6l-5.1 4.9s-.3.3-.3.4l-2.5 9.1v.4s.2.1.3.1 9.5-2.5 9.5-2.5c.1 0 .4-.2.5-.3l28.3-27.4 2.9 2.6c.3.3.6.4 1 .4s.8-.2 1.1-.5c.6-.6.5-1.6-.1-2.1l-2.7-2.4 17.7-17v43.4ZM64.4 71.4l2.5 14.3L54 78.9c-.3-.2-.6-.2-.9-.2s-.6 0-.9.2l-12.9 6.8 2.5-14.3c.1-.6-.1-1.3-.6-1.8L30.8 59.5l14.4-2.1c.7 0 1.2-.5 1.5-1.1l6.4-13 6.4 13c.3.6.9 1 1.5 1.1l14.4 2.1L65 69.6c-.5.5-.7 1.1-.6 1.8Zm41.7-3-4 3.9-18.2 17.6-2.2 2.1-28 27.1-1.6-1.6 28-27 2.2-2.1 19.9-19.2 4-3.9 2.6-2.5 1-1 4.8-4.6 1.4 1.4.2.2-.9.8-5.5 5.3-1 1-2.6 2.5Zm13.1-5.8h-4.8v1h4.8v3h-4.8v1h4.8v3h-4.8v1h4.8v3h-4.8v1h4.8v3h-4.8v1h4.8v3h-4.8v1h4.8v3h-4.8v1h4.8v3h-4.8v1h4.8v3h-4.8v1h4.8v3h-4.8v1h4.8v3h-4.8v1h4.8v3h-4.8v1h4.8v3h-4.8v1h4.8v3h-4.8v1h4.8v5.2h-9.5V66.5l6.6-6.4h2.9v3Zm0-15.9h-4.8v1h4.8v3h-4.8v1h4.8v3h-4.8v1h4.8v3h-2.3l-7-6.7h-.2v-8.2h9.5V47Z"/><path class="cd--icon-2" d="M53.1 34.7c.8 0 1.5-.7 1.5-1.5V19.5c0-.8-.7-1.5-1.5-1.5s-1.5.7-1.5 1.5v13.7c0 .8.7 1.5 1.5 1.5Zm21.4 8.7c.4 0 .8-.2 1.1-.5l9.5-9.9c.6-.6.6-1.5 0-2.1-.6-.6-1.5-.6-2.1 0l-9.5 9.9c-.6.6-.6 1.5 0 2.1.3.3.7.4 1 .4ZM30.6 85.2l-9.5 9.9c-.6.6-.6 1.5 0 2.1.3.3.7.4 1 .4s.8-.2 1.1-.5l9.5-9.9c.6-.6.6-1.5 0-2.1-.6-.6-1.5-.6-2.1 0Zm-6.9-20.1c0-.8-.7-1.5-1.6-1.4l-13.7.5c-.8 0-1.5.7-1.4 1.6 0 .8.7 1.4 1.5 1.4l13.7-.5c.8 0 1.5-.7 1.4-1.6Zm5.4-20.6c.3.3.6.4 1 .4s.8-.2 1.1-.5c.6-.6.5-1.6-.1-2.1l-10.2-9.2c-.6-.6-1.6-.5-2.1.1-.6.6-.5 1.6.1 2.1l10.2 9.2Z"/></g></symbol><symbol id="icon-3" viewBox="0 0 125.3 125.3" xmlns="http://www.w3.org/2000/svg"><path d="M105.8 67.7V38.8c0-.2-.1-.3-.2-.4 0 0 0-.1-.1-.2l-.3-.3s-.1 0-.2-.1l-.1-.1h-59v-.1c-.4 0-.8.1-1.1.3l-12.2 8-12 7.9c-.6.4-.9 1.1-.9 1.8v30.7c0 1.1.9 2 2 2h58.9c.2 0 .4-.2.5-.3l24.1-18.3c.5-.4.8-1 .8-1.6ZM46.3 41.3h50.9l-5.9 4h-51l6.1-4ZM77.7 84H23.5V57.5h54.2V84ZM79 53.3H28.1l5.9-4h51l-6.1 4Zm22.8 13.4L81.7 82V56.6l20.1-13.4v23.6ZM62.6 17.3c1.1 0 2-.9 2-2V2c0-1.1-.9-2-2-2s-2 .9-2 2v13.3c0 1.1.9 2 2 2Zm0 90.7c-1.1 0-2 .9-2 2v13.3c0 1.1.9 2 2 2s2-.9 2-2V110c0-1.1-.9-2-2-2Zm41.5-89.7-9.4 9.4c-.8.8-.8 2 0 2.8s.9.6 1.4.6 1-.2 1.4-.6l9.4-9.4c.8-.8.8-2 0-2.8s-2-.8-2.8 0ZM27.7 94.7l-9.4 9.4c-.8.8-.8 2 0 2.8s.9.6 1.4.6 1-.2 1.4-.6l9.4-9.4c.8-.8.8-2 0-2.8s-2-.8-2.8 0Zm95.6-34.1H110c-1.1 0-2 .9-2 2s.9 2 2 2h13.3c1.1 0 2-.9 2-2s-.9-2-2-2Zm-108 0H2c-1.1 0-2 .9-2 2s.9 2 2 2h13.3c1.1 0 2-.9 2-2s-.9-2-2-2Zm82.3 34.1c-.8-.8-2-.8-2.8 0s-.8 2 0 2.8l9.4 9.4c.4.4.9.6 1.4.6s1-.2 1.4-.6c.8-.8.8-2 0-2.8l-9.4-9.4ZM27.7 30.6c.4.4.9.6 1.4.6s1-.2 1.4-.6c.8-.8.8-2 0-2.8l-9.4-9.4c-.8-.8-2-.8-2.8 0s-.8 2 0 2.8l9.4 9.4Z" style="fill:#595959;stroke-width:0" id="dc--icon-3"/></symbol><symbol viewBox="0 0 127.1 86.1" id="icon-4" xmlns="http://www.w3.org/2000/svg"><path d="m126.9 83.8-15.1-26.7c-.5-.8-1-1.6-1.7-2.3-6.8-6.9-12.2-13.7-16.1-20l-.8-1.4-.2-8c0-.4 0-.8-.2-1.1-1.6-4.2-2.7-8.5-3.3-12.7l-.3-1.9-1.8.7c-1.3.5-2 1.5-2.5 2.8-1-3-1.8-6.2-2.1-9.6l-.2-1.9-1.8.7C78 3.5 77.1 5.8 77 8.2c-1.2-1.9-2.3-4-3.4-6.4L72.7 0l-1.5 1.4c-1.6 1.4-2.3 3.3-2.2 5.5 0 3.1 1.6 6.8 4.9 11.9l3 6.6s-.2 0-.3-.1c-.8-.4-1.8-.3-2.6.2-1.4.9-3.9 2.9-6.5 5l-1.8 1.4c-.5.4-.9 1-1.1 1.6L63.5 37l-1.1-3.5c-.2-.6-.6-1.2-1.1-1.6l-1.8-1.4c-2.6-2.2-5.1-4.2-6.5-5-.8-.5-1.8-.5-2.6-.2 0 0-.2 0-.3.1l3-6.6C56.5 13.7 58 10 58 7c.1-2.3-.6-4.1-2.2-5.6L54.3 0l-.8 1.9c-1.1 2.4-2.2 4.5-3.4 6.4-.1-2.4-1-4.7-3.8-5.8l-1.8-.7-.2 1.9c-.4 3.4-1.1 6.6-2.1 9.6-.5-1.3-1.2-2.3-2.5-2.8l-1.8-.7-.3 1.9c-.6 4.2-1.7 8.5-3.3 12.7-.1.4-.2.8-.2 1.1l-.2 8-.8 1.4C29.2 41.3 23.8 48 17 55c-.7.7-1.3 1.4-1.7 2.3L.2 83.8c-.4.7-.2 1.6.6 2 .2.1.5.2.7.2.5 0 1-.3 1.3-.8l15.1-26.7c.3-.6.7-1.1 1.2-1.6 7-7.1 12.6-14 16.6-20.6l4.1-7 8.5-13.8s.1-.2.2-.3l.5-.5.2-.2c2.2-2.4 4.2-5.3 6-8.9v1.2c0 3.3-2.6 7.5-4.5 10.4l-5.2 11.3-7.9 7.2c-.6.6-.7 1.5-.1 2.1.6.6 1.5.7 2.1.1l8.2-7.4.2-.2c.2-.1.3-.3.5-.4 1.1-.7 2.3-1.5 3.2-2 1.3.8 3.7 2.8 6.1 4.7l1.8 1.4.1.2 1.8 5.8c-1-.5-2.1-1.6-3.2-3.9l-.3-.7h-.8c-1.3-.4-2.5-1-3.6-2l-1.2-1.1-1 1.2c-1 1.2-2.4 2.2-4.3 2.9l-.5.2-.3.4c-3.4 5.2-4.6 9.7-3.4 13.4 1.1 3.5 4.3 6.1 9.3 8 5 1.8 8 4 9.2 6.4.4.9.5 1.8.5 2.7-2.6-2.4-5.6-4.1-8.6-5.1-1.2-.4-2.4-.6-3.6-.6h-3.8c-1.2 0-2.4.2-3.6.5l-3.7 1.1c-.9.3-1.9.4-2.8.5l-3.8.3c-.9 0-1.7.4-2.4.9l-2.8 2c-.6.4-1.1 1-1.4 1.7l-6.6 15c-.3.8 0 1.6.8 2 .2 0 .4.1.6.1.6 0 1.1-.3 1.4-.9l6.6-15c0-.2.2-.4.4-.5l2.8-2c.3-.2.6-.3.9-.3l3.8-.3c1.1 0 2.3-.3 3.4-.6l3.7-1.1c.9-.3 1.8-.4 2.7-.4h3.8c.9 0 1.8.1 2.7.4 3.3 1.1 6.5 3.3 9.3 6.2l1.6 1.8.4-1 .4 1 1.6-1.8c2.7-3 6-5.1 9.3-6.2.9-.3 1.8-.4 2.7-.4h3.8c.9 0 1.8.1 2.7.4l3.7 1.1c1.1.3 2.2.5 3.4.6l3.8.3c.3 0 .6.1.9.3l2.8 2c.2.1.3.3.4.5l6.6 15c.2.6.8.9 1.4.9s.4 0 .6-.1c.8-.3 1.1-1.2.8-2l-6.6-15c-.3-.7-.8-1.3-1.4-1.7l-2.8-2c-.7-.5-1.5-.8-2.4-.9l-3.8-.3c-.9 0-1.9-.3-2.8-.5l-3.7-1.1c-1.2-.3-2.4-.5-3.6-.5h-3.8c-1.2 0-2.5.2-3.6.6-3 1-6 2.8-8.6 5.1 0-1 0-1.9.5-2.7 1.1-2.5 4.2-4.6 9.2-6.4 5.1-1.8 8.2-4.5 9.3-8 1.2-3.7 0-8.2-3.4-13.4l-.3-.4-.5-.2c-1.9-.7-3.3-1.6-4.3-2.9l-1-1.2-1.2 1.1c-1.1 1.1-2.3 1.7-3.6 1.9h-.8c0 .1-.3.8-.3.8-1.1 2.4-2.2 3.4-3.2 3.9l1.8-5.8s0-.1.1-.2l1.8-1.5c2.4-1.9 4.8-4 6.1-4.7.9.4 2.2 1.2 3.2 2 .2.1.3.3.5.4l.2.2 8.2 7.4c.6.6 1.6.5 2.1-.1.6-.6.5-1.6-.1-2.1l-7.9-7.2-5-11.1v-.2c-2-2.9-4.6-7.1-4.6-10.5V5.5c1.8 3.6 3.8 6.5 6 8.9l.2.2.5.5s.2.2.2.3l8.5 13.8 4.1 7.1c4 6.6 9.6 13.5 16.6 20.6.5.5.9 1 1.2 1.6l15.1 26.7c.3.5.8.8 1.3.8s.5 0 .7-.2c.7-.4 1-1.3.6-2ZM37.1 25.4c1.1-3 2-6 2.7-9 0 .7.2 1.5.2 2.1l-2.9 7.3v-.4Zm8.6-11.5-1.4 2.4c1.2-2.9 2.1-6.1 2.6-9.4.4 1.1.5 2.9-.3 6 0 0-.2.2-.2.3-.2.2-.5.5-.6.8Zm25.6 24.3c1.1-.3 2.2-.8 3.2-1.5 1.1 1 2.5 1.9 4.1 2.5 2.7 4.2 3.6 7.7 2.8 10.4-.8 2.5-3.4 4.6-7.5 6.1-5.3 1.9-8.6 4.2-10.4 7.1-1.7-2.9-5.1-5.2-10.4-7.1-4.1-1.5-6.7-3.6-7.5-6.1-.9-2.7 0-6.2 2.8-10.4 1.6-.6 3-1.5 4.1-2.5 1 .7 2.1 1.2 3.2 1.5 1 2 3.2 5.6 7.8 5.3 4.5.3 6.8-3.3 7.8-5.3Zm18.6-12.8v.4L87 18.5c0-.6.1-1.4.2-2.1.7 3 1.6 6 2.7 9Zm-9.2-12.3s-.2-.2-.2-.3c-.8-3.1-.7-4.9-.3-6 .6 3.3 1.5 6.5 2.6 9.4l-1.5-2.4c-.2-.3-.4-.6-.6-.8Z" style="fill:#595959;stroke-width:0"/></symbol><symbol id="icon-5" viewBox="0 0 128.1 70.9" xmlns="http://www.w3.org/2000/svg"><g id="fc--icon-5"><path class="fd--icon-5" d="M116.1 12V0H0v58.9h12v12h116.1V12h-12ZM4 54.9V4h108.1v8H12v42.9H4Zm120.1 12H16V16h108.1v50.9Z"/><path class="fd--icon-5" d="M60.3 44.3v-3.7h12.6v3.7H60.3Zm0 6.5v-3.7h12.6v3.7H60.3Zm3.3 4.1V27.5h3.8v27.4h-3.8Zm2-10.6v-3.7h8.8c1.3 0 2.3-.4 3-1.3.8-.9 1.1-2 1.1-3.4s-.4-2.6-1.1-3.4c-.8-.9-1.8-1.3-3-1.3h-8.8v-3.7h8.6c1.7 0 3.1.3 4.3 1 1.2.7 2.2 1.7 2.9 2.9.7 1.3 1 2.7 1 4.4s-.3 3.2-1 4.4c-.7 1.3-1.6 2.2-2.9 2.9-1.2.7-2.7 1-4.3 1h-8.6Z"/><path class="fd--icon-5" d="M114.4 66.1H25.3v-2c0-3.2-2.6-5.8-5.8-5.8h-2V24.5h2c3.2 0 5.8-2.6 5.8-5.8v-2h89.1v2c0 3.2 2.6 5.8 5.8 5.8h2v33.8h-2c-3.2 0-5.8 2.6-5.8 5.8v2Zm-85.3-4h81.5c.8-3.8 3.8-6.8 7.6-7.6V28.3c-3.8-.8-6.8-3.8-7.6-7.6H29.1c-.8 3.8-3.8 6.8-7.6 7.6v26.2c3.8.8 6.8 3.8 7.6 7.6Z"/></g></symbol><symbol id="icon-6" viewBox="0 0 124.1 118" xmlns="http://www.w3.org/2000/svg"><g id="gc--icon-6"><path class="gd--icon-6" d="M71.7 91.2c-2.6 1.3-5.4 1.9-8.2 1.9s-5-.5-7.3-1.5c-3.8 8.7-9.7 13.7-17.8 13.7-13.9 0-23-16.7-23-46.2s9.7-47.3 23.1-47.3 20.2 12.5 22.3 32.5c1-.2 2.1-.3 3.2-.3 5 0 9.3 1.7 12.5 4.8C74.5 18 61.3 0 39.4 0S0 20.9 0 58.9c.3 37.5 15.3 58.2 37.5 58.2s28-9 34.2-25.9Z"/><path class="gd--icon-6" d="M79.8 68c0 14.3-7.5 21.5-16.3 21.5S47.7 82.7 47.6 69c0-13.6 7.4-21.3 16.4-21.3S79.8 55 79.8 68Zm-24.9.6c-.2 8.7 3 15.3 8.8 15.3s8.8-6.5 8.8-15.5-2.4-15.2-8.8-15.2-8.8 6.8-8.8 15.4Zm8 49.4 40-70.3h5.9l-40 70.3h-5.9Zm61.2-21.9c0 14.3-7.5 21.5-16.2 21.5S92.1 110.8 92 97.2c0-13.7 7.4-21.4 16.4-21.4s15.7 7.3 15.7 20.3Zm-24.9.6c-.1 8.7 3.2 15.3 8.9 15.3s8.8-6.5 8.8-15.5-2.4-15.2-8.8-15.2-8.9 6.8-8.9 15.4Z"/></g></symbol><symbol id="icon-basket" viewBox="0 0 299 251.9" xmlns="http://www.w3.org/2000/svg"><g id="hc--icon-basket"><path class="hd--icon-basket" d="M0 88.9c1.6-2.4 2.8-5.2 4.9-7 1.7-1.4 4.4-2.2 6.7-2.2 15.1-.2 30.2-.1 45.3 0 1.2 0 2.6.8 3.4 1.7 9.1 9 18 18 27.1 27 8.4 8.3 19.1 10 28.9 4.8 11.1-5.9 15.6-19.6 10.2-30.9-.4-.8-.7-1.5-1.1-2.5h47.7c-.8 4.4-2.3 8.7-2.4 13 0 9.9 5 17.1 13.9 21.1 8.5 3.8 17.1 3.1 24.1-3 8-7 15.4-14.9 23-22.4 3-2.9 5.5-6.9 9.1-8.4 3.6-1.5 8.2-.4 12.4-.4h33c8.3 0 12.8 4.5 12.8 12.8v31.8c0 7.9-4.7 12.5-12.5 12.6h-10c-.2.5-.4.7-.4.8.9 12.7-3.7 24.5-6.6 36.5-5.1 21.4-10.6 42.8-16.2 64.2-.9 3.4-2.5 6.8-4.6 9.6-1.4 1.9-4.2 2.7-6.5 3.8-.9.4-2.1.1-3.2.1H60c-4.6 0-8-1.4-10.2-5.4-1.8-3.5-3.9-7-4.8-10.8-7.2-28.2-14.3-56.5-21.2-84.8-1.1-4.4-.8-9.1-1.1-14.1-2.4 0-5-.2-7.5 0-7.4.6-12.7-2-15.2-9.3V88.9Zm115.1 94.2v-33.6c0-7.5-4.8-12.7-11.5-12.8-6.6 0-11.6 5-11.7 12.3-.1 22.5-.1 45 0 67.4 0 2.8 1.2 5.9 2.8 8.3 2.7 4 8.1 5.1 12.6 3.4 4.6-1.7 7.6-5.8 7.7-11v-34.2Zm68.8-.2v34.2c0 7.9 6.8 13.3 14.3 11.6 5.7-1.3 8.9-6 8.9-13v-65.4c0-1.8-.2-3.7-.7-5.5-1.7-5.3-7.1-8.7-12.5-7.9-5.7.9-9.9 5.6-10 11.6v34.4Zm-46.1-.2v32.7c0 1.6.1 3.3.5 4.9 1.4 5.8 7.2 9.5 13.1 8.5 6-1.1 9.7-5.8 9.7-12.7v-66.3c0-1.4-.1-2.7-.4-4-1.1-4.6-4-7.5-8.6-8.6-4.5-1.1-8.3.3-11.3 3.6-2.3 2.5-3 5.6-3 8.9v33Z"/><path class="hd--icon-basket" d="M24.3 0c3.2-.1 6 1.6 8.5 4.1l76.8 76.8c.4.4.8.8 1.2 1.3 4.1 4.8 3.9 11.3-.4 15.6-4.3 4.3-10.9 4.4-15.6.3-.6-.5-1.1-1.1-1.7-1.6l-76-76c-2.7-2.6-4.6-5.5-4.5-9.4.2-6.3 5-11.1 11.7-11.1Zm250.8 0c4.6 0 8.1 2 10.1 6.2 2 4.1 1.6 8.1-1.1 11.8-.6.9-1.4 1.6-2.2 2.4l-76.2 76.2c-2.3 2.3-4.9 4.2-8.3 4.5-4.6.3-8.2-1.5-10.6-5.4-2.4-4-2.2-8.2.3-12.1.6-.9 1.3-1.7 2.1-2.4 25.7-25.7 51.4-51.3 77-77 2.4-2.4 5.2-4.1 8.7-4Z"/></g></symbol><symbol viewBox="0 0 202.5 202.5" id="icon-home" xmlns="http://www.w3.org/2000/svg"><path d="M53.7 202.5c-14.4 0-23.5-9.5-27.3-18.6-1.8-4.3-2.7-8.9-2.7-13.6v-50.7h-3.6c-1.7 0-3.7-.1-5.8-.6-5.2-1.2-9.4-4.3-11.9-8.7-2.5-4.4-3.1-9.8-1.5-15 1.2-4 3.6-7.8 7.1-11.4L79.3 9.7c6-6.3 13.8-9.7 22-9.7 8.1 0 15.9 3.4 22 9.7 14.8 15.3 29.5 30.7 44.3 46l26.8 27.9c2.5 2.6 6 6.8 7.6 12.6 1.5 5.6.4 11.3-2.8 15.8-3.2 4.4-8.3 7.2-14.1 7.5-2.1.1-4.1.1-6.1.1v50.5c0 8.7-2.7 16.2-8.1 22.5-5.6 6.5-13 9.9-21.5 9.9h-36.2l-.3-6.6v-64.5H90.3v71H54ZM40.6 94.8h7.9v75.5c0 2.2.5 4 1.6 5.5 1.1 1.6 2.1 1.9 3.4 1.9h11.7v-42c0-3.9.3-7.4 1-10.6 2.2-11.4 9.7-17.9 21.1-18.3 9.3-.3 18.7-.3 28 0 11.2.4 18.6 6.7 21 17.8.7 3.3 1.1 7 1.1 11.2v41.8h11.8c1.2 0 2.1-.2 3.1-1.6 1.2-1.6 1.7-3.4 1.7-5.7V94.8h16.3C160 84 149.6 73.3 139.2 62.5l-15.5-16.1c-6.3-6.6-12.6-13.1-19-19.7-1.5-1.6-2.7-1.8-3.9-1.7-.8.1-1.9.5-3.6 2.3L66.1 59.6C54.8 71.3 43.5 83 32.3 94.8h8.4Z" style="fill:#595959;stroke-width:0"/></symbol><symbol id="icon-inst" viewBox="0 0 38 38" xmlns="http://www.w3.org/2000/svg"><g id="jc--icon-inst"><path class="jd--icon-inst" d="M19 0C8.5 0 0 8.5 0 19s8.5 19 19 19 19-8.5 19-19S29.5 0 19 0Zm11.3 25.8c0 2.4-2 4.4-4.4 4.4H12.2c-2.4 0-4.4-2-4.4-4.4V12.1c0-2.4 2-4.4 4.4-4.4h13.7c2.4 0 4.4 2 4.4 4.4v13.7Z"/><path class="jd--icon-inst" d="M26 10.3c-.8 0-1.4.6-1.4 1.4s.6 1.4 1.4 1.4 1.4-.6 1.4-1.4-.6-1.4-1.4-1.4Zm-7 1.5c-3.9 0-7.2 3.2-7.2 7.2s3.2 7.2 7.2 7.2 7.2-3.2 7.2-7.2-3.2-7.2-7.2-7.2Zm0 12.3c-2.8 0-5.1-2.3-5.1-5.1s2.3-5.1 5.1-5.1 5.1 2.3 5.1 5.1-2.3 5.1-5.1 5.1Z"/></g></symbol><symbol id="icon-prof" viewBox="0 0 190 198.6" xmlns="http://www.w3.org/2000/svg"><g id="kc--icon-prof"><circle class="kd--icon-prof" cx="95" cy="45.9" r="45.9"/><path class="kd--icon-prof" d="M190 151.3c0 52.5-42.5 47.1-95 47.1s-95 5.3-95-47.1 42.5-51 95-51 95-1.5 95 51Z"/></g></symbol><symbol viewBox="0 0 38 38" id="icon-telegram" xmlns="http://www.w3.org/2000/svg"><path d="M19 0C8.5 0 0 8.5 0 19s8.5 19 19 19 19-8.5 19-19S29.5 0 19 0Zm5 28c0 .4-.6.6-.9.3l-5.2-4-3 2.8s-.1 0-.2.1h-.1c-.2 0-.4-.1-.4-.3l-2.1-6.4-5.3-2c-.5-.2-.5-.9 0-1.1l20.1-7.9c.4-.2.9.2.8.6l-3.6 17.8Z" style="fill:#ededed;stroke-width:0"/></symbol><symbol id="icon-whatsApp" viewBox="0 0 38 38" xmlns="http://www.w3.org/2000/svg"><g id="mc--icon-whatsApp"><path class="md--icon-whatsApp" d="M19 0C8.5 0 0 8.5 0 19s8.5 19 19 19 19-8.5 19-19S29.5 0 19 0Zm0 30.1c-1.9 0-3.7-.5-5.3-1.3l-6.2 1.7 1.7-6.2c-.9-1.6-1.3-3.4-1.3-5.3 0-6.2 5-11.2 11.2-11.2s11.2 5 11.2 11.2-5 11.2-11.2 11.2Z"/><path class="md--icon-whatsApp" d="M19 9.6c-5.1 0-9.3 4.2-9.3 9.3s.4 3.3 1.3 4.7l.2.3-1 3.8 3.8-1 .3.2c1.4.8 3 1.3 4.7 1.3 5.1 0 9.3-4.2 9.3-9.3S24.1 9.6 19 9.6ZM23.3 24c-.6.3-1.2.3-1.9.1-3.9-.9-6.6-3.2-7.9-7.1-.3-.8-.2-1.6.2-2.3.4-.7 1-1.1 2-1.1.2 0 .4.1.4.3l1.1 2.7v.5l-.8.8c0 .1-.1.3 0 .4.9 1.8 2.2 2.8 3.9 3.4.1 0 .3 0 .4-.1l.9-1.1c.1-.1.3-.2.5-.1l2.4 1c.2 0 .3.2.3.4 0 1.2-.5 1.9-1.4 2.3Z"/></g></symbol><symbol viewBox="0 0 363.3 440.7" id="swiper-background" xmlns="http://www.w3.org/2000/svg"><defs><radialGradient id="na" cx="181.7" cy="220.4" fx="181.7" fy="220.4" r="287.9" gradientUnits="userSpaceOnUse"><stop offset=".5" stop-color="#fff"/><stop offset=".6" stop-color="#f8f8f8"/><stop offset=".7" stop-color="#e7e7e7"/><stop offset=".9" stop-color="#cacaca"/><stop offset="1" stop-color="#bbb"/></radialGradient></defs><rect width="363.3" height="440.7" rx="15" ry="15" style="fill:url(#na);stroke-width:0"/></symbol></svg>