<?xml version="1.0" encoding="UTF-8"?><svg id="b" xmlns="http://www.w3.org/2000/svg" viewBox="0 0 2052.1 1113.9"><defs><style>.d{fill:#78378b;}.d,.e{stroke-width:0px;}.e{fill:#be91c1;}</style></defs><g id="c"><path class="d" d="m2041.9,425.6c-14.7,4.4-4-235.8-7.1-242.2.8-19.5,16.3-14.2,17.2-36.5,0-11.3-5.4-18.9-7.7-21.6l-19.5-9h-44.8c64.8-31.2,54.8-114.9-25.9-113.6-31,1.9-32.2,6.7-40.7,18-10.2-21.6-44.7-19.7-67.6-20.6-11.6,0-30.4.5-41.8,5.7-44.7,23.1,2.1,96.2,36.6,110.5h-56.2s-7.5,3.5-13.3,6.2c-5.7-2.6-13.4-6.2-13.4-6.2h-105c-12.7,0-23,7.9-36.8,28.3-16,23.7-16,34.4-16,38.4-2.3,22.6,35.4,56.1,51.3,50.2v105.5c-25.1-36.6-61.4-57.7-108.1-69.2v-86.1c0-8.7,3.6-12.1,7.1-15.4,13-10,12.6-31.5,2.4-42.7l-19.5-9h-96.5s-19.5,9-19.5,9c-.3.3-.5.6-.8.9l-8.5-9.7c-78.2-13.3-194.9,1.9-214.5,111.7-21.9-62-71.7-119.4-115.8-128.9h0c-33.5,7.4-71.3,43.8-96.5,87.9.5-14.8.1-29.4-.8-43.5l-21.4-25.2c-128.7-27.6-230,23.9-222.6,173.2-1.7,23.4-13.5,17.9-13.8,39.9,0,.2,0,.3,0,.5-18.3-24.6-43.5-44-72.3-53.3,54.7-23.4,94-75.3,92.6-137.2l-22.1-25.3c-78.2-13.3-194.9,1.9-214.5,111.7-21.9-62-71.7-119.4-115.8-128.9h0c-38.1,8.5-81.8,54.4-106.2,106.4-13.3-73.5-79.4-141.7-135.8-48,5.6-10.1-.8-28.5-5.5-32.4l-19.5-9H27s-19.5,9-19.5,9c-10.3,11-10.5,33,2.4,42.7,3.5,3.3,7.1,6.8,7.1,15.4-1.8,13.2,5.3,102.2-6.6,110.2-9.8,8.9-9,33.3,1,41.3.3.3,5.5,5.5,5.7,12.5v62.7c0,8.7-3.6,12.1-7.1,15.4-12.9,9.7-12.7,31.5-2.4,42.7l19.5,9s96.5,0,96.5,0c12.9-7,22.9-5.6,26.6-24.1,2.3,11.7,10.6,19.6,18.8,22.6-1.4,2.4,92.1,1.4,94.8,1.5,27.1-1.9,37.9-36.2,17-52.1-1.9-1.5-2.8-2.3-2.8-7.2h0c0-41.8-15.1-78.1-43.7-105.1,5.5-1.8,11.7-5.3,17.7-9.5,0,.6,0,1.3.1,2,2.9,20.1,12.8,13.9,15.8,36.2l2,1.8-1.6.4c13.4,62.9,73.5,141.8,122.3,150.5,44.6-11.9,90.6-62.5,113.1-122.9,0,18.6,0,38.8,0,38.8-.8,19.5-16.3,14.3-17.2,36.5,0,11.3,5.4,18.9,7.7,21.6l19.5,9h210.1l9.7-6.1c5.8,2.7,13.1,6.1,13.1,6.1h96.5l19.5-9c2.3-2.7,7.7-10.3,7.7-21.6s-7.1-18.2-10.1-21.1c-3.5-3.3-7.1-6.8-7.1-15.4v-43.9c41.4-5.4,70.3-23.8,90-49.3,4.1,7.2,10,8.3,12.2,24.7l2,1.8-1.6.4c13.4,62.9,73.5,141.8,122.3,150.5,44.6-11.9,90.6-62.5,113.1-122.9,0,18.6,0,38.8,0,38.8-.8,19.5-16.3,14.3-17.2,36.5,0,11.3,5.4,18.9,7.7,21.6l19.5,9h210.1l11-6.9c5.4,2.5,14.9,6.9,14.9,6.9h210.1l6.1-3.8c-.3,6.8,100.4,2.9,104.8,3.8,0,0,7.7-3.5,13.3-6.2,5.8,2.7,13.3,6.2,13.3,6.2h96.5l19.5-9c1-1.2,2.7-3.4,4.2-6.5,1.5,3.1,3.2,5.3,4.2,6.5l19.5,9h96.5l19.5-9c2.3-2.7,7.7-10.3,7.7-21.6s-7.1-18.2-10.1-21.1Zm-1189.1-148.5c.1-40.1,3.6-60.7,10.6-71.5.7,24.4-6.2,70.4-10.6,71.5Zm-217.6,119.5h-15.3v-37.9c9.9,9.5,14.9,22,15.3,37.9Zm-253.5-86.9c9.1-12.6,5.6-33.3-7.3-42.1-8.5-5.9-5-30-2.3-40.7,21.5,15.8,50,85.6,36.6,139.7-10.2-10.1-21-24.9-28.8-46.2h0c-1.7-5.6,1.6-10.5,1.8-10.7Zm-187.2-24.3c-7.1-3.6-14.2-6.7-21.1-9.3,7.4-11.5,15.9-23.9,24.7-34.9,1.3,1.8,2.6,3.6,3.8,5.5-9.8,11.2-10.4,26.4-7.4,38.8Zm-51.4-120.1c-3,4.4-6.3,9.3-9.4,14.1,1.3-7.7,5.3-9.5,9.4-14.1Zm7.1,276.7c-3.7-18.1-16.1-13.9-16.8-31.8v-57.7c36.9,26.5,20.8,67.2,16.8,89.5Zm1172.4-45.4h-15.3v-37.9c9.9,9.5,14.9,22,15.3,37.9Zm236,0h-15.3v-38c12.6,11.9,15.1,26.4,15.3,38Zm-132.3-218.7c.4,1.6.6,3.4.6,5.5,0,0,0,90.7,0,90.7-1.7,23.4-13.5,17.9-13.8,39.9.1,10.8,4.5,17.3,8.3,21,0,0,5.6,5.6,5.6,12.3v13.2c-17.5-37.6-50-69-89.2-81.7,43.6-18.7,77.5-55.5,88.6-101Zm-357.2,131.8c9.1-12.6,5.6-33.3-7.3-42.1-8.5-5.9-5-30-2.3-40.7,21.5,15.8,50,85.6,36.6,139.7-10.2-10.1-21-24.9-28.8-46.2h0c-1.7-5.6,1.6-10.5,1.8-10.7Zm835.7-149.8c5.3,9.5,11.9,8.9,13.6,20.6-8.6,4.2-17.7,10.6-27.3,19.3,0-27.1-2.1-20.4,13.7-39.9Zm-130.2,23.5c-1.8,13.3,5.3,102-6.6,110.2-.3.3-.5.6-.8,1-.5-52.5,0-106.4,4.4-122.1,1.6,2.6,2.8,6,3,11Zm-6.7,226.8h0c1.1-2.2.4-35.4-.2-76.6.5.5.9,1,1.4,1.5,0,0,5.6,5.6,5.6,12.3,0,0,0,62.7,0,62.7-.2,5.3-1.5,8.7-3.3,11.4-1.9-2.6-3.4-6-3.4-11.4Zm127.1-70.7c5.9-20.8,12.6-32,23.5-44.8v61.8c-6.7-7.1-16.5-14.7-23.5-17Zm17.6-294.5c1.8,4.7,4.1,8.2,6.4,12.4-4.5,1.1-10.8.6-12.7-4.7,1.8-1.7,4.3-4.2,6.3-7.7Zm-7.8,388.7c-2.2-3.9-5-6.5-6.6-8.1-.1-.1-.3-.3-.4-.4,6.9-3.3,15-10,20.8-16.6.6,14.6-7.6,14.7-13.7,25Z"/><path class="d" d="m1818.8,967.9c-1.9-1.5-2.8-2.3-2.8-7.2,0-42.2-14.6-77.7-43.2-105.3,11.1-3.8,24.9-14.4,33.5-23h0c58-60.8-29.6-251.6-109.1-147.8-3.1-19.9-13.4-18.6-26.8-25.8,0,0-96.5,0-96.5,0-13.5,7.1-23.7,5.9-26.8,25.8-49.4-64.5-101.9-15.2-120.7,45.9-8.7-25-24-48.7-44.7-64.9,14.1-4.5,42-67.3,37.8-70,0-3.9,0-13.1-15.6-35.5-26.5-40.3-53.5-33.3-77.5,4.4-23.9-38-50.3-44.4-77-5.2-15.7,22-15.7,31.3-15.7,35.3,1.7,17.7,22.3,72,47.6,75.1-44.3,41.7-78.1,89.6-79.3,177,0,8.5-1.7,14.4-3.7,19.1-4.9-4.8-10.6-6.8-15.1-20.7-22.7-93-23.6-116-36.2-165.7-3-7.7-10.8-20.6-29.9-20.6,0,0-88.6,0-88.6,0-21.2-5.4-56.8,55.1-52.8,66-2.9,19,30.4,51.7,44.9,50.4-26.3,51.4-58.5,105.1-68.2,168-1.3,0-2.5-.1-3.8,0-3-9.7-5.5-19.7-6.8-26.2-1.4-6.7,2.4-12.9,2.6-13.3,8.6-11.1,1.7-35.3-9-40.6-1.1-.9-8.4-7.1-10.8-16.8-16.6-70.4-24.4-110.5-29.1-134.5-6.9-28.8-4.3-49.5-37.6-52.8h-86.3c-12.7,0-23,7.9-36.8,28.3-23.3,37.2-20.6,46.8.5,72.2,11.4,11.6,20.3,15.1,25.8,16.2-15.1,30.3-35.1,65-49.9,101.4-5.7-16.1-14.9-10.7-21.5-31.3h-.2c-21.9-90.3-23.4-115.3-36.3-165.8-3-7.9-10.9-21-30.2-21,0,0-88.1,0-88.1,0-21.2-5.4-56.7,55.7-52.8,66.7-2.8,18.5,29.4,50.9,44,50.3-17.3,34.5-40.9,74.9-55.7,117-10.2-19.4-24-36.2-40-46.9,50,5.2,62.3-83.3,16.6-86.6,6.8-30.4,51-59.6,25.4-84.9-14.4-25.4-182.7-12.7-223.1-15.7,0,0-19.5,9-19.5,9-10.3,11-10.4,33.1,2.4,42.7,3.5,3.3,7.1,6.8,7.1,15.4v84.3c0,10.2-5.8,18.4-6.6,19.5-9.9,11.1-9.6,30.8,1,41.4.3.3,5.5,5.5,5.7,12.5v69.2c0,8.7-3.6,12.1-7.1,15.4-3,2.9-10.1,9.7-10.1,21.1s5.4,18.9,7.7,21.6l19.5,9h210.1l14-8.8,11.8,8.8s76.7,0,76.7,0c12.5-4.2,21.5-5.7,27.3-20.8,5.2,16.1,14.3,15.5,26.2,20.8h89.6s5.8-2,10.3-3.5l4.6,3.4s77.4,0,77.4,0c11.6-5.5,21.7-5.9,26.6-20.8,5.2,16.1,14.3,15.5,26.2,20.8h89.6s.2,0,.5-.2c10.8,14.9,21.4,29.9,21.7,43.3,0,18,17.4,30.5,33,30.5,26.7-.3,43.2-43.5,44.6-73.6h67.9c-.4,31.1,32.9,93.4,62,93.9,16.5,0,32.2-15.2,32.2-31.3-.3-8-2-12.8-1.9-22.9,0-49.6,59.3-70,23.7-112.9l-5.3,5.3-11.9-11.9c-2-7.9-5.7-22.8-6-24.1-.1-1.4-.2-2.6-.1-3.8,6.7,5.5,14.1,4.9,19.7,14.9,20.7,43.9,69.4,104.6,108.9,109.7,34.9-7.4,75.1-47.8,100.2-94.2-.6,5.8-.9,11.8-.9,17.9,0,4.9-.9,5.7-2.8,7.2-16.7,11.2-13,40.4,5.1,49.1,4.5,4.9,90.2,2.5,98.1,3,9.2-.8,17.4-4.4,22.9-13,.7,4.8,19.2,11,22.3,13,0,0,96.5,0,96.5,0,3.3-2,21.6-8.2,22.3-13,5.5,8.6,13.7,12.2,22.9,13,7.5-.5,94,1.9,98-2.9,18.1-8.6,21.9-38,5.2-49.1Zm-314.5-178.6c.4-.6.8-1.3,1.3-1.9,6.4,9.6,13,20.8,19.7,33.4-4.6,2-9.1,4.1-13.4,6.3,2.8-12.2,1.9-26.9-7.6-37.8Zm228.2,37.8c-4.3-2.2-8.8-4.3-13.4-6.3,6.7-12.6,13.4-23.9,19.7-33.4.4.7.9,1.3,1.3,2-9.5,10.9-10.4,25.6-7.6,37.8Zm-399.1-57.3c-8.2.2-16.1,1.6-23.5,4.2,1.3-6.5,3.1-13.1,5.6-19.8,6.4,4.2,12.4,9.7,17.9,15.6Zm16.5,132c-.2,2.7-.6,5.5-1.3,8.5-5.2-5-10.6-11.3-15.8-19,3.5,0,6.6-.8,9.4-2,1.1,4,3.4,8.4,7.7,12.5Zm-23.4-270.5c1.7,3.6,3.5,7.2,5.4,10.7-4.3,0-5.9-.5-12.1,1.6,2.2-3.7,4.6-8.2,6.6-12.2Zm-243.9,307.9h-18.2c-2.1-8.5-2.1-16.7-1.6-25.2,3.4,14.9,10.5,14.8,19.8,25.2Zm-17.6-46.2c1-6.3,2.2-12.4,3.6-18.5,1,9.7-2.5,16.4-3.6,18.5Zm-680.7-72.4c-8.9-3.3-18.2-6.2-27.9-8.5,0-.5,0-1.2,0-1.8v-41.9c5.6,21.9,16.2,39.5,27.9,52.2Zm-12.6,118.6h-15.3v-37.9c9.9,9.5,14.9,22.1,15.3,37.9Zm224.5,31.7c-3.6,3.6-5.9,7.7-7,12.2,0,0-4.8-11.7-4.8-11.7-3.7-5.3-10.1-27.7,6.6-29.1,1.3,6.6,6.4,24.5,5.3,28.7Zm234.7,0c-4.4,4.5-6.9,9.6-7.6,15.3l-22.4-22.4c9.4,0,15.1,5.3,16.4,7.2-2.5-3.3-10-23.5-9.7-48,5.1,11.2,12.7,7.6,18.3,21.4,2.6,12,5.7,19.8,5,26.5Zm613.8-109.8c-11.6-18.1-50.4-9.9-67.9-11.6.4-.6.8-1.3,1.2-1.9,24.2-2.4,40.1-15,48.7-32.9,2.9,6.6,6.7,12.5,11.5,17.6h0c8.7,8.7,22.4,19.4,33.5,23.2-7.8,7.5-14.6,15.7-20.3,24.4,0-6.7-2.4-13.3-6.7-18.7Zm108.3,111.4c-5.1-18.2-6.2-56.6,11.1-71.6,0,0,0,51.8,0,51.8-.3,12-5.6,12.8-11.1,19.7Zm138.6,0c-5.5-6.9-10.8-7.7-11.1-19.7v-51.8c17.3,15,16.1,53.3,11.1,71.6Z"/><path class="e" d="m252.3,418.1c0,21.6,13.8,27,13.8,28.6,0,3.8-2.5,5.1-2.5,5.1h-86.2s-2.5-.9-2.5-5.1c2.8-7.6,7.2-23.7,7.2-48.2,0-52.1-36.6-72.3-62.5-80.1-3.4,3.7-11.7,14.3-11.7,29v62.7c0,25.3,17.2,34.3,17.2,36.5,0,3.2-1.7,5.1-1.7,5.1H27s-1.7-2-1.7-5.1,17.2-11.2,17.2-36.5v-62.7c0-17.8-12.3-29.7-13.2-30.5-.8-.8-.9-5.4,0-6.3,1.4-1.4,13.2-16.1,13.2-36.5v-90.7c0-25.3-17.2-34.3-17.2-36.5,0-3.2,1.7-5.1,1.7-5.1h96.5s1.7,2,1.7,5.1-17.2,11.2-17.2,36.5v90.7c0,.2,0,.4,0,.6,19.5-36.9,75.2-137.8,100-137.8s53,44.2,53,96.6-6.5,33.9-10.9,38.2h0c-8.7,8.8-21.5,17.3-25.2,17.3s-10.3-19-3.3-26c2-2,4.7,7.5,16.6,8.8,1-4.4.3-11-3.5-18.6-8.2-16.1-20.1-37.6-38.2-48.2-24.2,23.4-48.6,62.9-62,86.2,55.9,12.5,117.8,47.4,117.8,127h0Zm-166-107.9c0-7.6-11.1-12.5-11.1-12.5,0,0-11.1,4.9-11.1,12.5v8.6c0,7.6,11.1,12.5,11.1,12.5,0,0,11.1-4.9,11.1-12.5v-8.6Z"/><path class="e" d="m390.4,124.8c10.2,0,101.7,66.2,101.7,168.2s-97.5,175.7-101.7,175.7c-8.9,0-79.4-50.3-97.4-130.6h0c0-.3-.3-1.4-.3-1.8-3-16.4-8.1-27.4-14.1-30.8-1-.6-2-5.3-1-6.2,10.4-10.1,14.6-35.4,14.6-35.4,16.9-94.2,94.6-139.2,98.3-139.2h0Zm-59.2,172c0-7.6-11.1-12.5-11.1-12.5,0,0-11.1,4.9-11.1,12.5v8.6c0,7.6,11.1,12.5,11.1,12.5,0,0,11.1-4.9,11.1-12.5v-8.6Zm90,110.1c8.9-18.7,16.1-41.4,16.1-66.4,0-107.3-59.1-144.7-77.7-153.9-8.9,18.7-16.1,41.4-16.1,66.4s.1,2.3.1,3.5c1.8,22.6,14.8,31,16.4,32.1,1.1.8,1.7,5.2,1,6.2-.7,1-11,15-5.5,33.1h0c18.3,51.1,52.4,72.5,65.8,79.1h0Z"/><path class="e" d="m606.7,292.7c56.6,11.4,121.1,46.8,121.1,135.7s-4.2,23.4-4.2,23.4h-210.1s-1.7-2-1.7-5.1,17.2-11.2,17.2-36.5v-69.2c0-17.8-12.3-29.7-13.2-30.5-.8-.8-.9-5.4,0-6.3,1.4-1.4,13.2-16.1,13.2-36.5v-3.9c0-111.8,92.4-125.1,128.8-125.1s59.6,3.1,59.6,3.1c0,88.4-77.2,118.7-122.8,128.9.8,17.5,7.7,20.6,12.1,21.9,0,0,0,.1,0,.1h0Zm-33.9,11c0-7.6-11.1-12.5-11.1-12.5,0,0-11.1,4.9-11.1,12.5v8.6c0,7.6,11.1,12.5,11.1,12.5,0,0,11.1-4.9,11.1-12.5v-8.6Zm21.7-62.3c26.6-10.3,58.2-31.4,58.2-73.7,0,0-58.2-.2-58.2,69.8v3.9Zm64.8,180.6c.9-6.7,1.5-14.6,1.5-23.6,0-48.2-31.3-69-56.5-78.1-4.4-1.2-9.8,3.4-9.8,20.5v64.8c0,16.4,11.7,16.4,13.8,16.4h51.1Z"/><path class="e" d="m827.3,365.1v45.1c0,25.3,17.2,34.3,17.2,36.5,0,3.2-1.7,5.1-1.7,5.1h-96.5s-1.7-2-1.7-5.1,17.2-11.2,17.2-36.5v-45.1c0-17.8-12.3-29.7-13.2-30.5s-.9-5.4,0-6.3c1.4-1.4,13.2-16.1,13.2-36.5v-12.3c0-95.7,45.5-142.3,130.9-142.3s62.1,6.5,62.1,6.5c0,40.6,3.9,122.9-34.4,161.2s-54.3,34.7-80,37.2h0c-3.5,0-13.2,5.1-13.2,22.9h0Zm-21.6-37.3c0-7.6-11.1-12.5-11.1-12.5,0,0-11.1,4.9-11.1,12.5v8.6c0,7.6,11.1,12.5,11.1,12.5,0,0,11.1-4.9,11.1-12.5v-8.6Zm21.7-36c0,20,5.9,21.2,8.5,20.9,12.8-2.6,25.5-7.9,35.5-17.9,19.8-19.8,18.3-100.9,17.2-127.9-52.5,6.2-61.2,40.1-61.2,112.6v12.3Z"/><path class="e" d="m1077.7,124.8c10.2,0,101.7,66.2,101.7,168.2s-97.5,175.7-101.7,175.7c-8.9,0-79.4-50.3-97.4-130.6h0c0-.3-.3-1.4-.3-1.8-3-16.4-8.1-27.4-14.1-30.8-1-.6-2-5.3-1-6.2,10.4-10.1,14.6-35.4,14.6-35.4,16.9-94.2,94.6-139.2,98.3-139.2h0Zm-59.2,172c0-7.6-11.1-12.5-11.1-12.5,0,0-11.1,4.9-11.1,12.5v8.6c0,7.6,11.1,12.5,11.1,12.5,0,0,11.1-4.9,11.1-12.5v-8.6Zm90,110.1c8.9-18.7,16.1-41.4,16.1-66.4,0-107.3-59.1-144.7-77.7-153.9-8.9,18.7-16.1,41.4-16.1,66.4s.1,2.3.1,3.5c1.8,22.6,14.8,31,16.4,32.1,1.1.8,1.7,5.2,1,6.2-.7,1-11,15-5.5,33.1h0c18.3,51.1,52.4,72.5,65.8,79.1h0Z"/><path class="e" d="m1294,292.7c56.6,11.4,121.1,46.8,121.1,135.7s-4.2,23.4-4.2,23.4h-210.1s-1.7-2-1.7-5.1,17.2-11.2,17.2-36.5v-69.2c0-17.8-12.3-29.7-13.2-30.5-.8-.8-.9-5.4,0-6.3,1.4-1.4,13.2-16.1,13.2-36.5v-3.9c0-111.8,92.4-125.1,128.8-125.1s59.6,3.1,59.6,3.1c0,88.4-77.2,118.7-122.8,128.9.8,17.5,7.7,20.6,12.1,21.9,0,0,0,.1,0,.1h0Zm-33.9,11c0-7.6-11.1-12.5-11.1-12.5,0,0-11.1,4.9-11.1,12.5v8.6c0,7.6,11.1,12.5,11.1,12.5,0,0,11.1-4.9,11.1-12.5v-8.6Zm21.7-62.3c26.6-10.3,58.2-31.4,58.2-73.7,0,0-58.2-.2-58.2,69.8v3.9Zm64.8,180.6c.9-6.7,1.5-14.6,1.5-23.6,0-48.2-31.3-69-56.5-78.1-4.4-1.2-9.8,3.4-9.8,20.5v64.8c0,16.4,11.7,16.4,13.8,16.4h51.1Z"/><path class="e" d="m1531,292.9c56.3,11.6,120.1,47.2,120.1,135.5s-4.2,23.4-4.2,23.4h-210.1s-1.7-2-1.7-5.1,17.2-11.2,17.2-36.5v-62.7c0-17.8-12.3-29.7-13.2-30.5-.8-.8-.9-5.4,0-6.3,1.4-1.4,13.2-16.1,13.2-36.5v-90.7c0-25.3-17.2-34.3-17.2-36.5,0-3.2,1.7-5.1,1.7-5.1h96.5s1.7,2,1.7,5.1-17.2,11.2-17.2,36.5v90.7c0,16.9,13.2,18.5,13.2,18.5,0,0,0,.2,0,.2h0Zm-34.9,17.3c0-7.6-11.1-12.5-11.1-12.5,0,0-11.1,4.9-11.1,12.5v8.6c0,7.6,11.1,12.5,11.1,12.5,0,0,11.1-4.9,11.1-12.5v-8.6Zm88,88.3c0-46.1-28.7-67.2-53.2-76.9-3.5-1.4-13.1,6.4-13.1,24.1v60c0,16.4,11.7,16.4,13.8,16.4h51.1c.9-6.7,1.5-14.6,1.5-23.6Zm158.2,11.7c0,25.3,17.2,34.3,17.2,36.5,0,3.2-1.7,5.1-1.7,5.1h-96.5s-1.7-2-1.7-5.1,17.2-11.2,17.2-36.5v-226.8c0-15.2-8.7-15.4-13.7-15.4s-13.3,4-15.8,12.1c6.9-.7,13.6-.9,15.3.9,3,3-10.8,26.9-14.9,26.9s-22.1-15.5-22.1-24.9,22-41.2,27.3-41.2h105s1.7,2,1.7,5.1-17.2,11.2-17.2,36.5v226.8h0Z"/><path class="e" d="m2009.3,410.2c0,25.3,17.2,34.3,17.2,36.5,0,3.2-1.7,5.1-1.7,5.1h-96.5s-1.7-2-1.7-5.1,17.2-11.2,17.2-36.5v-153c-2.5-1.1-5.3-1.9-8.6-1.9-20.8,0-68.3,42.5-69.7,111.9.4,15.7,12.3,15.8,14.9,15.6.4-8.6,1.3-17.5,3.2-19.4,3-3,21.6,14.4,21.6,18.5s-15.5,22.1-24.9,22.1-8.8-2.5-15-6v12.1c0,25.3,17.2,34.3,17.2,36.5,0,3.2-1.7,5.1-1.7,5.1h-96.5s-1.7-2-1.7-5.1,17.2-11.2,17.2-36.5v-62.7c0-17.8-12.3-29.7-13.2-30.5-.8-.8-.9-5.4,0-6.3,1.4-1.4,13.2-16.1,13.2-36.5v-90.7c0-25.3-17.2-34.3-17.2-36.5,0-3.2,1.7-5.1,1.7-5.1h96.5s1.7,2,1.7,5.1-17.2,11.2-17.2,36.5v91c19.6-38.7,57.3-74.1,75.2-74.1s2.2.2,3.3.3v-17.2c0-25.3-17.2-34.3-17.2-36.5,0-3.2,1.7-5.1,1.7-5.1h96.5s1.7,2,1.7,5.1-17.2,11.2-17.2,36.5v226.8ZM1811.8,31.9c0-10,78.7-6.9,78.7,0s-10.2,6-10.2,17.5c0,34,41,43.2,60,24.3,17.2-17.2-8.9-36.6-3.7-41.8,6.9-6.9,61-6.4,61,23.7s-37.1,51.2-88.6,51.2-97.2-38-97.2-74.8Zm32,278.3c0-7.6-11.1-12.5-11.1-12.5,0,0-11.1,4.9-11.1,12.5v8.6c0,7.6,11.1,12.5,11.1,12.5,0,0,11.1-4.9,11.1-12.5v-8.6Z"/><path class="e" d="m343.1,835.3c56.6,11.4,121.1,46.8,121.1,135.7s-4.2,23.4-4.2,23.4h-210.1s-1.7-2-1.7-5.1,17.2-11.2,17.2-36.5v-69.2c0-17.8-12.3-29.7-13.2-30.5-.8-.8-.9-5.4,0-6.3,1.4-1.4,13.2-16.1,13.2-36.5v-84.3c0-25.3-17.2-34.3-17.2-36.5,0-3.2,1.7-5.1,1.7-5.1h132.7c37.3,0,66.1,1.9,72.4,8.2,4.5,4.5-35.2,37.3-35.2,82.7s.2,7,.4,10.1c1.3,5.3,3.7,9.6,6,12.6,5-1.5,11.7-4.8,19.6-12.7s9.2,19.9-2,31.2c-10.6,10.6-29-2.8-29.5-3.2-12.4-8.6-36.7-33.8-36.7-79.6s.6-13.9,1.4-19c-4.8-.3-9.8-.5-15.3-.5h-20.9s-11.9-1.3-11.9,19.4v76.9c0,20.4,7.6,23.5,12.2,24.9,0,0,0,.1,0,.1h0Zm-33.9,11c0-7.6-11.1-12.5-11.1-12.5,0,0-11.1,4.9-11.1,12.5v8.6c0,7.6,11.1,12.5,11.1,12.5,0,0,11.1-4.9,11.1-12.5v-8.6Zm88,94.8c0-48-31.1-69-56.3-78.1-4.4-1.4-10.1,3-10.1,20.5v64.8c0,16.4,11.7,16.4,13.8,16.4h51.1c.9-6.7,1.5-14.6,1.5-23.6Z"/><path class="e" d="m689.2,949.9c6.4,25.2,19.5,38.4,19.5,39.4,0,2.8-3.1,5.1-3.1,5.1h-89.6s-2.2-2.1-2.2-5.1,12.2-7.6,6.3-33.7c-3.5-15.1-6-26.1-8.4-36.4-4.9-1.8-10.1-2.8-15.8-2.8-52,0-46.2,56.5-29.7,72.9,0,2.3-3.6,5.1-3.6,5.1h-76.7s-3.9-12.9-3.9-22c0-86.8,70.4-175,87.9-231.4-3-11.5-7.3-20-11.8-26.3-.5-.3-7.5-4.1-12.3-4.1s-13.3,4-15.8,12.1c6.9-.7,13.6-.9,15.3.9,3,3-10.8,26.9-14.9,26.9s-22.1-15.5-22.1-24.9,22-41.2,27.3-41.2h88.1c11,0,3.5,4.6,41.7,167.4h.1c4.8,19.8,19.7,31.4,21.3,32.4,1.1.7,2.1,5.1,1.5,6.1s-9.8,15.4-5.6,32.7l2.5,10.4c1.4,5.4,2.7,10.8,4.1,16.5h0Zm-87.8-74.7c-4.6-19.5-10.8-46-20.6-88-16.9,32.9-36.5,82-37.2,133.6,7.6-21.9,25.6-42,57.9-45.6Zm52.6,19.1c0-7.6-11.1-12.5-11.1-12.5,0,0-11.1,4.9-11.1,12.5v8.6c0,7.6,11.1,12.5,11.1,12.5,0,0,11.1-4.9,11.1-12.5v-8.6Z"/><path class="e" d="m943.4,989.3c0,2.8-3.1,5.1-3.1,5.1h-89.6s-2.2-2.1-2.2-5.1,12.2-7.6,6.3-33.7c-.5-2.1-4.2-17.4-4.2-17.4-4.2-17.3-18.9-26-19.9-26.6s-2.2-5-1.5-6.1c1-1.7,9.8-19,5-38.8-4.3-18.2-9.9-42.4-18.2-77.6-15.9,33.5-34,82.9-34,134.5s13.1,65.6,18.8,65.6c0,2.1-2.9,5.1-2.9,5.1h-77.4s-3.9-12.9-3.9-22c0-86.8,70.4-175,87.9-231.4-3.2-12.3-7.8-21.2-12.6-27.5-2.6-1.2-6.6-2.8-9.7-2.8s-13.3,4-15.8,12.1c6.9-.7,13.6-.9,15.3.9,3,3-10.8,26.9-14.9,26.9s-22.1-15.5-22.1-24.9,22-41.2,27.3-41.2h86.3c11,0,3.4,4.6,41.8,167.8,4.8,19.7,19.6,30.9,21.3,32,1.1.7,2.1,5.1,1.5,6.1-.6,1-9.7,15.4-5.7,32.6,2.2,8.7,4.4,17.7,6.8,27.1,6.4,25.2,19.5,38.4,19.5,39.4Zm-57.3-95c0-7.6-11.1-12.5-11.1-12.5,0,0-11.1,4.9-11.1,12.5v8.6c0,7.6,11.1,12.5,11.1,12.5,0,0,11.1-4.9,11.1-12.5v-8.6Z"/><path class="e" d="m1205.8,964.7c5,5.1,4,15.4,2,17.4-10.8,10.8-33.1,46.4-33.1,77.5s1.9,20.9,1.9,22.9-4.1,5.8-6.7,5.8-36.5-35.6-36.5-70.4,4.5-23.5-1.2-23.5h-110.8c-10.2,0-6.8,10-6.8,24.1,0,24.2-16.3,49.5-19.1,49.5s-7.5-2.7-7.5-5c0-33.3-44.8-79.4-44.8-86.4s.3-7.9,4.1-7.9c27.4,0,28.5-5.8,28.5-5.8h.2c4.8-83.7,70.5-167.6,87.3-222-3.1-11.9-7.6-20.6-12.2-26.9,0,0-7.5-4.1-12.4-4.1s-13.3,4-15.8,12.1c6.9-.7,13.6-.9,15.3.9,3,3-10.8,26.9-14.9,26.9s-22.1-15.5-22.1-24.9,22-40.5,27.3-40.5h88.6c11,0,2.9,4.7,41.3,166.7,4.8,19.7,19.7,31.3,21.3,32.3,1.1.7,2.1,5.1,1.5,6.1-.6,1-9.5,15.3-5.3,32.5,0,0,5.4,21.9,6.9,27.8,3.3,12.9,16.4,14.9,17.5,14.9h5.5Zm-159.4,0h68.9c0-6.7-5.8-27.1-5.8-27.1-4.2-17.3-19.3-26-20.3-26.6-1-.6-2.2-5-1.5-6.1,1-1.7,10.1-19,5.3-38.8-4.3-18.5-10.1-43-18.5-78.9-17.2,33.5-37.3,83.8-37.3,136.5s4.4,30,9.2,41h0Zm98.1-70.5c0-7.6-11.1-12.5-11.1-12.5,0,0-11.1,4.9-11.1,12.5v8.6c0,7.6,11.1,12.5,11.1,12.5,0,0,11.1-4.9,11.1-12.5v-8.6Z"/><path class="e" d="m1420.6,875.1c3.3,0,5.8,3.1,5,6.3-20,88-92.9,130.1-96.5,130.1-7,0-52.9-31.7-80.6-84.9l-5.6-10.9c-7.6-16.1-23.8-21.6-24.9-22-1.1-.4-3.1-4.5-2.7-5.7.7-1.8,12-15.8,12-41.3,0,0,0-2.3,0-3.4,0-119.3,97.5-175.8,101.7-175.8,30.4,0,80.3,55.4,80.3,103.2s-21,51.6-29.7,51.6-7.4-11.4-2.9-15.9c1.8-1.7,5.1,3,9.2,4.9,1.8-3.7,1.1-10.8-4.1-18.9-15.3-23.8-41.8-63.3-79.5-71.1-10.7,20.1-20.2,45.7-20.2,74.4s1,24.5,2.6,35.4c8.3-19.8,25.6-35.8,50.8-35.8s30,18.4,30,19.9c0,7.5-30,50.6-33.5,50.6s-8-1.3-8-3.5,6.6-27.8-9.2-27.8-27.6,16.4-14.4,50c.6,1,6.7,13.8,6.7,13.8h0c1,1.7,2.1,3.5,3.2,5.2,17.8,27.5,39.1,40.7,49.3,45.8,8.9-15.4,15.9-33.1,15.9-50.7s-8.7-14.5-8.7-16.2c0-4.3,4-7.4,4-7.4h49.8Zm-148.5,4c-.1-.6-1.9-7.8-2-8.4-1.8-7.4-13.7-9.6-13.7-9.6,0,0-9.6,7.3-7.8,14.7.1.6,1.9,7.8,2,8.4,1.8,7.4,13.7,9.6,13.7,9.6,0,0,9.6-7.3,7.8-14.7Zm13.8-234.5c-7.3,0-26.6-43.7-26.6-50s20.2-36.2,27.1-36.2,27.1,31,27.1,37.2-20.3,49-27.6,49h0Zm80.5,0c-7.3,0-26.6-43.7-26.6-50s20.2-36.2,27.1-36.2,27.1,31,27.1,37.2-20.3,49-27.6,49h0Z"/><path class="e" d="m1804.3,989.3c0,3.8-2.5,5.1-2.5,5.1h-86.2s-2.5-.9-2.5-5.1c2.8-7.6,7.2-23.7,7.2-48.2,0-46.9-29.4-69.3-53.9-79.8-3.5,3.9-11.5,14.3-11.5,28.7v62.7c0,25.3,17.2,34.3,17.2,36.5,0,3.2-1.7,5.1-1.7,5.1h-96.5s-1.7-2-1.7-5.1,17.2-11.2,17.2-36.5v-62.7c0-14.4-8-24.8-11.5-28.7-24.6,10.6-53.9,32.9-53.9,79.8s4.5,40.6,7.2,48.2c0,4.2-2.5,5.1-2.5,5.1h-86.2s-2.5-1.3-2.5-5.1,13.8-7,13.8-28.6c0-74.9,54.4-110.8,107.3-125.4-11.9-25.1-32-63.4-53.1-86.7-17.2,10.9-28.7,31.6-36.6,47.2-3.8,7.5-4.5,14.2-3.5,18.6,11.9-1.3,14.6-10.8,16.6-8.8,7,7,.7,26-3.3,26s-16.5-8.5-25.2-17.2h0c-4.5-4.4-10.9-17.7-10.9-38.2,0-52.4,30.9-96.6,53-96.6s74.4,97.5,91.3,137.5v-90.9c0-25.3-17.2-34.3-17.2-36.5,0-3.2,1.7-5.1,1.7-5.1h96.5s1.7,2,1.7,5.1-17.2,11.2-17.2,36.5v90.9c16.9-39.9,61.2-137.5,91.3-137.5s53,44.2,53,96.6-6.5,33.9-10.9,38.2h0c-8.7,8.8-21.5,17.3-25.2,17.3s-10.3-19-3.3-26,4.7,7.5,16.6,8.8c1-4.4.2-11-3.5-18.6-7.9-15.6-19.4-36.3-36.6-47.2-21,23.3-41.1,61.6-53.1,86.7,52.9,14.6,107.3,50.5,107.3,125.4s13.8,27,13.8,28.6Zm-171-136.5c0-7.6-11.1-12.5-11.1-12.5,0,0-11.1,4.9-11.1,12.5v8.6c0,7.6,11.1,12.5,11.1,12.5,0,0,11.1-4.9,11.1-12.5v-8.6Z"/></g></svg>