<svg id="b" xmlns="http://www.w3.org/2000/svg" xmlns:xlink="http://www.w3.org/1999/xlink" viewBox="0 0 2564.4 2564.4">
  <defs>
    <linearGradient id="d" x1="-70.4" y1="1282.8" x2="1343.2" y2="1282.8" gradientUnits="userSpaceOnUse">
      <stop offset=".2" stop-color="#fdf0e3"/>
      <stop offset=".2" stop-color="#fdedd0"/>
      <stop offset=".3" stop-color="#feebbb"/>
      <stop offset=".3" stop-color="#feeaaf"/>
      <stop offset=".4" stop-color="#ffeaab"/>
    </linearGradient>
    <linearGradient id="e" x1="-8217.7" y1="1282.8" x2="-6804.1" y2="1282.8" gradientTransform="matrix(-1 0 0 1 -5580.9 0)" xlink:href="#d"/>
    <linearGradient id="f" x1="-1487.6" y1="-4260.2" x2="-74" y2="-4260.2" gradientTransform="rotate(90 -2196.9 -780.1)" xlink:href="#d"/>
    <linearGradient id="g" x1="-6800.5" y1="-4260.2" x2="-5386.9" y2="-4260.2" gradientTransform="matrix(0 -1 -1 0 -2977 -4164.1)" xlink:href="#d"/>
    <style>
      .j,.k,.l,.o,.p{stroke-width:0}.j{fill:#ffeaa9}.k{fill:#fff}.l{fill:#57925d}.o{fill:#5fb461}.q{fill:#e42923;stroke:#1d1d1b;stroke-miterlimit:10;stroke-width:11px}.p{fill:#1d1d1b}
    </style>
  </defs>
  <g id="c">
    <path class="q" d="M1282.1 5.9c-267.6 104.9-351.6 229.7-303.6 368.7l302.7 465.1 304.6-465.1c48.8-150-37.4-275.6-303.6-368.7Z"/>
    <path class="p" d="M1282.1 5.9c-6.2 103.1-71.6 192.3-170.7 223.9 94.8-50 145.8-120.4 170.7-223.9Z"/>
    <path class="p" d="M1281 5.9c24.9 103.6 75.9 173.9 170.7 223.9C1352.6 198.2 1287.2 109 1281 5.9Z"/>
    <path class="p" d="M1281.9 5.9c-1.8 72.1-49.3 137.2-119.4 156.7 65.9-38 98.9-84 119.4-156.7Z"/>
    <path class="p" d="M1281.2 5.9c20.6 72.7 53.6 118.7 119.4 156.7-70.1-19.5-117.6-84.5-119.4-156.7Z"/>
    <path class="p" d="M1281.8 5.9c1.5 50.5-33.7 98.6-83.5 109.6 10.1-6.9 19.9-13.7 28.7-21.4 27.9-23.5 43.2-54.1 54.9-88.2Z"/>
    <path class="p" d="M1281.3 5.9c17.5 51.3 37.8 79.9 83.5 109.6-49.8-11-85-59.1-83.5-109.6Zm.6 109.6c-.4 62.7-42.5 120.3-103.7 136.1 57.1-34.4 84.5-72.8 103.7-136.1Z"/>
    <path class="p" d="M1281.2 115.5c19.2 63.3 46.7 101.7 103.7 136.1-61.3-15.8-103.4-73.4-103.7-136.1Z"/>
    <path class="p" d="M1281.8 115.5c2.5 43.9-29 86.8-72.6 95.2 8.7-6.3 17-12.3 24.6-19 24.1-20.7 37-46.7 48-76.2Z"/>
    <path class="p" d="M1281.3 115.5c11 29.5 23.9 55.5 48 76.2 7.6 6.7 15.9 12.7 24.6 19-43.6-8.4-75-51.3-72.6-95.2Z"/>
    <path class="p" d="M1281.7 115.5c4.4 30.9-19.4 63.2-50.8 66.6 5.8-5 11.4-9.5 16.4-14.3 10.2-9.6 18.1-20.3 24.7-32.7 3.3-6.2 6.2-12.7 9.7-19.6Z"/>
    <path class="p" d="M1281.4 115.5c3.4 6.9 6.3 13.4 9.7 19.6 6.5 12.4 14.5 23.1 24.7 32.7 5 4.9 10.6 9.3 16.4 14.3-31.4-3.4-55.1-35.7-50.8-66.6Zm.4 89.4c3.3 38.2-24.8 76.5-63 82.7 7.4-5.7 14.5-11.1 21-17 20.8-18.4 31.7-40.3 42-65.7Z"/>
    <path class="p" d="M1281.4 204.9c10.4 25.4 21.2 47.4 42 65.7 6.5 5.9 13.6 11.2 21 17-38.3-6.2-66.3-44.5-63-82.7Z"/>
    <path class="p" d="M1281.7 204.9c4.9 26.9-16.5 56-44.1 57.9 4.9-4.6 9.6-8.6 13.9-12.9 8.6-8.5 15.4-17.6 21.3-28.1 3-5.3 5.6-10.9 8.9-16.8Z"/>
    <path class="p" d="M1281.4 204.9c3.3 5.9 5.9 11.5 8.9 16.8 5.8 10.6 12.6 19.7 21.3 28.1 4.3 4.3 9 8.3 13.9 12.9-27.6-1.8-49-30.9-44.1-57.9Z"/>
    <path class="p" d="M1281.7 204.9c6 19.1-10.6 41.6-30.9 40.5 5.9-7 11.4-12.4 16.6-19.3 5.3-6.9 8.9-13.8 14.3-21.2Z"/>
    <path class="p" d="M1281.5 204.9c5.4 7.4 9 14.3 14.3 21.2 5.1 7 10.7 12.3 16.6 19.3-20.2 1.2-36.9-21.4-30.9-40.5Z"/>
    <path class="q" d="M1282.1 2558.5c-267.6-104.9-351.6-229.7-303.6-368.7l302.7-465.1 304.6 465.1c48.8 150-37.4 275.6-303.6 368.7Z"/>
    <path class="p" d="M1282.1 2558.5c-24.9-103.6-75.9-173.9-170.7-223.9 99.1 31.6 164.5 120.8 170.7 223.9Z"/>
    <path class="p" d="M1281 2558.5c6.2-103.1 71.6-192.3 170.7-223.9-94.8 50-145.8 120.4-170.7 223.9Z"/>
    <path class="p" d="M1281.9 2558.5c-20.6-72.7-53.6-118.7-119.4-156.7 70.1 19.5 117.6 84.5 119.4 156.7Z"/>
    <path class="p" d="M1281.2 2558.5c1.8-72.1 49.3-137.2 119.4-156.7-65.9 38-98.9 84-119.4 156.7Z"/>
    <path class="p" d="M1281.8 2558.5c-17.5-51.3-37.8-79.9-83.5-109.6 49.8 11 85 59.1 83.5 109.6Z"/>
    <path class="p" d="M1281.3 2558.5c-1.5-50.5 33.7-98.6 83.5-109.6-10.1 6.9-19.9 13.7-28.7 21.4-27.9 23.5-43.2 54.1-54.9 88.2Zm.6-109.6c-19.2-63.3-46.7-101.7-103.7-136.1 61.3 15.8 103.4 73.4 103.7 136.1Z"/>
    <path class="p" d="M1281.2 2448.9c.4-62.7 42.5-120.3 103.7-136.1-57.1 34.4-84.5 72.8-103.7 136.1Z"/>
    <path class="p" d="M1281.8 2448.9c-11-29.5-23.9-55.5-48-76.2-7.6-6.7-15.9-12.7-24.6-19 43.6 8.4 75 51.3 72.6 95.2Z"/>
    <path class="p" d="M1281.3 2448.9c-2.5-43.9 29-86.8 72.6-95.2-8.7 6.3-17 12.3-24.6 19-24.1 20.7-37 46.7-48 76.2Z"/>
    <path class="p" d="M1281.7 2448.9c-3.4-6.9-6.3-13.4-9.7-19.6-6.5-12.4-14.5-23.1-24.7-32.7-5-4.9-10.6-9.3-16.4-14.3 31.4 3.4 55.1 35.7 50.8 66.6Z"/>
    <path class="p" d="M1281.4 2448.9c-4.4-30.9 19.4-63.2 50.8-66.6-5.8 5-11.4 9.5-16.4 14.3-10.2 9.6-18.1 20.3-24.7 32.7-3.3 6.2-6.2 12.7-9.7 19.6Zm.4-89.4c-10.4-25.4-21.2-47.4-42-65.7-6.5-5.9-13.6-11.2-21-17 38.3 6.2 66.3 44.5 63 82.7Z"/>
    <path class="p" d="M1281.4 2359.5c-3.3-38.2 24.8-76.5 63-82.7-7.4 5.7-14.5 11.1-21 17-20.8 18.4-31.7 40.3-42 65.7Z"/>
    <path class="p" d="M1281.7 2359.5c-3.3-5.9-5.9-11.5-8.9-16.8-5.8-10.6-12.6-19.7-21.3-28.1-4.3-4.3-9-8.3-13.9-12.9 27.6 1.8 49 30.9 44.1 57.9Z"/>
    <path class="p" d="M1281.4 2359.5c-4.9-26.9 16.5-56 44.1-57.9-4.9 4.6-9.6 8.6-13.9 12.9-8.6 8.5-15.4 17.6-21.3 28.1-3 5.3-5.6 10.9-8.9 16.8Z"/>
    <path class="p" d="M1281.7 2359.5c-5.4-7.4-9-14.3-14.3-21.2-5.1-7-10.7-12.3-16.6-19.3 20.2-1.2 36.9 21.4 30.9 40.5Z"/>
    <path class="p" d="M1281.5 2359.5c-6-19.1 10.6-41.6 30.9-40.5-5.9 7-11.4 12.4-16.6 19.3-5.3 6.9-8.9 13.8-14.3 21.2Z"/>
    <path class="q" d="M2558.5 1282.1c-104.9-267.6-229.7-351.6-368.7-303.6l-465.1 302.7 465.1 304.6c150 48.8 275.6-37.4 368.7-303.6Z"/>
    <path class="p" d="M2558.5 1282.1c-103.1-6.2-192.3-71.6-223.9-170.7 50 94.8 120.4 145.8 223.9 170.7Z"/>
    <path class="p" d="M2558.5 1281c-103.6 24.9-173.9 75.9-223.9 170.7 31.6-99.1 120.8-164.5 223.9-170.7Z"/>
    <path class="p" d="M2558.5 1281.9c-72.1-1.8-137.2-49.3-156.7-119.4 38 65.9 84 98.9 156.7 119.4Z"/>
    <path class="p" d="M2558.5 1281.2c-72.7 20.6-118.7 53.6-156.7 119.4 19.5-70.1 84.5-117.6 156.7-119.4Z"/>
    <path class="p" d="M2558.5 1281.8c-50.5 1.5-98.6-33.7-109.6-83.5 6.9 10.1 13.7 19.9 21.4 28.7 23.5 27.9 54.1 43.2 88.2 54.9Z"/>
    <path class="p" d="M2558.5 1281.3c-51.3 17.5-79.9 37.8-109.6 83.5 11-49.8 59.1-85 109.6-83.5Zm-109.6.6c-62.7-.4-120.3-42.5-136.1-103.7 34.4 57.1 72.8 84.5 136.1 103.7Z"/>
    <path class="p" d="M2448.9 1281.2c-63.3 19.2-101.7 46.7-136.1 103.7 15.8-61.3 73.4-103.4 136.1-103.7Z"/>
    <path class="p" d="M2448.9 1281.8c-43.9 2.5-86.8-29-95.2-72.6 6.3 8.7 12.3 17 19 24.6 20.7 24.1 46.7 37 76.2 48Z"/>
    <path class="p" d="M2448.9 1281.3c-29.5 11-55.5 23.9-76.2 48-6.7 7.6-12.7 15.9-19 24.6 8.4-43.6 51.3-75 95.2-72.6Z"/>
    <path class="p" d="M2448.9 1281.7c-30.9 4.4-63.2-19.4-66.6-50.8 5 5.8 9.5 11.4 14.3 16.4 9.6 10.2 20.3 18.1 32.7 24.7 6.2 3.3 12.7 6.2 19.6 9.7Z"/>
    <path class="p" d="M2448.9 1281.4c-6.9 3.4-13.4 6.3-19.6 9.7-12.4 6.5-23.1 14.5-32.7 24.7-4.9 5-9.3 10.6-14.3 16.4 3.4-31.4 35.7-55.1 66.6-50.8Zm-89.4.4c-38.2 3.3-76.5-24.8-82.7-63 5.7 7.4 11.1 14.5 17 21 18.4 20.8 40.3 31.7 65.7 42Z"/>
    <path class="p" d="M2359.5 1281.4c-25.4 10.4-47.4 21.2-65.7 42-5.9 6.5-11.2 13.6-17 21 6.2-38.3 44.5-66.3 82.7-63Z"/>
    <path class="p" d="M2359.5 1281.7c-26.9 4.9-56-16.5-57.9-44.1 4.6 4.9 8.6 9.6 12.9 13.9 8.5 8.6 17.6 15.4 28.1 21.3 5.3 3 10.9 5.6 16.8 8.9Z"/>
    <path class="p" d="M2359.5 1281.4c-5.9 3.3-11.5 5.9-16.8 8.9-10.6 5.8-19.7 12.6-28.1 21.3-4.3 4.3-8.3 9-12.9 13.9 1.8-27.6 30.9-49 57.9-44.1Z"/>
    <path class="p" d="M2359.5 1281.7c-19.1 6-41.6-10.6-40.5-30.9 7 5.9 12.4 11.4 19.3 16.6 6.9 5.3 13.8 8.9 21.2 14.3Z"/>
    <path class="p" d="M2359.5 1281.5c-7.4 5.4-14.3 9-21.2 14.3-7 5.1-12.3 10.7-19.3 16.6-1.2-20.2 21.4-36.9 40.5-30.9Z"/>
    <path class="q" d="M5.9 1282.1c104.9-267.6 229.7-351.6 368.7-303.6l465.1 302.7-465.1 304.6c-150 48.8-275.6-37.4-368.7-303.6Z"/>
    <path class="p" d="M5.9 1282.1c103.6-24.9 173.9-75.9 223.9-170.7-31.6 99.1-120.8 164.5-223.9 170.7Z"/>
    <path class="p" d="M5.9 1281c103.1 6.2 192.3 71.6 223.9 170.7-50-94.8-120.4-145.8-223.9-170.7Z"/>
    <path class="p" d="M5.9 1281.9c72.7-20.6 118.7-53.6 156.7-119.4-19.5 70.1-84.5 117.6-156.7 119.4Z"/>
    <path class="p" d="M5.9 1281.2c72.1 1.8 137.2 49.3 156.7 119.4-38-65.9-84-98.9-156.7-119.4Z"/>
    <path class="p" d="M5.9 1281.8c51.3-17.5 79.9-37.8 109.6-83.5-11 49.8-59.1 85-109.6 83.5Z"/>
    <path class="p" d="M5.9 1281.3c50.5-1.5 98.6 33.7 109.6 83.5-6.9-10.1-13.7-19.9-21.4-28.7-23.5-27.9-54.1-43.2-88.2-54.9Zm109.6.6c63.3-19.2 101.7-46.7 136.1-103.7-15.8 61.3-73.4 103.4-136.1 103.7Z"/>
    <path class="p" d="M115.5 1281.2c62.7.4 120.3 42.5 136.1 103.7-34.4-57.1-72.8-84.5-136.1-103.7Z"/>
    <path class="p" d="M115.5 1281.8c29.5-11 55.5-23.9 76.2-48 6.7-7.6 12.7-15.9 19-24.6-8.4 43.6-51.3 75-95.2 72.6Z"/>
    <path class="p" d="M115.5 1281.3c43.9-2.5 86.8 29 95.2 72.6-6.3-8.7-12.3-17-19-24.6-20.7-24.1-46.7-37-76.2-48Z"/>
    <path class="p" d="M115.5 1281.7c6.9-3.4 13.4-6.3 19.6-9.7 12.4-6.5 23.1-14.5 32.7-24.7 4.9-5 9.3-10.6 14.3-16.4-3.4 31.4-35.7 55.1-66.6 50.8Z"/>
    <path class="p" d="M115.5 1281.4c30.9-4.4 63.2 19.4 66.6 50.8-5-5.8-9.5-11.4-14.3-16.4-9.6-10.2-20.3-18.1-32.7-24.7-6.2-3.3-12.7-6.2-19.6-9.7Zm89.4.4c25.4-10.4 47.4-21.2 65.7-42 5.9-6.5 11.2-13.6 17-21-6.2 38.3-44.5 66.3-82.7 63Z"/>
    <path class="p" d="M204.9 1281.4c38.2-3.3 76.5 24.8 82.7 63-5.7-7.4-11.1-14.5-17-21-18.4-20.8-40.3-31.7-65.7-42Z"/>
    <path class="p" d="M204.9 1281.7c5.9-3.3 11.5-5.9 16.8-8.9 10.6-5.8 19.7-12.6 28.1-21.3 4.3-4.3 8.3-9 12.9-13.9-1.8 27.6-30.9 49-57.9 44.1Z"/>
    <path class="p" d="M204.9 1281.4c26.9-4.9 56 16.5 57.9 44.1-4.6-4.9-8.6-9.6-12.9-13.9-8.5-8.6-17.6-15.4-28.1-21.3-5.3-3-10.9-5.6-16.8-8.9Z"/>
    <path class="p" d="M204.9 1281.7c7.4-5.4 14.3-9 21.2-14.3 7-5.1 12.3-10.7 19.3-16.6 1.2 20.2-21.4 36.9-40.5 30.9Z"/>
    <path class="p" d="M204.9 1281.5c19.1-6 41.6 10.6 40.5 30.9-7-5.9-12.4-11.4-19.3-16.6-6.9-5.3-13.8-8.9-21.2-14.3Z"/>
    <path class="j" d="m1296 1297.8 793.2-133.4c202.1-69.1 278.4-275.2 257.3-587.3-150.5-9.9-276.2 2.8-373.9 41 38.4-97.7 50.9-223.5 40.8-374.1-312.5-20.5-518.6 55.8-587.3 257.3l-133.4 793.2 3.2 3.2Z"/>
    <path class="p" d="M1296 1297.8c219.2-41.3 473-88 692.9-127.4l98.4-17.6-1.9.5c26.4-9.4 51.7-21.6 75-36.9C2320.2 1011.9 2340 795.8 2333 621c-.5-14.3-1.5-28.6-2.3-42.8l14.8 14.8c-123-7-250.6-3.8-366.8 40.5l-34.9 13.6c15.9-39.2 31.3-81.5 39.5-123.2 12.8-60.6 17.2-123 17.4-185.1 0-31.2-1.1-62.4-3-93.7l14.9 14.8c-85.2-5.5-171.4-5.6-255.7 8.6-143.8 23.2-269.7 92.5-319.3 236.7-29.6 171.7-74.5 413.8-107.2 591.8-12.3 65.8-24.6 132.2-37.3 197.6l3.1 3.2Zm0 0-3.2-3.1c27.1-189.5 61.1-406.2 90.5-596.5.2-.9 31.3-198.7 31.5-199.5 18.7-57 51.1-110.5 95.9-151 131.1-119.1 335.5-129.2 504-119.5l13.9.8 1 14c8.3 127.8 5 260-41.3 381.2l-21.4-21.4c30.5-11.8 61.8-20.6 93.5-27.2 94.5-19.6 191.6-20.5 287.4-14.2l14 .9c5.9 84.8 6.1 170.7-6.2 255-23.3 161.4-99 305-262.3 358.3-255.9 41-540.9 84.4-797 122.2Z"/>
    <path class="j" d="m1294.7 1299-133.4 793.2c-69.1 202.1-275.2 278.4-587.3 257.3-9.9-150.5 2.8-276.2 41-373.9-97.7 38.4-223.5 50.9-374.1 40.8-20.5-312.5 55.8-518.6 257.3-587.3l793.2-133.4 3.2 3.2Z"/>
    <path class="p" d="M1294.7 1299c-37.9 256.1-81.2 541.2-122.2 797-53.3 163.3-196.8 239-358.3 262.3-84.4 12.3-170.2 12.1-255 6.2l-.9-14c-6.2-95.9-5.4-192.9 14.2-287.4 6.6-31.7 15.5-63 27.2-93.5l21.4 21.4c-121.2 46.3-253.3 49.6-381.2 41.3l-14-1-.8-13.9c-9.8-168.4.4-372.9 119.5-504 40.5-44.8 93.9-77.2 150.9-95.9.6-.5 198.8-31 199.5-31.5 190.6-29.2 406.7-63.3 596.5-90.5s3.1 3.3 3.1 3.3Zm0 0-3.2-3.1c-65.3 12.7-131.8 25-197.6 37.3-177.6 32.6-420.5 77.4-591.8 107.2-144.1 49.6-213.4 175.5-236.7 319.3-14.1 84.3-14.1 170.5-8.6 255.7l-14.8-14.9c31.2 2 62.5 3.1 93.7 3 62.1-.2 124.4-4.6 185.1-17.4 41.7-8.2 83.9-23.6 123.2-39.5l-13.6 34.9c-44.3 116.2-47.4 243.8-40.5 366.8l-14.8-14.8c14.3.8 28.6 1.9 42.8 2.3 148.9 5.8 324.8-6.9 441.3-109.6 41.8-37 72.4-85.4 91-138l-.5 1.9 17.6-98.4c39.4-220.1 86.1-473.5 127.4-692.9Z"/>
    <path class="j" d="m1292.9 1299 133.4 793.2c69.1 202.1 275.2 278.4 587.3 257.3 9.9-150.5-2.8-276.2-41-373.9 97.7 38.4 223.5 50.9 374.1 40.8 20.5-312.5-55.8-518.6-257.3-587.3l-793.2-133.4-3.2 3.2Z"/>
    <path class="p" d="M1292.9 1299c41.3 219.2 88 473 127.4 692.9l17.6 98.4-.5-1.9c9.4 26.4 21.6 51.7 36.9 75 104.5 159.8 320.6 179.6 495.4 172.6 14.3-.5 28.6-1.5 42.8-2.3l-14.8 14.8c7-123 3.8-250.6-40.5-366.8l-13.6-34.9c39.2 15.9 81.5 31.3 123.2 39.5 60.6 12.8 123 17.2 185.1 17.4 31.2 0 62.4-1.1 93.7-3l-14.8 14.9c5.5-85.2 5.6-171.4-8.6-255.7-23.2-143.8-92.5-269.7-236.7-319.3-171.7-29.6-413.8-74.5-591.8-107.2-65.8-12.3-132.2-24.6-197.6-37.3l-3.2 3.1Zm0 0 3.1-3.2c189.5 27.1 406.2 61.1 596.5 90.5.9.2 198.7 31.3 199.5 31.5 57 18.7 110.5 51.1 151 95.9 119.1 131.1 129.2 335.6 119.5 504l-.8 13.9-14 1c-127.8 8.3-260 5-381.2-41.3l21.4-21.4c11.8 30.5 20.6 61.8 27.2 93.5 19.6 94.5 20.5 191.6 14.2 287.4l-.9 14c-84.8 5.9-170.7 6.1-255-6.2-161.4-23.3-305-99-358.3-262.3-41-255.9-84.4-540.9-122.2-797Z"/>
    <path class="j" d="m1291.6 1297.8-793.2-133.4C296.3 1095.3 220 889.2 241.1 577.1c150.5-9.9 276.2 2.8 373.9 41-38.4-97.7-50.9-223.5-40.8-374.1 312.5-20.5 518.6 55.8 587.3 257.3l133.4 793.2-3.2 3.2Z"/>
    <path class="p" d="M1291.6 1297.8c-256.1-37.9-541.2-81.2-797-122.2-163.3-53.3-239-196.8-262.3-358.3-12.3-84.4-12.1-170.2-6.2-255l14-.9c95.9-6.2 192.9-5.4 287.4 14.2 31.7 6.6 63 15.5 93.5 27.2l-21.4 21.4C553.3 503 550 370.9 558.3 243l1-14 13.9-.8c168.4-9.8 372.9.4 504 119.5 44.8 40.5 77.2 93.9 95.9 150.9.5.6 31 198.8 31.5 199.5 29.2 190.6 63.3 406.7 90.5 596.5l-3.2 3.1Zm0 0 3.1-3.2c-12.7-65.3-25-131.8-37.3-197.6-32.6-177.6-77.4-420.5-107.2-591.8-49.6-144.1-175.5-213.4-319.3-236.7-84.3-14.1-170.5-14.1-255.7-8.6l14.9-14.8c-2 31.2-3.1 62.5-3 93.7.2 62.1 4.6 124.4 17.4 185.1 8.2 41.7 23.6 83.9 39.5 123.2l-34.9-13.6c-116.2-44.3-243.8-47.4-366.8-40.5l14.8-14.8c-.8 14.3-1.9 28.6-2.3 42.8-5.8 148.9 6.9 324.8 109.6 441.3 37 41.8 85.4 72.4 138 91l-1.9-.5 98.4 17.6c220.1 39.4 473.5 86.1 692.9 127.4Z"/>
    <path class="j" d="m1282.9 1284.9 618.9 440.7c181.2 88.8 369.8 2.1 564.1-220.4-93.9-107.1-186.3-182.6-277.1-222.3 90.9-39.7 183.3-115.3 277.1-222.6-195-222.4-383.7-309.1-564.1-220.4l-618.9 440.7v4.2Z"/>
    <path class="p" d="M1282.9 1284.9c199.2 136.1 432.1 296.1 623.9 430.5 214.6 103.5 412.7-65.5 547.5-220.3v20.3c-39-44.1-80.5-86.2-125.6-123.9-44.6-37.3-93.2-70.5-146.3-93.9l-33.2-14.7c37-15.7 75.9-33.7 109.4-56.3 73.7-48.3 137.4-110.7 195.7-176.5v20.4c-17.8-20.3-36.1-40.2-54.9-59.5-56.3-57.1-118.3-110.1-189.4-147.5-100.3-53.4-204.3-60.2-301.5-14.2-143.2 100.3-325.1 225.8-468.5 324.4-52.1 35.7-104.8 71.8-156.9 106.9l-.1 4.2Zm0 0-.1-4.2c50.6-38 101.6-75.7 152.5-113.4 140.3-103.8 319.4-234.9 461.4-337.6 136.7-69.9 277.8-32.5 397.8 52.2 71.9 50.3 134.3 112.6 191.9 178.4l-8.9 10.3c-59.8 68.4-125.2 132.8-201.5 182.9-25.6 16.7-52.5 31.8-80.8 44.2v-29.3c111.8 50.1 202.3 136 282.3 226.8l8.9 10.2c-52.8 60.7-110.1 118.3-174.8 166.5-123.5 92.3-270.1 137.7-414.9 64.1-198.3-143.5-417.5-305.1-613.9-451Z"/>
    <path class="j" d="m1279.9 1283.7-440.7 618.9c-88.8 181.2-2.1 369.8 220.4 564.1 107.1-93.9 182.6-186.3 222.3-277.1 39.7 90.9 115.3 183.3 222.6 277.1 222.4-195 309.1-383.7 220.4-564.1l-440.7-618.9h-4.2Z"/>
    <path class="p" d="M1279.9 1283.7c-136.1 199.2-296.1 432.1-430.5 623.9-103.5 214.6 65.5 412.7 220.3 547.5h-20.3c44.1-39 86.2-80.5 123.9-125.6 37.3-44.6 70.5-93.2 93.9-146.3l14.7-33.2c15.7 37 33.7 75.9 56.3 109.4 48.3 73.7 110.7 137.4 176.5 195.7h-20.4c20.3-17.8 40.2-36.1 59.5-54.9 57.1-56.3 110.1-118.3 147.5-189.4 53.4-100.3 60.2-204.3 14.2-301.5-100.3-143.2-225.8-325.1-324.4-468.5-35.7-52.1-71.8-104.8-106.9-156.9l-4.2-.1Zm0 0 4.2-.1c38 50.6 75.7 101.6 113.4 152.5 103.8 140.3 234.9 319.4 337.6 461.4 69.9 136.7 32.5 277.8-52.2 397.8-50.3 71.9-112.6 134.3-178.4 191.9l-10.3-8.9c-68.4-59.8-132.8-125.2-182.9-201.5-16.7-25.6-31.8-52.5-44.2-80.8h29.3c-50.1 111.7-136 202.3-226.8 282.3l-10.2 8.9c-60.7-52.8-118.3-110.1-166.5-174.8-92.3-123.5-137.7-270.1-64.1-414.9 143.5-198.3 305.1-417.5 451-613.9Z"/>
    <path class="j" d="M1279.9 1282 839.2 663.1c-88.8-181.2-2.1-369.8 220.4-564.1 107.1 93.9 182.6 186.3 222.3 277.1 39.7-90.9 115.3-183.3 222.6-277.1 222.4 195 309.1 383.7 220.4 564.1L1284.2 1282h-4.2Z"/>
    <path class="p" d="M1279.9 1282c-145.8-196.3-307.5-415.6-451-613.9-73.6-144.8-28.3-291.4 64.1-414.9 48.2-64.7 105.8-122 166.5-174.8l10.2 8.9c90.8 80 176.7 170.5 226.8 282.3h-29.3c12.5-28.3 27.5-55.2 44.2-80.8 50.1-76.3 114.5-141.7 182.9-201.5l10.3-8.9c65.8 57.6 128.1 120 178.4 191.9 84.7 120 122 261.1 52.2 397.8-103 142.1-233.7 320.9-337.6 461.4-37.7 50.9-75.4 101.9-113.4 152.5l-4.2-.1Zm0 0h4.2c35.1-52.2 71.2-104.9 106.9-157 98.5-143.3 224.4-325.5 324.4-468.5 46-97.2 39.3-201.1-14.2-301.5-37.4-71.2-90.4-133.1-147.5-189.4-19.3-18.8-39.2-37.1-59.5-54.9h20.4c-65.9 58.3-128.2 122-176.5 195.7-22.5 33.5-40.5 72.4-56.3 109.4l-14.7-33.2c-23.4-53.1-56.6-101.7-93.9-146.3-37.7-45.1-79.8-86.6-123.9-125.6h20.3C914.8 245.4 745.8 443.6 849.3 658.2c134.5 191.9 294.3 424.5 430.5 623.9Z"/>
    <path d="m1281.1 1284.9-618.9 440.7c-181.2 88.8-369.8 2.1-564.1-220.4 93.9-107.1 186.3-182.6 277.1-222.3-90.9-39.7-183.3-115.3-277.1-222.6 195-222.4 383.7-309.1 564.1-220.4l618.9 440.7v4.2Z" style="fill:url(#d);stroke-width:0"/>
    <path class="p" d="M1281.1 1284.9c-196.3 145.8-415.6 307.5-613.9 451-144.8 73.6-291.4 28.3-414.9-64.1-64.7-48.2-122-105.8-174.8-166.5l8.9-10.2c80-90.8 170.5-176.7 282.3-226.8v29.3c-28.3-12.5-55.2-27.5-80.8-44.2-76.3-50.1-141.7-114.5-201.5-182.9l-8.9-10.3c57.6-65.8 120-128.1 191.9-178.4 120-84.7 261.1-122 397.8-52.2 142.1 103 320.9 233.7 461.4 337.6 50.9 37.7 101.9 75.4 152.5 113.4l-.1 4.2Zm0 0v-4.2c-52.2-35.1-104.9-71.2-157-106.9-143.3-98.5-325.5-224.4-468.5-324.4-97.2-46-201.1-39.3-301.5 14.2C282.9 901 221 954 164.7 1011.1c-18.8 19.3-37.1 39.2-54.9 59.5v-20.4c58.3 65.9 122 128.2 195.7 176.5 33.5 22.5 72.4 40.5 109.4 56.3l-33.2 14.7c-53.1 23.4-101.7 56.6-146.3 93.9-45.1 37.7-86.6 79.8-125.6 123.9v-20.3C244.5 1650 442.7 1819 657.3 1715.5c191.9-134.5 424.5-294.3 623.9-430.5Z"/>
    <path d="m1285.3 1284.9 618.9 440.7c181.2 88.8 369.8 2.1 564.1-220.4-93.9-107.1-186.3-182.6-277.1-222.3 90.9-39.7 183.3-115.3 277.1-222.6-195-222.4-383.7-309.1-564.1-220.4l-618.9 440.7v4.2Z" style="stroke-width:0;fill:url(#e)"/>
    <path class="p" d="M1285.3 1284.9c199.2 136.1 432.1 296.1 623.9 430.5 214.6 103.5 412.7-65.5 547.5-220.3v20.3c-39-44.1-80.5-86.2-125.6-123.9-44.6-37.3-93.2-70.5-146.3-93.9l-33.2-14.7c37-15.7 75.9-33.7 109.4-56.3 73.7-48.3 137.4-110.7 195.7-176.5v20.4c-17.8-20.3-36.1-40.2-54.9-59.5-56.3-57.1-118.3-110.1-189.4-147.5-100.3-53.4-204.3-60.2-301.5-14.2-143.2 100.3-325.1 225.8-468.5 324.4-52.1 35.7-104.8 71.8-156.9 106.9l-.1 4.2Zm0 0-.1-4.2c50.6-38 101.6-75.7 152.5-113.4 140.3-103.8 319.4-234.9 461.4-337.6 136.7-69.9 277.8-32.5 397.8 52.2 71.9 50.3 134.3 112.6 191.9 178.4l-8.9 10.3c-59.8 68.4-125.2 132.8-201.5 182.9-25.6 16.7-52.5 31.8-80.8 44.2v-29.3c111.8 50.1 202.3 136 282.3 226.8l8.9 10.2c-52.8 60.7-110.1 118.3-174.8 166.5-123.5 92.3-270.1 137.7-414.9 64.1-198.3-143.5-417.5-305.1-613.9-451Z"/>
    <path d="M1281.1 1280.8 840.4 661.9c-88.8-181.2-2.1-369.8 220.4-564.1 107.1 93.9 182.6 186.3 222.3 277.1 39.7-90.9 115.3-183.3 222.6-277.1 222.4 195 309.1 383.7 220.4 564.1l-440.7 618.9h-4.2Z" style="fill:url(#f);stroke-width:0"/>
    <path class="p" d="M1281.1 1280.8c-145.8-196.3-307.5-415.6-451-613.9-73.6-144.8-28.3-291.4 64.1-414.9 48.2-64.7 105.8-122 166.5-174.8l10.2 8.9c90.8 80 176.7 170.5 226.8 282.3h-29.3c12.5-28.3 27.5-55.2 44.2-80.8 50.1-76.3 114.5-141.7 182.9-201.5l10.3-8.9c65.8 57.6 128.1 120 178.4 191.9 84.7 120 122 261.1 52.2 397.8-103 142.1-233.7 320.9-337.6 461.4-37.7 50.9-75.4 101.9-113.4 152.5l-4.2-.1Zm0 0 4.2-.1c35.1-52.1 71.2-104.8 106.9-156.9 98.5-143.3 224.4-325.5 324.4-468.5 46-97.2 39.3-201.1-14.2-301.5-37.4-71.2-90.4-133.1-147.5-189.4-19.3-18.8-39.2-37.1-59.5-54.9h20.4c-65.9 58.3-128.2 122-176.5 195.7-22.5 33.5-40.5 72.4-56.3 109.4l-14.7-33.2c-23.4-53.1-56.6-101.7-93.9-146.3-37.7-45.1-79.8-86.6-123.9-125.6h20.3C916 244.2 747 442.4 850.5 657c134.5 191.9 294.3 424.5 430.5 623.9Z"/>
    <path d="m1281.1 1284.9-440.7 618.9c-88.8 181.2-2.1 369.8 220.4 564.1 107.1-93.9 182.6-186.3 222.3-277.1 39.7 90.9 115.3 183.3 222.6 277.1 222.4-195 309.1-383.7 220.4-564.1l-440.7-618.9h-4.2Z" style="fill:url(#g);stroke-width:0"/>
    <path class="p" d="M1281.1 1284.9C1145 1484.1 985 1717 850.6 1908.8c-103.5 214.6 65.5 412.7 220.3 547.5h-20.3c44.1-39 86.2-80.5 123.9-125.6 37.3-44.6 70.5-93.2 93.9-146.3l14.7-33.2c15.7 37 33.7 75.9 56.3 109.4 48.3 73.7 110.7 137.4 176.5 195.7h-20.4c20.3-17.8 40.2-36.1 59.5-54.9 57.1-56.3 110.1-118.3 147.5-189.4 53.4-100.3 60.2-204.3 14.2-301.5-100.3-143.2-225.8-325.1-324.4-468.5-35.7-52.1-71.8-104.8-106.9-156.9l-4.2-.1Zm0 0 4.2-.1c38 50.6 75.7 101.6 113.4 152.5 103.8 140.3 234.9 319.4 337.6 461.4 69.9 136.7 32.5 277.8-52.2 397.8-50.3 71.9-112.6 134.3-178.4 191.9l-10.3-8.9c-68.4-59.8-132.8-125.2-182.9-201.5-16.7-25.6-31.8-52.5-44.2-80.8h29.3c-50.1 111.7-136 202.3-226.8 282.3l-10.2 8.9c-60.7-52.8-118.3-110.1-166.5-174.8-92.3-123.5-137.7-270.1-64.1-414.9 143.5-198.3 305.1-417.5 451-613.9Z"/>
    <path class="k" d="M136.9 136c161.9 161.9 85 397.7 264.3 577 96.1-96.1 195.9-90.7 289.4-23.2-70.4-90.6-57.1-209.1 23.2-289.4-172-172-415.1-102.4-577-264.3Z"/>
    <path class="p" d="M136.9 136c61.7 54.2 96.5 132 118.4 209.8 22.2 76.6 36.9 155.9 70.5 228.4 21.6 47.4 51.3 90.2 88.2 126.1h-25.5c30.1-30.7 65.9-57.1 107.4-70.4 42.2-14 89.3-12 130.9 3.1 27.5 9.7 52.6 24.1 75.6 40.6l-27.5 28.5c-76.6-97.1-61.3-230 26.2-314.5v25.6c-36-37.1-79.4-65.8-126.7-86.7-97.9-43.8-206.6-55.7-305.2-98.2-49.7-21.2-96.4-51.8-132.4-92.2Zm0 0c177.2 157.9 419.4 72.5 602.6 264-41.1 39.2-69.2 85.2-74.3 142.6-4.4 48.3 11.3 96.8 41.2 134.9l86.3 110.7L678.9 706c-20.5-14.8-42.5-27.3-65.5-35.6-84.9-30.9-153.9 7.3-212.6 68.2-199-191.8-105.8-424.9-264-602.5Z"/>
    <path class="o" d="M233.1 232.2c125 125 29.9 342.6 168.4 481.1 96.1-96.1 183.9-102.7 259.1-53.6-52.1-72.2-26.7-178.8 53.6-259.1-132.8-132.8-356.1-43.4-481.1-168.4Z"/>
    <path class="p" d="M233.1 232.2c133 118.6 48.2 342.4 181.1 468.3h-25.5c17.5-17.9 36.6-34.8 57.8-49.4 56-39.4 125-55 189.9-27 12.4 5.2 24.1 11.6 35.1 18.7l-27.2 28.4c-32.3-43.9-37.7-103-22.8-154.3 13.9-49.5 43.5-93.7 79.8-129.2v25.6C577.1 284.6 353.8 366.4 233 232.1Zm0 0C367 349.1 584.9 250.1 727 387.8l12.8 12.4c-11.9 12.1-24.8 25.5-35.1 38.7-39.2 50.3-66.3 119.6-42.6 182 3.7 9.6 8.7 18.7 14.7 27l62.9 87.4-90.1-58.9c-9.2-6-18.8-11.2-28.7-15.4-76.3-33.6-152.2 11.2-206.7 65.1l-13.1 12.8-12.4-12.8c-143.2-147.8-38.7-360-155.6-493.8Z"/>
    <path class="l" d="M370.3 371.3c71.4 71.4-.8 213.6 78.3 292.7 65.9-65.9 121.5-75.1 165.9-48.5-28.6-42.4-6.5-110.8 48.5-165.9-75.8-75.8-221.3-6.9-292.7-78.3Z"/>
    <path class="p" d="M370.3 371.3c79.6 66.1 17.2 210.3 91 279.9h-25.5c23.4-24.1 49.4-46 81.4-59.3 16.9-6.9 35.4-11 53.9-10.1 18.8.7 37.6 6.8 53.6 16.4l-26.8 28.3c-26.9-39.7-15.8-92.3 6.2-130.8 12.2-21.9 28.3-41.7 46.2-59v25.6C584 392 435 450.5 370.4 371.2Zm0 0c30.4 24.6 70.8 27.3 108.4 26.6 65.9-1.1 144.4-11.8 197 38.9l12.8 12.2-12.8 13.4c-19.6 20.4-36.5 44.5-46.4 70.7-6.8 18.6-10.2 37.6-5.3 56 1.5 5.5 3.9 10.6 6.9 15.2l50.3 74.8-77.1-46.5c-11-6.6-22.8-10.4-35-11.1-41.7-1.5-78.4 27.6-107.9 55.2l-13.4 12.8-12.2-12.8c-10.3-10.8-18.8-23.3-25-36.6-29-62.8-10.5-132.3-15.3-198.3-2-25.4-8.8-50.5-25.1-70.6Z"/>
    <path class="k" d="M2411.2 136c-161.9 161.9-85 397.7-264.3 577-96.1-96.1-195.9-90.7-289.4-23.2 70.4-90.6 57.1-209.1-23.2-289.4 172-172 415.1-102.4 577-264.3Z"/>
    <path class="p" d="M2411.2 136c-158.1 177.4-65.1 411-264 602.5-58.7-61-127.7-99-212.6-68.2-23 8.3-45 20.8-65.5 35.6l-113.8 82.2 86.3-110.7c29.9-38.1 45.6-86.6 41.2-134.9-4.1-48.8-27.2-94.6-61.5-129.5l-12.8-13.1c183.4-191.6 425.2-105.9 602.6-264Zm0 0c-113.2 127.6-291.4 125.6-437.5 190.4-47.3 20.9-90.7 49.7-126.7 86.7v-25.6c87.6 84.5 102.8 217.5 26.2 314.5l-27.5-28.5c22.9-16.5 48-30.9 75.6-40.6 41.6-15.1 88.7-17.2 130.9-3.1 41.5 13.4 77.3 39.7 107.4 70.4h-25.5c36.9-35.9 66.6-78.8 88.2-126.1 33.5-72.5 48.3-151.8 70.5-228.4 21.9-77.7 56.7-155.6 118.4-209.8Z"/>
    <path class="o" d="M2315 232.2c-125 125-29.9 342.6-168.4 481.1-96.1-96.1-183.9-102.7-259.1-53.6 52.1-72.2 26.7-178.8-53.6-259.1 132.8-132.8 356.1-43.4 481.1-168.4Z"/>
    <path class="p" d="M2315 232.2c-116.9 133.7-12.5 346.2-155.6 493.8l-12.4 12.8-13.1-12.8c-54.6-53.9-130.2-98.6-206.7-65.1-9.9 4.2-19.5 9.4-28.7 15.4l-90.1 58.9 62.9-87.4c6-8.4 11-17.4 14.7-27 23.8-62.4-3.4-131.7-42.6-182-10.3-13.2-23.3-26.7-35.1-38.7l12.8-12.4c142.2-137.8 359.8-38.6 493.9-155.6Zm0 0c-120.8 134.3-344.1 52.4-468.3 181.2v-25.6c36.3 35.6 65.9 79.8 79.8 129.2 14.9 51.3 9.6 110.4-22.8 154.3l-27.2-28.4c11-7.2 22.7-13.5 35.1-18.7 64.9-28 134.1-12.4 189.9 27 21.2 14.6 40.3 31.4 57.8 49.4h-25.5c133-126.1 48.1-349.6 181.1-468.3Z"/>
    <path class="l" d="M2177.9 371.3c-71.4 71.4.8 213.6-78.3 292.7-65.9-65.9-121.5-75.1-165.9-48.5 28.6-42.4 6.5-110.8-48.5-165.9 75.8-75.8 221.3-6.9 292.7-78.3Z"/>
    <path class="p" d="M2177.9 371.3c-16.3 20.1-23.2 45.2-25.1 70.6-4.8 66 13.7 135.5-15.3 198.3-6.3 13.3-14.8 25.8-25 36.6l-12.2 12.8-13.4-12.8c-29.5-27.6-66.2-56.7-107.9-55.2-12.2.7-24 4.5-35 11.1l-77.1 46.5 50.3-74.8c3.1-4.6 5.4-9.6 6.9-15.2 4.9-18.5 1.5-37.4-5.3-56-9.9-26.2-26.8-50.3-46.4-70.7l-12.8-13.4 12.8-12.2c52.6-50.7 131.1-40 197-38.9 37.6.6 78.1-2 108.4-26.6Zm0 0c-64.7 79.3-213.6 20.8-279.9 91.1v-25.6c17.9 17.3 33.9 37.1 46.2 59 12.8 23.3 21.6 47.8 22 75.5.3 19.1-4.8 39.1-15.8 55.3l-26.8-28.3c33.1-20.2 72.3-21.2 107.5-6.4 32 13.3 58 35.2 81.4 59.3H2087c73.9-69.6 11.4-213.9 91-279.9Z"/>
    <path class="k" d="M136.9 2413.5c161.9-161.9 85-397.7 264.3-577 96.1 96.1 195.9 90.7 289.4 23.2-70.4 90.6-57.1 209.1 23.2 289.4-172 172-415.1 102.4-577 264.3Z"/>
    <path class="p" d="M136.9 2413.5c158.1-177.4 65.1-411 264-602.5 58.7 61 127.7 99 212.6 68.2 23-8.3 45-20.8 65.5-35.6l113.8-82.2-86.3 110.7c-29.9 38.1-45.6 86.6-41.2 134.9 4.1 48.8 27.2 94.6 61.5 129.5l12.8 13.1c-183.4 191.6-425.2 105.9-602.6 264Zm0 0c113.2-127.6 291.4-125.6 437.5-190.4 47.3-20.9 90.7-49.7 126.7-86.7v25.6c-87.6-84.5-102.8-217.5-26.2-314.5l27.5 28.5c-22.9 16.5-48 30.9-75.6 40.6-41.6 15.1-88.7 17.2-130.9 3.1-41.5-13.4-77.3-39.7-107.4-70.4H414c-36.9 35.9-66.6 78.8-88.2 126.1-33.5 72.5-48.3 151.8-70.5 228.4-21.8 77.7-56.7 155.6-118.4 209.8Z"/>
    <path class="o" d="M233.1 2317.4c125-125 29.9-342.6 168.4-481.1 96.1 96.1 183.9 102.7 259.1 53.6-52.1 72.2-26.7 178.8 53.6 259.1-132.8 132.8-356.1 43.4-481.1 168.4Z"/>
    <path class="p" d="M233.1 2317.4c116.9-133.7 12.5-346.2 155.6-493.8l12.4-12.8 13.1 12.8c54.6 53.9 130.2 98.6 206.7 65.1 9.9-4.2 19.5-9.4 28.7-15.4l90.1-58.9-62.9 87.4c-6 8.4-11 17.4-14.7 27-23.8 62.4 3.4 131.7 42.6 182 10.3 13.2 23.3 26.7 35.1 38.7l-12.8 12.4c-142.2 137.8-359.8 38.6-493.9 155.6Zm0 0c120.8-134.3 344.1-52.4 468.3-181.2v25.6c-36.3-35.6-65.9-79.8-79.8-129.2-14.9-51.3-9.6-110.4 22.8-154.3l27.2 28.4c-11 7.2-22.7 13.5-35.1 18.7-64.9 28-134.1 12.4-189.9-27-21.2-14.6-40.3-31.4-57.8-49.4h25.5c-133 126.1-48.1 349.6-181.1 468.3Z"/>
    <path class="l" d="M370.3 2178.3c71.4-71.4-.8-213.6 78.3-292.7 65.9 65.9 121.5 75.1 165.9 48.5-28.6 42.4-6.5 110.8 48.5 165.9-75.8 75.8-221.3 6.9-292.7 78.3Z"/>
    <path class="p" d="M370.3 2178.3c16.3-20.1 23.2-45.2 25.1-70.6 4.8-66-13.7-135.5 15.3-198.3 6.3-13.3 14.8-25.8 25-36.6l12.2-12.8 13.4 12.8c29.5 27.6 66.2 56.7 107.9 55.2 12.2-.7 24-4.5 35-11.1l77.1-46.5-50.3 74.8c-3.1 4.6-5.4 9.6-6.9 15.2-4.9 18.5-1.5 37.4 5.3 56 9.9 26.2 26.8 50.3 46.4 70.7l12.8 13.4-12.8 12.2c-52.6 50.7-131.1 40-197 38.9-37.6-.6-78.1 2-108.4 26.6Zm0 0c64.7-79.3 213.6-20.8 279.9-91.1v25.6c-17.9-17.3-33.9-37.1-46.2-59-12.8-23.3-21.6-47.8-22-75.5-.3-19.1 4.8-39.1 15.8-55.3l26.8 28.3c-33.1 20.2-72.3 21.2-107.5 6.4-32-13.3-58-35.2-81.4-59.3h25.5c-73.9 69.6-11.4 213.9-91 279.9Z"/>
    <path class="k" d="M2411.2 2413.5c-161.9-161.9-85-397.7-264.3-577-96.1 96.1-195.9 90.7-289.4 23.2 70.4 90.6 57.1 209.1-23.2 289.4 172 172 415.1 102.4 577 264.3Z"/>
    <path class="p" d="M2411.2 2413.5c-61.7-54.2-96.5-132-118.4-209.8-22.2-76.6-36.9-155.9-70.5-228.4-21.6-47.4-51.3-90.2-88.2-126.1h25.5c-30.1 30.7-65.9 57.1-107.4 70.4-42.2 14-89.3 12-130.9-3.1-27.5-9.7-52.6-24.1-75.6-40.6l27.5-28.5c76.6 97.1 61.3 230-26.2 314.5v-25.6c36 37.1 79.4 65.8 126.7 86.7 97.9 43.8 206.6 55.7 305.2 98.2 49.7 21.2 96.4 51.8 132.4 92.2Zm0 0c-177.2-157.9-419.4-72.5-602.6-264 41.1-39.2 69.2-85.2 74.3-142.6 4.4-48.3-11.3-96.8-41.2-134.9l-86.3-110.7 113.8 82.2c20.5 14.8 42.5 27.3 65.5 35.6 84.9 30.9 153.9-7.3 212.6-68.2 199 191.8 105.8 424.9 264 602.5Z"/>
    <path class="o" d="M2315 2317.4c-125-125-29.9-342.6-168.4-481.1-96.1 96.1-183.9 102.7-259.1 53.6 52.1 72.2 26.7 178.8-53.6 259.1 132.8 132.8 356.1 43.4 481.1 168.4Z"/>
    <path class="p" d="M2315 2317.4c-133-118.6-48.2-342.3-181.1-468.3h25.5c-17.5 17.9-36.6 34.8-57.8 49.4-55.9 39.4-125 55-189.9 27-12.4-5.2-24.1-11.6-35.1-18.7l27.2-28.4c32.3 43.9 37.7 103 22.8 154.3-13.9 49.5-43.5 93.7-79.8 129.2v-25.6c124.2 128.7 347.5 46.9 468.3 181.2Zm0 0c-133.9-116.9-351.8-17.9-493.9-155.6l-12.8-12.4c11.9-12.1 24.8-25.5 35.1-38.7 39.2-50.3 66.3-119.6 42.6-182-3.7-9.6-8.7-18.7-14.7-27l-62.9-87.4 90.1 58.9c9.2 6 18.8 11.2 28.7 15.4 76.3 33.6 152.2-11.2 206.7-65.1l13.1-12.8 12.4 12.8c143.2 147.8 38.7 360 155.6 493.8Z"/>
    <path class="l" d="M2177.9 2178.3c-71.4-71.4.8-213.6-78.3-292.7-65.9 65.9-121.5 75.1-165.9 48.5 28.6 42.4 6.5 110.8-48.5 165.9 75.8 75.8 221.3 6.9 292.7 78.3Z"/>
    <path class="p" d="M2177.9 2178.3c-79.6-66.1-17.2-210.3-91-279.9h25.5c-23.4 24.1-49.4 46-81.4 59.3-16.9 6.9-35.4 11-53.9 10.1-18.8-.7-37.6-6.8-53.6-16.4l26.8-28.3c26.9 39.7 15.8 92.3-6.2 130.8-12.2 21.9-28.3 41.7-46.2 59v-25.6c66.3 70.3 215.3 11.8 279.9 91.1Zm0 0c-30.4-24.6-70.8-27.3-108.4-26.6-65.9 1.1-144.4 11.8-197-38.9l-12.8-12.2 12.8-13.4c19.6-20.4 36.5-44.5 46.4-70.7 6.8-18.6 10.2-37.6 5.3-56-1.5-5.5-3.9-10.6-6.9-15.2l-50.3-74.8 77.1 46.5c11 6.6 22.8 10.4 35 11.1 41.7 1.5 78.4-27.6 107.9-55.2l13.4-12.8 12.2 12.8c10.3 10.8 18.8 23.3 25 36.6 29 62.8 10.5 132.3 15.3 198.3 2 25.4 8.8 50.5 25.1 70.6Z"/>
  </g>
</svg>