<?xml version="1.0" encoding="UTF-8"?><svg id="b" xmlns="http://www.w3.org/2000/svg" xmlns:xlink="http://www.w3.org/1999/xlink" viewBox="0 0 1769 1757.9"><defs><style>.an{fill:url(#v);}.an,.ao,.ap,.aq,.ar,.as,.at,.au,.av,.aw,.ax,.ay,.az,.ba,.bb,.bc,.bd,.be,.bf,.bg,.bh,.bi,.bj,.bk,.bl,.bm,.bn,.bo,.bp,.bq,.br,.bs,.bt,.bu,.bv,.bw,.bx,.by,.bz{stroke-width:0px;}.ao{fill:url(#w);}.ca{fill:url(#j);}.ca,.cb,.cc,.cd,.ce,.cf,.cg,.ch,.ci,.cj,.ck{stroke:#1d1d1b;stroke-miterlimit:10;}.ca,.ce,.cf,.cj,.ck{stroke-width:11px;}.ap{fill:url(#s);}.cb{fill:url(#f);}.cb,.cg,.ch,.ci{stroke-width:7px;}.aq{fill:url(#ag);}.ar{fill:url(#y);}.as{fill:url(#ad);}.cc{stroke-width:20px;}.cc,.be{fill:#1eadb7;}.at{fill:#25aeb7;}.au{fill:#e42823;}.av{fill:url(#ah);}.cd{fill:none;stroke-width:6px;}.aw,.ck{fill:#ffeaa9;}.ax{fill:url(#l);}.ce{fill:url(#k);}.ay{fill:url(#q);}.az{fill:url(#t);}.ba{fill:#f8b133;}.bb{fill:url(#u);}.bc{fill:url(#n);}.bd{fill:url(#z);}.cf{fill:url(#h);}.cg{fill:url(#d);}.bf{fill:url(#al);}.ch{fill:url(#e);}.bg{fill:url(#af);}.bh{fill:#e41f27;}.bi{fill:#e20613;}.bj{fill:url(#aj);}.bk{fill:url(#am);}.ci{fill:url(#g);}.bl{fill:#ffeaab;}.bm{fill:url(#m);}.bn{fill:url(#ab);}.bo{fill:url(#ai);}.bp{fill:url(#r);}.bq{fill:#fcc31c;}.br{fill:url(#ak);}.bs{fill:url(#ae);}.bt{fill:url(#aa);}.cj{fill:url(#i);}.bu{fill:#1d1d1b;}.bv{fill:#20aeb7;}.bw{fill:url(#p);}.bx{fill:url(#ac);}.by{fill:url(#x);}.bz{fill:url(#o);}</style><radialGradient id="d" cx="782" cy="783" fx="836.8" fy="837.3" r="77.1" gradientUnits="userSpaceOnUse"><stop offset=".3" stop-color="#c8ba88"/><stop offset=".8" stop-color="#ffeaa9"/></radialGradient><radialGradient id="e" cx="-6373.9" cy="783" fx="-6319.1" fy="837.3" r="77.1" gradientTransform="translate(-5392.6) rotate(-180) scale(1 -1)" xlink:href="#d"/><radialGradient id="f" cy="-3542.8" fy="-3488.5" gradientTransform="translate(0 -2559) scale(1 -1)" xlink:href="#d"/><radialGradient id="g" cx="-6373.9" cy="-3542.8" fx="-6319.1" fy="-3488.5" r="77.1" gradientTransform="translate(-5392.6 -2559) rotate(-180)" xlink:href="#d"/><radialGradient id="h" cx="-4525.3" cy="-3244.1" fx="-4708.9" fy="-3244.1" r="216.4" gradientTransform="translate(-3948.8 -2363.7) rotate(-180)" gradientUnits="userSpaceOnUse"><stop offset="0" stop-color="#beb082"/><stop offset="0" stop-color="#c5b686"/><stop offset=".3" stop-color="#e4d29a"/><stop offset=".4" stop-color="#f8e3a6"/><stop offset=".5" stop-color="#ffeaab"/></radialGradient><radialGradient id="i" cx="3048.2" cy="-3244.1" fx="2864.6" fy="-3244.1" r="216.4" gradientTransform="translate(-1854.9 -2363.7) scale(1 -1)" xlink:href="#h"/><radialGradient id="j" cx="-3109.5" cy="2296.8" fx="-3293.1" fy="2296.8" r="216.4" gradientTransform="translate(-1411.9 -2537.5) rotate(-90)" xlink:href="#h"/><radialGradient id="k" cx="1632.4" cy="2296.8" fx="1448.8" fy="2296.8" r="216.4" gradientTransform="translate(-1411.9 -443.6) rotate(90) scale(1 -1)" xlink:href="#h"/><radialGradient id="l" cx="-533.2" cy="1579.4" fx="-533.2" fy="1664.2" r="91.1" gradientTransform="translate(-935.6 1413) rotate(90) scale(1 -1)" gradientUnits="userSpaceOnUse"><stop offset=".1" stop-color="#dbca94"/><stop offset=".4" stop-color="#ddcc95"/><stop offset=".5" stop-color="#e6d49b"/><stop offset=".7" stop-color="#f5e1a4"/><stop offset=".7" stop-color="#ffeaab"/></radialGradient><radialGradient id="m" cx="-533.2" cy="-5856" fx="-533.2" fy="-5771.2" r="91.1" gradientTransform="translate(-4733.5 1413) rotate(90)" xlink:href="#l"/><radialGradient id="n" cx="-6074.1" cy="163.6" fx="-6074.1" fy="248.4" r="91.1" gradientTransform="translate(-5190.9 476.9) rotate(-180) scale(1 -1)" xlink:href="#l"/><radialGradient id="o" cx="-6074.1" cy="-4440.2" fx="-6074.1" fy="-4355.4" r="91.1" gradientTransform="translate(-5190.9 -3321) rotate(-180)" xlink:href="#l"/><radialGradient id="p" cx="1056.8" cy="704.7" fx="1032.7" fy="728.8" r="35.4" gradientUnits="userSpaceOnUse"><stop offset="0" stop-color="#00b1ea"/><stop offset=".2" stop-color="#06aae4"/><stop offset=".5" stop-color="#1997d5"/><stop offset=".8" stop-color="#3977bb"/><stop offset=".8" stop-color="#3f72b7"/></radialGradient><radialGradient id="q" cx="-5546.5" cy="704.7" fx="-5570.5" fy="728.8" gradientTransform="translate(-4843.1) rotate(-180) scale(1 -1)" xlink:href="#p"/><radialGradient id="r" cy="-3780.3" fx="1032.7" fy="-3756.1" r="35.4" gradientTransform="translate(0 -2715.7) scale(1 -1)" xlink:href="#p"/><radialGradient id="s" cx="-5546.5" cy="-3780.3" fx="-5570.5" fy="-3756.1" r="35.4" gradientTransform="translate(-4843.1 -2715.7) rotate(-180)" xlink:href="#p"/><radialGradient id="t" cx="885.1" cy="357.5" fx="885.1" fy="429.2" r="121.2" gradientUnits="userSpaceOnUse"><stop offset="0" stop-color="#ffeaab"/><stop offset=".5" stop-color="#fde8a9"/><stop offset=".7" stop-color="#f6e2a5"/><stop offset=".8" stop-color="#ead79d"/><stop offset=".9" stop-color="#dbca94"/></radialGradient><radialGradient id="u" cx="882.6" cy="498.6" fx="882.6" fy="593.7" r="158.6" gradientUnits="userSpaceOnUse"><stop offset=".2" stop-color="#ffeaab"/><stop offset=".6" stop-color="#fde8a9"/><stop offset=".7" stop-color="#f6e2a5"/><stop offset=".8" stop-color="#ead79d"/><stop offset=".9" stop-color="#dbca94"/></radialGradient><radialGradient id="v" cx="886.6" cy="-4906.9" fx="886.6" fy="-4835.3" r="121.2" gradientTransform="translate(0 -3494.9) scale(1 -1)" xlink:href="#t"/><radialGradient id="w" cx="884" cy="-4765.8" fx="884" fy="-4670.7" r="158.6" gradientTransform="translate(0 -3494.9) scale(1 -1)" xlink:href="#u"/><radialGradient id="x" cx="357.5" cy="885.1" fx="475" fy="885.1" r="121.2" gradientUnits="userSpaceOnUse"><stop offset=".1" stop-color="#ffeaab"/><stop offset=".3" stop-color="#fae5a7"/><stop offset=".5" stop-color="#ebd89f"/><stop offset=".7" stop-color="#d3c490"/><stop offset=".8" stop-color="#c4b687"/></radialGradient><radialGradient id="y" cx="498.6" cy="882.5" fx="598.4" fy="882.5" r="158.6" gradientUnits="userSpaceOnUse"><stop offset="0" stop-color="#ffeaab"/><stop offset=".3" stop-color="#fae5a7"/><stop offset=".5" stop-color="#ebd89f"/><stop offset=".8" stop-color="#d3c490"/><stop offset="1" stop-color="#c4b687"/></radialGradient><radialGradient id="z" cx="-7738" cy="885.1" fx="-7620.5" fy="885.1" r="121.2" gradientTransform="translate(-6326.5) rotate(-180) scale(1 -1)" xlink:href="#x"/><radialGradient id="aa" cx="-7596.9" cy="882.5" fx="-7497.1" fy="882.5" r="158.6" gradientTransform="translate(-6326.5) rotate(-180) scale(1 -1)" xlink:href="#y"/><radialGradient id="ab" cx="645" cy="881" fx="678.8" fy="881" r="44.7" gradientUnits="userSpaceOnUse"><stop offset="0" stop-color="#3b2c82"/><stop offset=".1" stop-color="#402b7e"/><stop offset=".3" stop-color="#502b75"/><stop offset=".4" stop-color="#6b2b66"/><stop offset=".6" stop-color="#912a51"/><stop offset=".7" stop-color="#c02936"/><stop offset=".8" stop-color="#e42923"/></radialGradient><radialGradient id="ac" cx="-6786.7" cy="881" fx="-6752.9" fy="881" r="44.7" gradientTransform="translate(-5666.6) rotate(-180) scale(1 -1)" xlink:href="#ab"/><radialGradient id="ad" cx="-770.8" cy="-4659.9" fx="-737" fy="-4659.9" r="44.7" gradientTransform="translate(-3777.3 1414.2) rotate(90)" xlink:href="#ab"/><radialGradient id="ae" cx="-5370.9" cy="-4659.9" fx="-5337.2" fy="-4659.9" r="44.7" gradientTransform="translate(-3777.3 -4252.4) rotate(-90) scale(1 -1)" xlink:href="#ab"/><radialGradient id="af" cx="610.5" cy="471.2" fx="660.8" fy="566.2" r="117.1" gradientUnits="userSpaceOnUse"><stop offset="0" stop-color="#ffeaa9"/><stop offset="0" stop-color="#fee4a5"/><stop offset=".2" stop-color="#fbd499"/><stop offset=".2" stop-color="#f8b987"/><stop offset=".3" stop-color="#f2936d"/><stop offset=".4" stop-color="#ec634b"/><stop offset=".5" stop-color="#e42a23"/><stop offset=".5" stop-color="#e42923"/></radialGradient><radialGradient id="ag" cx="-6890.7" cy="471.2" fx="-6840.3" fy="566.2" r="117.1" gradientTransform="translate(-5735.7) rotate(-180) scale(1 -1)" xlink:href="#af"/><radialGradient id="ah" cy="-4465.3" fy="-4370.3" gradientTransform="translate(0 -3182.7) scale(1 -1)" xlink:href="#af"/><radialGradient id="ai" cx="-6890.7" cy="-4465.3" fx="-6840.3" fy="-4370.3" r="117.1" gradientTransform="translate(-5735.7 -3182.7) rotate(-180)" xlink:href="#af"/><radialGradient id="aj" cx="-805.3" cy="-5069.7" fx="-755" fy="-4974.7" gradientTransform="translate(-3781.2 1410) rotate(90)" xlink:href="#af"/><radialGradient id="ak" cx="-5474.9" cy="-5069.7" fx="-5424.6" fy="-4974.7" r="117.1" gradientTransform="translate(-3781.2 -4325.7) rotate(-90) scale(1 -1)" xlink:href="#af"/><radialGradient id="al" cx="-805.3" cy="1075.6" fx="-755" fy="1170.6" r="117.1" gradientTransform="translate(-598.6 1410) rotate(90) scale(1 -1)" xlink:href="#af"/><radialGradient id="am" cx="-5474.9" cy="1075.6" fx="-5424.6" fy="1170.6" r="117.1" gradientTransform="translate(-598.6 -4325.7) rotate(-90)" xlink:href="#af"/></defs><g id="c"><path class="bv" d="m459.3,285.8c79.7,86.6,64.7,236.6,64.7,236.6,0,0-150.8,15.8-236.6-64.7-75.5-70.8-42.7-201.2-64.7-236.6,35,22.1,164.9-13.2,236.6,64.7Z"/><path class="bu" d="m459.8,285.4c42.9,47.3,61.1,111.6,68,173.9,2.3,22.8,3.6,45.7,2.1,68.6-12.4,1.7-24.8,2.6-37.3,3.1-45.5,1.5-91.8-3.6-135-18.7-20.6-7.3-40.7-17.2-58.5-30-47.2-33.1-65.8-79.8-72-135.4-3.7-31.4-2.1-63.3-3.8-94.7-.7-9.3-1.6-19.7-5.8-27.7,0,0-13.3-23.8-13.3-23.8s21.9,15.3,21.9,15.3c7.5,5,18.2,6.5,27.4,7.8,10.2,1.3,20.6,2,31.1,2.7,61.7,3.5,131.2,10.5,175.2,59h0Zm-1,.9c-53.5-57.8-134-52.3-205.9-56.6-10.5-1.1-21.4-2.2-30.7-7.7,0,0,1.3-1.3,1.3-1.3,5.5,9.3,6.8,20.2,8,30.6,2.9,31.3,2.3,62.9,6.7,94.1,5.3,40.9,19.2,83.1,50.3,111.6,3.9,3.4,7.7,7,11.9,10.1,1.1.8,3.6,2.8,4.6,3.6.9.7,6.9,4.8,8,5.6,3.1,2.1,6.7,4.2,9.9,6.3,51.1,29.6,111.2,39.7,169.7,40.1,10.5,0,20.9-.3,31.3-1.2,0,0-.9.9-.9.9.9-10.4,1.2-20.9,1.1-31.3-.4-49.5-7.8-99.8-27.6-145.5-6.2-14.3-14-28.3-23-40.9-1.2-1.9-3.3-4.4-4.7-6.3-2.6-3.7-7.1-8.6-10-12h0Z"/><path class="bl" d="m446.4,298.8c67.7,73.6,55,201,55,201,0,0-128.1,13.4-201-55-64.1-60.2-36.3-170.9-55-201,29.7,18.7,140.1-11.2,201,55Z"/><path class="bu" d="m446.9,298.3c42.5,47.1,57.1,112.9,60.5,174.7.5,10.7.6,21.4-.1,32.1-19.8,2.9-39.8,3.6-59.8,3-55.1-2-113.3-16.2-154.8-54.7-28.7-26.6-41.2-64.8-45-102.7-3.1-26.7-1.6-53.9-2.8-80.5-.6-7.8-1.2-16.6-4.6-23.2,0,0-13.2-24.2-13.2-24.2,0,0,21.8,15.7,21.8,15.7,6.2,4.2,15.2,5.5,22.9,6.7,26.4,3.3,53.5,3.5,79.9,7.9,35.2,5.3,71,18.3,95.4,45.3h0Zm-1,.9c-37.3-40.9-96.1-45.5-148.1-46.7-13.4-.5-26.9-.6-40.1-3.3-4.4-1-8.8-2.2-12.8-4.7,0,0,1.3-1.3,1.3-1.3,7.9,13.6,7.5,37.1,8.6,52.8,2.3,64,8.8,126.7,67.4,164.3,51.7,33.8,118.4,42.4,179.1,38.4,0,0-.9.9-.9.9,1.4-17.7,1.2-35.5,0-53.2-4-52.6-18.3-107.3-54.4-147.2h0Z"/><path class="bq" d="m430.5,314.6c53,57.6,43.1,157.4,43.1,157.4,0,0-100.3,10.5-157.4-43.1-50.2-47.1-28.4-133.8-43.1-157.4,23.3,14.7,109.7-8.8,157.4,43.1Z"/><path class="bu" d="m431,314.2c28.6,31.5,41.1,74.2,46.4,115.7,1.9,15.7,3,31.6,2.1,47.5-39.2,5.8-80.1,4.1-117.9-8.6-26.7-9.3-52.4-25.2-68.3-49.1-20.9-31.4-22.3-70.4-22-106.7,0-7,.1-13.8-.2-20.5-.4-5.9-.8-12.6-3.2-17.6,0,0-12.9-25-12.9-25l21.5,16.4c4.4,3.2,11.7,4.3,17.3,5.3,6.7,1,13.6,1.6,20.6,2.2,41.1,3,87.3,8.2,116.7,40.4h0Zm-1,.9c-29.2-31.9-75.1-35.6-115.9-36.4-10.5-.4-21.1-.5-31.4-2.6-3.5-.8-7-1.7-10.1-3.7l1.3-1.3c3.7,6.3,4.5,13.5,5.4,20.5,1.9,20.8,1.6,41.9,4.5,62.5,3.5,27.2,12.8,55,33.3,74,15.2,14.2,33.8,24.3,53.5,31,32.9,11,68.3,14.4,102.8,12,0,0-.9.9-.9.9,1.1-13.8.9-27.8,0-41.6-3.1-41.2-14.3-83.9-42.5-115.2h0Z"/><path class="bl" d="m402.6,342.5c44.3,46.6,53.2,111.6,53.2,111.6,0,0-65.2-8.6-111.6-53.2-40.8-39.2-39.8-93.6-53.2-111.6,17.8,13.4,71.7,11.2,111.6,53.2Z"/><path class="bu" d="m403.1,342.1c25.3,27,43,60.5,54.5,95.5,2.5,7.4,4.4,15.6,5.9,23.3-24.5-1.4-48.8-6.8-71.6-16-50.9-21.3-82.3-53.9-94.6-108.6-2.5-10.1-4.3-20.6-6.7-30.5-1.2-4.8-2.6-9.4-4.6-12.7l-21.3-36.1s30,27.5,30,27.5c3.2,2.9,7.8,4.9,12,6.6,14.5,5.7,29.9,9.8,44.3,16.1,19.4,8.2,37.6,19.6,52.1,35h0Zm-.9.9c-14.4-15.1-32.6-26-52.2-33.1-14.7-5.5-30.1-8.6-45.1-13.2-5-1.6-10.1-3.4-14.5-6.6,0,0,1.4-1.4,1.4-1.4,6.1,8.8,8.2,19.5,11.2,29.5,5.4,20,11.7,40.1,22.8,57.8,25,39.6,70.6,62.8,114.9,74.1,5,1.2,10.2,2.3,15.2,3.1,0,0-1.1,1.1-1.1,1.1-7.1-40.8-24.3-80.8-52.7-111.3h0Z"/><path class="bv" d="m459.3,1472.7c79.7-86.6,64.7-236.6,64.7-236.6,0,0-150.8-15.8-236.6,64.7-75.5,70.8-42.7,201.2-64.7,236.6,35-22.1,164.9,13.2,236.6-64.7Z"/><path class="bu" d="m458.8,1472.3c3-3.5,7.4-8.4,10-12,1.4-1.8,3.4-4.4,4.7-6.3,9-12.7,16.8-26.7,23-40.9,19.8-45.7,27.2-95.9,27.6-145.5,0-10.5-.2-20.9-1.1-31.3l.9.9c-10.4-.9-20.9-1.2-31.3-1.2-58.4.5-118.6,10.5-169.7,40.1-3.2,2-6.8,4.2-9.9,6.3-1.2.8-6.9,4.9-8,5.6-1.1.8-3.5,2.8-4.6,3.6-4.2,3.1-8,6.7-11.9,10.1-31.1,28.6-45,70.7-50.3,111.6-4.4,31.1-3.8,62.7-6.7,94.1-1.2,10.5-2.5,21.3-8,30.6,0,0-1.3-1.3-1.3-1.3,9.3-5.5,20.2-6.6,30.7-7.7,71.9-4.4,152.5,1.1,205.9-56.6h0Zm1,.9c-44,48.5-113.5,55.5-175.2,59-10.5.7-20.9,1.4-31.1,2.7-9.3,1.3-19.9,2.8-27.4,7.8,0,0-21.9,15.3-21.9,15.3,0,0,13.3-23.8,13.3-23.8,4.2-8,5.1-18.4,5.8-27.7,1.7-31.4,0-63.3,3.8-94.7,6.2-55.7,24.8-102.3,72-135.4,17.8-12.8,37.9-22.8,58.5-30,43.3-15.1,89.5-20.1,135-18.7,12.5.4,24.9,1.3,37.3,3.1,1.5,22.9.3,45.8-2.1,68.6-6.9,62.3-25.1,126.6-68,173.9h0Z"/><path class="bl" d="m446.4,1459.8c67.7-73.6,55-201,55-201,0,0-128.1-13.4-201,55-64.1,60.2-36.3,170.9-55,201,29.7-18.7,140.1,11.2,201-55Z"/><path class="bu" d="m445.9,1459.3c36.1-39.9,50.4-94.6,54.4-147.2,1.3-17.7,1.5-35.6,0-53.2,0,0,.9.9.9.9-60.6-4-127.4,4.6-179.1,38.4-58.7,37.7-65.1,100.4-67.4,164.3-.4,8.9-.8,17.8-1.7,26.7-1.1,8.9-2.2,18.1-6.8,26.1,0,0-1.3-1.3-1.3-1.3,4-2.5,8.4-3.7,12.8-4.7,13.2-2.6,26.7-2.7,40.1-3.3,52-1.1,110.9-5.8,148.1-46.7h0Zm1,.9c-27.6,30.5-69.1,42.7-108.8,47.1-22,2.9-44.6,3.2-66.5,6-7.7,1.2-16.7,2.5-22.9,6.7,0,0-21.8,15.7-21.8,15.7,0,0,13.2-24.2,13.2-24.2,3.4-6.6,4-15.4,4.6-23.2,1.3-26.6-.2-53.8,2.8-80.5,3.8-37.9,16.4-76.1,45-102.7,41.5-38.5,99.7-52.8,154.8-54.7,20-.6,40,.1,59.8,3,.7,10.7.6,21.4.1,32.1-3.4,61.8-18,127.6-60.5,174.7h0Z"/><path class="bq" d="m430.5,1443.9c53-57.6,43.1-157.4,43.1-157.4,0,0-100.3-10.5-157.4,43.1-50.2,47.1-28.4,133.8-43.1,157.4,23.3-14.7,109.7,8.8,157.4-43.1Z"/><path class="bu" d="m430.1,1443.5c28.2-31.3,39.4-74,42.5-115.2,1-13.9,1.2-27.8,0-41.6,0,0,.9.9.9.9-34.5-2.5-69.9.9-102.8,12-19.6,6.7-38.2,16.8-53.5,31-37.4,35-34.3,89.5-37.9,136.5-.9,7-1.7,14.2-5.4,20.5,0,0-1.3-1.3-1.3-1.3,3.1-2,6.6-2.9,10.1-3.7,10.3-2.1,21-2.1,31.4-2.6,40.7-.9,86.7-4.5,115.9-36.4h0Zm1,.9c-29.4,32.3-75.5,37.4-116.7,40.4-7,.6-13.9,1.2-20.6,2.2-5.6.9-12.9,2.1-17.3,5.3,0,0-21.5,16.4-21.5,16.4l12.9-25c2.4-5,2.8-11.7,3.2-17.6.3-6.6.2-13.5.2-20.5-.4-36.3,1.1-75.3,22-106.7,15.9-23.9,41.6-39.8,68.3-49.1,37.8-12.7,78.7-14.4,117.9-8.6.9,15.9-.2,31.7-2.1,47.5-5.3,41.5-17.8,84.2-46.4,115.7h0Z"/><path class="bl" d="m402.6,1416c44.3-46.6,53.2-111.6,53.2-111.6,0,0-65.2,8.6-111.6,53.2-40.8,39.2-39.8,93.6-53.2,111.6,17.8-13.4,71.7-11.2,111.6-53.2Z"/><path class="bu" d="m402.1,1415.5c28.4-30.5,45.6-70.5,52.7-111.3,0,0,1.1,1.1,1.1,1.1-5.1.8-10.2,1.9-15.2,3.1-44.3,11.2-90,34.4-114.9,74.1-11.1,17.7-17.3,37.7-22.8,57.8-3,10-5.1,20.7-11.2,29.5,0,0-1.4-1.4-1.4-1.4,4.4-3.2,9.4-5,14.5-6.6,15-4.6,30.4-7.7,45.1-13.2,19.5-7.1,37.8-17.9,52.2-33.1h0Zm.9.9c-14.5,15.4-32.7,26.8-52.1,35-14.3,6.3-29.8,10.5-44.3,16.1-4.2,1.7-8.8,3.8-12,6.6,0,0-30,27.5-30,27.5l21.3-36.1c2-3.3,3.4-8,4.6-12.7,2.4-10,4.2-20.4,6.7-30.5,12.3-54.7,43.7-87.3,94.6-108.6,22.8-9.2,47.1-14.6,71.6-16-1.6,7.7-3.4,15.9-5.9,23.3-11.5,35-29.1,68.5-54.5,95.5h0Z"/><path class="bv" d="m1305.8,285.8c-79.7,86.6-64.7,236.6-64.7,236.6,0,0,150.8,15.8,236.6-64.7,75.5-70.8,42.7-201.2,64.7-236.6-35,22.1-164.9-13.2-236.6,64.7Z"/><path class="bu" d="m1306.3,286.3c-3,3.5-7.4,8.4-10,12-1.4,1.8-3.4,4.4-4.7,6.3-9,12.7-16.8,26.7-23,40.9-19.8,45.7-27.2,95.9-27.6,145.5,0,10.5.2,20.9,1.1,31.3l-.9-.9c10.4.9,20.9,1.2,31.3,1.2,58.4-.5,118.6-10.5,169.7-40.1,3.2-2,6.8-4.2,9.9-6.3,1.2-.8,6.9-4.9,8-5.6,1.1-.8,3.5-2.8,4.6-3.6,4.2-3.1,8-6.7,11.9-10.1,31.1-28.6,45-70.7,50.3-111.6,4.4-31.1,3.8-62.7,6.7-94.1,1.2-10.5,2.5-21.3,8-30.6,0,0,1.3,1.3,1.3,1.3-9.3,5.5-20.2,6.6-30.7,7.7-71.9,4.4-152.5-1.1-205.9,56.6h0Zm-1-.9c44-48.5,113.5-55.5,175.2-59,10.5-.7,20.9-1.4,31.1-2.7,9.3-1.3,19.9-2.8,27.4-7.8,0,0,21.9-15.3,21.9-15.3,0,0-13.3,23.8-13.3,23.8-4.2,8-5.1,18.4-5.8,27.7-1.7,31.4,0,63.3-3.8,94.7-6.2,55.7-24.8,102.3-72,135.4-17.8,12.8-37.9,22.8-58.5,30-43.3,15.1-89.5,20.1-135,18.7-12.5-.4-24.9-1.3-37.3-3.1-1.5-22.9-.3-45.8,2.1-68.6,6.9-62.3,25.1-126.6,68-173.9h0Z"/><path class="bl" d="m1318.7,298.8c-67.7,73.6-55,201-55,201,0,0,128.1,13.4,201-55,64.1-60.2,36.3-170.9,55-201-29.7,18.7-140.1-11.2-201,55Z"/><path class="bu" d="m1319.2,299.2c-36.1,39.9-50.4,94.6-54.4,147.2-1.3,17.7-1.5,35.6,0,53.2,0,0-.9-.9-.9-.9,60.6,4,127.4-4.6,179.1-38.4,58.7-37.7,65.1-100.4,67.4-164.3.4-8.9.8-17.8,1.7-26.7,1.1-8.9,2.2-18.1,6.8-26.1,0,0,1.3,1.3,1.3,1.3-4,2.5-8.4,3.7-12.8,4.7-13.2,2.6-26.7,2.7-40.1,3.3-52,1.1-110.9,5.8-148.1,46.7h0Zm-1-.9c27.6-30.5,69.1-42.7,108.8-47.1,22-2.9,44.6-3.2,66.5-6,7.7-1.2,16.7-2.5,22.9-6.7,0,0,21.8-15.7,21.8-15.7l-13.2,24.2c-3.4,6.6-4,15.4-4.6,23.2-1.3,26.6.2,53.8-2.8,80.5-3.8,37.9-16.4,76.1-45,102.7-41.5,38.5-99.7,52.8-154.8,54.7-20,.6-40-.1-59.8-3-.7-10.7-.6-21.4-.1-32.1,3.4-61.8,18-127.6,60.5-174.7h0Z"/><path class="bq" d="m1334.6,314.6c-53,57.6-43.1,157.4-43.1,157.4,0,0,100.3,10.5,157.4-43.1,50.2-47.1,28.4-133.8,43.1-157.4-23.3,14.7-109.7-8.8-157.4,43.1Z"/><path class="bu" d="m1335,315c-28.2,31.3-39.4,74-42.5,115.2-1,13.9-1.2,27.8,0,41.6,0,0-.9-.9-.9-.9,34.5,2.5,69.9-.9,102.8-12,19.6-6.7,38.2-16.8,53.5-31,37.4-35,34.3-89.5,37.9-136.5.9-7,1.7-14.2,5.4-20.5,0,0,1.3,1.3,1.3,1.3-3.1,2-6.6,2.9-10.1,3.7-10.3,2.1-21,2.1-31.4,2.6-40.7.9-86.7,4.5-115.9,36.4h0Zm-1-.9c29.4-32.3,75.5-37.4,116.7-40.4,7-.6,13.9-1.2,20.6-2.2,5.6-.9,12.9-2.1,17.3-5.3,0,0,21.5-16.4,21.5-16.4,0,0-12.9,25-12.9,25-2.4,5-2.8,11.7-3.2,17.6-.3,6.6-.2,13.5-.2,20.5.4,36.3-1.1,75.3-22,106.7-15.9,23.9-41.6,39.8-68.3,49.1-37.8,12.7-78.7,14.4-117.9,8.6-.9-15.9.2-31.7,2.1-47.5,5.3-41.5,17.8-84.2,46.4-115.7h0Z"/><path class="bl" d="m1362.5,342.5c-44.3,46.6-53.2,111.6-53.2,111.6,0,0,65.2-8.6,111.6-53.2,40.8-39.2,39.8-93.6,53.2-111.6-17.8,13.4-71.7,11.2-111.6,53.2Z"/><path class="bu" d="m1363,343c-28.4,30.5-45.6,70.5-52.7,111.3,0,0-1.1-1.1-1.1-1.1,5.1-.8,10.2-1.9,15.2-3.1,44.3-11.2,90-34.4,114.9-74.1,11.1-17.7,17.3-37.7,22.8-57.8,3-10,5.1-20.7,11.2-29.5,0,0,1.4,1.4,1.4,1.4-4.4,3.2-9.4,5-14.5,6.6-15,4.6-30.4,7.7-45.1,13.2-19.5,7.1-37.8,17.9-52.2,33.1h0Zm-.9-.9c14.5-15.4,32.7-26.8,52.1-35,14.3-6.3,29.8-10.5,44.3-16.1,4.2-1.7,8.8-3.8,12-6.6,0,0,30-27.5,30-27.5,0,0-21.3,36.1-21.3,36.1-2,3.3-3.4,8-4.6,12.7-2.4,10-4.2,20.4-6.7,30.5-12.3,54.7-43.7,87.3-94.6,108.6-22.8,9.2-47.1,14.6-71.6,16,1.6-7.7,3.4-15.9,5.9-23.3,11.5-35,29.1-68.5,54.5-95.5h0Z"/><path class="bv" d="m1305.8,1472.7c-79.7-86.6-64.7-236.6-64.7-236.6,0,0,150.8-15.8,236.6,64.7,75.5,70.8,42.7,201.2,64.7,236.6-35-22.1-164.9,13.2-236.6-64.7Z"/><path class="bu" d="m1305.3,1473.1c-42.9-47.3-61.1-111.6-68-173.9-2.3-22.8-3.6-45.7-2.1-68.6,12.4-1.7,24.8-2.6,37.3-3.1,45.5-1.5,91.8,3.6,135,18.7,20.6,7.3,40.7,17.2,58.5,30,47.2,33.1,65.8,79.8,72,135.4,3.7,31.4,2.1,63.3,3.8,94.7.7,9.3,1.6,19.7,5.8,27.7,0,0,13.3,23.8,13.3,23.8l-21.9-15.3c-7.5-5-18.2-6.5-27.4-7.8-10.2-1.3-20.6-2-31.1-2.7-61.7-3.5-131.2-10.5-175.2-59h0Zm1-.9c53.5,57.8,134,52.3,205.9,56.6,10.5,1.1,21.4,2.2,30.7,7.7,0,0-1.3,1.3-1.3,1.3-5.5-9.3-6.8-20.2-8-30.6-2.9-31.3-2.3-62.9-6.7-94.1-5.3-40.9-19.2-83.1-50.3-111.6-3.9-3.4-7.7-7-11.9-10.1-1.1-.8-3.6-2.8-4.6-3.6-.9-.7-6.9-4.8-8-5.6-3.1-2.1-6.7-4.2-9.9-6.3-51.1-29.6-111.2-39.7-169.7-40.1-10.5,0-20.9.3-31.3,1.2,0,0,.9-.9.9-.9-.9,10.4-1.2,20.9-1.1,31.3.4,49.5,7.8,99.8,27.6,145.5,6.2,14.3,14,28.3,23,40.9,1.2,1.9,3.3,4.4,4.7,6.3,2.6,3.7,7.1,8.6,10,12h0Z"/><path class="bl" d="m1318.7,1459.8c-67.7-73.6-55-201-55-201,0,0,128.1-13.4,201,55,64.1,60.2,36.3,170.9,55,201-29.7-18.7-140.1,11.2-201-55Z"/><path class="bu" d="m1318.2,1460.2c-42.5-47.1-57.1-112.9-60.5-174.7-.5-10.7-.6-21.4.1-32.1,19.8-2.9,39.8-3.6,59.8-3,55.1,1.9,113.3,16.2,154.8,54.7,28.7,26.6,41.2,64.8,45,102.7,3,26.7,1.6,53.9,2.8,80.5.6,7.8,1.2,16.6,4.6,23.2,0,0,13.2,24.2,13.2,24.2l-21.8-15.7c-6.2-4.2-15.2-5.5-22.9-6.7-26.4-3.3-53.5-3.5-79.9-7.9-35.2-5.3-71-18.3-95.4-45.3h0Zm1-.9c37.3,40.9,96.1,45.5,148.1,46.7,13.4.5,26.9.6,40.1,3.3,4.4,1,8.8,2.2,12.8,4.7,0,0-1.3,1.3-1.3,1.3-7.9-13.6-7.5-37.1-8.6-52.8-2.3-64-8.8-126.7-67.4-164.3-51.7-33.8-118.4-42.4-179.1-38.4,0,0,.9-.9.9-.9-1.4,17.7-1.2,35.5,0,53.2,4,52.6,18.3,107.3,54.4,147.2h0Z"/><path class="bq" d="m1334.6,1443.9c-53-57.6-43.1-157.4-43.1-157.4,0,0,100.3-10.5,157.4,43.1,50.2,47.1,28.4,133.8,43.1,157.4-23.3-14.7-109.7,8.8-157.4-43.1Z"/><path class="bu" d="m1334.1,1444.4c-28.6-31.5-41.1-74.2-46.4-115.7-1.9-15.7-3-31.6-2.1-47.5,39.2-5.8,80.1-4.1,117.9,8.6,26.7,9.3,52.4,25.2,68.3,49.1,20.9,31.4,22.3,70.4,22,106.7,0,7-.1,13.8.2,20.5.4,5.9.8,12.6,3.2,17.6,0,0,12.9,25,12.9,25l-21.5-16.4c-4.4-3.2-11.7-4.3-17.3-5.3-6.7-1-13.6-1.6-20.6-2.2-41.1-3-87.3-8.2-116.7-40.4h0Zm1-.9c29.2,31.9,75.1,35.6,115.9,36.4,10.5.4,21.1.5,31.4,2.6,3.5.8,7,1.7,10.1,3.7,0,0-1.3,1.3-1.3,1.3-3.7-6.3-4.5-13.5-5.4-20.5-1.9-20.8-1.6-41.9-4.5-62.5-3.5-27.2-12.8-55-33.4-74-15.2-14.2-33.8-24.3-53.5-31-32.9-11-68.3-14.4-102.8-12,0,0,.9-.9.9-.9-1.1,13.8-.9,27.8,0,41.6,3.1,41.2,14.3,83.9,42.5,115.2h0Z"/><path class="bl" d="m1362.5,1416c-44.3-46.6-53.2-111.6-53.2-111.6,0,0,65.2,8.6,111.6,53.2,40.8,39.2,39.8,93.6,53.2,111.6-17.8-13.4-71.7-11.2-111.6-53.2Z"/><path class="bu" d="m1362,1416.4c-25.3-27-43-60.5-54.5-95.5-2.5-7.4-4.4-15.6-5.9-23.3,24.5,1.4,48.8,6.8,71.6,16,50.9,21.3,82.3,53.9,94.6,108.6,2.5,10.1,4.3,20.6,6.7,30.5,1.2,4.8,2.6,9.4,4.6,12.7,0,0,21.3,36.1,21.3,36.1s-30-27.5-30-27.5c-3.2-2.9-7.8-4.9-12-6.6-14.5-5.7-29.9-9.8-44.3-16.1-19.4-8.2-37.6-19.6-52.1-35h0Zm.9-.9c14.4,15.1,32.6,26,52.2,33.1,14.7,5.5,30.1,8.6,45.1,13.2,5,1.6,10.1,3.4,14.5,6.6,0,0-1.4,1.4-1.4,1.4-6.1-8.8-8.2-19.5-11.2-29.5-5.4-20-11.7-40.1-22.8-57.8-25-39.6-70.6-62.8-114.9-74.1-5-1.2-10.2-2.3-15.2-3.1,0,0,1.1-1.1,1.1-1.1,7.1,40.8,24.3,80.8,52.7,111.3h0Z"/><path class="aw" d="m884.7,883l443.1,74.5c112.9,38.6,155.5,153.7,143.8,328.1-84.1,5.5-154.3-1.6-208.9-22.9,21.4,54.6,28.5,124.9,22.8,209-174.6,11.5-289.7-31.2-328.1-143.8l-74.5-443.1,1.8-1.8Z"/><path class="bu" d="m884.7,883c146.1,21.3,299.1,44.4,445.4,67.8,123.9,40.4,153.7,170.1,152.8,286.5,0,19.1-1,38.3-2.2,57.4,0,0-8.5.6-8.5.6-53.6,3.5-107.9,3-160.8-7.9-17.7-3.7-35.3-8.7-52.3-15.3,0,0,12.9-13,12.9-13,25.9,67.8,27.8,141.8,23.1,213.3,0,0-.6,8.5-.6,8.5-51.8,3.4-104.1,3.4-155.5-5.7-85.7-14.8-160.5-58.3-188.5-144.9-22.9-144.2-47.1-301.4-67.8-445.4,0,0,0,0,0,0,0,0,0,0,0,0,0,0,1.8-1.7,1.8-1.7h0Zm0,0s-1.7,1.8-1.7,1.8h0c27.4,142.3,55.9,298.7,81.5,441.9,34,95.7,126.4,130,224.9,136,31.8,2.1,63.7,1.4,95.5-.6,0,0-9,9-9,9,4-68.8,2.3-139.8-22.4-204.7,0,0-8.2-21.2-8.2-21.2,22.3,9,46.6,18,70.3,22.6,50.9,10.6,103.6,11.3,155.4,8.2,0,0-9,9-9,9,1.1-15.9,1.8-31.9,2-47.8,1.7-108.7-22.9-233.1-138.5-272.9-139.5-24.6-297.5-54.1-440.8-81.3h0Z"/><path class="aw" d="m882.3,880.6l-74.5-443.1c-38.6-112.9-153.7-155.5-328.1-143.8-5.5,84.1,1.6,154.3,22.9,208.9-54.6-21.4-124.9-28.5-209-22.8-11.5,174.6,31.2,289.7,143.8,328.1l443.1,74.5,1.8-1.8Z"/><path class="bu" d="m882.3,880.6c-27.1-143.2-56.6-301.5-81.3-440.8-39.7-115.5-164.1-140.2-272.9-138.5-15.9.2-31.9,1-47.8,2,0,0,9-9,9-9-3.1,51.9-2.4,104.5,8.2,155.4,4.6,23.7,13.6,48,22.6,70.3,0,0-21.2-8.2-21.2-8.2-64.9-24.8-135.9-26.4-204.7-22.4,0,0,9-9,9-9-2.1,31.8-2.8,63.7-.6,95.5,6,98.5,40.3,190.8,136,224.9,143.4,25.6,299.4,54.1,442,81.5,0,0,0,0,0,0l1.8-1.7h0Zm0,0s-1.7,1.8-1.7,1.8c0,0,0,0,0,0,0,0,0,0,0,0-143.9-20.6-301.4-44.9-445.4-67.8-86.6-28-130.1-102.7-144.9-188.5-9.1-51.3-9.1-103.7-5.7-155.5,0,0,8.5-.6,8.5-.6,71.5-4.7,145.5-2.8,213.3,23.1,0,0-13,12.9-13,12.9-6.6-17.1-11.5-34.6-15.3-52.3-11-52.9-11.4-107.2-7.9-160.8,0,0,.6-8.5.6-8.5,19.1-1.2,38.3-2.2,57.4-2.2,116.4-.9,246.1,28.9,286.5,152.8,23.3,146.5,46.4,299.2,67.8,445.4h0Z"/><path class="aw" d="m882.3,884.7l-74.5,443.1c-38.6,112.9-153.7,155.5-328.1,143.8-5.5-84.1,1.6-154.3,22.9-208.9-54.6,21.4-124.9,28.5-209,22.8-11.5-174.6,31.2-289.7,143.8-328.1l443.1-74.5,1.8,1.8Z"/><path class="bu" d="m882.3,884.7c-21.3,146.1-44.4,299.1-67.8,445.4-40.4,123.9-170.1,153.7-286.5,152.8-19.1,0-38.3-1-57.4-2.2,0,0-.6-8.5-.6-8.5-3.5-53.6-3-107.9,7.9-160.8,3.7-17.7,8.7-35.3,15.3-52.3,0,0,13,12.9,13,12.9-67.8,25.9-141.8,27.8-213.3,23.1,0,0-8.5-.6-8.5-.6-3.4-51.8-3.4-104.1,5.7-155.5,14.8-85.7,58.3-160.5,144.9-188.5,144.2-22.9,301.4-47.1,445.4-67.8,0,0,0,0,0,0,0,0,0,0,0,0,0,0,1.7,1.8,1.7,1.8h0Zm0,0s-1.8-1.7-1.8-1.7h0c-142.4,27.4-298.7,56-442,81.5-95.7,34-130,126.4-136,224.9-2.1,31.8-1.4,63.7.6,95.5,0,0-9-9-9-9,68.8,4,139.8,2.3,204.7-22.4,0,0,21.2-8.2,21.2-8.2-9,22.3-18,46.6-22.6,70.3-10.6,50.9-11.3,103.6-8.2,155.4,0,0-9-9-9-9,15.9,1.1,31.9,1.8,47.8,2,108.7,1.7,233.1-22.9,272.9-138.5,24.6-139.5,54.1-297.5,81.3-440.8h0Z"/><path class="aw" d="m884.7,882.4l443.1-74.5c112.9-38.6,155.5-153.7,143.8-328.1-84.1-5.5-154.3,1.6-208.9,22.9,21.4-54.6,28.5-124.9,22.8-209-174.6-11.5-289.7,31.2-328.1,143.8l-74.5,443.1,1.8,1.8Z"/><path class="bu" d="m884.7,882.4c143.2-27.1,301.5-56.6,440.8-81.3,115.5-39.7,140.2-164.1,138.5-272.9-.2-15.9-1-31.9-2-47.8,0,0,9,9,9,9-51.9-3.1-104.5-2.4-155.4,8.2-23.7,4.6-48,13.6-70.3,22.6,0,0,8.2-21.2,8.2-21.2,24.8-64.9,26.4-135.9,22.4-204.7,0,0,9,9,9,9-31.8-2.1-63.7-2.8-95.5-.6-98.5,6-190.8,40.3-224.9,136-25.6,143.4-54.1,299.4-81.5,442,0,0,0,0,0,0,0,0,1.7,1.8,1.7,1.8h0Zm0,0s-1.8-1.7-1.8-1.7c0,0,0,0,0,0h0c20.6-143.9,44.9-301.4,67.8-445.5,28-86.6,102.7-130.1,188.5-144.9,51.3-9.1,103.7-9.1,155.5-5.7,0,0,.6,8.5.6,8.5,4.7,71.5,2.8,145.5-23.1,213.3,0,0-12.9-13-12.9-13,17.1-6.6,34.6-11.5,52.3-15.3,52.9-11,107.2-11.4,160.8-7.9,0,0,8.5.6,8.5.6,1.2,19.1,2.2,38.3,2.2,57.4.9,116.4-28.9,246.1-152.8,286.5-146.5,23.3-299.2,46.4-445.4,67.8h0Z"/><path class="ck" d="m1156.3,610.9c-102.3,5.9-185.4,24.9-221.1,76.1,18.5,46.4,24.2,88.6,19.1,127.3,41.9-6.9,83.9-1.3,125.9,19.1,53.8-35.4,71.7-119.8,76.1-222.5Z"/><path class="ck" d="m611.4,610.9c102.3,5.9,185.4,24.9,221.1,76.1-18.5,46.4-24.2,88.6-19.1,127.3-41.9-6.9-83.9-1.3-125.9,19.1-53.8-35.4-71.7-119.8-76.1-222.5Z"/><path class="ck" d="m1156.3,1157.9c-102.3-5.9-185.4-24.9-221.1-76.1,18.5-46.4,24.2-88.6,19.1-127.3,41.9,6.9,83.9,1.3,125.9-19.1,53.8,35.4,71.7,119.8,76.1,222.5Z"/><path class="ck" d="m611.4,1157.9c102.3-5.9,185.4-24.9,221.1-76.1-18.5-46.4-24.2-88.6-19.1-127.3-41.9,6.9-83.9,1.3-125.9-19.1-53.8,35.4-71.7,119.8-76.1,222.5Z"/><path class="cg" d="m760.7,705c-1.7,25.6.4,47.1,6.9,63.7-16.6-6.5-38-8.7-63.7-7-3.6,53.1,9.4,88.2,43.8,100l56.2-56.2c0-.3-.2-.6-.3-.9.3.1.6.2.9.3l56.2-56.2c-11.7-34.3-46.8-47.3-100-43.8Z"/><path class="ch" d="m1002.6,705c1.7,25.6-.4,47.1-6.9,63.7,16.6-6.5,38-8.7,63.7-7,3.6,53.1-9.4,88.2-43.8,100l-56.2-56.2c0-.3.2-.6.3-.9-.3.1-.6.2-.9.3l-56.2-56.2c11.7-34.3,46.8-47.3,100-43.8Z"/><path class="cb" d="m760.7,1061.9c-1.7-25.6.4-47.1,6.9-63.7-16.6,6.5-38,8.7-63.7,7-3.6-53.1,9.4-88.2,43.8-100l56.2,56.2c0,.3-.2.6-.3.9.3-.1.6-.2.9-.3l56.2,56.2c-11.7,34.3-46.8,47.3-100,43.8Z"/><path class="ci" d="m1002.6,1061.9c1.7-25.6-.4-47.1-6.9-63.7,16.6,6.5,38,8.7,63.7,7,3.6-53.1-9.4-88.2-43.8-100l-56.2,56.2c0,.3.2.6.3.9-.3-.1-.6-.2-.9-.3l-56.2,56.2c11.7,34.3,46.8,47.3,100,43.8Z"/><path class="cf" d="m380,881.4c104.9,93.4,203.8,155.5,288,140.5,27-62.9,62.4-109.3,104.8-141.9-47.3-33.9-82.5-80-103.5-140.5-86.5-17.8-185.5,46.6-289.3,141.9Z"/><path class="cj" d="m1389.6,881.4c-104.9,93.4-203.8,155.5-288,140.5-27-62.9-62.4-109.3-104.8-141.9,47.3-33.9,82.5-80,103.5-140.5,86.5-17.8,185.5,46.6,289.3,141.9Z"/><path class="ca" d="m883.8,375.6c-93.4,104.9-155.5,203.8-140.5,288,62.9,27,109.3,62.4,141.9,104.8,33.9-47.3,80-82.5,140.5-103.5,17.8-86.5-46.6-185.5-141.9-289.3Z"/><path class="ce" d="m883.8,1385.2c-93.4-104.9-155.5-203.8-140.5-288,62.9-27,109.3-62.4,141.9-104.8,33.9,47.3,80,82.5,140.5,103.5,17.8,86.5-46.6,185.5-141.9,289.3Z"/><path class="ax" d="m625.1,976.2c-36.9,0-66.8-43.2-66.8-96.4s29.9-96.4,66.8-96.4,42.1,15.8,54.2,40.2c3.1,0,6.1.3,9.1.8,10.5,24.6,24.3,42.7,40.8,55.4-18.5,13.3-32.4,31.4-40.6,55.1-3.1.6-6.1,1-9.3,1.1-12.1,24.4-31.9,40.2-54.3,40.2Z"/><path class="bu" d="m625.1,976.9c-29.3-.4-52.6-23.8-64.1-49.3-20.3-45.2-6.4-105.7,33.1-136.1,14.1-10.4,32.2-14.2,49-8.8,18.7,5.9,33.1,20.9,42.1,37.8,0,0-5.8-3.7-5.8-3.7,4.5-.1,9.2.5,13.7,1.2,0,0,1.6,3.5,1.6,3.5,7,15.2,15.8,29.1,27.4,40.9,5.8,6.1,13.7,12.1,20.4,17.3,0,0-8.6,6.4-8.6,6.4-18,12.8-30.9,30.3-39.8,50.5,0,0-1.5,3.4-1.5,3.4-4.3.6-8.8,1.1-13.1.8,0,0,4.4-2.8,4.4-2.8-12.5,20.6-33.7,38.7-58.8,38.7h0Zm0-1.5c17.9,0,33.1-11.7,42.1-26.5,3.5-5.5,6.2-11.5,8.5-17.6,0,0,3.4-.4,3.4-.4,2.8-.4,5.6-1,8.3-1.8,0,0-4.3,3.8-4.3,3.8,5.8-22.4,19.5-42.7,37.7-56.9,0,0,3.7-2.8,3.7-2.8,0,0-.2,12.9-.2,12.9-9.8-7.5-18.3-16.8-25.3-26.9-7-10.1-12.4-21-16.9-32.1,0,0,5.1,4.1,5.1,4.1-3.7-.8-8.2-1-12.1-1.2,0,0-1.7-3.5-1.7-3.5-7.9-17-20.8-33.8-39.8-38.8-18.1-4.8-36.2,3.7-47.9,17.7-9.8,11.4-15.4,25.9-18.2,40.5-8.7,42.1,2.4,127.9,57.5,129.5h0Z"/><path class="bm" d="m1141.2,976.2c36.9,0,66.8-43.2,66.8-96.4s-29.9-96.4-66.8-96.4c-22.3,0-42.1,15.8-54.2,40.2-3.1,0-6.1.3-9.1.8-10.5,24.6-24.3,42.7-40.8,55.4,18.5,13.3,32.4,31.4,40.6,55.1,3.1.6,6.1,1,9.3,1.1,12.1,24.4,31.9,40.2,54.3,40.2Z"/><path class="bu" d="m1141.2,975.4c55.2-1.7,66.2-87.4,57.5-129.5-2.9-14.6-8.5-29.1-18.2-40.5-11.6-14-29.7-22.5-47.9-17.7-18.9,5-31.8,21.7-39.8,38.8,0,0-1.7,3.5-1.7,3.5-3.9.2-8.4.3-12.1,1.2,0,0,5.1-4.1,5.1-4.1-4.5,11.1-10,22-16.9,32.1-7,10.2-15.5,19.4-25.3,26.9,0,0-.2-12.9-.2-12.9,1.9,1.4,5.5,4.2,7.3,5.7,16.5,14,28.7,33.1,34.1,54,0,0-4.3-3.8-4.3-3.8,2.7.8,5.4,1.4,8.3,1.8,0,0,3.4.4,3.4.4,2.4,6.1,5,12.1,8.5,17.6,9,14.8,24.2,26.4,42.1,26.5h0Zm0,1.5c-25.1,0-46.3-18.1-58.8-38.7,0,0,4.4,2.8,4.4,2.8-4.3.2-8.8-.2-13.1-.8,0,0-1.5-3.4-1.5-3.4-8.9-20.2-21.8-37.7-39.8-50.5,0,0-8.6-6.4-8.6-6.4,6.7-5.2,14.6-11.2,20.4-17.3,11.6-11.8,20.5-25.8,27.4-40.9,0,0,1.6-3.5,1.6-3.5,4.5-.7,9.2-1.4,13.7-1.2,0,0-5.8,3.7-5.8,3.7,9.1-16.9,23.4-31.9,42.1-37.8,16.9-5.4,35-1.6,49,8.8,39.5,30.4,53.3,90.8,33.1,136.1-11.5,25.4-34.8,48.9-64.1,49.3h0Z"/><path class="bc" d="m786.8,621.8c0-36.9,43.2-66.8,96.4-66.8s96.4,29.9,96.4,66.8-15.8,42.1-40.2,54.2c0,3.1-.3,6.1-.8,9.1-24.6,10.5-42.7,24.3-55.4,40.8-13.3-18.5-31.4-32.4-55.1-40.6-.6-3.1-1-6.1-1.1-9.3-24.4-12.1-40.2-31.9-40.2-54.3Z"/><path class="bu" d="m786,621.8c.4-29.3,23.8-52.6,49.3-64.1,45.2-20.3,105.7-6.4,136.1,33.1,10.4,14.1,14.2,32.2,8.8,49-5.9,18.7-20.9,33.1-37.8,42.1,0,0,3.7-5.8,3.7-5.8.1,4.5-.5,9.2-1.2,13.7,0,0-3.5,1.6-3.5,1.6-15.2,7-29.1,15.8-40.9,27.4-6.1,5.8-12.1,13.7-17.3,20.4,0,0-6.4-8.6-6.4-8.6-12.8-18-30.3-30.9-50.5-39.8,0,0-3.4-1.5-3.4-1.5-.6-4.3-1.1-8.8-.8-13.1,0,0,2.8,4.4,2.8,4.4-20.6-12.5-38.7-33.7-38.7-58.8h0Zm1.5,0c0,17.9,11.7,33.1,26.5,42.1,5.5,3.5,11.5,6.2,17.6,8.5,0,0,.4,3.4.4,3.4.4,2.8,1,5.6,1.8,8.3,0,0-3.8-4.3-3.8-4.3,22.4,5.8,42.7,19.5,56.9,37.7,0,0,2.8,3.7,2.8,3.7,0,0-12.9-.2-12.9-.2,7.5-9.8,16.8-18.3,26.9-25.3,10.1-7,21-12.4,32.1-16.9,0,0-4.1,5.1-4.1,5.1.8-3.7,1-8.2,1.2-12.1,0,0,3.5-1.7,3.5-1.7,17-7.9,33.8-20.8,38.8-39.8,4.8-18.1-3.7-36.2-17.7-47.9-11.4-9.8-25.9-15.4-40.5-18.2-42.1-8.7-127.9,2.4-129.5,57.5h0Z"/><path class="bz" d="m786.8,1137.8c0,36.9,43.2,66.8,96.4,66.8s96.4-29.9,96.4-66.8c0-22.3-15.8-42.1-40.2-54.2,0-3.1-.3-6.1-.8-9.1-24.6-10.5-42.7-24.3-55.4-40.8-13.3,18.5-31.4,32.4-55.1,40.6-.6,3.1-1,6.1-1.1,9.3-24.4,12.1-40.2,31.9-40.2,54.3Z"/><path class="bu" d="m787.5,1137.8c1.7,55.2,87.4,66.2,129.5,57.5,14.6-2.9,29.1-8.5,40.5-18.2,14-11.6,22.5-29.7,17.7-47.9-5-18.9-21.7-31.8-38.8-39.8,0,0-3.5-1.7-3.5-1.7-.2-3.9-.3-8.4-1.2-12.1,0,0,4.1,5.1,4.1,5.1-11.1-4.5-22-10-32.1-16.9-10.2-7-19.4-15.5-26.9-25.3,0,0,12.9-.2,12.9-.2-1.4,1.9-4.2,5.5-5.7,7.3-14,16.5-33.1,28.7-54,34.1,0,0,3.8-4.3,3.8-4.3-.8,2.7-1.4,5.4-1.8,8.3,0,0-.4,3.4-.4,3.4-6.1,2.4-12.1,5-17.6,8.5-14.8,9-26.4,24.2-26.5,42.1h0Zm-1.5,0c0-25.1,18.1-46.3,38.7-58.8,0,0-2.8,4.4-2.8,4.4-.2-4.3.2-8.8.8-13.1,0,0,3.4-1.5,3.4-1.5,20.2-8.9,37.7-21.8,50.5-39.8,0,0,6.4-8.6,6.4-8.6,5.2,6.7,11.2,14.6,17.3,20.4,11.8,11.6,25.8,20.5,40.9,27.4,0,0,3.5,1.6,3.5,1.6.7,4.5,1.4,9.2,1.2,13.7,0,0-3.7-5.8-3.7-5.8,16.9,9,31.9,23.4,37.8,42.1,5.4,16.9,1.6,35-8.8,49-30.4,39.5-90.8,53.3-136.1,33.1-25.4-11.5-48.9-34.8-49.3-64.1h0Z"/><path class="bw" d="m1034.2,727.6l31.2,1c11.7.8,22.8-17.8,8.6-40.9-23.6-14.7-42.5-3.8-41.2,8.3l1.3,31.6Z"/><path class="bu" d="m1034.2,727.6c6.9-.5,24.1-1.7,30.8-2,9,0,12.4-11,11.4-18.5-.6-6-3-11.8-6.2-17,0,0,1.5,1.5,1.5,1.5-5.3-3.3-11.2-5.8-17.3-6.5-7.7-1.1-18.8,2.1-18.6,11.3-.1,6.7-1.3,24.3-1.7,31.2h0Zm0,0c-1.5-9.5-3.2-20.6-4.3-30.7-.3-2.1-.3-4.3.3-6.4,1.7-6.3,7.4-10.8,13.2-12.6,11.1-3.7,23.6.1,33,6,0,0,.9.6.9.6,0,0,.5.9.5.9,5.8,9.3,9.3,21.7,5.4,32.7-2,5.7-6.3,11.2-12.4,13-2,.6-4.2.7-6.3.4-10-.9-21-2.5-30.4-3.9h0Z"/><path class="ay" d="m725.9,727.6l-31.2,1c-11.7.8-22.8-17.8-8.6-40.9,23.6-14.7,42.5-3.8,41.2,8.3l-1.3,31.6Z"/><path class="bu" d="m725.9,727.6c-9.4,1.4-20.4,3-30.4,3.9-2.1.3-4.3.2-6.3-.4-6.1-1.8-10.5-7.3-12.4-13-3.9-11-.4-23.4,5.4-32.7,0,0,.5-.9.5-.9l.9-.6c9.4-5.9,21.9-9.7,33-6,5.8,1.8,11.5,6.4,13.2,12.6.6,2,.6,4.3.3,6.4-1.1,10.1-2.8,21.2-4.3,30.7h0Zm0,0c-.5-7-1.5-24.5-1.7-31.2.3-9.2-10.9-12.4-18.6-11.3-6.1.7-12,3.2-17.3,6.5,0,0,1.5-1.5,1.5-1.5-3.2,5.2-5.6,11-6.2,17-.9,7.6,2.5,18.5,11.4,18.5,6.6.3,23.9,1.5,30.8,2h0Z"/><path class="bp" d="m1034.2,1041.6l31.2-1c11.7-.8,22.8,17.8,8.6,40.9-23.6,14.7-42.5,3.8-41.2-8.3l1.3-31.6Z"/><path class="bu" d="m1034.2,1041.6c9.4-1.4,20.4-3,30.4-3.9,2.1-.3,4.3-.2,6.3.4,6.1,1.8,10.5,7.3,12.4,13,3.9,11,.4,23.4-5.4,32.7,0,0-.5.9-.5.9,0,0-.9.6-.9.6-9.4,5.9-21.9,9.7-33,6-5.8-1.8-11.5-6.4-13.2-12.6-.6-2-.6-4.3-.3-6.4,1.1-10.1,2.8-21.2,4.3-30.7h0Zm0,0c.5,7,1.5,24.5,1.7,31.2-.3,9.2,10.9,12.4,18.6,11.3,6.1-.7,12-3.2,17.3-6.5,0,0-1.5,1.5-1.5,1.5,3.2-5.2,5.6-11,6.2-17,.9-7.6-2.5-18.5-11.4-18.5-6.6-.3-23.9-1.5-30.8-2h0Z"/><path class="ap" d="m725.9,1041.6l-31.2-1c-11.7-.8-22.8,17.8-8.6,40.9,23.6,14.7,42.5,3.8,41.2-8.3l-1.3-31.6Z"/><path class="bu" d="m725.9,1041.6c-6.9.5-24.1,1.7-30.8,2-9,0-12.4,11-11.4,18.5.6,6,3,11.8,6.2,17,0,0-1.5-1.5-1.5-1.5,5.3,3.3,11.2,5.8,17.3,6.5,7.7,1.1,18.8-2.1,18.6-11.3.1-6.7,1.3-24.3,1.7-31.2h0Zm0,0c1.5,9.5,3.2,20.6,4.3,30.7.3,2.1.3,4.3-.3,6.4-1.7,6.3-7.4,10.8-13.2,12.6-11.1,3.7-23.6-.1-33-6,0,0-.9-.6-.9-.6,0,0-.5-.9-.5-.9-5.8-9.3-9.3-21.7-5.4-32.7,2-5.7,6.3-11.2,12.4-13,2-.6,4.2-.7,6.3-.4,10,.9,21,2.5,30.4,3.9h0Z"/><path class="be" d="m882.4,490.2c-41.3-49.1-88.9-75.3-140-89-21.3-5.7-40.9-17.1-56.1-33.1-27.4-28.8-43.5-67.1-43.6-107.8,0-1.6,0-3.2,0-4.9,1.1-39.1,17.1-75.7,43.4-103.4,14.7-15.5,33.5-26.7,54.1-32.5,52.6-14.9,101.8-42.8,145-93.4,47.3,44.4,95.2,74.1,143.7,90.1,17,5.6,32.9,14.4,46,26.6,30.2,28.4,48.8,67.7,49.9,109.9,0,1.6,0,3.2,0,4.9,0,40.6-16.2,78.9-43.5,107.8-14.9,15.7-33.8,27.1-54.6,33-53.5,15-103,41.6-144.4,92Z"/><path class="bu" d="m882.5,491.2c-4-3.6-8.5-8.2-12.6-12.1-32.8-31.6-73.6-54.6-117.6-66.3-5-1.4-11.1-2.8-16.1-4-21.4-5.6-41.3-16.9-57.1-32.4-57-55.3-66.9-144.4-23.5-211.3,18.3-28.8,44.2-50.9,77-61.2,13.2-4,27.4-8.8,40-14.4,38.4-17,72-43.2,99.1-75.1,0,0,12.3-14.4,12.3-14.4,0,0,13.7,12.9,13.7,12.9,36.3,34,76.9,63.5,123.1,81.9,2.4,1,7.3,2.8,9.8,3.7,20.6,6.8,40.2,17.1,56.1,32.6,16.8,16.3,30.4,36,39.5,57.6,19.2,44.7,17.3,97.7-4.9,140.9-7.2,14.1-16.6,27.4-27.4,39-19.2,21-43.9,34.4-71.6,40.3-5,1.3-10.7,2.9-15.6,4.5-40,12.2-77.2,33.3-107.8,61.9-5.3,5-11.3,11.1-16.4,16h0Zm0-2c6.5-8.7,14.1-16.7,21.9-24.2,28-27.2,62.3-47.7,99.1-60.8,4.1-1.5,9.1-3.2,13.2-4.5,3.2-.9,10.3-3.1,13.3-4,28.6-8.9,51.4-28.4,67.6-53.2,39-57.8,33-136.8-13.9-188.3-13.2-15.2-30-27-48.9-34.1-4.9-1.8-10.7-3.7-15.7-5.5-50.8-18.6-95.8-50.4-135.1-87.1,0,0,2.9-.2,2.9-.2-39.4,46.5-89.9,78.8-148.8,94.7-35.8,10.6-62.8,39-78.7,72-18.3,38.1-19.9,83.8-4,123,8.9,22.1,22.7,42.4,40.6,58.1,13.9,12,30.7,20.4,48.4,25.1,7.1,2,14.4,4.3,21.3,6.8,45.4,16.1,86.5,44.6,116.7,82.2h0Z"/><path class="bh" d="m884.5,480.3c-35.9-42.7-77.4-65.6-121.9-77.5s-35.6-14.9-48.9-28.9c-23.8-25.1-37.9-58.5-37.9-93.9,0-1.4,0-2.8,0-4.2,1-34,14.9-65.9,37.8-90,12.8-13.5,29.2-23.3,47.1-28.3,45.8-12.9,87.4-64.7,125-108.8,41.2,38.7,84.2,92,126.4,105.9,14.8,4.9,28.7,12.5,40.1,23.2,26.3,24.7,42.5,58.9,43.5,95.7,0,1.4,0,2.8,0,4.2,0,35.4-14.1,68.8-37.9,93.8-13,13.7-29.4,23.6-47.6,28.7-46.6,13.1-89.7,36.2-125.8,80.1Z"/><path class="bu" d="m884.5,481.1c-3.9-4.2-9.8-10.6-13.9-14.9-27.7-28.4-62.8-49.1-100.8-60.2-5.4-1.6-13.8-3.7-19-5.9-43.9-17.1-72.2-64-75.8-109.8-2.9-35.1,8.7-70.8,31.2-97.9,7.4-9.1,16.1-17.2,26-23.5,9.8-6.4,20.8-10.7,32.1-13.9,49.1-17.6,86.8-68.9,120.4-107.3,0,0,1-1.2,1-1.2,0,0,1.1,1.1,1.1,1.1,19.4,18.2,37.4,37.7,56.4,56.2,18.9,18.1,38.8,36.5,62.9,47.1,6.1,2.6,12.6,4.3,18.6,7.2,9.2,4.1,17.8,9.5,25.4,16.1,38.4,33.8,55.4,86.9,42.7,136.6-6.6,25.9-20.8,49.9-40.6,67.9-12.5,11.2-27.8,19.1-43.9,23.4-6.2,1.8-12.8,3.8-18.9,6.1-28,10-54.3,24.7-76.7,44.4-10.2,8.7-19.2,18.7-28.2,28.7h0Zm0-1.5c2.6-3.4,4.5-6.5,7.1-9.6,14.4-17.5,31.3-32.9,50.4-45.3,21.1-14,44.7-24,68.7-31.7,24.2-8.2,42.5-25.1,55.6-46.6,20.2-33,24.8-74.2,10.8-110.4-7.4-19.8-19.9-37.8-35.9-51.6-9.5-8-20.9-13.8-32.7-17.6-2.5-.8-5.5-1.9-7.9-2.9-14-5.7-25.8-13.9-36.8-22.4-31.6-25-58.5-56.2-87.2-82.9,0,0,19.5-1.1,19.5-1.1-26.1,30.2-52.2,62.6-84.6,87.5-12.9,9.8-27.1,18.4-42.8,23.4-4.2,1.3-9.4,2.7-13.5,4.3-12.3,4.7-23.5,12-32.7,21.4-2.4,2.5-5.3,5.8-7.5,8.5-23.6,28.9-33.9,68.4-26,105,5,24.1,17.1,46.9,34.4,64.5,10.8,10.8,24.5,18.9,39.1,23.7,9.5,2.9,19.5,6.5,28.5,10.3,37,15.7,70,41,93.6,73.5h0Z"/><path class="ba" d="m884.8,479.9c-30.7-36.5-66.1-56-104.2-66.3-15.9-4.3-30.4-12.7-41.7-24.7-20.4-21.4-32.4-49.9-32.4-80.2,0-1.2,0-2.4,0-3.6.8-29.1,12.7-56.3,32.3-76.9,11-11.6,24.9-19.9,40.3-24.2,39.1-11.1,74.6-55.3,106.8-93,35.2,33,71.9,78.6,108,90.5,12.7,4.2,24.5,10.7,34.2,19.8,22.5,21.1,36.3,50.4,37.2,81.8,0,1.2,0,2.4,0,3.6,0,30.2-12.1,58.7-32.4,80.2-11.1,11.7-25.1,20.2-40.6,24.5-39.8,11.2-76.6,31-107.5,68.4Z"/><path class="bu" d="m884.8,479.9c-25.8-30.1-60.1-52.3-98.2-63-4.8-1.4-11.8-3.1-16.4-4.9-32.7-12.3-55.4-44-63.3-77.3-8.3-34.8.4-72.5,22.6-100.4,6.8-8.6,14.7-16.4,24-22.2,8.5-5.6,18.1-9.4,27.8-12.2,11.7-4,22.3-10.5,32.2-18.1,27.6-21.5,49.3-49.3,72.1-75.8,32,28.7,70,78.6,109.6,92.6,11.8,4,23,10,32.4,18.2,49.2,43.5,54.1,118.8,10.3,167.8-11.4,13.1-26.4,23-43.1,27.9-43.6,11.3-80.8,32.8-110,67.5h0Zm0,0c24.6-31.5,59-54.4,96.9-66.8,3.9-1.3,8.2-2.6,12.2-3.9,11.9-3.8,23-10.2,32.2-18.5,24.4-22.6,38.3-56.3,36.3-89.6-1.5-30.4-16.1-59.7-38.9-79.6-8.8-7.6-19.3-13.1-30.3-16.7-7.7-2.5-15-6.2-21.7-10.5-33.4-22-59-53.8-88-80.7,0,0,5.1-.3,5.1-.3-22.1,25.7-43.8,52.8-70.9,73.8-10.3,7.8-21.7,14.9-34.2,19-3.8,1.2-8.2,2.4-11.9,3.9-11.4,4.5-21.9,11.4-30.4,20.3-26,26.8-37.8,66.7-29.3,103.2,7.3,32.1,28.4,62.8,59.7,75.3,4.4,1.9,11.4,3.8,16,5.2,38.1,11.6,72.5,34.7,97.3,65.9h0Z"/><path class="bv" d="m884.7,489.1c-25.7-30.5-55.3-46.8-87-55.4-13.3-3.6-25.4-10.7-34.9-20.6-17-17.9-27.1-41.7-27.2-66.9,0-1,0-2,0-3,.6-24.2,10.5-46.9,26.8-64.1,9.1-9.6,20.8-16.5,33.5-20.1,32.6-9.1,62.1-45.9,88.9-77.3,29.4,27.6,60.1,65.7,90.2,75.7,10.6,3.5,20.5,8.9,28.6,16.6,18.8,17.7,30.4,42.1,31.1,68.3,0,1,0,2,0,3,0,25.2-9.9,49-26.9,66.8-9.2,9.7-20.9,16.8-33.8,20.4-33.2,9.3-63.8,25.7-89.5,56.9Z"/><path class="bu" d="m884.7,489.1c-18.7-21.2-42.3-37.8-68.8-47.4-6.4-2.3-13.5-4.5-20.1-6.2-11.8-3.1-22.8-9.1-31.8-17.4-7.2-6.6-13.2-14.3-18.2-22.7-17.8-29.4-18.5-68.3-1.7-98.4,7.2-13,16.9-24.8,29.4-33,6.6-4.3,13.8-7.5,21.3-9.7,35.6-11,65.5-52.4,89.8-80.1,25.6,23.4,47,50.9,75.8,70.3,2.8,1.6,5.8,3.6,8.8,5,.8.4,2.1,1.1,3,1.4,1.7.7,4.6,1.8,6.3,2.4,11.7,4.2,22.7,10.9,31.3,20,37,37.5,39,97.7,3.7,137-8.9,10.1-20.3,18.1-33,22.4-6.7,2.2-13.7,3.7-20.4,6.1-29,9.6-55.3,26.9-75.2,50.1h0Zm0,0c18.8-24.6,44.8-43.3,73.8-54,6.5-2.6,13.5-4.4,20.1-6.8,17.3-6.4,30.9-20,39.9-35.8,18.6-32,16-73-6.4-102.5-8-10.7-18.2-20-30.7-25.3-4.2-1.9-8.9-3.3-13.2-5-1-.3-2.4-1.2-3.4-1.6-3.3-1.4-6.7-3.6-9.8-5.4-27.9-18.4-49.5-45.1-73.7-67.5,0,0,7.2-.4,7.2-.4-18.5,21.5-36.7,44.2-59.5,61.8-8.7,6.6-18.5,12.6-29.2,15.9,0,0-1.8.6-1.8.6,0,0-.9.3-.9.3-6.7,1.8-13.1,4.6-18.9,8.3-30.2,20-44.7,60-36.6,95.1,4,17.7,13.2,34.4,26.2,47.2,8.2,7.9,18.3,13.7,29.2,17.1,6.7,1.9,13.8,4.4,20.2,7,26.5,10.7,49.7,28.6,67.4,51h0Z"/><path class="az" d="m884.7,480.3c-20.5-24.4-44.1-37.4-69.5-44.3s-20.3-8.5-27.8-16.5c-13.6-14.3-21.7-33.3-21.7-53.5,0-.8,0-1.6,0-2.4.5-19.4,8.4-37.5,21.4-51.2,7.3-7.7,16.6-13.2,26.8-16.1,26-7.3,49.6-36.7,71-61.8,23.5,22.1,48,52.5,72.1,60.5,8.4,2.8,16.3,7.2,22.8,13.3,15,14.1,24.3,33.6,24.9,54.5,0,.8,0,1.6,0,2.4,0,20.1-7.9,39.1-21.5,53.4-7.4,7.8-16.7,13.4-27,16.3-26.5,7.4-51,20.5-71.5,45.4Z"/><path class="bu" d="m884.7,480.3c-17.4-19.6-40.4-34-65.7-40.9-3.2-.9-8-2-11-3.2-14.9-5.3-26.9-16.9-34.8-30.4-14.4-23.7-15.1-55.1-1.6-79.4,8.5-15.9,22.6-29.3,40.3-34.4,28.7-8.5,53.1-42.5,72.6-64.7,18,16.6,33.6,35.2,52.4,50.5,5.7,4.5,11.7,8.6,18,11.4,3.4,1.5,7.2,2.6,10.6,4.2,7.4,3.3,14.2,8.1,19.7,14,29.8,30.2,31.3,78.9,2.8,110.5-7.2,8.1-16.4,14.5-26.7,17.9-6.3,1.9-12.8,3.4-19,5.7-22.1,7.7-42.2,21.1-57.6,38.8h0Zm0,0c14.3-19,34.1-33.7,56.2-42.5,6.1-2.5,12.5-4.4,18.7-6.6,10.2-3.9,19-10.8,25.5-19.4,20.6-26.2,21-63.6.7-90.1-7.3-10-17.3-17.9-29.1-21.8-7.6-2.4-14.7-6.4-21.2-11.1-20-14.6-36.3-34-54.1-50.7,0,0,7.2-.4,7.2-.4-9.8,11.4-19.5,23.1-30.3,34-12.3,12.2-26.1,24.1-43.2,29-26.3,7-43.3,33.9-45.4,60.2-1.2,14.4,2.2,28.9,9.1,41.5,6.9,12.7,17.4,23.6,31,29.1,2.9,1.2,7.5,2.6,10.5,3.6,25.4,8.1,48.2,24,64.4,45.1h0Z"/><path class="bb" d="m882.6,604.1c26.2-97.6,131-124.9,198-208.2-71.1-12.9-137.7,25.2-198,75.3-59.8-50.1-130.2-89-198-75.3,70.6,75.3,176.3,122.1,198,208.2Z"/><path class="bu" d="m882.6,604.1c10.9-48.9,47.9-85.5,86.2-115.2,37.8-29.7,78.3-57.9,108.1-96,0,0,2.8,7.5,2.8,7.5-74.4-13-142.7,32.1-197.1,77.9-54.2-45.4-123.1-91.3-197-77.9,0,0,2.5-7.8,2.5-7.8,37,40,82.4,71.3,123.1,107.4,31.4,28.2,62.1,61.6,71.5,104h0Zm0,0c-13.4-47.5-51.9-81.4-89.1-111.3-38.1-30.3-78.4-58.2-112.3-93.7,0,0-5.8-6.1-5.8-6.1,0,0,8.3-1.7,8.3-1.7,75.5-15,146.6,29.6,202.4,75.7,0,0-7,0-7,0,58-48.4,131.7-92.7,210.1-74.2-31.8,41.2-75.3,70.6-116.7,100.9-39.2,28.7-76.1,62.2-89.9,110.4h0Z"/><path class="bu" d="m813.8,292.7c1.9,4.8,3.9,10.1,5.7,14.9,2.8,6.2,5.1,12.6,8.1,18.7,11.2,24.5,25.3,48,42.2,69,5.6,6.9,11.5,13.6,17.9,19.7,0,0-5.3,0-5.3,0,3.2-2.9,6.4-6.2,9.3-9.4,25.3-27.9,44.3-61.1,58.5-95.9.4-.9,1.4-3.2,1.7-4.2,1.5-4.1,3.3-8.7,4.9-12.8-2.7,11.9-6,23.8-10.3,35.2-7.9,21.5-18.7,42.4-31.7,61.2-8.8,12.3-18.4,24.3-29.9,34.3-14.7-13.2-26.6-29.3-37-46-16.1-25.9-27.6-54.9-34.1-84.7h0Z"/><path class="bu" d="m795.5,298.8c1.9,5.1,5.1,13.8,6.9,18.8,2.1,5,5.5,13.6,7.6,18.5,13.7,31.1,30.7,61.1,51.5,87.9,8,10.2,16.6,20.4,26.1,29.3,0,0-5.3,0-5.3,0,1.3-1.2,2.7-2.5,4-3.8,8-7.9,15.4-16.6,22.4-25.4,17.5-22.3,32.3-46.9,44.8-72.4,1.4-3.2,5.7-12.4,7.1-15.6,2.6-6.1,5-12.4,7.7-18.5,0,0,1-2.7,1-2.7s2-5.4,2-5.4c0,0,4-10.8,4-10.8-1.3,5.3-3.7,14.3-5.1,19.5-1.4,4.6-2.9,9.2-4.4,13.7-1.9,6.2-5.7,15.5-8,21.6-1.7,3.9-5.3,12.2-7,15.8-2.5,4.8-5.3,10.8-7.8,15.5-5.3,9.8-11.6,20.6-18,29.7-4.1,6.2-9,13-13.7,18.7-8,10.1-16.5,19.8-26.3,28.3-20.8-19.1-37.5-42.5-51.8-66.8-1.9-3.5-6.6-11.7-8.2-15.2-1.3-2.6-3.9-7.8-5.1-10.3-1.7-3.7-5.3-12.1-7-15.8-2.1-5.2-4.2-10.9-6.2-16.1-1.8-5.1-4.5-13.9-6.2-19.1-1.4-5.2-3.7-14.2-5-19.4h0Z"/><path class="bu" d="m830.2,282.6c1.5,3.7,3.1,7.7,4.6,11.4,2.2,4.8,4.1,9.7,6.5,14.4,0,0,3,6.3,3,6.3,11,21.4,24.3,42.1,41.2,59.4.8.8,1.6,1.6,2.4,2.3,0,0-5.3,0-5.3,0,1.6-1.4,3.3-3.1,4.8-4.7,21.1-22.3,36.7-49.4,48.7-77.6,1.5-3.7,3.1-7.8,4.6-11.4-1.9,9.2-4.3,18.4-7.5,27.3-5.9,16.7-14.1,33-24.2,47.6-6.9,9.8-14.6,19.3-23.7,27.2-9.9-8.8-18.2-19.3-25.4-30.3-14.3-21.7-24.4-46.3-29.5-71.8h0Z"/><path class="bu" d="m847.2,275.9c3.9,8.8,7.9,17.7,12.7,26.1,7.7,13.6,16.7,26.8,28,37.8,0,0-5.3,0-5.3,0,2.2-2,4.4-4.3,6.4-6.6,12.6-14.3,22.5-31,30.5-48.3,1.4-2.9,2.6-6,4-8.9-1.3,8-3.4,16.1-6.2,23.8-6.5,17.1-16.1,33.4-29.5,46.1,0,0-2.7,2.4-2.7,2.4-1.3-1.2-3.4-3.1-4.5-4.3-17.7-18.4-29.4-42.9-33.4-68h0Z"/><circle class="at" cx="885.2" cy="288.4" r="13"/><path class="cc" d="m883.9,1279.3c-41.3,49.1-88.9,75.3-140,89-21.3,5.7-40.9,17.1-56.1,33.1-27.4,28.8-43.5,67.1-43.6,107.8,0,1.6,0,3.2,0,4.9,1.1,39.1,17.1,75.7,43.4,103.4,14.7,15.5,33.5,26.7,54.1,32.5,52.6,14.9,101.8,42.8,145,93.4,47.3-44.4,95.2-74.1,143.7-90.1,17-5.6,32.9-14.4,46-26.6,30.2-28.4,48.8-67.7,49.9-109.9,0-1.6,0-3.2,0-4.9,0-40.6-16.2-78.9-43.5-107.8-14.9-15.7-33.8-27.1-54.6-33-53.5-15-103-41.6-144.4-92Z"/><path class="bh" d="m886,1289.2c-35.9,42.7-77.4,65.6-121.9,77.5-18.6,5-35.6,14.9-48.9,28.9-23.8,25.1-37.9,58.5-37.9,93.9,0,1.4,0,2.8,0,4.2,1,34,14.9,65.9,37.8,90,12.8,13.5,29.2,23.3,47.1,28.3,45.8,12.9,87.4,64.7,125,108.8,41.2-38.7,84.2-92,126.4-105.9,14.8-4.9,28.7-12.5,40.1-23.2,26.3-24.7,42.5-58.9,43.5-95.7,0-1.4,0-2.8,0-4.2,0-35.4-14.1-68.8-37.9-93.8-13-13.7-29.4-23.6-47.6-28.7-46.6-13.1-89.7-36.2-125.8-80.1Z"/><path class="bu" d="m886,1289.9c-23.6,32.6-56.6,57.9-93.6,73.5-9,3.8-19.1,7.4-28.5,10.3-14.6,4.8-28.3,12.9-39.1,23.7-17.3,17.6-29.4,40.4-34.4,64.5-7.9,36.6,2.4,76.1,26,105,12.6,15.8,29,27.3,48.5,32.6,3.3.9,7.4,2.2,10.5,3.4,13.7,5.2,26,12.9,37.5,21.6,32.4,24.9,58.5,57.3,84.6,87.5,0,0-19.5-1.1-19.5-1.1,28.7-26.8,55.7-58,87.2-82.9,11-8.5,22.8-16.7,36.8-22.4,2.4-1.1,5.5-2,7.9-2.9,11.9-3.8,23.2-9.6,32.7-17.6,16-13.8,28.5-31.8,35.9-51.6,14-36.2,9.3-77.4-10.8-110.4-13.1-21.5-31.4-38.5-55.6-46.6-24.1-7.7-47.7-17.7-68.7-31.7-19-12.5-35.9-27.8-50.4-45.3-2.6-3-4.6-6.1-7.1-9.6h0Zm0-1.5c9,9.9,18,19.9,28.2,28.7,22.4,19.6,48.7,34.4,76.7,44.4,6.1,2.3,12.6,4.3,18.9,6.1,16.2,4.3,31.4,12.2,43.9,23.4,19.8,18,34,42,40.6,67.9,12.7,49.7-4.3,102.8-42.7,136.6-7.6,6.6-16.3,12-25.4,16.1-6,2.9-12.5,4.6-18.6,7.2-24.2,10.6-44,29-62.9,47.1-19,18.4-37,37.9-56.4,56.2l-1.1,1.1s-1-1.2-1-1.2c-33.6-38.3-71.3-89.7-120.4-107.3-11.2-3.2-22.3-7.5-32.1-13.9-9.9-6.3-18.6-14.4-26-23.5-22.4-27-34.1-62.8-31.2-97.9,3.5-45.9,31.8-92.8,75.8-109.8,5.2-2.1,13.5-4.4,19-5.9,38-11.1,73.1-31.8,100.8-60.2,4.1-4.1,9.9-10.8,13.9-14.9h0Z"/><path class="ba" d="m886.2,1289.6c-30.7,36.5-66.1,56-104.2,66.3-15.9,4.3-30.4,12.7-41.7,24.7-20.4,21.4-32.4,49.9-32.4,80.2,0,1.2,0,2.4,0,3.6.8,29.1,12.7,56.3,32.3,76.9,11,11.6,24.9,19.9,40.3,24.2,39.1,11.1,74.6,55.3,106.8,93,35.2-33,71.9-78.6,108-90.5,12.7-4.2,24.5-10.7,34.2-19.8,22.5-21.1,36.3-50.4,37.2-81.8,0-1.2,0-2.4,0-3.6,0-30.2-12.1-58.7-32.4-80.2-11.1-11.7-25.1-20.2-40.6-24.5-39.8-11.2-76.6-31-107.5-68.4Z"/><path class="bu" d="m886.2,1289.6c-24.9,31.1-59.2,54.3-97.3,65.9-4.6,1.4-11.6,3.3-16,5.2-31.3,12.4-52.4,43.2-59.7,75.3-8.8,37.9,4.2,79.4,32.2,106.1,9.9,9.4,22.1,16.3,35.2,20.1,14.1,3.9,27,11.5,38.4,20.2,27.1,21,48.8,48.1,70.9,73.8,0,0-5.1-.3-5.1-.3,29-26.9,54.5-58.7,88-80.7,6.7-4.3,14-8,21.7-10.5,11-3.6,21.5-9.1,30.3-16.7,22.8-20,37.4-49.2,38.9-79.6,2-33.3-11.9-67-36.3-89.6-9.2-8.4-20.3-14.7-32.2-18.5-4-1.3-8.3-2.5-12.2-3.9-37.9-12.4-72.2-35.3-96.9-66.8h0Zm0,0c29.2,34.6,66.5,56.1,110,67.5,16.7,4.8,31.7,14.8,43.1,27.9,43.8,49.1,38.9,124.3-10.3,167.8-9.4,8.2-20.6,14.2-32.4,18.2-39.6,14-77.6,63.8-109.6,92.6-22.8-26.5-44.5-54.3-72.1-75.8-9.9-7.6-20.5-14.1-32.2-18.1-9.8-2.8-19.3-6.6-27.8-12.2-9.3-5.9-17.2-13.7-24-22.2-22.2-27.9-31-65.6-22.6-100.4,7.9-33.3,30.6-65,63.3-77.3,4.6-1.8,11.6-3.6,16.4-4.9,38.1-10.6,72.4-32.9,98.2-63h0Z"/><path class="bv" d="m886.1,1280.4c-25.7,30.5-55.3,46.8-87,55.4-13.3,3.6-25.4,10.7-34.9,20.6-17,17.9-27.1,41.7-27.2,66.9,0,1,0,2,0,3,.6,24.2,10.5,46.9,26.8,64.1,9.1,9.6,20.8,16.5,33.5,20.1,32.6,9.1,62.1,45.9,88.9,77.3,29.4-27.6,60.1-65.7,90.2-75.7,10.6-3.5,20.5-8.9,28.6-16.6,18.8-17.7,30.4-42.1,31.1-68.3,0-1,0-2,0-3,0-25.2-9.9-49-26.9-66.8-9.2-9.7-20.9-16.8-33.8-20.4-33.2-9.3-63.8-25.7-89.5-56.9Z"/><path class="bu" d="m886.1,1280.4c-17.6,22.4-40.9,40.3-67.4,51-6.4,2.6-13.6,5.1-20.2,7-10.9,3.4-21.1,9.2-29.2,17.1-13,12.8-22.2,29.5-26.2,47.2-8.1,35.1,6.4,75.1,36.6,95.1,5.8,3.7,12.2,6.5,18.9,8.3.4.1,2.2.7,2.7.9,10.8,3.3,20.5,9.4,29.2,15.9,22.8,17.6,41,40.3,59.5,61.8,0,0-7.2-.4-7.2-.4,24.1-22.4,45.7-49.1,73.7-67.5,3.1-1.8,6.5-4,9.8-5.4.9-.5,2.4-1.2,3.4-1.6,4.2-1.7,9-3.2,13.2-5,12.4-5.3,22.7-14.5,30.7-25.3,22.4-29.4,25.1-70.5,6.4-102.5-9-15.8-22.6-29.4-39.9-35.8-4.3-1.7-9-2.9-13.4-4.4-31.7-10.5-60.2-29.8-80.6-56.5h0Zm0,0c19.9,23.2,46.2,40.6,75.2,50.1,6.6,2.4,13.7,3.9,20.4,6.1,12.7,4.3,24.2,12.3,33,22.4,35.3,39.3,33.3,99.5-3.7,137-8.6,9.1-19.5,15.8-31.3,20-1.8.6-4.5,1.8-6.3,2.4-.9.2-2.1,1.1-3,1.4-3,1.3-5.9,3.3-8.8,5-28.8,19.4-50.2,46.9-75.8,70.3-24.2-27.6-54.1-69-89.8-80.1-7.5-2.2-14.7-5.4-21.3-9.7-12.5-8.1-22.3-20-29.4-33-16.8-30.1-16-69,1.7-98.4,5-8.4,11.1-16.1,18.2-22.7,9.1-8.2,20-14.2,31.8-17.4,6.6-1.6,13.7-3.8,20.1-6.2,26.5-9.7,50-26.2,68.8-47.4h0Z"/><path class="an" d="m886.2,1289.2c-20.5,24.4-44.1,37.4-69.5,44.3-10.6,2.9-20.3,8.5-27.8,16.5-13.6,14.3-21.7,33.3-21.7,53.5,0,.8,0,1.6,0,2.4.5,19.4,8.4,37.5,21.4,51.2,7.3,7.7,16.6,13.2,26.8,16.1,26,7.3,49.6,36.7,71,61.8,23.5-22.1,48-52.5,72.1-60.5,8.4-2.8,16.3-7.2,22.8-13.3,15-14.1,24.3-33.6,24.9-54.5,0-.8,0-1.6,0-2.4,0-20.1-7.9-39.1-21.5-53.4-7.4-7.8-16.7-13.4-27-16.3-26.5-7.4-51-20.5-71.5-45.4Z"/><path class="bu" d="m886.2,1289.2c-16.3,21.1-39,37-64.4,45.1-2.9,1-7.7,2.3-10.5,3.6-13.6,5.4-24,16.4-31,29.1-6.9,12.6-10.3,27.2-9.1,41.5,2.1,26.2,19.1,53.1,45.4,60.2,17.2,4.9,31,16.8,43.2,29,10.8,10.9,20.6,22.6,30.3,34l-7.2-.4c17.8-16.6,34.1-36,54.1-50.7,6.5-4.7,13.5-8.6,21.2-11.1,11.8-3.9,21.8-11.8,29.1-21.8,20.2-26.5,19.8-63.9-.7-90.1-6.5-8.6-15.3-15.6-25.5-19.4-6.2-2.2-12.6-4-18.7-6.6-22.1-8.8-41.8-23.5-56.2-42.5h0Zm0,0c15.4,17.7,35.5,31.1,57.6,38.8,6.2,2.3,12.7,3.7,19,5.7,10.3,3.4,19.5,9.8,26.7,17.9,28.5,31.5,27,80.3-2.8,110.5-5.6,5.9-12.4,10.7-19.7,14-3.4,1.6-7.1,2.8-10.6,4.2-6.3,2.7-12.3,6.9-18,11.4-18.8,15.2-34.4,33.9-52.4,50.5-19.5-22.2-43.9-56.2-72.6-64.7-17.6-5.1-31.7-18.4-40.3-34.4-13.5-24.3-12.8-55.7,1.6-79.4,8-13.4,19.9-25.1,34.8-30.4,3.1-1.2,7.8-2.3,11-3.2,25.3-6.9,48.3-21.3,65.7-40.9h0Z"/><path class="ao" d="m884,1165.4c26.2,97.6,131,124.9,198,208.2-71.1,12.9-137.7-25.2-198-75.3-59.8,50.1-130.2,89-198,75.3,70.6-75.3,176.3-122.1,198-208.2Z"/><path class="bu" d="m884,1165.4c13.8,48.3,50.7,81.8,89.9,110.4,41.4,30.3,84.9,59.7,116.7,100.9-78.4,18.5-152.1-25.8-210.1-74.2,0,0,7,0,7,0-55.8,46.1-126.9,90.7-202.4,75.7,0,0-8.3-1.7-8.3-1.7,0,0,5.8-6.1,5.8-6.1,33.9-35.5,74.2-63.4,112.3-93.7,37.2-29.9,75.7-63.8,89.1-111.3h0Zm0,0c-10.9,48.6-48.7,84.8-85.3,116-36.9,31.3-76.4,59.9-109.2,95.5,0,0-2.5-7.8-2.5-7.8,73.9,13.4,142.8-32.5,197-77.9,54.5,45.8,122.8,90.9,197.1,77.9,0,0-2.8,7.5-2.8,7.5-29.8-38.1-70.3-66.2-108.1-96-38.3-29.7-75.3-66.3-86.2-115.2h0Z"/><path class="bu" d="m815.3,1476.8c6.5-29.8,18.1-58.7,34.1-84.7,10.4-16.7,22.4-32.7,37-46,11.5,10,21.1,21.9,29.9,34.3,13.1,18.8,23.9,39.7,31.7,61.2,4.3,11.4,7.5,23.3,10.3,35.2-1.6-4.1-3.4-8.7-4.9-12.8-.4-1.1-1.2-3.2-1.7-4.2-14.2-34.7-33.3-68-58.5-95.9-2.9-3.2-6.1-6.5-9.3-9.4,0,0,5.3,0,5.3,0-6.5,6-12.4,12.8-17.9,19.7-16.9,21-31,44.5-42.2,69-3,6.1-5.4,12.5-8.1,18.7-1.8,4.8-3.8,10.1-5.7,14.9h0Z"/><path class="bu" d="m797,1470.7c1.3-5.3,3.6-14.3,5-19.4,1.7-5.2,4.4-14.1,6.2-19.1,2-5.3,4.1-10.9,6.2-16.1,1.7-3.8,5.3-12.2,7-15.8,1.3-2.6,3.8-7.7,5.1-10.3,1.6-3.4,6.3-11.8,8.2-15.2,14.3-24.3,30.9-47.6,51.8-66.8,9.7,8.5,18.3,18.2,26.3,28.3,4.6,5.8,9.6,12.6,13.7,18.7,6.3,9.1,12.6,19.9,18,29.7,2.6,4.7,5.4,10.7,7.8,15.5,1.7,3.7,5.3,12.1,7,15.8,2.3,6.1,6.1,15.4,8,21.6,1.5,4.5,3,9.1,4.4,13.7,1.4,5.2,3.7,14.2,5.1,19.5-1.4-3.8-4.7-12.5-6-16.1,0,0-1-2.7-1-2.7-2.6-6.1-5-12.4-7.7-18.5-1.5-3.1-5.6-12.3-7.1-15.6-12.5-25.5-27.3-50.1-44.8-72.4-7-8.8-14.4-17.5-22.4-25.4-1.3-1.3-2.7-2.6-4-3.8,0,0,5.3,0,5.3,0-9.6,8.8-18.1,19-26.1,29.3-20.8,26.8-37.9,56.8-51.5,87.9-2.2,4.9-5.5,13.5-7.6,18.5-1.8,5.1-5,13.7-6.9,18.8h0Z"/><path class="bu" d="m831.6,1486.9c5.1-25.5,15.1-50.1,29.5-71.8,7.3-11,15.6-21.5,25.4-30.3,9.2,7.9,16.8,17.3,23.7,27.2,10.1,14.6,18.3,30.9,24.2,47.6,3.2,8.9,5.6,18.1,7.5,27.3-1.5-3.7-3.2-7.7-4.6-11.4-2.2-4.8-4.1-9.7-6.5-14.4,0,0-3-6.3-3-6.3l-3.3-6.2c-10.4-19.2-22.8-37.6-38.2-53.1-.8-.8-1.7-1.6-2.4-2.2h5.3c-15.7,15.1-28,33.4-38.7,52.4-1.1,2-3.8,7.1-4.9,9.2-3,6.1-6.1,12.8-8.8,19-1.8,4.2-3.5,8.8-5.3,13h0Z"/><path class="bu" d="m848.7,1493.6c4.1-25.1,15.8-49.6,33.4-68,1.1-1.2,3.3-3.1,4.5-4.3,0,0,2.7,2.4,2.7,2.4,13.4,12.7,23,29,29.5,46.1,2.8,7.7,5,15.8,6.2,23.8-1.4-2.9-2.6-6-4-8.9-8-17.3-17.9-34-30.5-48.3-2-2.3-4.2-4.6-6.4-6.6,0,0,5.3,0,5.3,0-11.3,10.9-20.2,24.1-28,37.8-4.8,8.3-8.8,17.3-12.7,26.1h0Z"/><circle class="at" cx="886.7" cy="1481.1" r="13"/><path class="be" d="m1277.5,882.4c49.1-41.3,75.3-88.9,89-140,5.7-21.3,17.1-40.9,33.1-56.1,28.8-27.4,67.1-43.5,107.8-43.6,1.6,0,3.2,0,4.9,0,39.1,1.1,75.7,17.1,103.4,43.4,15.5,14.7,26.7,33.5,32.5,54.1,14.9,52.6,42.8,101.8,93.4,145-44.4,47.3-74.1,95.2-90.1,143.7-5.6,17-14.4,32.9-26.6,46-28.4,30.2-67.7,48.8-109.9,49.9-1.6,0-3.2,0-4.9,0-40.6,0-78.9-16.2-107.8-43.5-15.7-14.9-27.1-33.8-33-54.6-15-53.5-41.6-103-92-144.4Z"/><path class="bu" d="m1276.5,882.4c3.6-4,8.2-8.5,12.1-12.6,31.6-32.8,54.6-73.6,66.3-117.6,1.4-5,2.8-11.1,4-16.1,5.6-21.4,16.9-41.3,32.4-57.1,55.3-57,144.4-66.9,211.3-23.5,28.8,18.3,50.9,44.2,61.2,77,4,13.2,8.8,27.4,14.4,40,17,38.4,43.2,72,75.1,99.1,0,0,14.4,12.3,14.4,12.3,0,0-12.9,13.7-12.9,13.7-34,36.3-63.5,76.9-81.9,123.1-1,2.4-2.8,7.3-3.7,9.8-6.8,20.6-17.1,40.2-32.6,56.1-16.3,16.8-36,30.4-57.6,39.5-44.7,19.2-97.7,17.3-140.9-4.9-14.1-7.2-27.4-16.6-39-27.4-21-19.2-34.4-43.9-40.3-71.6-1.3-5-2.9-10.7-4.5-15.6-12.2-40-33.3-77.2-61.9-107.8-5-5.3-11.1-11.3-16-16.4h0Zm2,0c8.7,6.5,16.7,14.1,24.2,21.9,27.2,28,47.7,62.3,60.8,99.1,1.5,4.1,3.2,9.1,4.5,13.2.9,3.2,3.1,10.3,4,13.3,8.9,28.6,28.4,51.4,53.2,67.6,57.8,39,136.8,33,188.3-13.9,15.2-13.2,27-30,34.1-48.9,1.8-4.9,3.7-10.7,5.5-15.7,18.6-50.8,50.4-95.8,87.1-135.1,0,0,.2,2.9.2,2.9-46.5-39.4-78.8-89.9-94.7-148.8-10.6-35.8-39-62.8-72-78.7-38.1-18.3-83.8-19.9-123-4-22.1,8.9-42.4,22.7-58.1,40.6-12,13.9-20.4,30.7-25.1,48.4-2,7.1-4.3,14.4-6.8,21.3-16.1,45.4-44.6,86.5-82.2,116.7h0Z"/><path class="bh" d="m1287.4,884.5c42.7-35.9,65.6-77.4,77.5-121.9,5-18.6,14.9-35.6,28.9-48.9,25.1-23.8,58.5-37.9,93.9-37.9,1.4,0,2.8,0,4.2,0,34,1,65.9,14.9,90,37.8,13.5,12.8,23.3,29.2,28.3,47.1,12.9,45.8,64.7,87.4,108.8,125-38.7,41.2-92,84.2-105.9,126.4-4.9,14.8-12.5,28.7-23.2,40.1-24.7,26.3-58.9,42.5-95.7,43.5-1.4,0-2.8,0-4.2,0-35.4,0-68.8-14.1-93.8-37.9-13.7-13-23.6-29.4-28.7-47.6-13.1-46.6-36.2-89.7-80.1-125.8Z"/><path class="bu" d="m1286.7,884.5c4.2-3.9,10.6-9.8,14.9-13.9,28.4-27.7,49.1-62.8,60.2-100.8,1.6-5.4,3.7-13.8,5.9-19,17.1-43.9,64-72.2,109.8-75.8,35.1-2.9,70.8,8.7,97.8,31.2,9.1,7.4,17.2,16.1,23.5,26,6.4,9.8,10.7,20.8,13.9,32.1,17.5,49,69,86.9,107.3,120.4,0,0,1.2,1,1.2,1,0,0-1.1,1.1-1.1,1.1-18.2,19.4-37.7,37.4-56.2,56.4-18.1,18.9-36.5,38.8-47.1,62.9-2.6,6.1-4.3,12.6-7.2,18.6-4.1,9.2-9.5,17.8-16.1,25.4-33.8,38.4-86.9,55.4-136.6,42.7-25.9-6.6-49.9-20.8-67.9-40.6-11.2-12.5-19.1-27.8-23.4-43.9-1.8-6.2-3.8-12.8-6.1-18.9-10-28-24.7-54.3-44.4-76.7-8.7-10.2-18.7-19.2-28.7-28.2h0Zm1.5,0c3.4,2.6,6.5,4.5,9.6,7.1,17.5,14.4,32.9,31.3,45.4,50.3,14,21.1,24,44.7,31.7,68.7,8.1,24.1,25.1,42.5,46.6,55.6,33,20.2,74.2,24.8,110.4,10.8,17-6.4,32.7-16.5,45.5-29.3,4-4.2,8.1-8.6,11.3-13.5,5.3-7.8,9.5-16.7,12.4-25.8.5-1.7,1.3-3.7,1.9-5.3,3-7.8,6.9-15.4,11.2-22.1,25.8-39.7,63.9-70.6,95.2-104.5,0,0,1.1,19.5,1.1,19.5-20-17.2-40.6-34.3-60-53.6-22.2-22.3-43.9-47.5-52.5-79-.8-2.8-1.7-5.6-2.7-8.3-4.7-12.3-12-23.5-21.4-32.7-2.5-2.4-5.8-5.3-8.5-7.5-28.9-23.7-68.3-33.9-105-26.1-24.2,5-46.9,17.1-64.6,34.4-10.8,10.8-19,24.5-23.8,39.1-2.9,9.5-6.5,19.5-10.3,28.5-15.6,37-40.9,70-73.5,93.6h0Z"/><path class="ba" d="m1287.8,884.7c36.5-30.7,56-66.1,66.3-104.2,4.3-15.9,12.7-30.4,24.7-41.7,21.4-20.4,49.9-32.4,80.2-32.4,1.2,0,2.4,0,3.6,0,29.1.8,56.3,12.7,76.9,32.3,11.6,11,19.9,24.9,24.2,40.3,11.1,39.1,55.3,74.6,93,106.8-33,35.2-78.6,71.9-90.5,108-4.2,12.7-10.7,24.5-19.8,34.2-21.1,22.5-50.4,36.3-81.8,37.2-1.2,0-2.4,0-3.6,0-30.2,0-58.7-12.1-80.2-32.4-11.7-11.1-20.2-25.1-24.5-40.6-11.2-39.8-31-76.6-68.4-107.5Z"/><path class="bu" d="m1287.8,884.7c30.1-25.8,52.3-60.1,63-98.2,1.4-4.8,3.1-11.8,4.9-16.4,12.3-32.7,44-55.4,77.3-63.3,34.8-8.3,72.5.4,100.4,22.6,8.6,6.8,16.4,14.7,22.2,24,5.6,8.5,9.4,18.1,12.2,27.8,4,11.7,10.5,22.3,18.1,32.2,21.5,27.6,49.3,49.3,75.8,72.1-28.7,32-78.6,70-92.6,109.6-4,11.8-10,23-18.2,32.4-43.5,49.2-118.8,54.1-167.8,10.3-13.1-11.4-23-26.4-27.9-43.1-11.3-43.6-32.8-80.8-67.5-110h0Zm0,0c31.5,24.6,54.4,59,66.8,96.9,1.3,3.9,2.6,8.2,3.9,12.2,3.8,11.9,10.2,23,18.5,32.2,22.6,24.4,56.3,38.3,89.6,36.3,30.4-1.5,59.7-16.1,79.6-38.9,7.6-8.8,13.1-19.3,16.7-30.3,2.5-7.7,6.2-15,10.5-21.7,22-33.4,53.8-59,80.7-88,0,0,.3,5.1.3,5.1-25.7-22.1-52.8-43.8-73.8-70.9-7.8-10.3-14.9-21.7-19-34.2-1.2-3.8-2.4-8.2-3.9-11.9-4.5-11.4-11.4-21.9-20.3-30.4-26.8-26-66.7-37.8-103.2-29.3-32.1,7.3-62.8,28.4-75.3,59.7-1.9,4.4-3.8,11.4-5.2,16-11.6,38.1-34.7,72.5-65.9,97.3h0Z"/><path class="bv" d="m1278.7,884.6c30.5-25.7,46.8-55.3,55.4-87,3.6-13.3,10.7-25.4,20.6-34.9,17.9-17,41.7-27.1,66.9-27.2,1,0,2,0,3,0,24.2.6,46.9,10.5,64.1,26.8,9.6,9.1,16.5,20.8,20.1,33.5,9.1,32.6,45.9,62.1,77.3,88.9-27.6,29.4-65.7,60.1-75.7,90.2-3.5,10.6-8.9,20.5-16.6,28.6-17.7,18.8-42.1,30.4-68.3,31.1-1,0-2,0-3,0-25.2,0-49-9.9-66.8-26.9-9.7-9.2-16.8-20.9-20.4-33.8-9.3-33.2-25.7-63.8-56.9-89.5Z"/><path class="bu" d="m1278.7,884.6c21.2-18.7,37.8-42.3,47.4-68.8,2.3-6.4,4.5-13.5,6.2-20.1,3.2-11.8,9.1-22.8,17.4-31.8,6.6-7.2,14.3-13.2,22.7-18.2,29.4-17.8,68.3-18.5,98.4-1.7,13,7.2,24.8,16.9,33,29.4,4.3,6.6,7.5,13.8,9.7,21.3,11,35.6,52.4,65.5,80.1,89.8-23.4,25.6-50.9,47-70.3,75.8-1.6,2.8-3.6,5.8-5,8.8-.4.8-1.1,2.1-1.4,3-.7,1.7-1.8,4.6-2.4,6.3-4.2,11.7-10.9,22.7-20,31.3-37.5,37-97.7,39-137,3.7-10.1-8.9-18.1-20.3-22.4-33-2.2-6.7-3.7-13.7-6.1-20.4-9.6-29-26.9-55.3-50.1-75.2h0Zm0,0c24.6,18.8,43.3,44.8,54,73.8,2.6,6.5,4.4,13.5,6.8,20.1,6.4,17.3,20,30.9,35.8,39.9,32,18.6,73,16,102.5-6.4,10.7-8,20-18.2,25.3-30.7,1.9-4.2,3.3-8.9,5-13.2.3-1,1.2-2.4,1.6-3.4,1.4-3.3,3.6-6.7,5.4-9.8,18.4-27.9,45.1-49.5,67.5-73.7,0,0,.4,7.2.4,7.2-21.5-18.5-44.2-36.7-61.8-59.5-6.6-8.7-12.6-18.5-15.9-29.2,0,0-.6-1.8-.6-1.8l-.3-.9c-1.8-6.7-4.6-13.1-8.3-18.9-20-30.2-60-44.7-95.1-36.6-17.7,4-34.4,13.2-47.2,26.2-7.9,8.2-13.7,18.3-17.1,29.2-1.9,6.7-4.4,13.8-7,20.2-10.7,26.5-28.6,49.7-51,67.4h0Z"/><path class="aw" d="m1287.4,884.7c24.4-20.5,37.4-44.1,44.3-69.5,2.9-10.6,8.5-20.3,16.5-27.8,14.3-13.6,33.3-21.7,53.5-21.7.8,0,1.6,0,2.4,0,19.4.5,37.5,8.4,51.2,21.4,7.7,7.3,13.2,16.6,16.1,26.8,7.3,26,36.7,49.6,61.8,71-22.1,23.5-52.5,48-60.5,72.1-2.8,8.4-7.2,16.3-13.3,22.8-14.1,15-33.6,24.3-54.5,24.9-.8,0-1.6,0-2.4,0-20.1,0-39.1-7.9-53.4-21.5-7.8-7.4-13.4-16.7-16.3-27-7.4-26.5-20.5-51-45.4-71.5Z"/><path class="bu" d="m1287.4,884.7c19.6-17.4,34-40.4,40.9-65.7.9-3.2,2-8,3.2-11,5.3-14.9,16.9-26.9,30.4-34.8,23.7-14.4,55.1-15.1,79.4-1.6,15.9,8.5,29.3,22.6,34.4,40.3,8.5,28.7,42.5,53.1,64.7,72.6-16.6,18-35.2,33.6-50.5,52.4-4.5,5.7-8.6,11.7-11.4,18-1.5,3.4-2.6,7.2-4.2,10.6-3.3,7.4-8.1,14.2-14,19.7-30.2,29.8-78.9,31.3-110.5,2.8-8.1-7.2-14.5-16.4-17.9-26.7-1.9-6.3-3.4-12.8-5.7-19-7.7-22.1-21.1-42.2-38.8-57.6h0Zm0,0c19,14.3,33.7,34.1,42.5,56.2,2.5,6.1,4.4,12.5,6.6,18.7,3.9,10.2,10.8,19,19.4,25.5,26.2,20.6,63.6,21,90.1.7,10-7.3,17.9-17.3,21.8-29.1,2.4-7.6,6.4-14.7,11.1-21.2,14.6-20,34-36.3,50.7-54.1,0,0,.4,7.2.4,7.2-11.4-9.8-23.1-19.5-34-30.3-12.2-12.3-24.1-26.1-29-43.2-7-26.3-33.9-43.3-60.2-45.4-14.4-1.2-28.9,2.2-41.5,9.1-12.7,6.9-23.6,17.4-29.1,31-1.2,2.9-2.6,7.5-3.6,10.5-8.1,25.4-24,48.2-45.1,64.4h0Z"/><path class="cd" d="m1389.9,808.4c10.6,12.4,10.6,29.2,1.5,41.4.7,0,1.4.1,2.1.2,29.7,3.7,57.9,14.4,83.9,35-25.9,20.1-54,30.7-83.6,34.6-.4,0-.8,0-1.1.1,7.9,12.1,7.5,27.9-2.7,39.7-17.7,20.5-53.1,16.6-65.3-7-8.2-15.8,2.6-38.5-12.7-49.1-18.1-12.7-16.9-26,0-38.7,14.9-11.1,4.5-33.3,12.7-49.1,12.3-23.6,47.6-27.6,65.3-7Z"/><path class="cd" d="m1372.9,823.7c8.3,9.8,8.2,23.3,1.1,33,.6,0,1.1,0,1.7.2,23.1,2.9,45,11.5,65.2,27.9-20.1,16-42,24.5-65.1,27.5-.3,0-.6,0-.9.1,6.1,9.6,5.8,22.2-2.1,31.6-13.8,16.4-41.3,13.2-50.8-5.6-6.4-12.6,2-30.6-9.9-39.1-14.1-10.1-13.2-20.7,0-30.8,11.6-8.9,3.5-26.5,9.9-39.1,9.5-18.8,37-22,50.8-5.6Z"/><path class="cd" d="m1406.9,792.2c13.4,15,13.3,35.5,1.9,50.3.9,0,1.8.1,2.7.3,37.4,4.5,72.9,17.5,105.6,42.5-32.6,24.4-68,37.3-105.3,42-.5,0-1,.1-1.4.2,9.9,14.6,9.4,33.9-3.4,48.2-22.3,24.9-66.8,20.1-82.3-8.5-10.4-19.2,3.2-46.7-16-59.7-22.8-15.4-21.3-31.6,0-47,18.7-13.5,5.7-40.4,16-59.7,15.4-28.7,60-33.5,82.3-8.5Z"/><circle class="bi" cx="1336.4" cy="884.9" r="14.6"/><path class="bu" d="m1336.4,870.4c-7.7-.2-14.1,7.1-13.1,14.6,2.3,15.3,23.8,15.3,26.1,0,1.1-7.5-5.4-14.7-13.1-14.6h0Zm0,0c10.5-.2,18.8,10.7,15.4,20.9-4.8,14.8-26,14.8-30.8,0-3.4-10.3,4.8-21.1,15.4-20.9h0Z"/><path class="aw" d="m1163.7,882.5c97.6,26.2,124.9,131,208.2,198,12.9-71.1-25.2-137.7-75.3-198,50.1-59.8,89-130.2,75.3-198-75.3,70.6-122.1,176.3-208.2,198Z"/><path class="bu" d="m1163.7,882.5c48.9,10.9,85.5,47.9,115.2,86.2,29.7,37.8,57.9,78.3,96,108.1,0,0-7.5,2.8-7.5,2.8,13-74.4-32.1-142.7-77.9-197.1,45.4-54.2,91.3-123.1,77.9-197,0,0,7.8,2.5,7.8,2.5-40,37-71.3,82.4-107.4,123.1-28.2,31.4-61.6,62.1-104,71.5h0Zm0,0c47.5-13.4,81.4-51.9,111.3-89.1,30.3-38.1,58.2-78.4,93.7-112.3,0,0,6.1-5.8,6.1-5.8,0,0,1.7,8.3,1.7,8.3,15,75.5-29.6,146.6-75.7,202.4,0,0,0-7,0-7,48.4,58,92.7,131.7,74.2,210.1-41.2-31.8-70.6-75.3-100.9-116.7-28.7-39.2-62.2-76.1-110.4-89.9h0Z"/><path class="be" d="m490.3,882.4c-49.1-41.3-75.3-88.9-89-140-5.7-21.3-17.1-40.9-33.1-56.1-28.8-27.4-67.1-43.5-107.8-43.6-1.6,0-3.2,0-4.9,0-39.1,1.1-75.7,17.1-103.4,43.4s-26.7,33.5-32.5,54.1c-14.9,52.6-42.8,101.8-93.4,145,44.4,47.3,74.1,95.2,90.1,143.7,5.6,17,14.4,32.9,26.6,46,28.4,30.2,67.7,48.8,109.9,49.9,1.6,0,3.2,0,4.9,0,40.6,0,78.9-16.2,107.8-43.5,15.7-14.9,27.1-33.8,33-54.6,15-53.5,41.6-103,92-144.4Z"/><path class="bu" d="m489.3,882.4c-37.6-30.1-66.1-71.3-82.2-116.7-2.5-6.9-4.8-14.2-6.8-21.3-4.7-17.7-13.1-34.5-25.1-48.4-15.7-17.9-36.1-31.7-58.1-40.6-39.2-15.9-84.9-14.4-123,4-33,15.9-61.5,42.9-72,78.7-16,58.9-48.2,109.3-94.7,148.8,0,0,.2-2.9.2-2.9,36.7,39.3,68.5,84.3,87.1,135.1,1.8,5,3.7,10.8,5.5,15.7,7,18.9,18.9,35.7,34.1,48.9,51.5,46.9,130.4,52.9,188.3,13.9,24.9-16.2,44.4-39,53.2-67.6.7-2.2,3.4-11.3,4-13.3,1.4-4.1,2.9-9.2,4.5-13.2,13-36.8,33.5-71.1,60.8-99.1,7.6-7.7,15.5-15.4,24.2-21.9h0Zm2,0c-4.9,5.2-10.9,11.1-16,16.4-28.6,30.6-49.7,67.8-61.9,107.8-1.5,4.9-3.2,10.6-4.5,15.6-5.9,27.6-19.3,52.4-40.3,71.6-11.6,10.8-24.8,20.2-39,27.4-43.2,22.2-96.3,24.1-141,4.9-21.6-9.1-41.3-22.7-57.6-39.5-15.5-15.9-25.7-35.5-32.6-56.1-.9-2.5-2.7-7.4-3.7-9.8-18.4-46.2-47.8-86.8-81.8-123.1,0,0-12.9-13.8-12.9-13.8,0,0,14.4-12.3,14.4-12.3,32-27.1,58.2-60.7,75.2-99.1,5.6-12.6,10.5-26.9,14.5-40,10.4-32.9,32.3-58.6,61.2-77,66.8-43.4,155.9-33.5,211.2,23.5,15.5,15.8,26.8,35.7,32.4,57.1,1.3,5,2.7,11.2,4,16.1,11.7,44,34.7,84.8,66.3,117.6,3.9,4.1,8.4,8.6,12.1,12.6h0Z"/><path class="bh" d="m480.4,884.5c-42.7-35.9-65.6-77.4-77.5-121.9-5-18.6-14.9-35.6-28.9-48.9-25.1-23.8-58.5-37.9-93.9-37.9-1.4,0-2.8,0-4.2,0-34,1-65.9,14.9-90,37.8-13.5,12.8-23.3,29.2-28.3,47.1-12.9,45.8-64.7,87.4-108.8,125,38.7,41.2,92,84.2,105.9,126.4,4.9,14.8,12.5,28.7,23.2,40.1,24.7,26.3,58.9,42.5,95.7,43.5,1.4,0,2.8,0,4.2,0,35.4,0,68.8-14.1,93.8-37.9s23.6-29.4,28.7-47.6c13.1-46.6,36.2-89.7,80.1-125.8Z"/><path class="bu" d="m479.6,884.5c-32.6-23.6-57.9-56.6-73.5-93.6-3.8-9-7.4-19.1-10.3-28.5-4.8-14.6-12.9-28.3-23.7-39.1-17.6-17.3-40.4-29.4-64.5-34.4-36.6-7.9-76.1,2.4-105,26-15.8,12.6-27.3,29-32.6,48.5-.9,3.3-2.2,7.4-3.4,10.5-5.2,13.7-12.9,26-21.6,37.5-24.9,32.4-57.3,58.5-87.5,84.6,0,0,1.1-19.5,1.1-19.5,26.8,28.7,58,55.7,82.9,87.2,8.5,11,16.7,22.8,22.4,36.8,1.1,2.4,2,5.5,2.9,7.9,3.8,11.9,9.6,23.2,17.6,32.7,13.8,16,31.8,28.5,51.6,35.9,36.2,14,77.4,9.3,110.4-10.8,21.5-13.1,38.5-31.4,46.6-55.6,7.7-24.1,17.7-47.7,31.7-68.7,12.5-19,27.8-35.9,45.3-50.4,3-2.6,6.1-4.6,9.6-7.1h0Zm1.5,0c-9.9,9-19.9,18-28.7,28.2-19.6,22.4-34.4,48.7-44.4,76.7-2.3,6.1-4.3,12.6-6.1,18.9-4.3,16.2-12.2,31.4-23.4,43.9-18,19.8-42,34-67.9,40.6-49.7,12.7-102.8-4.3-136.6-42.7-6.6-7.6-12-16.3-16.1-25.4-2.9-6-4.6-12.5-7.2-18.6-10.6-24.2-29-44-47.1-62.9-18.4-19-37.9-37-56.2-56.4,0,0-1.1-1.1-1.1-1.1s1.2-1,1.2-1c38.3-33.6,89.7-71.3,107.3-120.4,3.2-11.2,7.5-22.3,13.9-32.1,6.3-9.9,14.4-18.6,23.5-26,27-22.4,62.8-34.1,97.9-31.2,45.9,3.5,92.8,31.8,109.8,75.8,2.1,5.2,4.4,13.5,5.9,19,11.1,38,31.8,73.1,60.2,100.8,4.1,4.1,10.8,9.9,14.9,13.9h0Z"/><path class="ba" d="m479.9,884.7c-36.5-30.7-56-66.1-66.3-104.2-4.3-15.9-12.7-30.4-24.7-41.7-21.4-20.4-49.9-32.4-80.2-32.4-1.2,0-2.4,0-3.6,0-29.1.8-56.3,12.7-76.9,32.3-11.6,11-19.9,24.9-24.2,40.3-11.1,39.1-55.3,74.6-93,106.8,33,35.2,78.6,71.9,90.5,108,4.2,12.7,10.7,24.5,19.8,34.2,21.1,22.5,50.4,36.3,81.8,37.2,1.2,0,2.4,0,3.6,0,30.2,0,58.7-12.1,80.2-32.4,11.7-11.1,20.2-25.1,24.5-40.6,11.2-39.8,31-76.6,68.4-107.5Z"/><path class="bu" d="m479.9,884.7c-31.1-24.9-54.3-59.2-65.9-97.3-1.4-4.6-3.3-11.6-5.2-16-12.4-31.3-43.2-52.4-75.3-59.7-37.9-8.8-79.4,4.2-106.1,32.2-9.4,9.9-16.3,22.1-20.1,35.2-3.9,14.1-11.5,27-20.2,38.4-21,27.1-48.1,48.8-73.8,70.9,0,0,.3-5.1.3-5.1,26.9,29,58.7,54.5,80.7,88,4.3,6.7,8,14,10.5,21.7,3.6,11,9.1,21.5,16.7,30.3,20,22.8,49.2,37.4,79.6,38.9,33.3,2,67-11.9,89.6-36.3,8.4-9.2,14.7-20.3,18.5-32.2,1.3-4,2.5-8.3,3.9-12.2,12.4-37.9,35.3-72.2,66.8-96.9h0Zm0,0c-34.6,29.2-56.1,66.5-67.5,110-4.8,16.7-14.8,31.7-27.9,43.1-49.1,43.8-124.3,38.9-167.8-10.3-8.2-9.4-14.2-20.6-18.2-32.4-14-39.6-63.8-77.6-92.6-109.6,26.5-22.8,54.3-44.5,75.8-72.1,7.6-9.9,14.1-20.5,18.1-32.2,2.8-9.8,6.6-19.3,12.2-27.8,5.9-9.3,13.7-17.2,22.2-24,27.9-22.2,65.6-31,100.4-22.6,33.3,7.9,65,30.6,77.3,63.3,1.8,4.6,3.6,11.6,4.9,16.4,10.6,38.1,32.9,72.4,63,98.2h0Z"/><path class="bv" d="m489.1,884.6c-30.5-25.7-46.8-55.3-55.4-87-3.6-13.3-10.7-25.4-20.6-34.9-17.9-17-41.7-27.1-66.9-27.2-1,0-2,0-3,0-24.2.6-46.9,10.5-64.1,26.8-9.6,9.1-16.5,20.8-20.1,33.5-9.1,32.6-45.9,62.1-77.3,88.9,27.6,29.4,65.7,60.1,75.7,90.2,3.5,10.6,8.9,20.5,16.6,28.6,17.7,18.8,42.1,30.4,68.3,31.1,1,0,2,0,3,0,25.2,0,49-9.9,66.8-26.9,9.7-9.2,16.8-20.9,20.4-33.8,9.3-33.2,25.7-63.8,56.9-89.5Z"/><path class="bu" d="m489.1,884.6c-22.4-17.6-40.3-40.9-51-67.4-2.6-6.4-5.1-13.6-7-20.2-3.4-10.9-9.2-21.1-17.1-29.2-12.8-13-29.5-22.2-47.2-26.2-35.1-8.1-75.1,6.4-95.1,36.6-3.7,5.8-6.5,12.2-8.3,18.9-.1.4-.7,2.2-.9,2.7-3.3,10.8-9.4,20.5-15.9,29.2-17.6,22.8-40.3,41-61.8,59.5,0,0,.4-7.2.4-7.2,22.4,24.1,49.1,45.7,67.5,73.7,1.8,3.1,4,6.5,5.4,9.8.5.9,1.2,2.4,1.6,3.4,1.7,4.2,3.2,9,5,13.2,5.3,12.4,14.5,22.7,25.3,30.7,29.4,22.4,70.5,25.1,102.5,6.4,15.8-9,29.4-22.6,35.8-39.9,1.6-4.3,2.9-9,4.4-13.4,10.5-31.7,29.8-60.2,56.5-80.6h0Zm0,0c-23.2,19.9-40.6,46.2-50.1,75.2-2.4,6.7-3.9,13.7-6.1,20.4-4.3,12.7-12.3,24.2-22.4,33-39.3,35.3-99.5,33.3-137-3.7-9.1-8.6-15.8-19.5-20-31.3-.6-1.8-1.8-4.5-2.4-6.3-.2-.9-1.1-2.1-1.4-3-1.3-3-3.3-5.9-5-8.8-19.4-28.8-46.9-50.2-70.3-75.8,27.7-24.2,69-54.1,80.1-89.8,2.2-7.5,5.4-14.7,9.7-21.3,8.1-12.5,20-22.3,33-29.4,30.1-16.8,69-16,98.4,1.7,8.4,5,16.1,11.1,22.7,18.2,8.2,9.1,14.2,20,17.4,31.8,1.6,6.6,3.8,13.7,6.2,20.1,9.7,26.5,26.2,50,47.4,68.8h0Z"/><path class="by" d="m480.4,884.7c-24.4-20.5-37.4-44.1-44.3-69.5-2.9-10.6-8.5-20.3-16.5-27.8-14.3-13.6-33.3-21.7-53.5-21.7-.8,0-1.6,0-2.4,0-19.4.5-37.5,8.4-51.2,21.4-7.7,7.3-13.2,16.6-16.1,26.8-7.3,26-36.7,49.6-61.8,71,22.1,23.5,52.5,48,60.5,72.1,2.8,8.4,7.2,16.3,13.3,22.8,14.1,15,33.6,24.3,54.5,24.9.8,0,1.6,0,2.4,0,20.1,0,39.1-7.9,53.4-21.5,7.8-7.4,13.4-16.7,16.3-27,7.4-26.5,20.5-51,45.4-71.5Z"/><path class="bu" d="m480.4,884.7c-21.1-16.3-37-39-45.1-64.4-1-2.9-2.3-7.7-3.6-10.5-5.4-13.6-16.4-24-29.1-31-12.6-6.9-27.2-10.3-41.5-9.1-26.2,2.1-53.1,19.1-60.2,45.4-4.9,17.2-16.8,31-29,43.2-10.9,10.8-22.6,20.6-34,30.3,0,0,.4-7.2.4-7.2,16.6,17.8,36,34.1,50.7,54.1,4.7,6.5,8.6,13.5,11.1,21.2,3.9,11.8,11.8,21.8,21.8,29.1,26.5,20.2,63.9,19.8,90.1-.7,8.6-6.5,15.6-15.3,19.4-25.5,2.2-6.2,4-12.6,6.6-18.7,8.8-22.1,23.5-41.8,42.5-56.2h0Zm0,0c-17.7,15.4-31.1,35.5-38.8,57.6-2.3,6.2-3.7,12.7-5.7,19-3.4,10.3-9.8,19.5-17.9,26.7-31.5,28.5-80.3,27-110.5-2.8-5.9-5.6-10.7-12.4-14-19.7-1.6-3.4-2.8-7.1-4.2-10.6-2.8-6.3-6.9-12.3-11.4-18-15.2-18.8-33.9-34.4-50.5-52.4,22.2-19.5,56.2-43.9,64.7-72.6,5.1-17.6,18.4-31.7,34.4-40.3,24.3-13.5,55.7-12.8,79.4,1.6,13.4,8,25.1,19.9,30.4,34.8,1.2,3.1,2.3,7.8,3.2,11,6.9,25.3,21.3,48.3,40.9,65.7h0Z"/><path class="cd" d="m375.4,808.4c-10.6,12.4-10.6,29.2-1.5,41.4-.7,0-1.4.1-2.1.2-29.7,3.7-57.9,14.4-83.9,35,25.9,20.1,54,30.7,83.6,34.6.4,0,.8,0,1.1.1-7.9,12.1-7.5,27.9,2.7,39.7,17.7,20.5,53.1,16.6,65.3-7,8.2-15.8-2.6-38.5,12.7-49.1,18.1-12.7,16.9-26,0-38.7-14.9-11.1-4.5-33.3-12.7-49.1-12.3-23.6-47.6-27.6-65.3-7Z"/><path class="cd" d="m392.4,823.7c-8.3,9.8-8.2,23.3-1.1,33-.6,0-1.1,0-1.7.2-23.1,2.9-45,11.5-65.2,27.9,20.1,16,42,24.5,65.1,27.5.3,0,.6,0,.9.1-6.1,9.6-5.8,22.2,2.1,31.6,13.8,16.4,41.3,13.2,50.8-5.6,6.4-12.6-2-30.6,9.9-39.1,14.1-10.1,13.2-20.7,0-30.8-11.6-8.9-3.5-26.5-9.9-39.1-9.5-18.8-37-22-50.8-5.6Z"/><path class="cd" d="m358.4,792.2c-13.4,15-13.3,35.5-1.9,50.3-.9,0-1.8.1-2.7.3-37.4,4.5-72.9,17.5-105.6,42.5,32.6,24.4,68,37.3,105.3,42,.5,0,1,.1,1.4.2-9.9,14.6-9.4,33.9,3.4,48.2,22.3,24.9,66.8,20.1,82.3-8.5,10.4-19.2-3.2-46.7,16-59.7,22.8-15.4,21.3-31.6,0-47-18.7-13.5-5.7-40.4-16-59.7-15.4-28.7-60-33.5-82.3-8.5Z"/><circle class="bi" cx="428.9" cy="884.9" r="14.6"/><path class="bu" d="m428.9,870.4c10.5-.2,18.8,10.7,15.4,20.9-4.8,14.8-25.9,14.8-30.8,0-3.4-10.3,4.8-21.1,15.4-20.9h0Zm0,0c-7.7-.2-14.1,7-13,14.6,2.3,15.3,23.8,15.3,26.1,0,1.1-7.5-5.3-14.7-13.1-14.6h0Z"/><path class="ar" d="m604.1,882.5c-97.6,26.2-124.9,131-208.2,198-12.9-71.1,25.2-137.7,75.3-198-50.1-59.8-89-130.2-75.3-198,75.3,70.6,122.1,176.3,208.2,198Z"/><path class="bu" d="m604.1,882.5c-48.3,13.8-81.8,50.7-110.4,89.9-30.3,41.4-59.7,84.9-100.9,116.7-18.5-78.4,25.8-152.1,74.2-210.1,0,0,0,7,0,7-46.1-55.8-90.7-126.9-75.7-202.4,0,0,1.7-8.3,1.7-8.3l6.1,5.8c35.5,33.9,63.4,74.2,93.7,112.3,29.9,37.2,63.8,75.7,111.3,89.1h0Zm0,0c-48.6-10.9-84.8-48.7-116-85.3-31.3-36.9-59.9-76.4-95.5-109.2,0,0,7.8-2.5,7.8-2.5-13.4,73.9,32.5,142.8,77.9,197-45.8,54.5-90.9,122.8-77.9,197.1,0,0-7.5-2.8-7.5-2.8,38.1-29.8,66.2-70.3,96-108.1,29.7-38.3,66.3-75.3,115.2-86.2h0Z"/><path class="be" d="m1278.8,882.4c49.1-41.3,75.3-88.9,89-140s17.1-40.9,33.1-56.1c28.8-27.4,67.1-43.5,107.8-43.6,1.6,0,3.2,0,4.9,0,39.1,1.1,75.7,17.1,103.4,43.4,15.5,14.7,26.7,33.5,32.5,54.1,14.9,52.6,42.8,101.8,93.4,145-44.4,47.3-74.1,95.2-90.1,143.7-5.6,17-14.4,32.9-26.6,46-28.4,30.2-67.7,48.8-109.9,49.9-1.6,0-3.2,0-4.9,0-40.6,0-78.9-16.2-107.8-43.5-15.7-14.9-27.1-33.8-33-54.6-15-53.5-41.6-103-92-144.4Z"/><path class="bu" d="m1277.8,882.4c3.6-4,8.2-8.5,12.1-12.6,31.6-32.8,54.6-73.6,66.3-117.6,1.4-5,2.8-11.1,4-16.1,5.6-21.4,16.9-41.3,32.4-57.1,55.3-57,144.4-66.9,211.3-23.5,28.8,18.3,50.9,44.2,61.2,77,4,13.2,8.8,27.4,14.4,40,17,38.4,43.2,72,75.1,99.1,0,0,14.4,12.3,14.4,12.3,0,0-12.9,13.7-12.9,13.7-34,36.3-63.5,76.9-81.9,123.1-1,2.4-2.8,7.3-3.7,9.8-6.8,20.6-17.1,40.2-32.6,56.1-16.3,16.8-36,30.4-57.6,39.5-44.7,19.2-97.7,17.3-140.9-4.9-14.1-7.2-27.4-16.6-39-27.4-21-19.2-34.4-43.9-40.3-71.6-1.3-5-2.9-10.7-4.5-15.6-12.2-40-33.3-77.2-61.9-107.8-5-5.3-11.1-11.3-16-16.4h0Zm2,0c8.7,6.5,16.7,14.1,24.2,21.9,27.2,28,47.7,62.3,60.8,99.1,1.5,4.1,3.2,9.1,4.5,13.2.9,3.2,3.1,10.3,4,13.3,8.9,28.6,28.4,51.4,53.2,67.6,57.8,39,136.8,33,188.3-13.9,15.2-13.2,27-30,34.1-48.9,1.8-4.9,3.7-10.7,5.5-15.7,18.6-50.8,50.4-95.8,87.1-135.1,0,0,.2,2.9.2,2.9-46.5-39.4-78.8-89.9-94.7-148.8-10.6-35.8-39-62.8-72-78.7-38.1-18.3-83.8-19.9-123-4-22.1,8.9-42.4,22.7-58.1,40.6-12,13.9-20.4,30.7-25.1,48.4-2,7.1-4.3,14.4-6.8,21.3-16.1,45.4-44.6,86.5-82.2,116.7h0Z"/><path class="bh" d="m1288.7,884.5c42.7-35.9,65.6-77.4,77.5-121.9,5-18.6,14.9-35.6,28.9-48.9,25.1-23.8,58.5-37.9,93.9-37.9,1.4,0,2.8,0,4.2,0,34,1,65.9,14.9,90,37.8,13.5,12.8,23.3,29.2,28.3,47.1,12.9,45.8,64.7,87.4,108.8,125-38.7,41.2-92,84.2-105.9,126.4-4.9,14.8-12.5,28.7-23.2,40.1-24.7,26.3-58.9,42.5-95.7,43.5-1.4,0-2.8,0-4.2,0-35.4,0-68.8-14.1-93.8-37.9-13.7-13-23.6-29.4-28.7-47.6-13.1-46.6-36.2-89.7-80.1-125.8Z"/><path class="bu" d="m1287.9,884.5c4.2-3.9,10.6-9.8,14.9-13.9,28.4-27.7,49.1-62.8,60.2-100.8,1.6-5.4,3.7-13.8,5.9-19,17.1-43.9,64-72.2,109.8-75.8,35.1-2.9,70.8,8.7,97.9,31.2,9.1,7.4,17.2,16.1,23.5,26,6.4,9.8,10.7,20.8,13.9,32.1,17.6,49.1,68.9,86.8,107.3,120.4,0,0,1.2,1,1.2,1,0,0-1.1,1.1-1.1,1.1-18.2,19.4-37.7,37.4-56.2,56.4-18.1,18.9-36.5,38.8-47.1,62.9-2.6,6.1-4.3,12.6-7.2,18.6-4.1,9.2-9.5,17.8-16.1,25.4-33.8,38.4-86.9,55.4-136.6,42.7-25.9-6.6-49.9-20.8-67.9-40.6-11.2-12.5-19.1-27.8-23.4-43.9-1.8-6.2-3.8-12.8-6.1-18.9-10-28-24.7-54.3-44.4-76.7-8.7-10.2-18.7-19.2-28.7-28.2h0Zm1.5,0c3.4,2.6,6.5,4.5,9.6,7.1,17.5,14.4,32.9,31.3,45.3,50.4,14,21.1,24,44.7,31.7,68.7,8.2,24.2,25.1,42.5,46.6,55.6,33,20.2,74.2,24.8,110.4,10.8,19.8-7.4,37.8-19.9,51.6-35.9,8-9.5,13.8-20.9,17.6-32.7.8-2.5,1.9-5.5,2.9-7.9,5.7-14,13.9-25.8,22.4-36.8,25-31.6,56.2-58.5,82.9-87.2,0,0,1.1,19.5,1.1,19.5-30.2-26.1-62.6-52.2-87.5-84.6-9.8-12.9-18.4-27.1-23.4-42.8-1.3-4.2-2.7-9.4-4.3-13.5-4.7-12.3-12-23.5-21.4-32.7-2.5-2.4-5.8-5.3-8.5-7.5-28.9-23.6-68.4-33.9-105-26-24.1,5-46.9,17.1-64.5,34.4-10.8,10.8-18.9,24.5-23.7,39.1-2.9,9.5-6.5,19.5-10.3,28.5-15.7,37-41,70-73.5,93.6h0Z"/><path class="ba" d="m1289.1,884.7c36.5-30.7,56-66.1,66.3-104.2,4.3-15.9,12.7-30.4,24.7-41.7,21.4-20.4,49.9-32.4,80.2-32.4,1.2,0,2.4,0,3.6,0,29.1.8,56.3,12.7,76.9,32.3,11.6,11,19.9,24.9,24.2,40.3,11.1,39.1,55.3,74.6,93,106.8-33,35.2-78.6,71.9-90.5,108-4.2,12.7-10.7,24.5-19.8,34.2-21.1,22.5-50.4,36.3-81.8,37.2-1.2,0-2.4,0-3.6,0-30.2,0-58.7-12.1-80.2-32.4-11.7-11.1-20.2-25.1-24.5-40.6-11.2-39.8-31-76.6-68.4-107.5Z"/><path class="bu" d="m1289.1,884.7c30.1-25.8,52.3-60.1,63-98.2,1.4-4.8,3.1-11.8,4.9-16.4,12.3-32.7,44-55.4,77.3-63.3,34.8-8.3,72.5.4,100.4,22.6,8.6,6.8,16.4,14.7,22.2,24,5.6,8.5,9.4,18.1,12.2,27.8,4,11.7,10.5,22.3,18.1,32.2,21.5,27.6,49.3,49.3,75.8,72.1-28.7,32-78.6,70-92.6,109.6-4,11.8-10,23-18.2,32.4-43.5,49.2-118.8,54.1-167.8,10.3-13.1-11.4-23-26.4-27.9-43.1-11.3-43.6-32.8-80.8-67.5-110h0Zm0,0c31.5,24.6,54.4,59,66.8,96.9,1.3,3.9,2.6,8.2,3.9,12.2,3.8,11.9,10.2,23,18.5,32.2,22.6,24.4,56.3,38.3,89.6,36.3,30.4-1.5,59.7-16.1,79.6-38.9,7.6-8.8,13.1-19.3,16.7-30.3,2.5-7.7,6.2-15,10.5-21.7,22-33.4,53.8-59,80.7-88,0,0,.3,5.1.3,5.1-25.7-22.1-52.8-43.8-73.8-70.9-7.8-10.3-14.9-21.7-19-34.2-1.2-3.8-2.4-8.2-3.9-11.9-4.5-11.4-11.4-21.9-20.3-30.4-26.8-26-66.7-37.8-103.2-29.3-32.1,7.3-62.8,28.4-75.3,59.7-1.9,4.4-3.8,11.4-5.2,16-11.6,38.1-34.7,72.5-65.9,97.3h0Z"/><path class="bv" d="m1280,884.6c30.5-25.7,46.8-55.3,55.4-87,3.6-13.3,10.7-25.4,20.6-34.9,17.9-17,41.7-27.1,66.9-27.2,1,0,2,0,3,0,24.2.6,46.9,10.5,64.1,26.8,9.6,9.1,16.5,20.8,20.1,33.5,9.1,32.6,45.9,62.1,77.3,88.9-27.6,29.4-65.7,60.1-75.7,90.2s-8.9,20.5-16.6,28.6c-17.7,18.8-42.1,30.4-68.3,31.1-1,0-2,0-3,0-25.2,0-49-9.9-66.8-26.9-9.7-9.2-16.8-20.9-20.4-33.8-9.3-33.2-25.7-63.8-56.9-89.5Z"/><path class="bu" d="m1280,884.6c21.2-18.7,37.8-42.3,47.4-68.8,2.3-6.4,4.5-13.5,6.2-20.1,3.2-11.8,9.1-22.8,17.4-31.8,6.6-7.2,14.3-13.2,22.7-18.2,29.4-17.8,68.3-18.5,98.4-1.7,13,7.2,24.8,16.9,33,29.4,4.3,6.6,7.5,13.8,9.7,21.3,11,35.6,52.4,65.5,80.1,89.8-23.4,25.6-50.9,47-70.3,75.8-1.6,2.8-3.6,5.8-5,8.8-.4.8-1.1,2.1-1.4,3-.7,1.7-1.8,4.6-2.4,6.3-4.2,11.7-10.9,22.7-20,31.3-37.5,37-97.7,39-137,3.7-10.1-8.9-18.1-20.3-22.4-33-2.2-6.7-3.7-13.7-6.1-20.4-9.6-29-26.9-55.3-50.1-75.2h0Zm0,0c24.6,18.8,43.3,44.8,54,73.8,2.6,6.5,4.4,13.5,6.8,20.1,6.4,17.3,20,30.9,35.8,39.9,32,18.6,73,16,102.5-6.4,10.7-8,20-18.2,25.3-30.7,1.9-4.2,3.3-8.9,5-13.2.3-1,1.2-2.4,1.6-3.4,1.4-3.3,3.6-6.7,5.4-9.8,18.4-27.9,45.1-49.5,67.5-73.7,0,0,.4,7.2.4,7.2-21.5-18.5-44.2-36.7-61.8-59.5-6.6-8.7-12.6-18.5-15.9-29.2,0,0-.6-1.8-.6-1.8,0,0-.3-.9-.3-.9-1.8-6.7-4.6-13.1-8.3-18.9-20-30.2-60-44.7-95.1-36.6-17.7,4-34.4,13.2-47.2,26.2-7.9,8.2-13.7,18.3-17.1,29.2-1.9,6.7-4.4,13.8-7,20.2-10.7,26.5-28.6,49.7-51,67.4h0Z"/><path class="bd" d="m1288.7,884.7c24.4-20.5,37.4-44.1,44.3-69.5,2.9-10.6,8.5-20.3,16.5-27.8,14.3-13.6,33.3-21.7,53.5-21.7.8,0,1.6,0,2.4,0,19.4.5,37.5,8.4,51.2,21.4,7.7,7.3,13.2,16.6,16.1,26.8,7.3,26,36.7,49.6,61.8,71-22.1,23.5-52.5,48-60.5,72.1-2.8,8.4-7.2,16.3-13.3,22.8-14.1,15-33.6,24.3-54.5,24.9-.8,0-1.6,0-2.4,0-20.1,0-39.1-7.9-53.4-21.5-7.8-7.4-13.4-16.7-16.3-27-7.4-26.5-20.5-51-45.4-71.5Z"/><path class="bu" d="m1288.7,884.7c19.6-17.4,34-40.4,40.9-65.7.9-3.2,2-8,3.2-11,5.3-14.9,16.9-26.9,30.4-34.8,23.7-14.4,55.1-15.1,79.4-1.6,15.9,8.5,29.3,22.6,34.4,40.3,8.5,28.7,42.5,53.1,64.7,72.6-16.6,18-35.2,33.6-50.5,52.4-4.5,5.7-8.6,11.7-11.4,18-1.5,3.4-2.6,7.2-4.2,10.6-3.3,7.4-8.1,14.2-14,19.7-30.2,29.8-78.9,31.3-110.5,2.8-8.1-7.2-14.5-16.4-17.9-26.7-1.9-6.3-3.4-12.8-5.7-19-7.7-22.1-21.1-42.2-38.8-57.6h0Zm0,0c19,14.3,33.7,34.1,42.5,56.2,2.5,6.1,4.4,12.5,6.6,18.7,3.9,10.2,10.8,19,19.4,25.5,26.2,20.6,63.6,21,90.1.7,10-7.3,17.9-17.3,21.8-29.1,2.4-7.6,6.4-14.7,11.1-21.2,14.6-20,34-36.3,50.7-54.1,0,0,.4,7.2.4,7.2-11.4-9.8-23.1-19.5-34-30.3-12.2-12.3-24.1-26.1-29-43.2-7-26.3-33.9-43.3-60.2-45.4-14.4-1.2-28.9,2.2-41.5,9.1-12.7,6.9-23.6,17.4-29.1,31-1.2,2.9-2.6,7.5-3.6,10.5-8.1,25.4-24,48.2-45.1,64.4h0Z"/><path class="cd" d="m1393.7,808.4c10.6,12.4,10.6,29.2,1.5,41.4.7,0,1.4.1,2.1.2,29.7,3.7,57.9,14.4,83.9,35-25.9,20.1-54,30.7-83.6,34.6-.4,0-.8,0-1.1.1,7.9,12.1,7.5,27.9-2.7,39.7-17.7,20.5-53.1,16.6-65.3-7-8.2-15.8,2.6-38.5-12.7-49.1-18.1-12.7-16.9-26,0-38.7,14.9-11.1,4.5-33.3,12.7-49.1,12.3-23.6,47.6-27.6,65.3-7Z"/><path class="cd" d="m1376.7,823.7c8.3,9.8,8.2,23.3,1.1,33,.6,0,1.1,0,1.7.2,23.1,2.9,45,11.5,65.2,27.9-20.1,16-42,24.5-65.1,27.5-.3,0-.6,0-.9.1,6.1,9.6,5.8,22.2-2.1,31.6-13.8,16.4-41.3,13.2-50.8-5.6-6.4-12.6,2-30.6-9.9-39.1-14.1-10.1-13.2-20.7,0-30.8,11.6-8.9,3.5-26.5,9.9-39.1,9.5-18.8,37-22,50.8-5.6Z"/><path class="cd" d="m1410.7,792.2c13.4,15,13.3,35.5,1.9,50.3.9,0,1.8.1,2.7.3,37.4,4.5,72.9,17.5,105.6,42.5-32.6,24.4-68,37.3-105.3,42-.5,0-1,.1-1.4.2,9.9,14.6,9.4,33.9-3.4,48.2-22.3,24.9-66.8,20.1-82.3-8.5-10.4-19.2,3.2-46.7-16-59.7-22.8-15.4-21.3-31.6,0-47,18.7-13.5,5.7-40.4,16-59.7,15.4-28.7,60-33.5,82.3-8.5Z"/><circle class="bi" cx="1340.2" cy="884.9" r="14.6"/><path class="bu" d="m1340.2,870.4c-7.7-.2-14.1,7.1-13.1,14.6,2.3,15.3,23.8,15.3,26.1,0,1.1-7.5-5.4-14.7-13.1-14.6h0Zm0,0c10.5-.2,18.8,10.7,15.4,20.9-4.8,14.8-26,14.8-30.8,0-3.4-10.3,4.8-21.1,15.4-20.9h0Z"/><path class="bt" d="m1164.9,882.5c97.6,26.2,124.9,131,208.2,198,12.9-71.1-25.2-137.7-75.3-198,50.1-59.8,89-130.2,75.3-198-75.3,70.6-122.1,176.3-208.2,198Z"/><path class="bu" d="m1164.9,882.5c48.9,10.9,85.5,47.9,115.2,86.2,29.7,37.8,57.9,78.3,96,108.1,0,0-7.5,2.8-7.5,2.8,13-74.4-32.1-142.7-77.9-197.1,45.4-54.2,91.3-123.1,77.9-197,0,0,7.8,2.5,7.8,2.5-40,37-71.3,82.4-107.4,123.1-28.2,31.4-61.6,62.1-104,71.5h0Zm0,0c47.5-13.4,81.4-51.9,111.3-89.1,30.3-38.1,58.2-78.4,93.7-112.3,0,0,6.1-5.8,6.1-5.8,0,0,1.7,8.3,1.7,8.3,15,75.5-29.6,146.6-75.7,202.4,0,0,0-7,0-7,48.4,58,92.7,131.7,74.2,210.1-41.2-31.8-70.6-75.3-100.9-116.7-28.7-39.2-62.2-76.1-110.4-89.9h0Z"/><path class="au" d="m976.5,490.2h0c0-88,71.3-159.3,159.3-159.3h0c0,88-71.3,159.3-159.3,159.3Z"/><path class="au" d="m881.8,606.7c5.7-28.8,16.2-57.8,34.2-81.4,3.2-4.4,7.1-9.1,10.7-13.3,2.1-2.5,5.7-5.9,8-8.2,11.5-10.1,25.6-17.2,40.5-20.6,5.5-1.4,11.2-2,16.9-2.2,0,0,.4,1.4.4,1.4-6.1,4.2-12.3,7.7-18.4,11.8-10.4,6.7-19.8,14-29.5,21.3,0,0-4,3.2-4,3.2-1.2,1-3,2.2-4.1,3.2-2.3,2.1-5.6,4.8-7.7,7,0,0-3.6,3.8-3.6,3.8-3,3.1-5.7,6.7-8.5,10.1-1.2,1.5-3.5,4.9-4.6,6.5-2.7,3.5-4.9,7.4-7.3,11.1-.3.5-1.1,1.7-1.4,2.3-8,14-14.6,28.8-20.3,44.2,0,0-1.4-.4-1.4-.4h0Z"/><path class="au" d="m788.8,490.2h0c0-88-71.3-159.3-159.3-159.3h0c0,88,71.3,159.3,159.3,159.3Z"/><path class="au" d="m882,607.1c-10-26.9-22.7-52.9-42-74.2-2.1-2.3-5-5.5-7.4-7.4-2.2-2-5.5-4.9-8-6.7-13.6-10.9-27.7-21.1-42.6-30.4-3.1-1.9-6.2-3.8-9.4-6,0,0,.4-1.4.4-1.4,5.7.1,11.3.8,16.9,2.2,16.6,3.9,32.7,12.2,44.6,24.6,5.3,5.3,10.2,11.5,14.7,17.5,2.9,3.7,5.4,7.8,8,11.6,1.1,1.7,3.2,5.5,4.2,7.3,2.6,4.4,4.6,9.2,6.9,13.8.5,1.2,2.2,5.3,2.7,6.4,5.5,13.8,9.6,28,12.4,42.3,0,0-1.4.4-1.4.4h0Z"/><path class="au" d="m976.5,1271.7h0c0,88,71.3,159.3,159.3,159.3h0c0-88-71.3-159.3-159.3-159.3Z"/><path class="au" d="m883.3,1154.8c10,26.9,22.7,52.9,42,74.2,2.1,2.3,5,5.5,7.4,7.4,2.2,2,5.5,4.9,8,6.7,13.6,10.9,27.7,21.1,42.6,30.4,3.1,1.9,6.2,3.8,9.4,6l-.4,1.4c-5.7-.1-11.3-.8-16.9-2.2-16.6-3.9-32.7-12.2-44.6-24.6-5.3-5.3-10.2-11.5-14.7-17.5-2.9-3.7-5.4-7.8-8-11.6-1.1-1.7-3.2-5.5-4.2-7.3-2.6-4.4-4.6-9.2-6.9-13.8-.5-1.2-2.2-5.3-2.7-6.4-5.5-13.8-9.6-28-12.4-42.3,0,0,1.4-.4,1.4-.4h0Z"/><path class="au" d="m788.8,1271.7h0c0,88-71.3,159.3-159.3,159.3h0c0-88,71.3-159.3,159.3-159.3Z"/><path class="au" d="m883.5,1155.2c-5.7,28.8-16.2,57.8-34.2,81.4-3.2,4.4-7.1,9.1-10.7,13.3-2.1,2.5-5.7,5.9-8,8.2-11.5,10.1-25.6,17.2-40.5,20.6-5.5,1.4-11.2,2-16.9,2.2,0,0-.4-1.4-.4-1.4,6.1-4.2,12.3-7.7,18.4-11.8,10.4-6.7,19.8-14,29.5-21.3,0,0,4-3.2,4-3.2,1.2-1,3-2.2,4.1-3.2,2.3-2.1,5.6-4.8,7.7-7,0,0,3.6-3.8,3.6-3.8,3-3.1,5.7-6.7,8.5-10.1,1.2-1.5,3.5-4.9,4.6-6.5,2.7-3.5,4.9-7.4,7.3-11.1.3-.5,1.1-1.7,1.4-2.3,8-14,14.6-28.8,20.3-44.2,0,0,1.4.4,1.4.4h0Z"/><path class="au" d="m1273.4,974.8h0s0,0,0,0c88,0,159.3,71.3,159.3,159.3h0s0,0,0,0c-88,0-159.3-71.3-159.3-159.3Z"/><path class="au" d="m1156.9,880.2c28.8,5.7,57.8,16.2,81.4,34.2,4.4,3.2,9.1,7.1,13.3,10.7,2.5,2.1,5.9,5.7,8.2,8,10.1,11.5,17.2,25.6,20.6,40.5,1.4,5.5,2,11.2,2.2,16.9,0,0-1.4.4-1.4.4-4.2-6.1-7.7-12.3-11.8-18.4-6.7-10.4-14-19.8-21.3-29.5,0,0-3.2-4-3.2-4-1-1.2-2.2-3-3.2-4.1-2.1-2.3-4.8-5.6-7-7.7,0,0-3.8-3.6-3.8-3.6-3.1-3-6.7-5.7-10.1-8.5-1.5-1.2-4.9-3.5-6.5-4.6-3.5-2.7-7.4-4.9-11.1-7.3-.5-.3-1.7-1.1-2.3-1.4-14-8-28.8-14.6-44.2-20.3,0,0,.4-1.4.4-1.4h0Z"/><path class="au" d="m1273.4,787.2h0s0,0,0,0c88,0,159.3-71.3,159.3-159.3h0s0,0,0,0c-88,0-159.3,71.3-159.3,159.3Z"/><path class="au" d="m1156.5,880.4c26.9-10,52.9-22.7,74.2-42,2.3-2.1,5.5-5,7.4-7.4,2.1-2.2,4.9-5.5,6.7-8,10.9-13.6,21.1-27.7,30.4-42.6,1.9-3.1,3.8-6.2,6-9.4,0,0,1.4.4,1.4.4-.1,5.7-.8,11.3-2.2,16.9-3.9,16.6-12.2,32.7-24.6,44.6-5.3,5.3-11.5,10.2-17.5,14.7-3.7,2.9-7.8,5.4-11.6,8-1.7,1.1-5.5,3.2-7.3,4.2-4.4,2.6-9.2,4.6-13.8,6.9-1.2.5-5.3,2.2-6.4,2.7-13.8,5.5-28,9.6-42.3,12.4l-.4-1.4h0Z"/><path class="au" d="m491.9,974.8h0s0,0,0,0c-88,0-159.3,71.3-159.3,159.3h0s0,0,0,0c88,0,159.3-71.3,159.3-159.3Z"/><path class="au" d="m608.8,881.6c-26.9,10-52.9,22.7-74.2,42-2.3,2.1-5.5,5-7.4,7.4-2,2.2-4.9,5.5-6.7,8-10.9,13.6-21.1,27.7-30.4,42.6-1.9,3.1-3.8,6.2-6,9.4l-1.4-.4c.1-5.7.8-11.3,2.2-16.9,3.9-16.6,12.2-32.7,24.6-44.6,5.3-5.3,11.5-10.2,17.5-14.7,3.7-2.9,7.8-5.4,11.6-8,1.7-1.1,5.5-3.2,7.3-4.2,4.4-2.6,9.2-4.6,13.8-6.9,1.2-.5,5.3-2.2,6.4-2.7,13.8-5.5,28-9.6,42.3-12.4,0,0,.4,1.4.4,1.4h0Z"/><path class="au" d="m491.9,787.2h0s0,0,0,0c-88,0-159.3-71.3-159.3-159.3h0s0,0,0,0c88,0,159.3,71.3,159.3,159.3Z"/><path class="au" d="m608.4,881.8c-28.8-5.7-57.8-16.2-81.4-34.2-4.4-3.2-9.1-7.1-13.3-10.7-2.5-2.1-5.9-5.7-8.2-8-10.1-11.5-17.2-25.6-20.6-40.5-1.4-5.5-2-11.2-2.2-16.9,0,0,1.4-.4,1.4-.4,4.2,6.1,7.7,12.3,11.8,18.4,6.7,10.4,14,19.8,21.3,29.5,0,0,3.2,4,3.2,4,1,1.2,2.2,3,3.2,4.1,2.1,2.3,4.8,5.6,7,7.7,0,0,3.8,3.6,3.8,3.6,3.1,3,6.7,5.7,10.1,8.5,1.5,1.2,4.9,3.5,6.5,4.6,3.5,2.7,7.4,4.9,11.1,7.3.5.3,1.7,1.1,2.3,1.4,14,8,28.8,14.6,44.2,20.3,0,0-.4,1.4-.4,1.4h0Z"/><path class="bn" d="m605.7,881c21.1-18.8,41-31.3,57.8-28.4,5.4,12.6,12.4,21.8,20.9,28.3-9.5,6.8-16.6,16.1-20.9,28.2-17.3,3.6-37.1-9.2-57.8-28.2Z"/><path class="bu" d="m605.2,881c4.1-5.7,9.2-11.2,14.4-16,12.2-11.3,27.7-21.7,45.2-19.6,0,0,3.5.4,3.5.4l2,4c3.5,7.2,7.8,14,13.3,19.7,3.4,3.7,10.5,8.6,14.5,11.7,0,0-9,6.3-9,6.3-6.3,4.5-11.5,10.3-15.3,17-2,3.4-3.7,7.7-5.2,11.3,0,0-3.6.5-3.6.5-12.9,2.2-25.4-3.2-35.6-10.7-9.2-6.8-17.6-15.4-24.2-24.6h0Zm.9,0c15.2,12.6,36,31.4,57.2,27.4,0,0-.6.5-.6.5,3.9-11.4,11.2-21.7,21.1-28.7,0,0,0,1.4,0,1.4-9.6-7.4-16.4-17.7-21.1-28.7,0,0,.6.5.6.5-20.9-3.2-42,15.3-57.2,27.6h0Z"/><path class="bx" d="m1159.4,881c-21.1-18.8-41-31.3-57.8-28.4-5.4,12.6-12.4,21.8-20.9,28.3,9.5,6.8,16.6,16.1,20.9,28.2,17.3,3.6,37.1-9.2,57.8-28.2Z"/><path class="bu" d="m1159,881c-15.3-12.3-36.3-30.8-57.2-27.6,0,0,.6-.5.6-.5-4.6,11-11.5,21.4-21.1,28.7,0,0,0-1.4,0-1.4,9.9,7,17.2,17.3,21.1,28.7,0,0-.6-.5-.6-.5,21.3,4,42-14.8,57.2-27.4h0Zm.9,0c-6.6,9.3-15,17.8-24.2,24.6-9.8,7.4-22.9,12.9-35.6,10.7,0,0-3.7-.5-3.7-.5-1.5-3.7-3.2-7.9-5.2-11.3-3.8-6.7-9-12.5-15.3-17,0,0-8.9-6.4-8.9-6.4,4-3.1,11.1-8,14.5-11.7,5.6-5.7,9.9-12.5,13.4-19.7,0,0,2-4,2-4l3.5-.4c17.4-2.1,33,8.3,45.2,19.6,5.1,4.8,10.3,10.4,14.4,16h0Z"/><path class="as" d="m882.5,604.1c18.8,21.1,31.3,41,28.4,57.8-12.6,5.4-21.8,12.4-28.3,20.9-6.8-9.5-16.1-16.6-28.2-20.9-3.6-17.3,9.2-37.1,28.2-57.8Z"/><path class="bu" d="m882.5,603.7c5.7,4.1,11.2,9.2,16,14.4,11.3,12.2,21.7,27.7,19.6,45.2,0,0-.4,3.5-.4,3.5l-4,2c-7.2,3.5-14,7.8-19.7,13.3-3.7,3.4-8.6,10.5-11.7,14.5,0,0-6.3-9-6.3-9-4.5-6.3-10.3-11.5-17-15.3-3.4-2-7.7-3.7-11.3-5.2,0,0-.5-3.6-.5-3.6-2.2-12.9,3.2-25.4,10.7-35.6,6.8-9.2,15.4-17.6,24.6-24.2h0Zm0,.9c-12.6,15.2-31.4,36-27.4,57.2,0,0-.5-.6-.5-.6,11.4,3.9,21.7,11.2,28.7,21.1,0,0-1.4,0-1.4,0,7.4-9.6,17.7-16.4,28.7-21.1,0,0-.5.6-.5.6,3.2-20.9-15.3-42-27.6-57.2h0Z"/><path class="bs" d="m882.5,1157.9c18.8-21.1,31.3-41,28.4-57.8-12.6-5.4-21.8-12.4-28.3-20.9-6.8,9.5-16.1,16.6-28.2,20.9-3.6,17.3,9.2,37.1,28.2,57.8Z"/><path class="bu" d="m882.5,1157.4c12.3-15.3,30.8-36.3,27.6-57.2,0,0,.5.6.5.6-11-4.6-21.4-11.5-28.7-21.1,0,0,1.4,0,1.4,0-7,9.9-17.3,17.2-28.7,21.1,0,0,.5-.6.5-.6-4,21.3,14.8,42,27.4,57.2h0Zm0,.9c-9.3-6.6-17.8-15-24.6-24.2-7.4-9.8-12.9-22.9-10.7-35.6,0,0,.5-3.7.5-3.7,3.7-1.5,8-3.2,11.3-5.2,6.7-3.8,12.5-9,17-15.3,0,0,6.4-8.9,6.4-8.9,3.1,4,8,11.1,11.7,14.5,5.7,5.6,12.5,9.9,19.7,13.4,0,0,4,2,4,2l.4,3.5c2.1,17.4-8.3,33-19.6,45.2-4.8,5.1-10.4,10.3-16,14.4h0Z"/><path class="bg" d="m662.2,565.7c-162,0-90-117-72-189,5.9,53,41.6,68.6,54.3,108,8.7,27-9.3,54,17.7,81Z"/><path class="bu" d="m662.2,565.7c-38,2.9-89.7-.7-105.4-42.1-8.1-22.5-4-46.9,1.6-69.4,4.2-16.3,9.7-32.3,15-48.1,7.1-19.5,14.9-51.7,20-71.9,0,0,4.2,41.7,4.2,41.7,2.1,25.6,14.8,46.5,30,66.7,7.6,10.7,15.4,22.4,19.7,35.2.3.8.8,2.4,1.1,3.3,2.6,7.6,3.1,16.1,2.7,24-1.7,24-5.9,40.6,11.1,60.7h0Zm0,0c-20.4-17.5-18.6-36.5-19-60.7-.3-8.3-1.7-16.1-5.2-23.6-8.5-19.8-23.7-33.7-36.2-52.6-5-7.6-9.4-15.8-12.6-24.4-3.2-8.7-5.2-17.8-6.4-26.9,0,0,14.6,1,14.6,1-2.8,11.2-6.3,21.9-9.8,32.4-5.3,15.8-10.9,31.2-15.3,47.1-4.3,15.2-7.8,31.4-7,47,.6,15.4,7,29.7,19.6,39,21.1,15.7,51.7,19.5,77.4,21.8h0Z"/><path class="aq" d="m1103.2,565.7c162,0,90-117,72-189-5.9,53-41.6,68.6-54.3,108-8.7,27,9.3,54-17.7,81Z"/><path class="bu" d="m1103.2,565.7c25.7-2.3,56.3-6,77.4-21.8,12.5-9.3,19-23.6,19.6-39,.8-15.5-2.7-31.8-7-47-4.5-15.9-10-31.3-15.3-47.1-3.6-10.6-7-21.3-9.8-32.4,0,0,14.6-1,14.6-1-1.1,9.1-3.1,18.2-6.4,26.9-3.2,8.6-7.5,16.8-12.6,24.4-12.5,18.9-27.7,32.8-36.2,52.6-3.5,7.4-4.9,15.3-5.2,23.6-.4,24.3,1.4,43.3-19,60.7h0Zm0,0c17.1-20.1,12.9-36.7,11.1-60.7-.4-7.9.1-16.4,2.7-24,.2-.8.8-2.5,1.1-3.3,4.4-12.7,12.1-24.5,19.7-35.2,15.2-20.2,28-41.2,30-66.7,0,0,4.2-41.7,4.2-41.7,5.3,20.5,12.9,52.4,20,71.9,5.3,15.8,10.8,31.8,15,48.1,5.5,22.5,9.7,46.9,1.6,69.4-15.7,41.4-67.4,45-105.4,42.1h0Z"/><path class="av" d="m662.2,1188.1c-162,0-90,117-72,189,5.9-53,41.6-68.6,54.3-108,8.7-27-9.3-54,17.7-81Z"/><path class="bu" d="m662.2,1188.1c-25.7,2.3-56.3,6-77.4,21.8-12.5,9.3-19,23.6-19.6,39-.8,15.5,2.7,31.8,7,47,4.5,15.9,10,31.3,15.3,47.1,3.6,10.6,7,21.3,9.8,32.4,0,0-14.6,1-14.6,1,1.1-9.1,3.1-18.2,6.4-26.9,3.2-8.6,7.5-16.8,12.6-24.4,12.5-18.9,27.7-32.8,36.2-52.6,3.5-7.4,4.9-15.3,5.2-23.6.4-24.3-1.4-43.3,19-60.7h0Zm0,0c-17.1,20.1-12.9,36.7-11.1,60.7.4,7.9-.1,16.4-2.7,24-.2.8-.8,2.5-1.1,3.3-4.4,12.7-12.1,24.5-19.7,35.2-15.2,20.2-28,41.2-30,66.7,0,0-4.2,41.7-4.2,41.7-5.3-20.5-12.9-52.4-20-71.9-5.3-15.8-10.8-31.8-15-48.1-5.5-22.5-9.7-46.9-1.6-69.4,15.7-41.4,67.4-45,105.4-42.1h0Z"/><path class="bo" d="m1103.2,1188.1c162,0,90,117,72,189-5.9-53-41.6-68.6-54.3-108-8.7-27,9.3-54-17.7-81Z"/><path class="bu" d="m1103.2,1188.1c38-2.9,89.7.7,105.4,42.1,8.1,22.5,4,46.9-1.6,69.4-4.2,16.3-9.7,32.3-15,48.1-7.1,19.5-14.9,51.7-20,71.9,0,0-4.2-41.7-4.2-41.7-2.1-25.6-14.8-46.5-30-66.7-7.6-10.7-15.4-22.4-19.7-35.2-.3-.8-.8-2.4-1.1-3.3-2.6-7.6-3.1-16.1-2.7-24,1.7-24,5.9-40.6-11.1-60.7h0Zm0,0c20.4,17.5,18.6,36.5,19,60.7.3,8.3,1.7,16.1,5.2,23.6,8.5,19.8,23.7,33.7,36.2,52.6,5,7.6,9.4,15.8,12.6,24.4,3.2,8.7,5.2,17.8,6.4,26.9,0,0-14.6-1-14.6-1,2.8-11.2,6.3-21.9,9.8-32.4,5.3-15.8,10.9-31.2,15.3-47.1,4.3-15.2,7.8-31.4,7-47-.6-15.4-7-29.7-19.6-39-21-15.7-51.7-19.5-77.4-21.8h0Z"/><path class="bj" d="m1193.9,656.4c0-162,117-90,189-72-53,5.9-68.6,41.6-108,54.3-27,8.7-54-9.3-81,17.7Z"/><path class="bu" d="m1193.9,656.4c-2.9-38,.7-89.7,42.1-105.4,22.5-8.1,46.9-4,69.4,1.6,16.3,4.2,32.3,9.7,48.1,15,19.5,7.1,51.7,14.9,71.9,20,0,0-41.7,4.2-41.7,4.2-25.6,2.1-46.5,14.8-66.7,30-10.7,7.6-22.4,15.4-35.2,19.7-.8.3-2.4.8-3.3,1.1-7.6,2.6-16.1,3.1-24,2.7-24-1.7-40.6-5.9-60.7,11.1h0Zm0,0c17.5-20.4,36.5-18.7,60.7-19,8.3-.3,16.1-1.7,23.6-5.2,19.8-8.5,33.7-23.7,52.6-36.2,7.6-5,15.8-9.4,24.4-12.6,8.7-3.2,17.8-5.2,26.9-6.4l-1,14.6c-11.2-2.8-21.9-6.3-32.4-9.8-15.8-5.3-31.2-10.9-47.1-15.3-15.2-4.3-31.4-7.8-47-7-15.4.6-29.7,7-39,19.6-15.7,21-19.5,51.7-21.8,77.4h0Z"/><path class="br" d="m1193.9,1097.4c0,162,117,90,189,72-53-5.9-68.6-41.6-108-54.3-27-8.7-54,9.3-81-17.7Z"/><path class="bu" d="m1193.9,1097.4c2.3,25.7,6,56.3,21.8,77.4,9.3,12.5,23.6,19,39,19.6,15.5.8,31.8-2.7,47-7,15.9-4.5,31.3-10,47.1-15.3,10.6-3.6,21.3-7,32.4-9.8,0,0,1,14.6,1,14.6-9.1-1.1-18.2-3.1-26.9-6.4-8.6-3.2-16.8-7.5-24.4-12.6-18.9-12.5-32.8-27.7-52.6-36.2-7.4-3.5-15.3-4.9-23.6-5.2-24.3-.4-43.3,1.4-60.7-19h0Zm0,0c20.1,17.1,36.7,12.9,60.7,11.1,7.9-.4,16.4.1,24,2.7.8.2,2.5.8,3.3,1.1,12.7,4.4,24.5,12.1,35.2,19.7,20.2,15.2,41.2,28,66.7,30,0,0,41.7,4.2,41.7,4.2-20.5,5.3-52.4,12.9-71.9,20-15.8,5.3-31.8,10.8-48.1,15-22.5,5.5-46.9,9.7-69.4,1.6-41.4-15.7-45-67.4-42.1-105.4h0Z"/><path class="bf" d="m571.5,656.4c0-162-117-90-189-72,53,5.9,68.6,41.6,108,54.3,27,8.7,54-9.3,81,17.7Z"/><path class="bu" d="m571.5,656.4c-2.3-25.7-6-56.3-21.8-77.4-9.3-12.5-23.6-19-39-19.6-15.5-.8-31.8,2.7-47,7-15.9,4.5-31.3,10-47.1,15.3-10.6,3.6-21.3,7-32.4,9.8,0,0-1-14.6-1-14.6,9.1,1.1,18.2,3.1,26.9,6.4,8.6,3.2,16.8,7.5,24.4,12.6,18.9,12.5,32.8,27.7,52.6,36.2,7.4,3.5,15.3,4.9,23.6,5.2,24.3.4,43.3-1.4,60.7,19h0Zm0,0c-20.1-17.1-36.7-12.9-60.7-11.1-7.9.4-16.4-.1-24-2.7-.8-.2-2.5-.8-3.3-1.1-12.7-4.4-24.5-12.1-35.2-19.7-20.2-15.2-41.2-28-66.7-30,0,0-41.7-4.2-41.7-4.2,20.5-5.3,52.4-12.9,71.9-20,15.8-5.3,31.8-10.8,48.1-15,22.5-5.5,46.9-9.7,69.4-1.6,41.4,15.7,45,67.4,42.1,105.4h0Z"/><path class="bk" d="m571.5,1097.4c0,162-117,90-189,72,53-5.9,68.6-41.6,108-54.3,27-8.7,54,9.3,81-17.7Z"/><path class="bu" d="m571.5,1097.4c2.9,38-.7,89.7-42.1,105.4-22.5,8.1-46.9,4-69.4-1.6-16.3-4.2-32.3-9.7-48.1-15-19.5-7.1-51.7-14.9-71.9-20,0,0,41.7-4.2,41.7-4.2,25.6-2.1,46.5-14.8,66.7-30,10.7-7.6,22.4-15.4,35.2-19.7.8-.3,2.4-.8,3.3-1.1,7.6-2.6,16.1-3.1,24-2.7,24,1.7,40.6,5.9,60.7-11.1h0Zm0,0c-17.5,20.4-36.5,18.7-60.7,19-8.3.3-16.1,1.7-23.6,5.2-19.8,8.5-33.7,23.7-52.6,36.2-7.6,5-15.8,9.4-24.4,12.6-8.7,3.2-17.8,5.2-26.9,6.4,0,0,1-14.6,1-14.6,11.2,2.8,21.9,6.3,32.4,9.8,15.8,5.3,31.2,10.9,47.1,15.3,15.2,4.3,31.4,7.8,47,7,15.4-.6,29.7-7,39-19.6,15.7-21,19.5-51.7,21.8-77.4h0Z"/><circle class="au" cx="1053.7" cy="534.2" r="22.5"/><circle class="au" cx="711.7" cy="534.2" r="22.5"/><circle class="au" cx="1053.7" cy="1218.2" r="22.5"/><circle class="au" cx="711.7" cy="1218.2" r="22.5"/><circle class="au" cx="1224.7" cy="1047.2" r="22.5"/><circle class="au" cx="1224.7" cy="705.2" r="22.5"/><circle class="au" cx="540.7" cy="1047.2" r="22.5"/><circle class="au" cx="540.7" cy="705.2" r="22.5"/></g></svg>